<svg xmlns="http://www.w3.org/2000/svg" viewBox="0 0 454.28 191.78"><defs><style>.cls-1,.cls-4,.cls-5{fill:#808285;}.cls-2,.cls-3{fill:none;stroke:#808285;}.cls-2,.cls-3,.cls-5{stroke-miterlimit:10;}.cls-2{stroke-width:1.03px;}.cls-3{stroke-width:0.53px;}.cls-4{font-size:7px;font-family:GothamNarrow-Book, Gotham Narrow;}.cls-5{stroke:#fff;}.cls-6{fill:#0093c9;}.cls-7,.cls-8{fill:#fff;}.cls-8{font-size:10px;font-family:GothamNarrow-Medium, Gotham Narrow;}.cls-9{letter-spacing:0em;}.cls-10{letter-spacing:0em;}</style></defs><title>first-line-chart-3</title><g id="Layer_2" data-name="Layer 2"><g id="Layer_1-2" data-name="Layer 1"><path class="cls-1" d="M27.82,172.22l1.58-1.76c.59-.63.81-1,.81-1.44a.84.84,0,0,0-.88-.87,1.33,1.33,0,0,0-1.1.7l-.36-.31a1.71,1.71,0,0,1,1.51-.87A1.3,1.3,0,0,1,30.77,169v0c0,.63-.3,1-1,1.76l-1.23,1.39H30.8v.49h-3Z"/><path class="cls-1" d="M31.48,172.1l.32-.39a1.67,1.67,0,0,0,1.13.52,1,1,0,0,0,1.06-1.1v0a1,1,0,0,0-1.06-1,1.75,1.75,0,0,0-.85.22l-.34-.23.13-2.35h2.45v.49h-2l-.1,1.56a1.89,1.89,0,0,1,.79-.17,1.41,1.41,0,0,1,1.51,1.48v0a1.54,1.54,0,0,1-1.6,1.6A2.09,2.09,0,0,1,31.48,172.1Z"/><path class="cls-1" d="M132.14,172l.34-.36a1.46,1.46,0,0,0,1.16.55,1,1,0,0,0,1-1v0c0-.63-.54-1-1.3-1h-.18l-.08-.33,1.36-1.73h-2.08v-.48h2.75v.39l-1.37,1.73c.76.08,1.44.49,1.44,1.35v0a1.46,1.46,0,0,1-1.53,1.49A1.91,1.91,0,0,1,132.14,172Z"/><path class="cls-1" d="M135.82,172.1l.32-.39a1.67,1.67,0,0,0,1.13.52,1,1,0,0,0,1.06-1.1v0a1,1,0,0,0-1.06-1,1.75,1.75,0,0,0-.85.22l-.34-.23.13-2.35h2.45v.49h-2l-.1,1.56a1.89,1.89,0,0,1,.79-.17,1.41,1.41,0,0,1,1.51,1.48v0a1.54,1.54,0,0,1-1.6,1.6A2.09,2.09,0,0,1,135.82,172.1Z"/><path class="cls-1" d="M238.63,171.49h-2.25l-.1-.38,2.38-3.42h.46v3.36h.65v.44h-.65v1.13h-.5Zm0-.44v-2.54l-1.75,2.54Z"/><path class="cls-1" d="M240.37,172.1l.31-.39a1.67,1.67,0,0,0,1.13.52,1,1,0,0,0,1.06-1.1v0a1,1,0,0,0-1.06-1,1.75,1.75,0,0,0-.85.22l-.34-.23.13-2.35h2.45v.49h-2l-.1,1.56a1.89,1.89,0,0,1,.79-.17,1.41,1.41,0,0,1,1.51,1.48v0a1.54,1.54,0,0,1-1.6,1.6A2.09,2.09,0,0,1,240.37,172.1Z"/><path class="cls-1" d="M343.09,172.1l.31-.39a1.67,1.67,0,0,0,1.13.52,1,1,0,0,0,1.06-1.1v0a1,1,0,0,0-1.06-1,1.75,1.75,0,0,0-.85.22l-.34-.23.13-2.35h2.45v.49h-2l-.1,1.56a1.89,1.89,0,0,1,.79-.17,1.41,1.41,0,0,1,1.51,1.48v0a1.54,1.54,0,0,1-1.6,1.6A2.09,2.09,0,0,1,343.09,172.1Z"/><path class="cls-1" d="M346.78,172.1l.31-.39a1.67,1.67,0,0,0,1.13.52,1,1,0,0,0,1.06-1.1v0a1,1,0,0,0-1.06-1,1.75,1.75,0,0,0-.85.22l-.34-.23.13-2.35h2.45v.49h-2l-.1,1.56a1.89,1.89,0,0,1,.79-.17,1.41,1.41,0,0,1,1.51,1.48v0a1.54,1.54,0,0,1-1.6,1.6A2.09,2.09,0,0,1,346.78,172.1Z"/><path class="cls-1" d="M448,172.29a2.49,2.49,0,0,1-.57-1.91v-.06c0-1.62.69-2.67,1.81-2.67a1.82,1.82,0,0,1,1.18.44l-.28.42a1.39,1.39,0,0,0-.92-.38c-.81,0-1.26.9-1.27,2.09a1.36,1.36,0,0,1,1.19-.67,1.43,1.43,0,0,1,1.48,1.5h0a1.55,1.55,0,0,1-1.55,1.63A1.49,1.49,0,0,1,448,172.29Zm2.09-1.19h0a1,1,0,0,0-1-1.06,1,1,0,0,0-1,1.07h0a1.05,1.05,0,0,0,1.05,1.13A1,1,0,0,0,450,171.09Z"/><path class="cls-1" d="M451.24,172.1l.31-.39a1.67,1.67,0,0,0,1.13.52,1,1,0,0,0,1.06-1.1v0a1,1,0,0,0-1.06-1,1.75,1.75,0,0,0-.85.22l-.34-.23.13-2.35h2.45v.49h-2l-.1,1.56a1.89,1.89,0,0,1,.79-.17,1.41,1.41,0,0,1,1.51,1.48v0a1.54,1.54,0,0,1-1.6,1.6A2.09,2.09,0,0,1,451.24,172.1Z"/><line class="cls-2" x1="31.2" y1="163.01" x2="448.58" y2="163.01"/><line class="cls-3" x1="31.2" y1="163.01" x2="31.2" y2="160.72"/><line class="cls-3" x1="83.37" y1="163.01" x2="83.37" y2="160.72"/><line class="cls-3" x1="135.54" y1="163.01" x2="135.54" y2="160.72"/><line class="cls-3" x1="187.72" y1="163.01" x2="187.72" y2="160.72"/><line class="cls-3" x1="239.89" y1="163.01" x2="239.89" y2="160.72"/><line class="cls-3" x1="292.06" y1="163.01" x2="292.06" y2="160.72"/><line class="cls-3" x1="344.24" y1="163.01" x2="344.24" y2="160.72"/><line class="cls-3" x1="396.41" y1="163.01" x2="396.41" y2="160.72"/><line class="cls-3" x1="448.58" y1="163.01" x2="448.58" y2="160.72"/><text class="cls-4" transform="translate(79.39 172.63)">30</text><text class="cls-4" transform="translate(183.1 172.63)">40</text><text class="cls-4" transform="translate(291.43 172.63)">50</text><text class="cls-4" transform="translate(394.53 172.63)">60</text><rect class="cls-5" x="31.2" y="80.55" width="208.69" height="62.19"/><rect class="cls-6" x="31.2" y="9.05" width="344.34" height="62.19"/><line class="cls-2" x1="31.2" y1="163.01" x2="31.2"/><path class="cls-1" d="M1.51,127.53v2.21H.22v-5.8h1.3v2.21h7.1v1.39Z"/><path class="cls-1" d="M2.25,123.45v-1.36H3.5a1.89,1.89,0,0,1-1.34-1.91H3.63v.06c0,1.1.72,1.85,2.17,1.85H8.61v1.36Z"/><path class="cls-1" d="M5.5,119.62h-.1c-1.91,0-3.27-1.15-3.27-2.71,0-1.73,1.44-2.64,3.35-2.64h.47v4a1.63,1.63,0,0,0,1.64-1.61,2,2,0,0,0-.67-1.46l.84-.71a2.95,2.95,0,0,1-2.25,5.13Zm-.49-4c-1,.07-1.74.53-1.74,1.32s.66,1.27,1.74,1.37Z"/><path class="cls-1" d="M6.79,113.4H6.73c-1.37,0-2-.91-2-2.25a4.33,4.33,0,0,1,.25-1.46H4.68a1.2,1.2,0,0,0-1.3,1.37,3.61,3.61,0,0,0,.38,1.54L2.69,113a4.52,4.52,0,0,1-.5-2.1A2.53,2.53,0,0,1,2.83,109a2.51,2.51,0,0,1,1.83-.64H8.61v1.33H7.83a2,2,0,0,1,.9,1.76A1.86,1.86,0,0,1,6.79,113.4Zm-.31-3.73H5.84a3.06,3.06,0,0,0-.23,1.18c0,.78.4,1.24,1.07,1.24h0a1,1,0,0,0,1-1A1.27,1.27,0,0,0,6.48,109.67Z"/><path class="cls-1" d="M7.08,106.69H3.42v.7H2.25v-.7H.54v-1.36H2.25v-1.43H3.42v1.43H6.8a.61.61,0,0,0,.7-.68,1.53,1.53,0,0,0-.18-.73H8.43a2.31,2.31,0,0,1,.28,1.13A1.45,1.45,0,0,1,7.08,106.69Z"/><path class="cls-1" d="M2.25,102.69v-1.36h.92a2,2,0,0,1-1-1.7,1.74,1.74,0,0,1,1-1.64,2.25,2.25,0,0,1-1-1.86c0-1.17.78-1.94,2.22-1.94H8.61v1.35H4.75c-.91,0-1.39.38-1.39,1.08s.5,1.14,1.4,1.14H8.61v1.36H4.74c-.9,0-1.38.4-1.38,1.07s.54,1.15,1.42,1.15H8.61v1.36Z"/><path class="cls-1" d="M5.5,93h-.1c-1.91,0-3.27-1.15-3.27-2.71,0-1.73,1.44-2.64,3.35-2.64h.47v4A1.63,1.63,0,0,0,7.59,90a2,2,0,0,0-.67-1.46l.84-.71A2.95,2.95,0,0,1,5.5,93Zm-.49-4c-1,.07-1.74.53-1.74,1.32S3.93,91.53,5,91.62Z"/><path class="cls-1" d="M2.25,86.39V85h.94A2,2,0,0,1,2.13,83.3c0-1.22.86-2,2.22-2H8.61V82.7H4.74c-.89,0-1.38.42-1.38,1.14S3.89,85,4.76,85H8.61v1.36Z"/><path class="cls-1" d="M7.08,79.62H3.42v.7H2.25v-.7H.54V78.27H2.25V76.84H3.42v1.43H6.8a.61.61,0,0,0,.7-.68,1.53,1.53,0,0,0-.18-.73H8.43A2.31,2.31,0,0,1,8.71,78,1.45,1.45,0,0,1,7.08,79.62Z"/><path class="cls-1" d="M2.25,72.52V71.16H3.5a1.89,1.89,0,0,1-1.34-1.91H3.63v.06c0,1.1.72,1.85,2.17,1.85H8.61v1.36Z"/><path class="cls-1" d="M5.5,68.69h-.1c-1.91,0-3.27-1.15-3.27-2.71,0-1.73,1.44-2.64,3.35-2.64h.47v4a1.63,1.63,0,0,0,1.64-1.61,2,2,0,0,0-.67-1.46l.84-.71A2.95,2.95,0,0,1,5.5,68.69Zm-.49-4c-1,.07-1.74.53-1.74,1.32S3.93,67.25,5,67.35Z"/><path class="cls-1" d="M9.85,62.12l-1.07-.44a3.71,3.71,0,0,0,.54-1.91A1.52,1.52,0,0,0,7.64,58H7A2.25,2.25,0,0,1,8.14,60c0,1.27-1,2.42-3,2.42h0c-2,0-3-1.16-3-2.42A2.26,2.26,0,0,1,3.2,58H2.25V56.69H7.58a2.86,2.86,0,0,1,2.11.72,3.09,3.09,0,0,1,.76,2.29A5,5,0,0,1,9.85,62.12ZM5.16,58h0a1.63,1.63,0,0,0-1.81,1.52C3.32,60.38,4,61,5.13,61h0C6.27,61,7,60.36,7,59.55A1.64,1.64,0,0,0,5.16,58Z"/><path class="cls-1" d="M0,55.13V53.69H1.33v1.44Zm2.25,0V53.73H8.61v1.35Z"/><path class="cls-1" d="M2.25,52.12V50.76h.92a2,2,0,0,1-1-1.7,1.74,1.74,0,0,1,1-1.64,2.25,2.25,0,0,1-1-1.86c0-1.17.78-1.94,2.22-1.94H8.61V45H4.75c-.91,0-1.39.38-1.39,1.08s.5,1.14,1.4,1.14H8.61v1.36H4.74c-.9,0-1.38.4-1.38,1.07s.54,1.15,1.42,1.15H8.61v1.36Z"/><path class="cls-1" d="M5.5,42.4h-.1c-1.91,0-3.27-1.15-3.27-2.71,0-1.73,1.44-2.64,3.35-2.64h.47v4a1.63,1.63,0,0,0,1.64-1.61A2,2,0,0,0,6.92,38l.84-.71A2.95,2.95,0,0,1,5.5,42.4Zm-.49-4c-1,.07-1.74.53-1.74,1.32S3.93,41,5,41.06Z"/><path class="cls-1" d="M2.25,35.82V34.47h.94a2,2,0,0,1-1.06-1.74c0-1.22.86-2,2.22-2H8.61v1.36H4.74c-.89,0-1.38.42-1.38,1.14s.53,1.2,1.4,1.2H8.61v1.36Z"/><path class="cls-1" d="M221.38,186v-.12c0-2.49,1.54-4.28,3.73-4.28s3.71,1.78,3.71,4.26V186c0,2.49-1.54,4.28-3.73,4.28S221.38,188.48,221.38,186Zm6,0v-.08c0-1.8-1-3-2.29-3s-2.27,1.19-2.27,3V186c0,1.8,1,3,2.29,3S227.38,187.79,227.38,186Z"/><path class="cls-1" d="M230.33,181.73h3a3.11,3.11,0,0,1,2.24.79,2.54,2.54,0,0,1,.7,1.85v0a2.46,2.46,0,0,1-1.74,2.46l2,3.25h-1.61l-1.79-3h-1.43v3h-1.39Zm2.89,4.19c1.08,0,1.68-.58,1.68-1.45v0c0-.95-.61-1.44-1.66-1.44h-1.52v2.91Z"/><path class="cls-1" d="M237.82,181.73h3a3.11,3.11,0,0,1,2.24.79,2.54,2.54,0,0,1,.7,1.85v0a2.46,2.46,0,0,1-1.74,2.46l2,3.25h-1.61l-1.79-3h-1.43v3h-1.39Zm2.89,4.19c1.08,0,1.68-.58,1.68-1.45v0c0-.95-.61-1.44-1.66-1.44h-1.52v2.91Z"/><path class="cls-1" d="M248.17,186.67a5.4,5.4,0,0,1,3.06-5.11l.54.89a5.08,5.08,0,0,0,0,8.44l-.54.89A5.38,5.38,0,0,1,248.17,186.67Z"/><path class="cls-1" d="M252.69,183.84v-.08a1.81,1.81,0,1,1,3.56,0v.08a1.81,1.81,0,1,1-3.56,0Zm6.26-2.11H260l-2.93,4.44-2.54,4h-1.06l2.93-4.43Zm-5.26,2v.06c0,.74.34,1.25.79,1.25s.78-.52.78-1.24v0c0-.74-.32-1.25-.79-1.25S253.69,183,253.69,183.76Zm3.56,4.35V188a1.81,1.81,0,1,1,3.56,0v.08a1.81,1.81,0,1,1-3.56,0Zm2.57,0V188c0-.73-.32-1.25-.79-1.25s-.78.52-.78,1.24v0c0,.74.34,1.25.79,1.25S259.81,188.82,259.81,188.1Z"/><path class="cls-1" d="M261.75,190.89a5.09,5.09,0,0,0,0-8.44l.54-.89a5.8,5.8,0,0,1,0,10.22Z"/><path class="cls-7" d="M60.07,116.14H44.75l-.92-5.34L60.58,87.63H67V110h4.33v6.16H67v7.33h-7Zm0-6.16V98.48L51.93,110Z"/><path class="cls-7" d="M74.88,119.55l4.12-5.5c2.29,2,4.43,3.21,7.13,3.21,3.31,0,5.45-2,5.45-5.24V112c0-3.16-2.44-5-5.75-5A12.12,12.12,0,0,0,80.94,108l-4.12-2.7,1-17.51h19.5v6.62H83.94l-.41,6.46a14.47,14.47,0,0,1,4-.51c6.06,0,11.3,3.26,11.3,11.25v.15c0,7.58-5.14,12.27-12.52,12.27A16.21,16.21,0,0,1,74.88,119.55Z"/><path class="cls-7" d="M102.46,105.88v-.27c0-3.44,2.09-6,5.2-6s5.13,2.57,5.13,6v.27c0,3.41-2.09,6-5.2,6S102.46,109.29,102.46,105.88Zm17.69-6h3.55l-8.37,12.56-7.06,11.08h-3.51l8.37-12.56Zm-14.39,5.77v.17c0,1.86.74,3.07,1.89,3.07s1.82-1.22,1.82-3v-.17c0-1.86-.74-3.07-1.89-3.07S105.77,103.78,105.77,105.61Zm9.86,12.16v-.27c0-3.44,2.09-6,5.2-6S126,114,126,117.43v.27c0,3.44-2.06,6-5.2,6S115.63,121.17,115.63,117.76Zm7-.07v-.17c0-1.86-.74-3.07-1.89-3.07s-1.82,1.21-1.82,3v.17c0,1.86.74,3.07,1.89,3.07S122.66,119.52,122.66,117.7Z"/><path class="cls-7" d="M41.94,48l4.12-5.5c2.29,2,4.43,3.21,7.13,3.21,3.31,0,5.45-2,5.45-5.24V40.4c0-3.16-2.44-5-5.75-5A12.11,12.11,0,0,0,48,36.48l-4.12-2.7,1-17.51h19.5v6.62H51l-.41,6.46a14.49,14.49,0,0,1,4-.51c6.06,0,11.3,3.26,11.3,11.25v.15c0,7.58-5.14,12.27-12.52,12.27A16.21,16.21,0,0,1,41.94,48Z"/><path class="cls-7" d="M70.09,42.18V42a8.79,8.79,0,0,1,5.34-8.6,8.72,8.72,0,0,1-4.28-7.79v-.2c0-5.5,4.58-9.67,11.4-9.67S94,19.88,94,25.43v.2a8.76,8.76,0,0,1-4.33,7.79C92.79,35.15,95,37.49,95,41.87v.2c0,6.46-5.29,10.33-12.42,10.33S70.09,48.44,70.09,42.18Zm17.77-.61v-.1c0-3-2.29-4.73-5.29-4.73s-5.29,1.78-5.29,4.73v.1c0,2.85,2.09,4.78,5.29,4.78S87.86,44.47,87.86,41.57ZM87,26.19v-.05a4.45,4.45,0,0,0-8.91,0v.05a4.46,4.46,0,1,0,8.91,0Z"/><path class="cls-7" d="M98.18,34.31V34c0-3.44,2.09-6,5.2-6s5.13,2.57,5.13,6v.27c0,3.41-2.09,6-5.2,6S98.18,37.72,98.18,34.31Zm17.69-6h3.55L111,40.82,104,51.9h-3.51l8.37-12.56ZM101.49,34v.17c0,1.86.74,3.07,1.89,3.07s1.82-1.22,1.82-3v-.17c0-1.86-.74-3.07-1.89-3.07S101.49,32.21,101.49,34Zm9.86,12.16v-.27c0-3.44,2.09-6,5.2-6s5.13,2.53,5.13,5.94v.27c0,3.44-2.06,6-5.2,6S111.35,49.6,111.35,46.19Zm7-.07V46c0-1.86-.74-3.07-1.89-3.07s-1.82,1.21-1.82,3v.17c0,1.86.74,3.07,1.89,3.07S118.37,47.95,118.37,46.13Z"/><path class="cls-7" d="M138.73,22.27h1.15l2.89,8.35,2.9-8.35h1.11l-3.53,9.88h-1Z"/><path class="cls-7" d="M147.14,28.49v-.07c0-2.23,1.3-3.78,3-3.78s2.93,1.57,2.93,3.77c0,.1,0,.29,0,.42h-4.9a2.38,2.38,0,0,0,2.26,2.51,2.57,2.57,0,0,0,1.89-.84l.57.64a3.3,3.3,0,0,1-2.51,1.09C148.6,32.23,147.14,30.8,147.14,28.49Zm4.93-.45c-.07-1.39-.73-2.52-1.92-2.52s-1.89,1-2,2.52Z"/><path class="cls-7" d="M154.33,28.5v-.1c0-2.21,1.43-3.77,3.25-3.77a3.09,3.09,0,0,1,2.3,1l-.6.76a2.36,2.36,0,0,0-1.71-.83c-1.22,0-2.2,1.15-2.2,2.84v.07c0,1.72,1,2.83,2.24,2.83a2.34,2.34,0,0,0,1.71-.84l.59.67a3,3,0,0,1-2.35,1.09C155.71,32.23,154.33,30.71,154.33,28.5Z"/><path class="cls-7" d="M161.87,30.38V25.67H161v-.9h.88V22.64h1v2.13h1.91v.9h-1.91v4.54a.93.93,0,0,0,1.05,1.05,2.16,2.16,0,0,0,.85-.2v.87a2.46,2.46,0,0,1-1.09.25A1.63,1.63,0,0,1,161.87,30.38Z"/><path class="cls-7" d="M166.2,22.08h1.12v1.19H166.2Zm.06,2.69h1v7.3h-1Z"/><path class="cls-7" d="M170.31,30.71v1.36h-1V22h1v4.22a2.72,2.72,0,0,1,2.37-1.54c1.48,0,2.91,1.29,2.91,3.71v.14c0,2.42-1.43,3.73-2.91,3.73A2.7,2.7,0,0,1,170.31,30.71Zm4.24-2.23v-.11c0-1.78-1-2.83-2.07-2.83s-2.21,1.11-2.21,2.82v.14c0,1.71,1.06,2.8,2.21,2.8S174.56,30.28,174.56,28.49Z"/><path class="cls-7" d="M177.23,22.08h1.12v1.19h-1.12Zm.06,2.69h1v7.3h-1Z"/><path class="cls-7" d="M182.72,27.62l1.81-2.84h1.09l-2.33,3.54,2.44,3.75H184.6l-1.89-3-1.89,3h-1.11l2.41-3.73-2.31-3.57h1.13Z"/><path class="cls-7" d="M186.82,24.62v-.08a2.25,2.25,0,1,1,4.48,0v.08a2.25,2.25,0,1,1-4.48,0Zm4.19,0v-.08a2,2,0,0,0-1.95-2.16,2,2,0,0,0-2,2.17v.08a2,2,0,1,0,3.91,0Zm-2.8-1.36h1a.81.81,0,0,1,.91.81.75.75,0,0,1-.53.76l.62,1h-.52l-.55-.9h-.43v.9h-.45Zm.91,1.27c.32,0,.5-.17.5-.43s-.2-.43-.5-.43h-.46v.87Z"/><path class="cls-7" d="M198.61,27.62h-2.52v-1h2.52V24.13h1v2.54h2.52v1h-2.52v2.54h-1Z"/><path class="cls-7" d="M207.69,22.27h5.92v1h-4.87v3.56h4.36v1h-4.36v4.31h-1.05Z"/><path class="cls-7" d="M214.83,27.24v-.11c0-2.89,1.74-5,4.23-5s4.2,2.12,4.2,5v.11c0,2.89-1.72,5-4.22,5S214.83,30.11,214.83,27.24Zm7.35,0v-.1c0-2.37-1.33-4-3.14-4s-3.12,1.67-3.12,4v.1c0,2.37,1.33,4,3.14,4S222.19,29.59,222.19,27.22Z"/><path class="cls-7" d="M225.28,22.27h1.05v8.84h4.55v1h-5.6Z"/><path class="cls-7" d="M232.5,22.27h5.92v1h-4.87v3.56h4.36v1h-4.36v4.31H232.5Z"/><path class="cls-7" d="M239.64,27.24v-.11c0-2.89,1.74-5,4.23-5s4.2,2.12,4.2,5v.11c0,2.89-1.72,5-4.22,5S239.64,30.11,239.64,27.24Zm7.35,0v-.1c0-2.37-1.33-4-3.14-4s-3.12,1.67-3.12,4v.1c0,2.37,1.33,4,3.14,4S247,29.59,247,27.22Z"/><path class="cls-7" d="M256.3,22.27l-3,4.76,3.17,5h-1.21l-2.6-4.23L250,32.07h-1.18l3.17-5-3-4.79h1.22l2.44,4,2.46-4Z"/><path class="cls-7" d="M139.08,44.84a6.57,6.57,0,0,1,3.5-6l.41.66a6.34,6.34,0,0,0,0,10.62l-.41.66A6.57,6.57,0,0,1,139.08,44.84Z"/><path class="cls-7" d="M143.89,41.57h1v1.19a2.36,2.36,0,0,1,2.16-1.33c1.48,0,2.38,1,2.38,2.66v4.78h-1v-4.5c0-1.3-.62-2-1.68-2a1.9,1.9,0,0,0-1.85,2.09v4.44h-1Z"/><path class="cls-7" d="M154.91,42h5.77v1h-5.77Zm0,2.93h5.77v1h-5.77Z"/><path class="cls-7" d="M165.8,48.06,169,44.53c1.18-1.26,1.63-2,1.63-2.88a1.69,1.69,0,0,0-1.77-1.75,2.65,2.65,0,0,0-2.2,1.4l-.73-.62a3.42,3.42,0,0,1,3-1.75,2.59,2.59,0,0,1,2.76,2.62v0c0,1.26-.6,2.09-2,3.53l-2.45,2.77h4.5v1h-6Z"/><path class="cls-7" d="M173.21,47.81l.63-.78a3.35,3.35,0,0,0,2.26,1,2.08,2.08,0,0,0,2.13-2.2v0a2,2,0,0,0-2.13-2,3.5,3.5,0,0,0-1.71.45l-.67-.46.25-4.69h4.9v1h-4l-.2,3.12a3.77,3.77,0,0,1,1.58-.35,2.82,2.82,0,0,1,3,3v0A3.08,3.08,0,0,1,176.08,49,4.19,4.19,0,0,1,173.21,47.81Z"/><path class="cls-7" d="M185.78,43.94a2.7,2.7,0,0,1-2.37,1.36,2.86,2.86,0,0,1-3-3v0a3.13,3.13,0,0,1,3.1-3.32,2.89,2.89,0,0,1,2.16.85c.69.69,1.13,1.76,1.13,3.81v.11c0,3.33-1.46,5.34-3.63,5.34a3.82,3.82,0,0,1-2.49-1l.55-.84a3,3,0,0,0,2,.84C184.84,48.06,185.76,46.25,185.78,43.94Zm-.15-1.75v0a2.07,2.07,0,1,0-4.12,0v0a2,2,0,0,0,2,2.18A2.08,2.08,0,0,0,185.62,42.19Z"/><path class="cls-7" d="M187.72,50.15a6.34,6.34,0,0,0,0-10.62l.41-.66a6.85,6.85,0,0,1,0,11.93Z"/><text class="cls-8" transform="translate(42.33 65.22)">(<tspan class="cls-9" x="3.92" y="0">9</tspan><tspan x="9.62" y="0">5% CI: </tspan><tspan class="cls-10" x="39.31" y="0">5</tspan><tspan x="44.7" y="0">1%–64%)</tspan></text><path class="cls-7" d="M43.79,133.6a4.5,4.5,0,0,1,2.55-4.26l.45.74a4.23,4.23,0,0,0,0,7l-.45.74A4.48,4.48,0,0,1,43.79,133.6Z"/><path class="cls-7" d="M51.23,133.37a1.88,1.88,0,0,1-1.46.65,2,2,0,0,1-2.14-2.21v0A2.29,2.29,0,0,1,50,129.37a2.18,2.18,0,0,1,1.65.64,3.57,3.57,0,0,1,.81,2.7v.07c0,2.42-1,3.81-2.71,3.81a2.91,2.91,0,0,1-1.9-.7l.58-.92a2,2,0,0,0,1.34.56C50.72,135.53,51.2,134.5,51.23,133.37Zm0-1.63h0a1.22,1.22,0,1,0-2.42,0v0A1.17,1.17,0,0,0,50,133,1.19,1.19,0,0,0,51.19,131.74Z"/><path class="cls-7" d="M53.22,135.71l.66-.86a2.2,2.2,0,0,0,1.49.67,1.18,1.18,0,0,0,1.25-1.25v0a1.17,1.17,0,0,0-1.29-1.18,2.4,2.4,0,0,0-1.06.26l-.68-.45.19-3.4h3.7v1.06H54.76l-.11,1.66a2.78,2.78,0,0,1,.93-.16,2,2,0,0,1,2.19,2.17v0a2.25,2.25,0,0,1-2.39,2.36A3.09,3.09,0,0,1,53.22,135.71Z"/><path class="cls-7" d="M58.66,131.24v-.07a1.5,1.5,0,1,1,3,0v.07a1.51,1.51,0,1,1-3,0Zm5.22-1.76h.89l-2.44,3.7-2.12,3.3h-.88l2.44-3.69Zm-4.39,1.69v0c0,.62.28,1,.66,1s.65-.43.65-1v0c0-.62-.27-1-.66-1S59.49,130.57,59.49,131.17Zm3,3.63v-.07a1.51,1.51,0,1,1,3,0v.07a1.51,1.51,0,1,1-3,0Zm2.14,0v0c0-.61-.27-1-.66-1s-.65.43-.65,1v0c0,.62.28,1,.66,1S64.6,135.39,64.6,134.79Z"/><path class="cls-7" d="M68.92,133v-.07c0-2.12,1.32-3.57,3.13-3.57a3,3,0,0,1,2.2.87l-.7.89a2.15,2.15,0,0,0-1.5-.68c-1.1,0-1.93,1-1.93,2.49v0c0,1.52.83,2.51,1.93,2.51a2.13,2.13,0,0,0,1.55-.73l.68.82a3,3,0,0,1-2.29,1C70.2,136.58,68.92,135.16,68.92,133Z"/><path class="cls-7" d="M75.41,129.48h1.16v7H75.41Z"/><path class="cls-7" d="M78,131.18h1.28v1.33H78Zm0,4h1.28v1.33H78Z"/><path class="cls-7" d="M82.84,135.63l.72-.82a2,2,0,0,0,1.51.73,1.09,1.09,0,0,0,1.15-1.11v0c0-.72-.62-1.12-1.59-1.12h-.35l-.15-.73,1.7-2H83.18v-1h4.1v.91l-1.77,2a1.94,1.94,0,0,1,1.86,1.94v0a2.14,2.14,0,0,1-2.29,2.2A2.93,2.93,0,0,1,82.84,135.63Z"/><path class="cls-7" d="M91.9,133.37a1.88,1.88,0,0,1-1.46.65,2,2,0,0,1-2.14-2.21v0a2.29,2.29,0,0,1,2.32-2.41,2.18,2.18,0,0,1,1.65.64,3.57,3.57,0,0,1,.81,2.7v.07c0,2.42-1,3.81-2.71,3.81a2.91,2.91,0,0,1-1.9-.7l.58-.92a2,2,0,0,0,1.34.56C91.39,135.53,91.87,134.5,91.9,133.37Zm0-1.63h0a1.22,1.22,0,1,0-2.42,0v0A1.17,1.17,0,0,0,90.65,133,1.19,1.19,0,0,0,91.86,131.74Z"/><path class="cls-7" d="M94,131.24v-.07a1.5,1.5,0,1,1,3,0v.07a1.51,1.51,0,1,1-3,0Zm5.22-1.76h.89l-2.44,3.7-2.12,3.3h-.88l2.44-3.69Zm-4.39,1.69v0c0,.62.28,1,.66,1s.65-.43.65-1v0c0-.62-.27-1-.66-1S94.8,130.57,94.8,131.17Zm3,3.63v-.07a1.51,1.51,0,1,1,3,0v.07a1.51,1.51,0,1,1-3,0Zm2.14,0v0c0-.61-.27-1-.66-1s-.65.43-.65,1v0c0,.62.28,1,.66,1S99.91,135.39,99.91,134.79Z"/><path class="cls-7" d="M101.66,132.88h4V134h-4Z"/><path class="cls-7" d="M106.53,135.71l.66-.86a2.2,2.2,0,0,0,1.49.67,1.18,1.18,0,0,0,1.25-1.25v0a1.17,1.17,0,0,0-1.29-1.18,2.4,2.4,0,0,0-1.06.26l-.68-.45.19-3.4h3.7v1.06h-2.72L108,132.2a2.78,2.78,0,0,1,.93-.16,2,2,0,0,1,2.19,2.17v0a2.25,2.25,0,0,1-2.39,2.36A3.09,3.09,0,0,1,106.53,135.71Z"/><path class="cls-7" d="M113.07,130.64,112,131l-.19-1,1.62-.54h.82v7h-1.15Z"/><path class="cls-7" d="M115.45,131.24v-.07a1.5,1.5,0,1,1,3,0v.07a1.51,1.51,0,1,1-3,0Zm5.22-1.76h.89l-2.44,3.7-2.12,3.3h-.88l2.44-3.69Zm-4.39,1.69v0c0,.62.28,1,.66,1s.65-.43.65-1v0c0-.62-.27-1-.66-1S116.28,130.57,116.28,131.17Zm3,3.63v-.07a1.51,1.51,0,1,1,3,0v.07a1.51,1.51,0,1,1-3,0Zm2.14,0v0c0-.61-.27-1-.66-1s-.65.43-.65,1v0c0,.62.28,1,.66,1S121.39,135.39,121.39,134.79Z"/><path class="cls-7" d="M123,137.12a4.25,4.25,0,0,0,0-7l.45-.74a4.83,4.83,0,0,1,0,8.51Z"/><path class="cls-7" d="M139.44,94.93h5.93v1h-4.87v3.56h4.36v1h-4.36v4.31h-1.05Z"/><path class="cls-7" d="M146.24,99.91v-.11c0-2.89,1.74-5,4.23-5s4.2,2.11,4.2,5v.11c0,2.89-1.72,5-4.22,5S146.24,102.78,146.24,99.91Zm7.35,0v-.1c0-2.37-1.33-4-3.14-4s-3.12,1.67-3.12,4v.1c0,2.37,1.33,4,3.14,4S153.59,102.26,153.59,99.89Z"/><path class="cls-7" d="M156.34,94.93h1.05v8.84h4.55v1h-5.6Z"/><path class="cls-7" d="M163.2,94.93h5.93v1h-4.87v3.56h4.36v1h-4.36v4.31H163.2Z"/><path class="cls-7" d="M170,99.91v-.11c0-2.89,1.74-5,4.23-5s4.2,2.11,4.2,5v.11c0,2.89-1.72,5-4.22,5S170,102.78,170,99.91Zm7.35,0v-.1c0-2.37-1.33-4-3.14-4s-3.12,1.67-3.12,4v.1c0,2.37,1.33,4,3.14,4S177.35,102.26,177.35,99.89Z"/><path class="cls-7" d="M186.31,94.93l-3,4.76,3.17,5h-1.2l-2.61-4.23L180,104.74h-1.18l3.17-5-3-4.79h1.22l2.44,4,2.47-4Z"/><path class="cls-7" d="M190.46,102.62v-.06c0-1.5,1.08-2.35,2.69-2.35a6,6,0,0,1,1.88.29v-.43a1.66,1.66,0,0,0-1.86-1.81,4,4,0,0,0-1.86.49l-.32-.83a5,5,0,0,1,2.3-.59,2.78,2.78,0,0,1,2,.73,2.71,2.71,0,0,1,.7,2v4.69h-1v-1.06a2.52,2.52,0,0,1-2.23,1.22A2.23,2.23,0,0,1,190.46,102.62Zm4.58-.42v-.91a5.15,5.15,0,0,0-1.77-.29c-1.16,0-1.81.6-1.81,1.53v0a1.46,1.46,0,0,0,1.55,1.48A1.9,1.9,0,0,0,195,102.2Z"/><path class="cls-7" d="M197.65,94.63h1v10.11h-1Z"/><path class="cls-7" d="M200,101.15v-.1c0-2.13,1.37-3.75,3.25-3.75s3.24,1.61,3.24,3.74v.08c0,2.13-1.37,3.77-3.25,3.77S200,103.28,200,101.15Zm5.46,0v-.07c0-1.64-1-2.86-2.23-2.86s-2.2,1.22-2.2,2.84v.07c0,1.64,1,2.86,2.21,2.86S205.45,102.75,205.45,101.14Z"/><path class="cls-7" d="M207.75,97.44h1v1.19a2.36,2.36,0,0,1,2.16-1.33c1.49,0,2.38,1,2.38,2.66v4.78h-1v-4.5c0-1.3-.62-2-1.68-2a1.9,1.9,0,0,0-1.85,2.09v4.44h-1Z"/><path class="cls-7" d="M214.52,101.15v-.07c0-2.23,1.3-3.78,3-3.78s2.93,1.57,2.93,3.77c0,.1,0,.29,0,.42h-4.9A2.38,2.38,0,0,0,217.8,104a2.57,2.57,0,0,0,1.89-.84l.57.64a3.3,3.3,0,0,1-2.51,1.09C216,104.89,214.52,103.46,214.52,101.15Zm4.93-.45c-.07-1.39-.73-2.52-1.92-2.52s-1.89,1-2,2.52Z"/><path class="cls-7" d="M139.08,117.51a6.57,6.57,0,0,1,3.5-6l.41.66a6.34,6.34,0,0,0,0,10.62l-.41.66A6.57,6.57,0,0,1,139.08,117.51Z"/><path class="cls-7" d="M143.54,114.24h1v1.19a2.36,2.36,0,0,1,2.16-1.33c1.48,0,2.38,1,2.38,2.66v4.78h-1V117c0-1.3-.62-2-1.68-2a1.9,1.9,0,0,0-1.85,2.09v4.44h-1Z"/><path class="cls-7" d="M153.86,114.65h5.77v1h-5.77Zm0,2.93h5.77v1h-5.77Z"/><path class="cls-7" d="M164,120.73l3.17-3.53c1.18-1.26,1.63-2,1.63-2.88a1.69,1.69,0,0,0-1.77-1.75,2.65,2.65,0,0,0-2.2,1.4l-.73-.62a3.42,3.42,0,0,1,3-1.75,2.59,2.59,0,0,1,2.76,2.62v0c0,1.26-.6,2.09-2,3.53l-2.45,2.77H170v1h-6Z"/><path class="cls-7" d="M171.11,120.47l.63-.78a3.35,3.35,0,0,0,2.26,1,2.08,2.08,0,0,0,2.13-2.2v0a2,2,0,0,0-2.13-2,3.5,3.5,0,0,0-1.71.45l-.67-.46.25-4.69h4.9v1h-4l-.2,3.12a3.77,3.77,0,0,1,1.58-.35,2.83,2.83,0,0,1,3,3v0a3.08,3.08,0,0,1-3.21,3.21A4.19,4.19,0,0,1,171.11,120.47Z"/><path class="cls-7" d="M178,120.35l.67-.73a2.93,2.93,0,0,0,2.31,1.11,1.9,1.9,0,0,0,2-2v0c0-1.26-1.08-1.91-2.6-1.91H180l-.15-.66,2.72-3.46h-4.16v-1h5.51v.79L181.19,116c1.51.17,2.87,1,2.87,2.7v0a2.92,2.92,0,0,1-3.05,3A3.82,3.82,0,0,1,178,120.35Z"/><path class="cls-7" d="M185.11,122.81a6.34,6.34,0,0,0,0-10.62l.41-.66a6.85,6.85,0,0,1,0,11.93Z"/></g></g></svg>