<svg xmlns="http://www.w3.org/2000/svg" viewBox="0 0 648.83 218.58"><defs><style>.cls-1{fill:#f7a800;}.cls-2,.cls-4{fill:none;stroke-miterlimit:10;stroke-width:1.4px;}.cls-2{stroke:#0093c9;}.cls-3{fill:#fff;}.cls-4{stroke:#808184;}.cls-5{fill:#0093c9;}.cls-6{fill:#808184;}</style></defs><title>first-line-chart-1</title><g id="Layer_2" data-name="Layer 2"><g id="Layer_1-2" data-name="Layer 1"><rect class="cls-1" width="648.83" height="218.58"/><line class="cls-2" x1="300.49" y1="108.71" x2="133.12" y2="108.71"/><line class="cls-2" x1="242.96" y1="182.9" x2="242.96" y2="15.53"/><polygon class="cls-3" points="24.18 179.54 25.21 36.96 103.06 36.96 123.67 109.49 103.06 179.54 24.18 179.54"/><polyline class="cls-2" points="513.55 67.01 537.78 49.76 584.56 49.76"/><polyline class="cls-4" points="513.55 77.13 537.78 94.38 584.56 94.38"/><polyline class="cls-2" points="383.08 97.08 409.71 78.11 461.13 78.11"/><polyline class="cls-4" points="383.08 111.65 409.71 130.61 461.13 130.61"/><path class="cls-5" d="M179.53,108a25.12,25.12,0,1,1-25.12-25.12A25.12,25.12,0,0,1,179.53,108"/><rect class="cls-6" x="406.65" y="112.48" width="107.9" height="52.62"/><path class="cls-3" d="M147.13,97.73h7.38a6.91,6.91,0,0,1,5.08,1.67A4.87,4.87,0,0,1,161,103v0a4.94,4.94,0,0,1-3.21,4.82l3.72,5.44h-5l-3.14-4.73h-1.92v4.73h-4.32Zm7.2,7.49c1.45,0,2.32-.71,2.32-1.85v0c0-1.25-.91-1.87-2.34-1.87h-2.85v3.77Z"/><path class="cls-3" d="M136.59,121.08a3.69,3.69,0,0,1,2.09-3.49l.37.61a3.47,3.47,0,0,0,0,5.77l-.37.61A3.67,3.67,0,0,1,136.59,121.08Z"/><path class="cls-3" d="M139.85,117.71h.89l2.52,3.83v-3.83h.93v5.74h-.8l-2.6-3.94v3.94h-.93Z"/><path class="cls-3" d="M147,119.19h3.54v.88H147Zm0,1.86h3.54v.88H147Z"/><path class="cls-3" d="M154,118.66l-.9.27-.16-.82,1.33-.44h.67v5.78H154Z"/><path class="cls-3" d="M155.89,124.23c.51-.1.71-.39.67-.79h-.42v-1.09h1v.92a1.2,1.2,0,0,1-1.2,1.36Z"/><path class="cls-3" d="M158.69,118.66l-.9.27-.16-.82,1.33-.44h.67v5.78h-.94Z"/><path class="cls-3" d="M160.62,121.89v0a1.46,1.46,0,0,1,.93-1.4,1.4,1.4,0,0,1-.77-1.28v0a1.8,1.8,0,0,1,3.56,0v0a1.38,1.38,0,0,1-.77,1.28,1.46,1.46,0,0,1,.94,1.38v0a2,2,0,0,1-3.9,0Zm3-.07v0a1,1,0,0,0-2,0v0a1,1,0,0,0,2,0Zm-.14-2.57v0a.88.88,0,0,0-1.75,0v0a.88.88,0,0,0,1.75,0Z"/><path class="cls-3" d="M165.06,122.75l.59-.67a1.6,1.6,0,0,0,1.24.6.89.89,0,0,0,.94-.91v0c0-.59-.51-.92-1.3-.92h-.29l-.12-.6,1.39-1.66h-2.17v-.85h3.36v.75l-1.45,1.66a1.59,1.59,0,0,1,1.52,1.59v0a1.76,1.76,0,0,1-1.88,1.8A2.4,2.4,0,0,1,165.06,122.75Z"/><path class="cls-3" d="M169.44,124a3.48,3.48,0,0,0,0-5.77l.37-.61a4,4,0,0,1,0,7Z"/><path class="cls-3" d="M148.82,89l-1,.3-.17-.9,1.46-.49h.74v6.36h-1Z"/><path class="cls-3" d="M152.09,89.5h1.15v1.2h-1.15Zm0,3.58h1.15v1.2h-1.15Z"/><path class="cls-3" d="M156.1,89l-1,.3-.17-.9,1.46-.49h.74v6.36h-1Z"/><rect class="cls-5" x="406.65" y="44.4" width="107.9" height="56.01"/><rect class="cls-5" x="537.15" y="29.48" width="99.54" height="42.61"/><path class="cls-3" d="M421.51,60.91v0A1.9,1.9,0,0,1,422.67,59a1.88,1.88,0,0,1-.92-1.68v0a2.5,2.5,0,0,1,4.93,0v0a1.89,1.89,0,0,1-.93,1.68,1.93,1.93,0,0,1,1.16,1.83v0c0,1.4-1.14,2.23-2.68,2.23S421.51,62.26,421.51,60.91Zm3.84-.13v0a1.15,1.15,0,0,0-2.29,0v0a1.15,1.15,0,0,0,2.29,0Zm-.19-3.32h0a1,1,0,0,0-1.92,0h0a1,1,0,1,0,1.92,0Z"/><path class="cls-3" d="M427.31,62.06l1-1.12a2.07,2.07,0,0,0,1.55.75,1,1,0,0,0,1.07-1v0c0-.66-.55-1-1.54-1h-.46l-.19-1,1.69-1.88h-2.67V55.31h4.63v1.27l-1.8,1.89a2.12,2.12,0,0,1,1.91,2.15v0a2.43,2.43,0,0,1-2.61,2.5A3.34,3.34,0,0,1,427.31,62.06Z"/><path class="cls-3" d="M433.12,57.28v-.09a1.78,1.78,0,0,1,1.69-2,1.76,1.76,0,0,1,1.67,1.95v.09a1.78,1.78,0,0,1-1.69,2A1.75,1.75,0,0,1,433.12,57.28Zm5.77-2H440l-2.73,4.09L435,63h-1.14l2.73-4.09Zm-4.69,1.88v.06c0,.6.24,1,.62,1s.59-.4.59-1V57.2c0-.6-.24-1-.62-1S434.19,56.6,434.19,57.19Zm3.21,4v-.09a1.77,1.77,0,0,1,1.69-2A1.75,1.75,0,0,1,440.77,61v.09a1.7,1.7,0,1,1-3.37,0Zm2.29,0v-.05c0-.61-.24-1-.62-1s-.59.4-.59,1v.06c0,.6.24,1,.62,1S439.7,61.72,439.7,61.13Z"/><path class="cls-3" d="M443.51,60.14V60a2.82,2.82,0,0,1,2.78-3,2.79,2.79,0,0,1,2.76,3v.12a2.78,2.78,0,1,1-5.54,0Zm4,0V60c0-1-.48-1.68-1.23-1.68s-1.23.72-1.23,1.67v.08c0,.95.5,1.68,1.24,1.68S447.52,61.07,447.52,60.12Z"/><path class="cls-3" d="M450.06,58.43h-.59V57.16h.59v-.4a1.78,1.78,0,0,1,.44-1.32,1.74,1.74,0,0,1,1.29-.44,3.14,3.14,0,0,1,1,.13v1.29a1.88,1.88,0,0,0-.57-.1c-.36,0-.57.19-.57.6v.23h1.14v1.28h-1.13V63h-1.56Z"/><path class="cls-3" d="M455.41,57.11H457v.81a1.86,1.86,0,0,1,1.59-.92c1.17,0,2.25,1,2.25,3v.18c0,2-1.07,3-2.25,3a1.91,1.91,0,0,1-1.59-.87v2.42h-1.56Zm3.84,3V60c0-1-.5-1.64-1.14-1.64S457,59,457,60v.11c0,1,.51,1.64,1.16,1.64S459.25,61.12,459.25,60.12Z"/><path class="cls-3" d="M461.28,61.33v-.07c0-1.3.85-1.88,2.06-1.88a3.19,3.19,0,0,1,1.23.24v-.18c0-.68-.41-1-1.11-1a3.34,3.34,0,0,0-1.35.33l-.43-1.22a4.22,4.22,0,0,1,2-.47,2.13,2.13,0,0,1,2.4,2.39V63h-1.53v-.64a1.81,1.81,0,0,1-1.53.75A1.68,1.68,0,0,1,461.28,61.33Zm3.31-.25v-.5a2.11,2.11,0,0,0-.87-.19c-.57,0-.94.29-.94.82v0a.69.69,0,0,0,.76.74A.93.93,0,0,0,464.59,61.07Z"/><path class="cls-3" d="M467.25,61.54v-3.1h-.59V57.11h.59V55.61h1.56v1.51H470v1.32h-1.17v2.78c0,.34.15.51.48.51a1.51,1.51,0,0,0,.67-.17V62.8a2.28,2.28,0,0,1-1.16.31C467.91,63.11,467.25,62.76,467.25,61.54Z"/><path class="cls-3" d="M470.75,55.07h1.63v1.42h-1.63Zm0,2h1.56V63h-1.56Z"/><path class="cls-3" d="M473.14,60.13V60a2.74,2.74,0,0,1,2.57-3c1.68,0,2.51,1.38,2.51,3.14,0,.09,0,.28,0,.51H474.7A1.26,1.26,0,0,0,476,61.83a1.72,1.72,0,0,0,1.23-.58l.8.95a2.73,2.73,0,0,1-2.1.95A2.77,2.77,0,0,1,473.14,60.13Zm3.58-.52c-.07-.81-.42-1.32-1-1.32s-.95.48-1,1.32Z"/><path class="cls-3" d="M479,57.11h1.56v.79a1.8,1.8,0,0,1,1.52-.9c1.1,0,1.74.77,1.74,2v4h-1.56V59.46c0-.69-.31-1-.84-1s-.86.35-.86,1V63H479Z"/><path class="cls-3" d="M485,61.54v-3.1h-.59V57.11H485V55.61h1.56v1.51h1.17v1.32h-1.17v2.78c0,.34.15.51.48.51a1.51,1.51,0,0,0,.67-.17V62.8a2.28,2.28,0,0,1-1.16.31C485.63,63.11,485,62.76,485,61.54Z"/><path class="cls-3" d="M488,62.31l.68-1.1a2.75,2.75,0,0,0,1.57.66c.44,0,.63-.21.63-.45v0c0-.34-.44-.48-1.08-.76-.84-.36-1.55-.78-1.55-1.78v0a1.83,1.83,0,0,1,2-1.8,3.48,3.48,0,0,1,1.95.64l-.63,1.12a2.68,2.68,0,0,0-1.34-.51c-.37,0-.57.19-.57.42v0c0,.31.44.48,1.07.77.86.41,1.56.84,1.56,1.77v0a1.83,1.83,0,0,1-2.08,1.84A3.57,3.57,0,0,1,488,62.31Z"/><path class="cls-3" d="M421.73,68.27h1.56v2.84a1.8,1.8,0,0,1,1.52-.9c1.1,0,1.74.77,1.74,2v4H425V72.66c0-.69-.31-1-.84-1s-.86.35-.86,1v3.55h-1.56Z"/><path class="cls-3" d="M427.18,74.53v-.07c0-1.3.85-1.88,2.06-1.88a3.19,3.19,0,0,1,1.23.24v-.18c0-.68-.41-1-1.11-1a3.34,3.34,0,0,0-1.35.33l-.43-1.22a4.22,4.22,0,0,1,2-.47,2.13,2.13,0,0,1,2.4,2.39v3.58h-1.53v-.64a1.81,1.81,0,0,1-1.53.75A1.68,1.68,0,0,1,427.18,74.53Zm3.31-.25v-.5a2.11,2.11,0,0,0-.87-.19c-.57,0-.94.29-.94.82v0a.69.69,0,0,0,.76.74A.93.93,0,0,0,430.49,74.27Z"/><path class="cls-3" d="M432.7,73.35v-.18c0-2,1.07-3,2.24-3a1.93,1.93,0,0,1,1.6.87V68.27h1.56v7.94h-1.56V75.4a1.86,1.86,0,0,1-1.6.92C433.78,76.32,432.7,75.36,432.7,73.35Zm3.86,0v-.11c0-1-.51-1.64-1.16-1.64s-1.14.64-1.14,1.64v.11c0,1,.5,1.64,1.14,1.64S436.56,74.32,436.56,73.32Z"/><path class="cls-3" d="M440.89,68.51h1.68l1.3,5.07,1.41-5.09h1.39l1.42,5.09,1.29-5.07H451l-2.2,7.75h-1.46l-1.41-4.9-1.41,4.9h-1.45Z"/><path class="cls-3" d="M453.23,70h-1.94V68.51h5.46V70h-1.94v6.23h-1.58Z"/><path class="cls-3" d="M462.06,73.77h-.81l-.57,2.44H459l1.88-7.7h2.21a3,3,0,0,1,2.24.72,2.19,2.19,0,0,1,.59,1.58,2.72,2.72,0,0,1-.71,1.94,2.82,2.82,0,0,1-1.41.84l1.06,2.63H463Zm.47-1.46a1.81,1.81,0,0,0,1.31-.43,1.33,1.33,0,0,0,.35-.94.82.82,0,0,0-.25-.65,1.3,1.3,0,0,0-1-.27h-.81l-.53,2.29Z"/><path class="cls-3" d="M469.6,68.45h1.62l.83,7.76h-1.71l-.13-1.73h-2.48l-1,1.73H465ZM470,73l-.12-2.52L468.67,73Z"/><path class="cls-3" d="M472.39,74.91l1.24-1.08a2.35,2.35,0,0,0,1.67,1,.72.72,0,0,0,.79-.69c0-.32-.21-.58-1-1.16s-1.46-1.3-1.46-2.16a2.36,2.36,0,0,1,.66-1.66,2.72,2.72,0,0,1,1.94-.78,3.32,3.32,0,0,1,2.53,1.14l-1.14,1.16a2,2,0,0,0-1.44-.83.69.69,0,0,0-.77.67c0,.33.18.57,1,1.14a2.76,2.76,0,0,1,1.47,2.19,2.32,2.32,0,0,1-.69,1.69,2.79,2.79,0,0,1-1.95.75A3.45,3.45,0,0,1,472.39,74.91Z"/><path class="cls-3" d="M421.73,83.51h1.56v.79a1.8,1.8,0,0,1,1.53-.9,1.56,1.56,0,0,1,1.45.86,2.1,2.1,0,0,1,1.67-.86c1,0,1.75.68,1.75,2v4h-1.55V85.86c0-.68-.3-1-.81-1s-.84.36-.84,1v3.55h-1.56V85.86c0-.68-.29-1-.8-1s-.84.36-.84,1v3.55h-1.56Z"/><path class="cls-3" d="M430.52,85.61v-.1c0-2.33,1.45-3.92,3.49-3.92a3.24,3.24,0,0,1,2.48,1l-1,1.23a2.15,2.15,0,0,0-1.57-.77c-1,0-1.79,1-1.79,2.45v0c0,1.53.79,2.46,1.81,2.46a2.17,2.17,0,0,0,1.58-.8l1,1.13a3.35,3.35,0,0,1-2.61,1.15C431.89,89.52,430.52,88,430.52,85.61Z"/><path class="cls-3" d="M437.33,81.71h2.89a2.86,2.86,0,0,1,2.09.74,2.44,2.44,0,0,1,.65,1.78v0a2.32,2.32,0,0,1-1.43,2.28l1.64,2.86h-1.83l-1.42-2.53h-1v2.53h-1.59Zm2.77,3.76a1.11,1.11,0,0,0,1.25-1.16h0c0-.77-.47-1.16-1.29-1.16h-1.14v2.32Z"/><path class="cls-3" d="M443.68,85.61v-.1c0-2.33,1.45-3.92,3.49-3.92a3.24,3.24,0,0,1,2.48,1l-1,1.23a2.15,2.15,0,0,0-1.57-.77c-1,0-1.79,1-1.79,2.45v0c0,1.53.79,2.46,1.81,2.46a2.17,2.17,0,0,0,1.58-.8l1,1.13a3.35,3.35,0,0,1-2.61,1.15C445,89.52,443.68,88,443.68,85.61Z"/><path class="cls-3" d="M452.5,86.25a4.83,4.83,0,0,1,2.85-4.7l.62,1a4.46,4.46,0,0,0,0,7.34l-.62,1A4.83,4.83,0,0,1,452.5,86.25Z"/><path class="cls-3" d="M456.68,83.51h1.56v.79a1.8,1.8,0,0,1,1.52-.9c1.1,0,1.74.77,1.74,2v4h-1.56V85.86c0-.69-.31-1-.84-1s-.86.35-.86,1v3.55h-1.56Z"/><path class="cls-3" d="M464.63,83.49h4.91V85h-4.91Zm0,2.63h4.91v1.46h-4.91Z"/><path class="cls-3" d="M472.45,88.56l.89-1.19a2.3,2.3,0,0,0,1.54.69,1.08,1.08,0,0,0,1.18-1.13h0a1.11,1.11,0,0,0-1.24-1.09,2.62,2.62,0,0,0-1.06.24l-.89-.58.22-3.78h4.21v1.43h-2.89l-.09,1.4a3.11,3.11,0,0,1,.86-.11,2.24,2.24,0,0,1,2.44,2.43v0a2.52,2.52,0,0,1-2.71,2.65A3.5,3.5,0,0,1,472.45,88.56Z"/><path class="cls-3" d="M479.52,83.29l-1.18.32-.25-1.39,1.9-.57h1.1v7.76h-1.57Z"/><path class="cls-3" d="M482.16,88.12l2.27-2.33c.81-.84,1.11-1.25,1.11-1.81a.86.86,0,0,0-.92-.91c-.54,0-.91.31-1.41.91l-1-1a3,3,0,0,1,2.56-1.4,2.2,2.2,0,0,1,2.42,2.24v0c0,1.08-.5,1.69-1.64,2.81L484.23,88h2.94v1.43h-5Z"/><path class="cls-3" d="M487.76,89.92a4.46,4.46,0,0,0,0-7.34l.62-1a5.29,5.29,0,0,1,0,9.38Z"/><rect class="cls-6" x="537.15" y="81.23" width="99.54" height="42.61"/><text></text><path class="cls-3" d="M547.22,41.28h1.57l1.48,4.82,1.48-4.82h1.53l-2.36,7h-1.34Z"/><path class="cls-3" d="M553.55,45.65v-.09a2.49,2.49,0,0,1,2.34-2.75c1.53,0,2.28,1.25,2.28,2.85,0,.08,0,.25,0,.46H555a1.14,1.14,0,0,0,1.16,1.08,1.56,1.56,0,0,0,1.12-.53l.73.86a2.47,2.47,0,0,1-1.91.86A2.52,2.52,0,0,1,553.55,45.65Zm3.25-.47c-.06-.74-.38-1.2-.91-1.2s-.86.44-.94,1.2Z"/><path class="cls-3" d="M558.64,45.67v-.12a2.52,2.52,0,0,1,2.48-2.74,2.29,2.29,0,0,1,1.75.72l-.77,1a1.27,1.27,0,0,0-1-.48c-.65,0-1.09.62-1.09,1.49v0c0,.89.41,1.51,1.12,1.51a1.28,1.28,0,0,0,1-.49l.75.94a2.28,2.28,0,0,1-1.82.82A2.49,2.49,0,0,1,558.64,45.67Z"/><path class="cls-3" d="M563.66,46.93V44.11h-.54v-1.2h.54V41.55h1.42v1.37h1.06v1.2h-1.06v2.53c0,.31.14.46.44.46a1.37,1.37,0,0,0,.61-.15v1.13a2.06,2.06,0,0,1-1,.28C564.26,48.36,563.66,48,563.66,46.93Z"/><path class="cls-3" d="M566.84,41.06h1.48v1.29h-1.48Zm0,1.86h1.42v5.36h-1.42Z"/><path class="cls-3" d="M570.66,47.58v.69h-1.42V41.06h1.42v2.6a1.69,1.69,0,0,1,1.45-.84c1.06,0,2,.87,2,2.7v.16c0,1.83-1,2.7-2,2.7A1.74,1.74,0,0,1,570.66,47.58Zm2.07-1.94v-.1c0-.91-.45-1.49-1-1.49s-1,.58-1,1.49v.1c0,.91.46,1.49,1,1.49S572.73,46.55,572.73,45.64Z"/><path class="cls-3" d="M574.87,41.06h1.48v1.29h-1.48Zm0,1.86h1.42v5.36H574.9Z"/><path class="cls-3" d="M579.28,44.48l.85-1.57h1.47L580,45.52l1.61,2.75h-1.51l-.89-1.67-.9,1.67h-1.48l1.6-2.73-1.54-2.63h1.5Z"/><path class="cls-3" d="M581.75,43v-.06a1.6,1.6,0,1,1,3.2,0v0a1.6,1.6,0,1,1-3.2,0Zm3,0v0a1.4,1.4,0,1,0-2.78,0V43a1.43,1.43,0,0,0,1.39,1.53A1.44,1.44,0,0,0,584.74,42.94Zm-2.07-1h.74c.43,0,.73.19.73.61h0a.57.57,0,0,1-.35.56l.4.68h-.53l-.34-.58h-.18v.58h-.47Zm.71.89c.18,0,.28-.09.28-.24s-.1-.25-.28-.25h-.24v.49Z"/><path class="cls-3" d="M589,45.4h-1.61V44.1H589V42.47h1.33V44.1h1.61v1.3h-1.61V47H589Z"/><path class="cls-3" d="M594.92,41.28h4.51V42.6h-3.06v1.57h2.69V45.5h-2.69v2.77h-1.45Z"/><path class="cls-3" d="M600,44.84v-.12c0-2.1,1.32-3.57,3.17-3.57s3.16,1.46,3.16,3.55v.12a3.25,3.25,0,0,1-3.17,3.57C601.26,48.39,600,46.93,600,44.84Zm4.83,0v-.07c0-1.38-.7-2.25-1.67-2.25s-1.67.86-1.67,2.24v.07c0,1.38.71,2.25,1.68,2.25S604.79,46.19,604.79,44.81Z"/><path class="cls-3" d="M607.19,41.28h1.45v5.67h2.83v1.33h-4.28Z"/><path class="cls-3" d="M612.19,41.28h4.51V42.6h-3.06v1.57h2.69V45.5h-2.69v2.77h-1.45Z"/><path class="cls-3" d="M617.23,44.84v-.12c0-2.1,1.32-3.57,3.17-3.57s3.16,1.46,3.16,3.55v.12a3.25,3.25,0,0,1-3.17,3.57C618.53,48.39,617.23,46.93,617.23,44.84Zm4.83,0v-.07c0-1.38-.7-2.25-1.67-2.25s-1.67.86-1.67,2.24v.07c0,1.38.71,2.25,1.68,2.25S622.06,46.19,622.06,44.81Z"/><path class="cls-3" d="M629.75,41.28l-2,3.42,2.08,3.58h-1.65l-1.28-2.4-1.29,2.4H624l2.07-3.56-2-3.44h1.65l1.19,2.27,1.21-2.27Z"/><path class="cls-3" d="M547.59,57.4a4.39,4.39,0,0,1,2.59-4.27l.56.93a4.05,4.05,0,0,0,0,6.67l-.56.93A4.39,4.39,0,0,1,547.59,57.4Z"/><path class="cls-3" d="M551.39,54.91h1.42v.72a1.64,1.64,0,0,1,1.38-.82c1,0,1.58.7,1.58,1.81v3.65h-1.42V57c0-.63-.28-.95-.76-.95s-.78.32-.78.95v3.23h-1.42Z"/><path class="cls-3" d="M558.62,54.89h4.46v1.33h-4.46Zm0,2.39h4.46v1.33h-4.46Z"/><path class="cls-3" d="M565.85,59.1,567.91,57c.74-.76,1-1.14,1-1.65a.78.78,0,0,0-.84-.83c-.49,0-.83.28-1.28.83l-.94-.89a2.72,2.72,0,0,1,2.33-1.27,2,2,0,0,1,2.2,2v0c0,1-.45,1.54-1.49,2.55L567.73,59h2.67v1.3h-4.55Z"/><path class="cls-3" d="M570.93,59.5l.81-1.08a2.09,2.09,0,0,0,1.4.63,1,1,0,0,0,1.07-1h0a1,1,0,0,0-1.13-1,2.38,2.38,0,0,0-1,.22l-.81-.53.2-3.44h3.83v1.3h-2.63l-.08,1.27a2.87,2.87,0,0,1,.78-.1A2,2,0,0,1,575.63,58v0a2.29,2.29,0,0,1-2.46,2.41A3.19,3.19,0,0,1,570.93,59.5Z"/><path class="cls-3" d="M579.73,57.45a2,2,0,0,1-1.28.43,2.06,2.06,0,0,1-2.17-2.25v0a2.35,2.35,0,0,1,2.41-2.45,2.2,2.2,0,0,1,1.72.67,3.55,3.55,0,0,1,.81,2.69v.06c0,2.44-1,3.82-2.79,3.82a3,3,0,0,1-2-.72l.7-1.14a2,2,0,0,0,1.3.53C579.33,59.06,579.68,58.24,579.73,57.45Zm0-1.89v0a1,1,0,0,0-1-1.12,1,1,0,0,0-1,1.11v0a1,1,0,1,0,2.06,0Z"/><path class="cls-3" d="M581.75,60.73a4.05,4.05,0,0,0,0-6.67l.56-.93a4.8,4.8,0,0,1,0,8.53Z"/><path class="cls-3" d="M547.75,93.54h4.51v1.33H549.2v1.57h2.69v1.33H549.2v2.77h-1.45Z"/><path class="cls-3" d="M552.79,97.11V97c0-2.1,1.32-3.57,3.17-3.57s3.16,1.46,3.16,3.55v.12a3.25,3.25,0,0,1-3.17,3.57C554.09,100.66,552.79,99.2,552.79,97.11Zm4.83,0V97c0-1.38-.7-2.25-1.67-2.25s-1.67.86-1.67,2.24v.07c0,1.38.71,2.25,1.68,2.25S557.62,98.46,557.62,97.08Z"/><path class="cls-3" d="M560,93.54h1.45v5.67h2.83v1.33H560Z"/><path class="cls-3" d="M565,93.54h4.51v1.33h-3.06v1.57h2.69v1.33h-2.69v2.77H565Z"/><path class="cls-3" d="M570.06,97.11V97c0-2.1,1.32-3.57,3.17-3.57s3.16,1.46,3.16,3.55v.12a3.25,3.25,0,0,1-3.17,3.57C571.36,100.66,570.06,99.2,570.06,97.11Zm4.83,0V97c0-1.38-.7-2.25-1.67-2.25s-1.67.86-1.67,2.24v.07c0,1.38.71,2.25,1.68,2.25S574.89,98.46,574.89,97.08Z"/><path class="cls-3" d="M582.58,93.54l-2,3.42,2.08,3.58H581l-1.28-2.4-1.29,2.4h-1.61L578.9,97l-2-3.44h1.65l1.19,2.27L581,93.54Z"/><path class="cls-3" d="M584.93,99V99c0-1.18.77-1.71,1.87-1.71a2.9,2.9,0,0,1,1.12.22V97.3c0-.62-.37-.94-1-.94a3,3,0,0,0-1.23.3l-.39-1.11a3.83,3.83,0,0,1,1.83-.43,1.94,1.94,0,0,1,2.18,2.17v3.25h-1.39V100a1.65,1.65,0,0,1-1.39.68A1.53,1.53,0,0,1,584.93,99Zm3-.23v-.45a1.92,1.92,0,0,0-.79-.17c-.52,0-.85.26-.85.75v0a.63.63,0,0,0,.69.67A.85.85,0,0,0,587.94,98.78Z"/><path class="cls-3" d="M590.19,93.32h1.42v7.22h-1.42Z"/><path class="cls-3" d="M592.35,97.93v-.11a2.56,2.56,0,0,1,2.53-2.74,2.53,2.53,0,0,1,2.51,2.73v.11a2.53,2.53,0,1,1-5,0Zm3.64,0v-.07c0-.87-.44-1.53-1.12-1.53s-1.12.65-1.12,1.52v.07c0,.86.45,1.53,1.13,1.53S596,98.78,596,97.91Z"/><path class="cls-3" d="M598.08,95.18h1.42v.72a1.64,1.64,0,0,1,1.38-.82c1,0,1.58.7,1.58,1.81v3.65H601V97.31c0-.63-.28-.95-.76-.95s-.78.32-.78.95v3.23h-1.42Z"/><path class="cls-3" d="M603.09,97.92v-.09a2.49,2.49,0,0,1,2.34-2.75c1.53,0,2.28,1.25,2.28,2.85,0,.08,0,.25,0,.46h-3.2a1.14,1.14,0,0,0,1.16,1.08,1.56,1.56,0,0,0,1.12-.53l.73.86a2.47,2.47,0,0,1-1.91.86A2.52,2.52,0,0,1,603.09,97.92Zm3.25-.47c-.06-.74-.38-1.2-.91-1.2s-.86.44-.94,1.2Z"/><path class="cls-3" d="M547.59,109.67a4.39,4.39,0,0,1,2.59-4.27l.56.93a4.05,4.05,0,0,0,0,6.67l-.56.93A4.39,4.39,0,0,1,547.59,109.67Z"/><path class="cls-3" d="M551.39,107.18h1.42v.72a1.64,1.64,0,0,1,1.38-.82c1,0,1.58.7,1.58,1.81v3.65h-1.42v-3.23c0-.63-.28-.95-.76-.95s-.78.32-.78.95v3.23h-1.42Z"/><path class="cls-3" d="M558.62,107.16h4.46v1.33h-4.46Zm0,2.39h4.46v1.33h-4.46Z"/><path class="cls-3" d="M565.85,111.37l2.06-2.12c.74-.76,1-1.14,1-1.65a.78.78,0,0,0-.84-.83c-.49,0-.83.28-1.28.83l-.94-.89a2.72,2.72,0,0,1,2.33-1.27,2,2,0,0,1,2.2,2v0c0,1-.45,1.54-1.49,2.55l-1.17,1.19h2.67v1.3h-4.55Z"/><path class="cls-3" d="M570.93,111.77l.81-1.08a2.09,2.09,0,0,0,1.4.63,1,1,0,0,0,1.07-1h0a1,1,0,0,0-1.13-1,2.38,2.38,0,0,0-1,.22l-.81-.53.2-3.44h3.83v1.3h-2.63l-.08,1.27a2.87,2.87,0,0,1,.78-.1,2,2,0,0,1,2.22,2.21v0a2.29,2.29,0,0,1-2.46,2.41A3.19,3.19,0,0,1,570.93,111.77Z"/><path class="cls-3" d="M576.1,111.68l.87-1a1.88,1.88,0,0,0,1.41.68.89.89,0,0,0,1-.91v0c0-.6-.5-.95-1.4-.95h-.42l-.17-.92,1.54-1.71h-2.43v-1.29h4.21v1.15L579,108.41a1.93,1.93,0,0,1,1.74,1.95v0a2.2,2.2,0,0,1-2.37,2.27A3,3,0,0,1,576.1,111.68Z"/><path class="cls-3" d="M581.32,113a4.05,4.05,0,0,0,0-6.67l.56-.93a4.8,4.8,0,0,1,0,8.53Z"/><path class="cls-3" d="M423.61,123.17l-1.18.32-.25-1.39,1.9-.57h1.1v7.76h-1.57Z"/><path class="cls-3" d="M429.53,123h-3.19v-1.44h4.92v1.19l-2.95,6.51h-1.74Z"/><path class="cls-3" d="M431.85,123.55v-.09a1.78,1.78,0,0,1,1.69-2,1.76,1.76,0,0,1,1.67,1.95v.09a1.77,1.77,0,0,1-1.69,2A1.75,1.75,0,0,1,431.85,123.55Zm5.77-2h1.15L436,125.67l-2.3,3.61H432.6l2.73-4.09Zm-4.69,1.88v.06c0,.6.24,1,.62,1s.59-.4.59-1v-.05c0-.61-.24-1-.62-1S432.93,122.87,432.93,123.46Zm3.21,4v-.09a1.77,1.77,0,0,1,1.69-2,1.75,1.75,0,0,1,1.67,1.94v.09a1.7,1.7,0,1,1-3.37,0Zm2.29,0v-.06c0-.6-.24-1-.62-1s-.59.4-.59,1v.05c0,.61.24,1,.62,1S438.43,128,438.43,127.4Z"/><path class="cls-3" d="M442.25,126.41v-.12a2.82,2.82,0,0,1,2.78-3,2.79,2.79,0,0,1,2.76,3v.12a2.78,2.78,0,1,1-5.54,0Zm4,0v-.08c0-1-.48-1.68-1.23-1.68s-1.23.71-1.23,1.67v.08c0,.95.5,1.68,1.24,1.68S446.25,127.35,446.25,126.39Z"/><path class="cls-3" d="M448.79,124.71h-.59v-1.28h.59V123a1.78,1.78,0,0,1,.44-1.32,1.74,1.74,0,0,1,1.29-.44,3.14,3.14,0,0,1,1,.13v1.29a1.88,1.88,0,0,0-.57-.1c-.36,0-.57.19-.57.6v.23h1.14v1.28h-1.13v4.58h-1.56Z"/><path class="cls-3" d="M454.15,123.39h1.56v.81a1.86,1.86,0,0,1,1.59-.92c1.17,0,2.25,1,2.25,3v.18c0,2-1.07,3-2.25,3a1.92,1.92,0,0,1-1.59-.87v2.42h-1.56Zm3.84,3v-.11c0-1-.5-1.64-1.14-1.64s-1.16.64-1.16,1.64v.11c0,1,.51,1.64,1.16,1.64S458,127.39,458,126.39Z"/><path class="cls-3" d="M460,127.6v-.07c0-1.3.85-1.88,2.06-1.88a3.2,3.2,0,0,1,1.23.24v-.18c0-.68-.41-1-1.11-1a3.34,3.34,0,0,0-1.35.33l-.43-1.22a4.23,4.23,0,0,1,2-.47,2.13,2.13,0,0,1,2.4,2.39v3.58h-1.53v-.64a1.81,1.81,0,0,1-1.53.75A1.68,1.68,0,0,1,460,127.6Zm3.31-.25v-.5a2.12,2.12,0,0,0-.87-.19c-.57,0-.94.29-.94.83v0a.69.69,0,0,0,.76.74A.93.93,0,0,0,463.32,127.35Z"/><path class="cls-3" d="M466,127.81v-3.1h-.59v-1.32H466v-1.51h1.56v1.51h1.17v1.32h-1.17v2.78c0,.34.15.51.48.51a1.52,1.52,0,0,0,.67-.17v1.24a2.28,2.28,0,0,1-1.16.31C466.65,129.38,466,129,466,127.81Z"/><path class="cls-3" d="M469.48,121.34h1.63v1.42h-1.63Zm0,2h1.56v5.9h-1.56Z"/><path class="cls-3" d="M471.88,126.4v-.1a2.74,2.74,0,0,1,2.57-3c1.68,0,2.51,1.38,2.51,3.14,0,.09,0,.27,0,.51h-3.52a1.26,1.26,0,0,0,1.28,1.19,1.72,1.72,0,0,0,1.23-.58l.8.95a2.72,2.72,0,0,1-2.1.95A2.77,2.77,0,0,1,471.88,126.4Zm3.58-.52c-.07-.81-.42-1.32-1-1.32s-.95.48-1,1.32Z"/><path class="cls-3" d="M477.71,123.39h1.56v.79a1.8,1.8,0,0,1,1.52-.9c1.1,0,1.74.77,1.74,2v4H481v-3.55c0-.69-.31-1-.84-1s-.86.35-.86,1v3.55h-1.56Z"/><path class="cls-3" d="M483.71,127.81v-3.1h-.59v-1.32h.59v-1.51h1.56v1.51h1.17v1.32h-1.17v2.78c0,.34.15.51.48.51a1.52,1.52,0,0,0,.67-.17v1.24a2.28,2.28,0,0,1-1.16.31C484.37,129.38,483.71,129,483.71,127.81Z"/><path class="cls-3" d="M486.73,128.58l.68-1.1a2.75,2.75,0,0,0,1.57.66c.44,0,.63-.21.63-.45v0c0-.34-.44-.48-1.08-.76-.84-.36-1.55-.78-1.55-1.78v0a1.83,1.83,0,0,1,2-1.8,3.48,3.48,0,0,1,1.95.64l-.63,1.12a2.68,2.68,0,0,0-1.34-.51c-.37,0-.57.19-.57.42v0c0,.31.44.48,1.07.77.86.41,1.56.84,1.56,1.77v0a1.83,1.83,0,0,1-2.08,1.84A3.57,3.57,0,0,1,486.73,128.58Z"/><path class="cls-3" d="M422.58,134.54h1.56v2.84a1.8,1.8,0,0,1,1.52-.9c1.1,0,1.74.77,1.74,2v4h-1.56v-3.55c0-.69-.31-1-.84-1s-.86.35-.86,1v3.55h-1.56Z"/><path class="cls-3" d="M428,140.8v-.07c0-1.3.85-1.88,2.06-1.88a3.2,3.2,0,0,1,1.23.24v-.18c0-.68-.41-1-1.11-1a3.34,3.34,0,0,0-1.35.33l-.43-1.22a4.23,4.23,0,0,1,2-.47,2.13,2.13,0,0,1,2.4,2.39v3.58H431.3v-.64a1.81,1.81,0,0,1-1.53.75A1.68,1.68,0,0,1,428,140.8Zm3.31-.25v-.5a2.12,2.12,0,0,0-.87-.19c-.57,0-.94.29-.94.83v0a.69.69,0,0,0,.76.74A.93.93,0,0,0,431.34,140.55Z"/><path class="cls-3" d="M433.55,139.62v-.18c0-2,1.07-3,2.24-3a1.93,1.93,0,0,1,1.6.87v-2.81H439v7.94h-1.56v-.81a1.86,1.86,0,0,1-1.6.92C434.63,142.59,433.55,141.64,433.55,139.62Zm3.86,0v-.11c0-1-.51-1.64-1.16-1.64s-1.14.64-1.14,1.64v.11c0,1,.5,1.64,1.14,1.64S437.41,140.59,437.41,139.59Z"/><path class="cls-3" d="M442.26,134.78h1.67l1.72,3.13,1.69-3.12H449v7.7h-1.56v-4.92l-1.82,3.18h0l-1.8-3.16v4.9h-1.55Z"/><path class="cls-3" d="M451.76,136.26h-1.94v-1.47h5.46v1.47h-1.94v6.23h-1.58Z"/><path class="cls-3" d="M460.6,140h-.81l-.57,2.44h-1.67l1.88-7.7h2.21a3,3,0,0,1,2.24.71,2.19,2.19,0,0,1,.59,1.58,2.71,2.71,0,0,1-.71,1.94,2.82,2.82,0,0,1-1.41.84l1.06,2.63h-1.87Zm.47-1.46a1.81,1.81,0,0,0,1.31-.43,1.32,1.32,0,0,0,.35-.93.82.82,0,0,0-.25-.65,1.29,1.29,0,0,0-1-.28h-.81l-.53,2.29Z"/><path class="cls-3" d="M468.14,134.73h1.62l.83,7.76h-1.71l-.13-1.73h-2.48l-1,1.73h-1.78Zm.44,4.55-.12-2.52-1.25,2.52Z"/><path class="cls-3" d="M470.93,141.19l1.24-1.08a2.35,2.35,0,0,0,1.67,1,.72.72,0,0,0,.79-.69c0-.32-.21-.58-1-1.16s-1.46-1.3-1.46-2.16a2.36,2.36,0,0,1,.66-1.66,2.73,2.73,0,0,1,1.94-.78,3.32,3.32,0,0,1,2.53,1.14L476.16,137a2,2,0,0,0-1.44-.83.69.69,0,0,0-.77.67c0,.33.18.57,1,1.14a2.76,2.76,0,0,1,1.47,2.19,2.32,2.32,0,0,1-.69,1.69,2.8,2.8,0,0,1-1.95.75A3.45,3.45,0,0,1,470.93,141.19Z"/><path class="cls-3" d="M422.58,149.79h1.56v.79a1.8,1.8,0,0,1,1.53-.9,1.56,1.56,0,0,1,1.45.86,2.1,2.1,0,0,1,1.67-.86c1,0,1.75.68,1.75,2v4H429v-3.55c0-.68-.3-1-.81-1s-.84.36-.84,1v3.55h-1.56v-3.55c0-.68-.29-1-.8-1s-.84.36-.84,1v3.55h-1.56Z"/><path class="cls-3" d="M431.37,151.89v-.1c0-2.33,1.45-3.92,3.49-3.92a3.23,3.23,0,0,1,2.48,1l-1,1.23a2.15,2.15,0,0,0-1.57-.77c-1,0-1.79,1-1.79,2.45v0c0,1.53.79,2.46,1.81,2.46a2.17,2.17,0,0,0,1.58-.8l1,1.13a3.35,3.35,0,0,1-2.61,1.16C432.73,155.79,431.37,154.24,431.37,151.89Z"/><path class="cls-3" d="M438.18,148h2.89a2.86,2.86,0,0,1,2.09.74,2.44,2.44,0,0,1,.65,1.78v0a2.32,2.32,0,0,1-1.43,2.28l1.64,2.86h-1.83l-1.42-2.53h-1v2.53h-1.59Zm2.77,3.76a1.11,1.11,0,0,0,1.25-1.16h0c0-.77-.47-1.16-1.29-1.16h-1.14v2.32Z"/><path class="cls-3" d="M444.53,151.89v-.1c0-2.33,1.45-3.92,3.49-3.92a3.23,3.23,0,0,1,2.48,1l-1,1.23a2.15,2.15,0,0,0-1.57-.77c-1,0-1.79,1-1.79,2.45v0c0,1.53.79,2.46,1.81,2.46a2.17,2.17,0,0,0,1.58-.8l1,1.13a3.35,3.35,0,0,1-2.61,1.16C445.89,155.79,444.53,154.24,444.53,151.89Z"/><path class="cls-3" d="M453.35,152.53a4.84,4.84,0,0,1,2.85-4.7l.62,1a4.46,4.46,0,0,0,0,7.34l-.62,1A4.83,4.83,0,0,1,453.35,152.53Z"/><path class="cls-3" d="M457.53,149.79h1.56v.79a1.8,1.8,0,0,1,1.52-.9c1.1,0,1.74.77,1.74,2v4h-1.56v-3.55c0-.69-.31-1-.84-1s-.86.35-.86,1v3.55h-1.56Z"/><path class="cls-3" d="M465.48,149.76h4.91v1.46h-4.91Zm0,2.63h4.91v1.46h-4.91Z"/><path class="cls-3" d="M474.61,149.57l-1.18.32-.25-1.39,1.9-.57h1.1v7.76h-1.57Z"/><path class="cls-3" d="M477.26,151.91v-.14c0-2.35,1.19-3.92,3-3.92s3,1.55,3,3.91v.14c0,2.35-1.19,3.92-3,3.92S477.26,154.26,477.26,151.91Zm4.38,0v-.1c0-1.62-.57-2.49-1.39-2.49s-1.36.85-1.36,2.48v.1c0,1.62.56,2.49,1.39,2.49S481.64,153.5,481.64,151.89Z"/><path class="cls-3" d="M487.28,154.1H484l-.2-1.16,3.62-5h1.4v4.83h.94v1.33h-.94v1.58h-1.51Zm0-1.33v-2.49l-1.76,2.49Z"/><path class="cls-3" d="M490.22,156.19a4.46,4.46,0,0,0,0-7.34l.62-1a5.29,5.29,0,0,1,0,9.38Z"/><path class="cls-1" d="M37.23,55.09l-3.07.73-1-3.9,5.33-1.51h3.66V68.73h-5Z"/><path class="cls-1" d="M44.48,71.13c1.74-.18,2.68-1,2.6-2.44h-2V63.62h5.12v4.13c0,3.85-2.1,5.17-5.33,5.27Z"/><path class="cls-1" d="M55.58,55.09l-3.07.73-1-3.9,5.33-1.51h3.66V68.73h-5Z"/><path class="cls-1" d="M63,63.72v-.05a4.45,4.45,0,0,1,3.09-4.37,4.39,4.39,0,0,1-2.47-4v-.05c0-2.88,2.75-5,6.83-5s6.86,2.16,6.86,5v.05a4.36,4.36,0,0,1-2.49,4c1.84.86,3.12,2.08,3.12,4.31v.05C78,66.94,74.86,69,70.5,69S63,66.89,63,63.72Zm10.08-.49v-.05c0-1.2-1.07-2-2.62-2s-2.62.81-2.62,2v.05c0,1.09.94,2.05,2.62,2.05S73.12,64.32,73.12,63.23Zm-.36-7.3v-.05a2.28,2.28,0,0,0-4.5,0v.05a2,2,0,0,0,2.23,2A2.06,2.06,0,0,0,72.76,55.92Z"/><path class="cls-1" d="M79.15,65.88l3.2-3.17a5.91,5.91,0,0,0,4.34,2.08c1.43,0,2.31-.73,2.31-1.85v-.05C89,61.72,88,61,86,61H83.91l-.7-2.62,4.16-3.77H80.42V50.54H93.55v3.59l-4.34,3.74c2.6.57,4.7,2,4.7,5.12V63c0,3.69-3,6.05-7,6.05A10,10,0,0,1,79.15,65.88Z"/><path class="cls-1" d="M33.84,78.1h2.1v1.09a2.5,2.5,0,0,1,2.14-1.24c1.56,0,3,1.28,3,4v.24c0,2.7-1.43,4-3,4A2.57,2.57,0,0,1,35.93,85v3.25h-2.1Zm5.15,4V82c0-1.34-.66-2.2-1.53-2.2s-1.55.86-1.55,2.2v.15c0,1.34.68,2.2,1.55,2.2S39,83.47,39,82.12Z"/><path class="cls-1" d="M42.07,83.75v-.09c0-1.74,1.14-2.52,2.76-2.52a4.28,4.28,0,0,1,1.65.32v-.24c0-.91-.55-1.39-1.49-1.39a4.49,4.49,0,0,0-1.81.44l-.58-1.64A5.66,5.66,0,0,1,45.3,78a2.86,2.86,0,0,1,3.22,3.2V86H46.47v-.86a2.43,2.43,0,0,1-2.05,1A2.25,2.25,0,0,1,42.07,83.75Zm4.44-.34v-.66a2.82,2.82,0,0,0-1.17-.25c-.77,0-1.25.38-1.25,1.11v0a.93.93,0,0,0,1,1A1.25,1.25,0,0,0,46.51,83.41Z"/><path class="cls-1" d="M50.45,84V79.87h-.8V78.1h.8v-2h2.1v2h1.56v1.77H52.54V83.6c0,.46.21.68.65.68a2,2,0,0,0,.9-.22v1.67a3,3,0,0,1-1.55.41C51.33,86.14,50.45,85.66,50.45,84Z"/><path class="cls-1" d="M55.51,75.35h2.18v1.9H55.51Zm0,2.74h2.1V86h-2.1Z"/><path class="cls-1" d="M59.09,82.14V82c0-2.35,1.46-4.06,3.45-4.06,2.26,0,3.36,1.84,3.36,4.21,0,.12,0,.37,0,.68H61.18a1.69,1.69,0,0,0,1.71,1.59,2.31,2.31,0,0,0,1.65-.78l1.08,1.27a3.65,3.65,0,0,1-2.82,1.27A3.72,3.72,0,0,1,59.09,82.14Zm4.8-.69c-.09-1.09-.56-1.77-1.34-1.77s-1.27.65-1.39,1.77Z"/><path class="cls-1" d="M67.28,78.1h2.1v1.06a2.42,2.42,0,0,1,2-1.21c1.48,0,2.33,1,2.33,2.67V86h-2.1V81.24c0-.93-.41-1.4-1.12-1.4s-1.15.47-1.15,1.4V86h-2.1Z"/><path class="cls-1" d="M75.69,84V79.87h-.8V78.1h.8v-2h2.1v2h1.56v1.77H77.79V83.6c0,.46.21.68.65.68a2,2,0,0,0,.9-.22v1.67a3,3,0,0,1-1.55.41C76.58,86.14,75.69,85.66,75.69,84Z"/><path class="cls-1" d="M80.12,85.06,81,83.58a3.7,3.7,0,0,0,2.11.89c.59,0,.84-.28.84-.6v0c0-.46-.59-.65-1.45-1-1.12-.49-2.08-1-2.08-2.39v0A2.45,2.45,0,0,1,83.17,78a4.67,4.67,0,0,1,2.61.86l-.84,1.5a3.59,3.59,0,0,0-1.8-.68c-.5,0-.77.25-.77.56v0c0,.41.59.65,1.43,1,1.15.55,2.1,1.12,2.1,2.38v0c0,1.64-1.21,2.46-2.79,2.46A4.79,4.79,0,0,1,80.12,85.06Z"/><rect class="cls-5" x="198.58" y="67.44" width="90.1" height="82.05"/><rect class="cls-5" x="300.53" y="67.55" width="95.05" height="82.05"/><path class="cls-1" d="M32.92,93.35h1.43l.73,3.17.83-3.19h1.21l.84,3.2.74-3.18H40.1l-1.44,5.4H37.35l-.85-3.18-.87,3.18h-1.3Z"/><path class="cls-1" d="M40.9,91.49h1.48v1.29H40.9Zm0,1.86h1.42v5.36H40.92Z"/><path class="cls-1" d="M43.76,97.37V94.55h-.54v-1.2h.54V92h1.42v1.37h1.06v1.2H45.18v2.53c0,.31.14.46.44.46a1.38,1.38,0,0,0,.61-.15v1.13a2.06,2.06,0,0,1-1,.28C44.36,98.8,43.76,98.48,43.76,97.37Z"/><path class="cls-1" d="M47.17,91.49h1.42v2.58A1.64,1.64,0,0,1,50,93.25c1,0,1.58.7,1.58,1.81v3.65H50.13V95.48c0-.63-.28-.95-.76-.95s-.78.32-.78.95v3.23H47.17Z"/><path class="cls-1" d="M54.9,93.35h1.42v.74a1.69,1.69,0,0,1,1.45-.84c1.06,0,2,.87,2,2.7v.16c0,1.83-1,2.7-2,2.7A1.74,1.74,0,0,1,56.31,98v2.2H54.9Zm3.49,2.73V96c0-.91-.45-1.49-1-1.49s-1,.58-1,1.49v.1c0,.91.46,1.49,1,1.49S58.38,97,58.38,96.08Z"/><path class="cls-1" d="M60.75,93.35h1.42v.95a1.4,1.4,0,0,1,1.45-1V94.8h-.06c-.87,0-1.39.54-1.39,1.66v2.25H60.75Z"/><path class="cls-1" d="M64.2,96.09V96a2.49,2.49,0,0,1,2.34-2.75c1.53,0,2.28,1.25,2.28,2.85,0,.08,0,.25,0,.46h-3.2a1.14,1.14,0,0,0,1.16,1.08,1.56,1.56,0,0,0,1.12-.53l.73.86a2.47,2.47,0,0,1-1.91.86A2.52,2.52,0,0,1,64.2,96.09Zm3.25-.47c-.06-.74-.38-1.2-.91-1.2s-.86.44-.94,1.2Z"/><path class="cls-1" d="M69.36,93.35h1.48l1,3.56,1-3.56h1.44l-1.8,5.4H71.16Z"/><path class="cls-1" d="M75,91.49h1.48v1.29H75Zm0,1.86h1.42v5.36H75.07Z"/><path class="cls-1" d="M77.48,96.1V96A2.56,2.56,0,0,1,80,93.25,2.53,2.53,0,0,1,82.52,96v.11a2.53,2.53,0,1,1-5,0Zm3.64,0V96c0-.87-.44-1.53-1.12-1.53s-1.12.65-1.12,1.52v.07c0,.86.45,1.53,1.13,1.53S81.12,97,81.12,96.08Z"/><path class="cls-1" d="M83.43,97V93.35h1.41v3.23c0,.63.28.95.76.95s.78-.32.78-.95V93.35H87.8v5.36H86.38V98a1.62,1.62,0,0,1-1.37.82C84,98.81,83.43,98.11,83.43,97Z"/><path class="cls-1" d="M88.54,98.07l.62-1a2.5,2.5,0,0,0,1.43.6c.4,0,.57-.19.57-.41v0c0-.31-.4-.44-1-.69-.76-.33-1.41-.71-1.41-1.62v0a1.66,1.66,0,0,1,1.84-1.64,3.16,3.16,0,0,1,1.77.58l-.57,1a2.44,2.44,0,0,0-1.22-.46c-.34,0-.52.17-.52.38v0c0,.28.4.44,1,.7.78.37,1.42.76,1.42,1.61v0a1.66,1.66,0,0,1-1.89,1.67A3.24,3.24,0,0,1,88.54,98.07Z"/><path class="cls-1" d="M93.37,91.49h1.42v7.22H93.37Z"/><path class="cls-1" d="M99.06,93.35h1.44l-1.76,5.43c-.36,1.07-.77,1.48-1.61,1.48A2.26,2.26,0,0,1,96,99.94l.39-1.06a1.23,1.23,0,0,0,.58.18.44.44,0,0,0,.46-.34l-1.82-5.37h1.48l1,3.55Z"/><path class="cls-1" d="M33.25,107.66V104h1.41v3.23c0,.63.28.95.76.95s.78-.32.78-.95V104h1.42v5.36H36.2v-.72a1.62,1.62,0,0,1-1.37.82C33.82,109.47,33.25,108.77,33.25,107.66Z"/><path class="cls-1" d="M38.77,104h1.42v.72a1.64,1.64,0,0,1,1.38-.82c1,0,1.58.7,1.58,1.81v3.65H41.72v-3.23c0-.63-.28-.95-.76-.95s-.78.32-.78.95v3.23H38.77Z"/><path class="cls-1" d="M44.46,108v-2.82h-.54V104h.54v-1.37h1.42V104h1.06v1.2H45.88v2.53c0,.31.14.46.44.46a1.38,1.38,0,0,0,.61-.15v1.13a2.06,2.06,0,0,1-1,.28C45.06,109.46,44.46,109.14,44.46,108Z"/><path class="cls-1" d="M47.88,104h1.42V105a1.4,1.4,0,0,1,1.45-1v1.54h-.06c-.87,0-1.39.54-1.39,1.66v2.25H47.88Z"/><path class="cls-1" d="M51.32,106.75v-.09a2.49,2.49,0,0,1,2.34-2.75c1.53,0,2.28,1.25,2.28,2.85,0,.08,0,.25,0,.46h-3.2a1.14,1.14,0,0,0,1.16,1.08,1.56,1.56,0,0,0,1.12-.53l.73.86a2.47,2.47,0,0,1-1.91.86A2.52,2.52,0,0,1,51.32,106.75Zm3.25-.47c-.06-.74-.38-1.2-.91-1.2s-.86.44-.94,1.2Z"/><path class="cls-1" d="M56.6,107.84v-.06c0-1.18.77-1.71,1.87-1.71a2.9,2.9,0,0,1,1.12.22v-.16c0-.62-.37-.94-1-.94a3,3,0,0,0-1.23.3L57,104.38a3.84,3.84,0,0,1,1.83-.43A1.93,1.93,0,0,1,61,106.12v3.25H59.57v-.58a1.65,1.65,0,0,1-1.39.68A1.53,1.53,0,0,1,56.6,107.84Zm3-.23v-.45a1.92,1.92,0,0,0-.79-.17c-.52,0-.85.26-.85.75v0a.63.63,0,0,0,.69.67A.85.85,0,0,0,59.6,107.61Z"/><path class="cls-1" d="M62.27,108v-2.82h-.54V104h.54v-1.37h1.42V104h1.06v1.2H63.69v2.53c0,.31.14.46.44.46a1.38,1.38,0,0,0,.61-.15v1.13a2.06,2.06,0,0,1-1,.28C62.87,109.46,62.27,109.14,62.27,108Z"/><path class="cls-1" d="M65.46,106.75v-.09a2.49,2.49,0,0,1,2.34-2.75c1.53,0,2.28,1.25,2.28,2.85,0,.08,0,.25,0,.46h-3.2A1.14,1.14,0,0,0,68,108.3a1.56,1.56,0,0,0,1.12-.53l.73.86a2.47,2.47,0,0,1-1.91.86A2.52,2.52,0,0,1,65.46,106.75Zm3.25-.47c-.06-.74-.38-1.2-.91-1.2s-.86.44-.94,1.2Z"/><path class="cls-1" d="M70.82,106.77v-.16c0-1.83,1-2.7,2-2.7a1.75,1.75,0,0,1,1.45.79v-2.55h1.42v7.22H74.31v-.74a1.69,1.69,0,0,1-1.45.84C71.8,109.47,70.82,108.6,70.82,106.77Zm3.51,0v-.1c0-.91-.46-1.49-1-1.49s-1,.58-1,1.49v.1c0,.91.45,1.49,1,1.49S74.33,107.65,74.33,106.74Z"/><path class="cls-1" d="M79.11,104h1.42v.72a1.64,1.64,0,0,1,1.39-.82,1.41,1.41,0,0,1,1.32.78,1.91,1.91,0,0,1,1.52-.78c.95,0,1.59.62,1.59,1.8v3.66H84.94v-3.23c0-.62-.27-.95-.74-.95s-.76.33-.76.95v3.23H82v-3.23c0-.62-.26-.95-.73-.95s-.76.33-.76.95v3.23H79.11Z"/><path class="cls-1" d="M87.35,105.92v-.09c0-2.12,1.32-3.56,3.17-3.56a2.94,2.94,0,0,1,2.25.93l-.87,1.12a2,2,0,0,0-1.43-.7c-.94,0-1.63.87-1.63,2.23v0c0,1.39.72,2.24,1.65,2.24a2,2,0,0,0,1.44-.73l.87,1a3,3,0,0,1-2.37,1C88.59,109.47,87.35,108.06,87.35,105.92Z"/><path class="cls-1" d="M93.79,102.37h2.63a2.6,2.6,0,0,1,1.9.67,2.22,2.22,0,0,1,.59,1.62v0a2.11,2.11,0,0,1-1.3,2.07l1.49,2.6H97.44l-1.29-2.3h-.91v2.3H93.79Zm2.52,3.42a1,1,0,0,0,1.14-1h0c0-.7-.43-1-1.17-1h-1v2.11Z"/><path class="cls-1" d="M99.81,105.92v-.09c0-2.12,1.32-3.56,3.17-3.56a2.94,2.94,0,0,1,2.25.93l-.87,1.12a2,2,0,0,0-1.43-.7c-.94,0-1.63.87-1.63,2.23v0c0,1.39.72,2.24,1.65,2.24a2,2,0,0,0,1.44-.73l.87,1a3,3,0,0,1-2.37,1C101.05,109.47,99.81,108.06,99.81,105.92Z"/><path class="cls-5" d="M33.65,124.54v-.07a1.3,1.3,0,1,1,2.6,0v.07a1.3,1.3,0,1,1-2.6,0Z"/><path class="cls-5" d="M43.1,121H47.5v1H44.24V124h2.89v1H44.24V127h3.31v1H43.1Z"/><path class="cls-5" d="M48.52,124.57v-.07c0-2.12,1.32-3.57,3.13-3.57a3,3,0,0,1,2.2.87l-.7.89a2.15,2.15,0,0,0-1.5-.68c-1.1,0-1.93,1-1.93,2.49v0c0,1.52.83,2.51,1.93,2.51a2.13,2.13,0,0,0,1.55-.73l.68.82a3,3,0,0,1-2.29,1C49.79,128.13,48.52,126.71,48.52,124.57Z"/><path class="cls-5" d="M54.69,124.59v-.1c0-2.08,1.28-3.57,3.11-3.57s3.09,1.48,3.09,3.55v.1c0,2.08-1.28,3.57-3.11,3.57S54.69,126.66,54.69,124.59Zm5,0v-.07c0-1.5-.8-2.51-1.91-2.51s-1.89,1-1.89,2.5v.07c0,1.5.81,2.51,1.91,2.51S59.68,126.08,59.68,124.57Z"/><path class="cls-5" d="M61.88,124.58v-.08a3.28,3.28,0,0,1,3.21-3.57,3.19,3.19,0,0,1,2.22.79l-.69.92a2.15,2.15,0,0,0-1.55-.63c-1.14,0-2,1-2,2.48v.06c0,1.58.86,2.52,2,2.52a2.17,2.17,0,0,0,1.24-.37v-1.54H64.9v-1h2.57v3.14a3.81,3.81,0,0,1-2.39.85C63.18,128.13,61.88,126.73,61.88,124.58Z"/><path class="cls-5" d="M71.43,121h2.24a2.26,2.26,0,0,1,2.52,2.33v0a2.35,2.35,0,0,1-2.59,2.38h-1V128H71.43Zm2.17,3.68A1.27,1.27,0,0,0,75,123.4h0a1.23,1.23,0,0,0-1.41-1.3h-1v2.62Z"/><path class="cls-5" d="M76.75,127.11l.7-.87a2.71,2.71,0,0,0,1.84.83c.67,0,1.1-.37,1.1-.89h0c0-.44-.23-.73-1.34-1.14-1.33-.5-2-1-2-2.11v0a2,2,0,0,1,2.22-2,3.25,3.25,0,0,1,2.2.82l-.66.89a2.55,2.55,0,0,0-1.57-.66c-.63,0-1,.35-1,.81h0c0,.49.26.75,1.45,1.21s1.9,1,1.9,2.06v0a2.05,2.05,0,0,1-2.27,2A3.65,3.65,0,0,1,76.75,127.11Z"/><path class="cls-5" d="M85,124.59v-.11c0-2.12,1-3.56,2.66-3.56s2.64,1.42,2.64,3.55v.11c0,2.12-1,3.56-2.66,3.56S85,126.72,85,124.59Zm4.11,0v-.08c0-1.56-.6-2.52-1.47-2.52s-1.46.94-1.46,2.5v.08c0,1.57.6,2.52,1.48,2.52S89.15,126.14,89.15,124.58Z"/><path class="cls-5" d="M91.34,124.43h4v1.08h-4Z"/><path class="cls-5" d="M96.26,127.11l2.14-2.29c.79-.82,1.08-1.25,1.08-1.82a1,1,0,0,0-1-1c-.55,0-.94.3-1.4.9l-.77-.71a2.64,2.64,0,0,1,2.27-1.26,1.94,1.94,0,0,1,2.1,2v0c0,.95-.44,1.52-1.46,2.54L97.8,127h2.89v1H96.26Z"/><path class="cls-5" d="M33.65,135.2v-.07a1.3,1.3,0,1,1,2.6,0v.07a1.3,1.3,0,1,1-2.6,0Z"/><path class="cls-5" d="M45.14,131.65h1.12l2.57,7H47.62L47,137H44.32l-.58,1.65H42.58ZM46.68,136l-1-2.81-1,2.81Z"/><path class="cls-5" d="M49.71,139.72l.37-.89a3.09,3.09,0,0,0,1.59.45,1.26,1.26,0,0,0,1.44-1.4v-.51a1.87,1.87,0,0,1-1.6.93c-1.06,0-2-.85-2-2.48v0c0-1.64,1-2.49,2-2.49a1.88,1.88,0,0,1,1.59.89v-.79h1.13v4.44a2.38,2.38,0,0,1-.6,1.76,2.58,2.58,0,0,1-1.91.63A4.16,4.16,0,0,1,49.71,139.72Zm3.41-3.91v0a1.36,1.36,0,0,0-1.27-1.51c-.69,0-1.22.57-1.22,1.51h0c0,.94.54,1.52,1.22,1.52A1.37,1.37,0,0,0,53.12,135.81Z"/><path class="cls-5" d="M55.27,136.1V136c0-1.59,1-2.73,2.26-2.73s2.2,1.2,2.2,2.79c0,.07,0,.23,0,.39H56.4a1.36,1.36,0,0,0,1.34,1.37,1.69,1.69,0,0,0,1.22-.56l.59.7a2.46,2.46,0,0,1-4.28-1.88Zm3.36-.41c-.06-.84-.44-1.45-1.1-1.45s-1.06.55-1.14,1.45Z"/><path class="cls-5" d="M60.53,136.11V136c0-1.79,1-2.69,2.06-2.69a1.83,1.83,0,0,1,1.55.9v-2.72h1.13v7.22H64.14v-.85a1.79,1.79,0,0,1-1.55.95C61.53,138.79,60.53,137.9,60.53,136.11Zm3.63,0V136c0-1-.58-1.7-1.26-1.7s-1.23.64-1.23,1.71v.08c0,1.06.55,1.71,1.23,1.71S64.16,137.13,64.16,136.09Z"/><path class="cls-5" d="M69,138.81v-.74h4.5v.74Zm4.5-4.13v.78L69,137.69v-.84l3.72-1.77v0L69,133.29v-.84Z"/><path class="cls-5" d="M78.08,132.85l-1.1.33-.19-1,1.62-.54h.82v7H78.08Z"/><path class="cls-5" d="M80.45,136.8v0a1.78,1.78,0,0,1,1.14-1.71,1.71,1.71,0,0,1-.94-1.56v0a2.2,2.2,0,0,1,4.35,0v0a1.69,1.69,0,0,1-.94,1.56,1.78,1.78,0,0,1,1.15,1.69v0a2.42,2.42,0,0,1-4.76,0Zm3.62-.08v0a1.25,1.25,0,0,0-2.49,0v0a1.25,1.25,0,0,0,2.49,0Zm-.17-3.14v0a1.07,1.07,0,0,0-2.14,0v0a1.07,1.07,0,0,0,2.14,0Z"/><path class="cls-5" d="M92,133.39h1.17l-1.8,5.38c-.36,1.07-.79,1.46-1.57,1.46a2.19,2.19,0,0,1-1.07-.28l.33-.87a1.32,1.32,0,0,0,.61.18c.3,0,.48-.13.64-.56l-1.89-5.31h1.2l1.23,3.85Z"/><path class="cls-5" d="M93.8,136.1V136c0-1.59,1-2.73,2.26-2.73s2.2,1.2,2.2,2.79c0,.07,0,.23,0,.39H94.93a1.36,1.36,0,0,0,1.34,1.37,1.69,1.69,0,0,0,1.22-.56l.59.7a2.46,2.46,0,0,1-4.28-1.88Zm3.36-.41c-.06-.84-.44-1.45-1.1-1.45s-1.06.55-1.14,1.45Z"/><path class="cls-5" d="M99,137.17v0c0-1.14.76-1.7,1.88-1.7a3.6,3.6,0,0,1,1.22.21v-.22a1,1,0,0,0-1.14-1.08,3,3,0,0,0-1.28.32l-.32-.9a3.77,3.77,0,0,1,1.75-.42,1.87,1.87,0,0,1,2.09,2.07v3.29h-1.11V138a1.69,1.69,0,0,1-1.47.75A1.55,1.55,0,0,1,99,137.17Zm3.11-.26v-.53a2.54,2.54,0,0,0-1-.19c-.65,0-1,.33-1,.89v0a.81.81,0,0,0,.86.84A1.06,1.06,0,0,0,102.09,136.91Z"/><path class="cls-5" d="M104.4,133.39h1.13v1a1.57,1.57,0,0,1,1.59-1.12v1.23h-.05c-.92,0-1.54.6-1.54,1.81v2.34H104.4Z"/><path class="cls-5" d="M107.56,138l.53-.81a2.42,2.42,0,0,0,1.46.62c.47,0,.74-.25.74-.58h0c0-.38-.41-.55-1-.82-.79-.34-1.45-.7-1.45-1.57v0a1.59,1.59,0,0,1,1.75-1.55,3,3,0,0,1,1.72.57l-.48.83a2.36,2.36,0,0,0-1.26-.47c-.42,0-.67.23-.67.52v0c0,.35.42.53,1,.81.82.37,1.44.75,1.44,1.58h0a1.62,1.62,0,0,1-1.81,1.61A3.13,3.13,0,0,1,107.56,138Z"/><path class="cls-5" d="M43.35,145.75h4v1.08h-4Z"/><path class="cls-5" d="M51.19,142.35h1.21l1.8,3.22L56,142.35H57.2v7H56.05V144.4l-1.86,3.24h0l-1.85-3.22v4.93H51.19Z"/><path class="cls-5" d="M58.36,146.76v-.08c0-1.59,1-2.73,2.26-2.73s2.2,1.2,2.2,2.79c0,.07,0,.23,0,.39H59.48a1.36,1.36,0,0,0,1.34,1.37,1.69,1.69,0,0,0,1.22-.56l.59.7a2.46,2.46,0,0,1-4.28-1.88Zm3.36-.41c-.06-.84-.44-1.45-1.1-1.45s-1.06.55-1.14,1.45Z"/><path class="cls-5" d="M63.61,146.77v-.13c0-1.79,1-2.69,2.06-2.69a1.83,1.83,0,0,1,1.55.9v-2.72h1.13v7.22H67.22v-.85a1.79,1.79,0,0,1-1.55.95C64.61,149.45,63.61,148.56,63.61,146.77Zm3.63,0v-.1c0-1-.58-1.7-1.26-1.7s-1.23.64-1.23,1.71v.08c0,1.06.55,1.71,1.23,1.71S67.24,147.79,67.24,146.75Z"/><path class="cls-5" d="M69.65,142.17h1.2v1.11h-1.2Zm0,1.88h1.13v5.3H69.69Z"/><path class="cls-5" d="M71.86,147.83v0c0-1.14.76-1.7,1.88-1.7a3.6,3.6,0,0,1,1.22.21v-.22A1,1,0,0,0,73.82,145a3,3,0,0,0-1.28.32l-.32-.9A3.77,3.77,0,0,1,74,144a1.87,1.87,0,0,1,2.09,2.07v3.29H75v-.65a1.69,1.69,0,0,1-1.47.75A1.55,1.55,0,0,1,71.86,147.83Zm3.11-.26V147a2.54,2.54,0,0,0-1-.19c-.65,0-1,.33-1,.89v0a.81.81,0,0,0,.86.84A1.06,1.06,0,0,0,75,147.57Z"/><path class="cls-5" d="M77.28,144.05h1.13v.78a1.66,1.66,0,0,1,1.45-.88c1,0,1.63.72,1.63,1.85v3.55H80.36v-3.23c0-.74-.35-1.15-.95-1.15s-1,.44-1,1.17v3.21H77.28Z"/><path class="cls-5" d="M50.22,158.49v0c0-1.14.76-1.7,1.88-1.7a3.6,3.6,0,0,1,1.22.21v-.22a1,1,0,0,0-1.14-1.08,3,3,0,0,0-1.28.32l-.32-.9a3.77,3.77,0,0,1,1.75-.42,1.87,1.87,0,0,1,2.09,2.07V160H53.31v-.65a1.69,1.69,0,0,1-1.47.75A1.55,1.55,0,0,1,50.22,158.49Zm3.11-.26v-.53a2.54,2.54,0,0,0-1-.19c-.65,0-1,.33-1,.89v0a.81.81,0,0,0,.86.84A1.06,1.06,0,0,0,53.33,158.23Z"/><path class="cls-5" d="M55.64,161l.37-.89a3.09,3.09,0,0,0,1.59.45A1.26,1.26,0,0,0,59,159.2v-.51a1.87,1.87,0,0,1-1.6.93c-1.06,0-2-.85-2-2.48v0c0-1.64,1-2.49,2-2.49a1.88,1.88,0,0,1,1.59.89v-.79h1.13v4.44a2.38,2.38,0,0,1-.6,1.76,2.58,2.58,0,0,1-1.91.63A4.16,4.16,0,0,1,55.64,161Zm3.41-3.91v0a1.36,1.36,0,0,0-1.27-1.51c-.69,0-1.22.57-1.22,1.51h0c0,.94.54,1.52,1.22,1.52A1.37,1.37,0,0,0,59.05,157.13Z"/><path class="cls-5" d="M61.2,157.42v-.08c0-1.59,1-2.73,2.26-2.73s2.2,1.2,2.2,2.79c0,.07,0,.23,0,.39H62.33a1.36,1.36,0,0,0,1.34,1.37,1.69,1.69,0,0,0,1.22-.56l.59.7a2.46,2.46,0,0,1-4.28-1.88Zm3.36-.41c-.06-.84-.44-1.45-1.1-1.45s-1.06.55-1.14,1.45Z"/><path class="cls-5" d="M68.89,154.71h1.16l.9,3.58,1-3.59h1l1,3.59.91-3.58h1.14L74.43,160h-1l-1-3.54-1,3.54h-1Z"/><path class="cls-5" d="M76.52,158.49v0c0-1.14.76-1.7,1.88-1.7a3.6,3.6,0,0,1,1.22.21v-.22a1,1,0,0,0-1.14-1.08,3,3,0,0,0-1.28.32l-.32-.9a3.77,3.77,0,0,1,1.75-.42,1.87,1.87,0,0,1,2.09,2.07V160H79.61v-.65a1.69,1.69,0,0,1-1.47.75A1.55,1.55,0,0,1,76.52,158.49Zm3.11-.26v-.53a2.54,2.54,0,0,0-1-.19c-.65,0-1,.33-1,.89v0a.81.81,0,0,0,.86.84A1.06,1.06,0,0,0,79.63,158.23Z"/><path class="cls-5" d="M81.5,159.37l.53-.81a2.42,2.42,0,0,0,1.46.62c.47,0,.74-.25.74-.58h0c0-.38-.41-.55-1-.82-.79-.34-1.45-.7-1.45-1.57v0a1.59,1.59,0,0,1,1.75-1.55,3,3,0,0,1,1.72.57l-.48.83a2.36,2.36,0,0,0-1.26-.47c-.42,0-.67.23-.67.52v0c0,.35.42.53,1,.81.82.37,1.44.75,1.44,1.58h0a1.62,1.62,0,0,1-1.81,1.61A3.13,3.13,0,0,1,81.5,159.37Z"/><path class="cls-5" d="M51.18,170.15a3.55,3.55,0,0,1-.81-2.71v-.07c0-2.36,1-3.81,2.71-3.81a2.76,2.76,0,0,1,1.79.64l-.57.92a2,2,0,0,0-1.25-.5c-1,0-1.47,1-1.5,2.22A1.91,1.91,0,0,1,53,166.2a2,2,0,0,1,2.13,2.18v0a2.28,2.28,0,0,1-2.33,2.38A2.22,2.22,0,0,1,51.18,170.15ZM54,168.46v0a1.21,1.21,0,1,0-2.42,0v0a1.2,1.2,0,0,0,1.23,1.3A1.18,1.18,0,0,0,54,168.46Z"/><path class="cls-5" d="M57.15,164.83l-1.1.33-.19-1,1.62-.54h.82v7H57.15Z"/><path class="cls-5" d="M59.72,169.34H61v1.33H59.72Z"/><path class="cls-5" d="M62,169.9l.66-.86a2.2,2.2,0,0,0,1.49.67,1.18,1.18,0,0,0,1.25-1.25v0a1.17,1.17,0,0,0-1.29-1.18,2.4,2.4,0,0,0-1.06.26l-.68-.45.19-3.4h3.7v1.06H63.51l-.11,1.66a2.77,2.77,0,0,1,.93-.16,2,2,0,0,1,2.19,2.17v0a2.25,2.25,0,0,1-2.39,2.36A3.09,3.09,0,0,1,62,169.9Z"/><path class="cls-5" d="M73.38,165.37h1.17l-1.8,5.38c-.36,1.07-.79,1.46-1.57,1.46a2.19,2.19,0,0,1-1.07-.28l.33-.87a1.32,1.32,0,0,0,.61.18c.3,0,.48-.13.64-.56l-1.89-5.31H71l1.23,3.85Z"/><path class="cls-5" d="M75.19,168.08V168c0-1.59,1-2.73,2.26-2.73s2.2,1.2,2.2,2.79c0,.07,0,.23,0,.39H76.32a1.36,1.36,0,0,0,1.34,1.37,1.69,1.69,0,0,0,1.22-.56l.59.7a2.46,2.46,0,0,1-4.28-1.88Zm3.36-.41c-.06-.84-.44-1.45-1.1-1.45s-1.06.55-1.14,1.45Z"/><path class="cls-5" d="M80.37,169.15v0c0-1.14.76-1.7,1.88-1.7a3.6,3.6,0,0,1,1.22.21v-.22a1,1,0,0,0-1.14-1.08,3,3,0,0,0-1.28.32l-.32-.9a3.77,3.77,0,0,1,1.75-.42,1.87,1.87,0,0,1,2.09,2.07v3.29H83.46V170a1.69,1.69,0,0,1-1.47.75A1.55,1.55,0,0,1,80.37,169.15Zm3.11-.26v-.53a2.54,2.54,0,0,0-1-.19c-.65,0-1,.33-1,.89v0a.81.81,0,0,0,.86.84A1.06,1.06,0,0,0,83.48,168.89Z"/><path class="cls-5" d="M85.79,165.37h1.13v1a1.57,1.57,0,0,1,1.59-1.12v1.23h0c-.92,0-1.54.6-1.54,1.81v2.34H85.79Z"/><path class="cls-5" d="M89,170l.53-.81a2.42,2.42,0,0,0,1.46.62c.47,0,.74-.25.74-.58h0c0-.38-.41-.55-1-.82-.79-.34-1.45-.7-1.45-1.57v0a1.59,1.59,0,0,1,1.75-1.55,3,3,0,0,1,1.72.57l-.48.83a2.36,2.36,0,0,0-1.26-.47c-.42,0-.67.23-.67.52v0c0,.35.42.53,1,.81.82.37,1.44.75,1.44,1.58h0a1.62,1.62,0,0,1-1.81,1.61A3.13,3.13,0,0,1,89,170Z"/><text></text><path class="cls-3" d="M208.76,85.58h2.56a2.53,2.53,0,0,1,2.82,2.64v0a2.63,2.63,0,0,1-2.88,2.7h-.9v2.34h-1.6Zm2.49,3.93a1.18,1.18,0,0,0,1.29-1.23h0A1.15,1.15,0,0,0,211.22,87h-.87v2.49Z"/><path class="cls-3" d="M214.45,91.6v-.07c0-1.3.85-1.88,2.06-1.88a3.19,3.19,0,0,1,1.23.24v-.18c0-.68-.41-1-1.11-1a3.35,3.35,0,0,0-1.35.33l-.43-1.22a4.22,4.22,0,0,1,2-.47,2.13,2.13,0,0,1,2.4,2.39v3.58h-1.53v-.64a1.81,1.81,0,0,1-1.53.75A1.68,1.68,0,0,1,214.45,91.6Zm3.31-.25v-.49a2.1,2.1,0,0,0-.87-.19c-.57,0-.94.29-.94.82v0a.69.69,0,0,0,.76.74A.93.93,0,0,0,217.76,91.34Z"/><path class="cls-3" d="M220.43,91.8V88.7h-.59V87.38h.59V85.87H222v1.51h1.17V88.7H222v2.78c0,.34.15.51.48.51a1.51,1.51,0,0,0,.67-.17v1.24a2.27,2.27,0,0,1-1.16.31C221.09,93.38,220.43,93,220.43,91.8Z"/><path class="cls-3" d="M223.92,85.34h1.63v1.42h-1.63Zm0,2h1.56v5.9H224Z"/><path class="cls-3" d="M226.32,90.4v-.1a2.74,2.74,0,0,1,2.57-3c1.68,0,2.51,1.38,2.51,3.14,0,.09,0,.28,0,.51h-3.52a1.26,1.26,0,0,0,1.28,1.19,1.72,1.72,0,0,0,1.23-.58l.8.95a2.72,2.72,0,0,1-2.1.95A2.77,2.77,0,0,1,226.32,90.4Zm3.58-.52c-.07-.81-.42-1.32-1-1.32s-.95.48-1,1.32Z"/><path class="cls-3" d="M232.15,87.38h1.56v.79a1.8,1.8,0,0,1,1.52-.9c1.1,0,1.74.77,1.74,2v4h-1.56V89.72c0-.69-.31-1-.84-1s-.86.35-.86,1v3.55h-1.56Z"/><path class="cls-3" d="M238.15,91.8V88.7h-.59V87.38h.59V85.87h1.56v1.51h1.17V88.7h-1.17v2.78c0,.34.15.51.48.51a1.51,1.51,0,0,0,.67-.17v1.24a2.27,2.27,0,0,1-1.16.31C238.81,93.38,238.15,93,238.15,91.8Z"/><path class="cls-3" d="M241.17,92.57l.68-1.1a2.76,2.76,0,0,0,1.57.66c.44,0,.63-.21.63-.45v0c0-.34-.44-.48-1.08-.76-.84-.36-1.55-.78-1.55-1.78v0a1.83,1.83,0,0,1,2-1.8,3.48,3.48,0,0,1,1.95.64l-.63,1.12a2.67,2.67,0,0,0-1.34-.51c-.37,0-.57.19-.57.42v0c0,.31.44.48,1.07.77.86.41,1.56.84,1.56,1.77v0a1.83,1.83,0,0,1-2.08,1.84A3.57,3.57,0,0,1,241.17,92.57Z"/><path class="cls-3" d="M247.95,87.38h1.57l.8,3.49.91-3.51h1.33l.92,3.52.81-3.5h1.55l-1.58,5.94h-1.44l-.94-3.5-1,3.5h-1.43Z"/><path class="cls-3" d="M256.45,85.34h1.63v1.42h-1.63Zm0,2H258v5.9h-1.56Z"/><path class="cls-3" d="M259.33,91.8V88.7h-.59V87.38h.59V85.87h1.56v1.51h1.17V88.7h-1.17v2.78c0,.34.15.51.48.51a1.51,1.51,0,0,0,.67-.17v1.24a2.27,2.27,0,0,1-1.16.31C260,93.38,259.33,93,259.33,91.8Z"/><path class="cls-3" d="M262.81,85.34h1.56v2.84a1.8,1.8,0,0,1,1.52-.9c1.1,0,1.74.77,1.74,2v4h-1.56V89.72c0-.69-.31-1-.84-1s-.86.35-.86,1v3.55h-1.56Z"/><path class="cls-3" d="M208.23,98.78h1.68l1.3,5.07,1.41-5.09H214l1.42,5.09,1.29-5.07h1.65l-2.2,7.75H214.7l-1.41-4.9-1.41,4.9h-1.45Z"/><path class="cls-3" d="M220.57,100.25h-1.94V98.78h5.46v1.47h-1.94v6.23h-1.58Z"/><path class="cls-3" d="M228.23,98.78h1.67l-.78,3.28,2.9-3.28h2.15L231,102l1.46,4.44h-1.82l-.92-3.23-1.2,1.21-.48,2h-1.67Z"/><path class="cls-3" d="M236,104h-.81l-.57,2.44H232.9l1.88-7.7H237a3,3,0,0,1,2.24.72,2.19,2.19,0,0,1,.59,1.58,2.72,2.72,0,0,1-.71,1.94,2.82,2.82,0,0,1-1.41.84l1.06,2.63h-1.87Zm.47-1.46a1.81,1.81,0,0,0,1.31-.43,1.32,1.32,0,0,0,.35-.94.81.81,0,0,0-.25-.65,1.3,1.3,0,0,0-1-.27h-.81l-.53,2.29Z"/><path class="cls-3" d="M243.5,98.72h1.62l.82,7.76h-1.71l-.13-1.73h-2.48l-1,1.73H238.9Zm.44,4.55-.12-2.52-1.25,2.52Z"/><path class="cls-3" d="M246.29,105.18l1.24-1.08a2.35,2.35,0,0,0,1.67,1,.72.72,0,0,0,.79-.69c0-.32-.21-.58-1-1.16s-1.46-1.3-1.46-2.16a2.36,2.36,0,0,1,.66-1.66,2.72,2.72,0,0,1,1.94-.78,3.32,3.32,0,0,1,2.53,1.14L251.52,101a2,2,0,0,0-1.44-.83.69.69,0,0,0-.77.67c0,.33.18.57,1,1.14a2.76,2.76,0,0,1,1.47,2.19,2.32,2.32,0,0,1-.69,1.69,2.79,2.79,0,0,1-1.95.75A3.45,3.45,0,0,1,246.29,105.18Z"/><path class="cls-3" d="M254,100.89l-1.17.11v-.91l1.16.12-.14-1.43h1l-.15,1.43,1.17-.12V101l-1.18-.11.12,3h-.91Z"/><path class="cls-3" d="M208.37,116.8v-.1a2.74,2.74,0,0,1,2.57-3c1.68,0,2.51,1.38,2.51,3.14,0,.09,0,.28,0,.51h-3.52a1.26,1.26,0,0,0,1.28,1.19,1.72,1.72,0,0,0,1.23-.58l.8.95a2.72,2.72,0,0,1-2.1.95A2.77,2.77,0,0,1,208.37,116.8Zm3.58-.52c-.07-.81-.42-1.32-1-1.32s-.95.48-1,1.32Z"/><path class="cls-3" d="M216.41,115.51l.94-1.73H219l-1.71,2.87,1.77,3h-1.66l-1-1.84-1,1.84h-1.63l1.76-3-1.69-2.89h1.65Z"/><path class="cls-3" d="M219.35,116.81v-.12a2.82,2.82,0,0,1,2.78-3,2.79,2.79,0,0,1,2.76,3v.12a2.78,2.78,0,1,1-5.54,0Zm4,0v-.08c0-1-.48-1.68-1.23-1.68s-1.23.72-1.23,1.67v.08c0,.95.49,1.68,1.24,1.68S223.35,117.74,223.35,116.79Z"/><path class="cls-3" d="M225.65,113.78h1.56v.79a1.8,1.8,0,0,1,1.52-.9c1.1,0,1.74.77,1.74,2v4h-1.56v-3.55c0-.69-.31-1-.84-1s-.86.35-.86,1v3.55h-1.56Z"/><path class="cls-3" d="M233.45,118.39l2.27-2.33c.81-.84,1.11-1.25,1.11-1.81a.86.86,0,0,0-.92-.91c-.54,0-.91.31-1.41.91l-1-1a3,3,0,0,1,2.56-1.4,2.2,2.2,0,0,1,2.42,2.24v0c0,1.08-.5,1.69-1.64,2.81l-1.29,1.31h2.94v1.43h-5Z"/><path class="cls-3" d="M241.5,113.78h1.56v.79a1.8,1.8,0,0,1,1.53-.9,1.56,1.56,0,0,1,1.45.86,2.1,2.1,0,0,1,1.67-.86c1,0,1.75.68,1.75,2v4h-1.55v-3.55c0-.68-.3-1-.81-1s-.84.36-.84,1v3.55H244.7v-3.55c0-.68-.29-1-.8-1s-.84.36-.84,1v3.55H241.5Z"/><path class="cls-3" d="M250.29,115.88v-.1c0-2.33,1.45-3.92,3.49-3.92a3.24,3.24,0,0,1,2.48,1l-1,1.23a2.15,2.15,0,0,0-1.57-.77c-1,0-1.79,1-1.79,2.45v0c0,1.53.79,2.46,1.82,2.46a2.17,2.17,0,0,0,1.58-.8l1,1.13a3.34,3.34,0,0,1-2.61,1.15C251.65,119.79,250.29,118.24,250.29,115.88Z"/><path class="cls-3" d="M257.1,112H260a2.86,2.86,0,0,1,2.09.74,2.44,2.44,0,0,1,.65,1.78v0a2.32,2.32,0,0,1-1.43,2.28l1.64,2.86h-1.83l-1.42-2.53h-1v2.53h-1.6Zm2.77,3.76a1.11,1.11,0,0,0,1.25-1.16h0c0-.77-.47-1.15-1.29-1.15h-1.14v2.32Z"/><path class="cls-3" d="M263.45,115.88v-.1c0-2.33,1.45-3.92,3.49-3.92a3.23,3.23,0,0,1,2.47,1l-1,1.23a2.15,2.15,0,0,0-1.57-.77c-1,0-1.79,1-1.79,2.45v0c0,1.53.79,2.46,1.82,2.46a2.16,2.16,0,0,0,1.58-.8l1,1.13a3.34,3.34,0,0,1-2.61,1.15C264.81,119.79,263.45,118.24,263.45,115.88Z"/><path class="cls-3" d="M208.58,129.72a4.83,4.83,0,0,1,2.85-4.7l.62,1a4.46,4.46,0,0,0,0,7.34l-.62,1A4.83,4.83,0,0,1,208.58,129.72Z"/><path class="cls-3" d="M212.76,127h1.56v.79a1.8,1.8,0,0,1,1.52-.9c1.1,0,1.74.77,1.74,2v4H216v-3.55c0-.69-.31-1-.84-1s-.86.35-.86,1v3.55h-1.56Z"/><path class="cls-3" d="M220.71,127h4.91v1.46h-4.91Zm0,2.63h4.91v1.46h-4.91Z"/><path class="cls-3" d="M229.57,132.28a4,4,0,0,1-.89-3v-.07c0-2.63,1.08-4.2,3.08-4.2a3.21,3.21,0,0,1,2,.71L233,127a2,2,0,0,0-1.31-.52c-1,0-1.36.94-1.42,1.84a2.44,2.44,0,0,1,1.44-.46,2.25,2.25,0,0,1,2.37,2.44v0a2.57,2.57,0,0,1-2.65,2.66A2.53,2.53,0,0,1,229.57,132.28Zm3-1.86v0a1.08,1.08,0,0,0-1.14-1.18,1.07,1.07,0,0,0-1.12,1.18h0a1.09,1.09,0,0,0,1.13,1.2A1.08,1.08,0,0,0,232.55,130.43Z"/><path class="cls-3" d="M234.68,132l.89-1.19a2.3,2.3,0,0,0,1.54.69,1.08,1.08,0,0,0,1.18-1.13h0A1.11,1.11,0,0,0,237,129.3a2.62,2.62,0,0,0-1.06.24l-.89-.58.22-3.78h4.21v1.43h-2.89l-.09,1.4a3.12,3.12,0,0,1,.86-.11,2.24,2.24,0,0,1,2.44,2.43v0a2.52,2.52,0,0,1-2.71,2.65A3.51,3.51,0,0,1,234.68,132Z"/><path class="cls-3" d="M241.47,132.28a4,4,0,0,1-.89-3v-.07c0-2.63,1.08-4.2,3.08-4.2a3.21,3.21,0,0,1,2,.71l-.77,1.27a2,2,0,0,0-1.31-.52c-1,0-1.36.94-1.42,1.84a2.44,2.44,0,0,1,1.44-.46,2.25,2.25,0,0,1,2.37,2.44v0a2.57,2.57,0,0,1-2.65,2.66A2.53,2.53,0,0,1,241.47,132.28Zm3-1.86v0a1.08,1.08,0,0,0-1.14-1.18,1.07,1.07,0,0,0-1.12,1.18h0a1.09,1.09,0,0,0,1.13,1.2A1.08,1.08,0,0,0,244.45,130.43Z"/><path class="cls-3" d="M246.59,133.38a4.46,4.46,0,0,0,0-7.34l.62-1a5.29,5.29,0,0,1,0,9.38Z"/><rect class="cls-5" x="198.58" y="12.16" width="90.1" height="44.61"/><path class="cls-3" d="M208.18,21.46h1.38l1.06,4.15,1.15-4.17h1.13l1.16,4.17,1.05-4.15h1.35l-1.8,6.34h-1.2l-1.15-4-1.15,4H210Z"/><path class="cls-3" d="M218.28,22.67H216.7V21.46h4.47v1.21h-1.58v5.1h-1.3Z"/><path class="cls-3" d="M224.54,21.46h1.37l-.64,2.68,2.38-2.68h1.76l-2.61,2.66,1.2,3.64h-1.49l-.76-2.65-1,1-.4,1.66H223Z"/><path class="cls-3" d="M230.87,25.76h-.67l-.47,2h-1.37l1.54-6.3h1.81a2.48,2.48,0,0,1,1.84.58,1.79,1.79,0,0,1,.49,1.3,2.22,2.22,0,0,1-.59,1.58,2.3,2.3,0,0,1-1.15.68l.86,2.15h-1.53Zm.39-1.2a1.48,1.48,0,0,0,1.07-.35,1.08,1.08,0,0,0,.29-.77.67.67,0,0,0-.21-.53,1.06,1.06,0,0,0-.78-.23H231l-.43,1.87Z"/><path class="cls-3" d="M237,21.41h1.32l.68,6.35h-1.4l-.11-1.41h-2l-.78,1.41h-1.46Zm.36,3.73-.1-2.06-1,2.06Z"/><path class="cls-3" d="M239.32,26.7l1-.88a1.92,1.92,0,0,0,1.37.83.59.59,0,0,0,.65-.57c0-.26-.17-.48-.81-.95s-1.2-1.06-1.2-1.76a1.93,1.93,0,0,1,.54-1.36,2.23,2.23,0,0,1,1.58-.64,2.72,2.72,0,0,1,2.07.94l-.94.95a1.63,1.63,0,0,0-1.18-.68.57.57,0,0,0-.63.55c0,.27.14.47.8.94a2.26,2.26,0,0,1,1.21,1.79,1.9,1.9,0,0,1-.57,1.39,2.28,2.28,0,0,1-1.59.61A2.82,2.82,0,0,1,239.32,26.7Z"/><path class="cls-3" d="M246.39,22.94h1.28v.65a1.48,1.48,0,0,1,1.25-.74,1.27,1.27,0,0,1,1.19.7,1.72,1.72,0,0,1,1.37-.7c.86,0,1.43.56,1.43,1.62v3.29h-1.27V24.85c0-.56-.24-.86-.67-.86s-.68.3-.68.86v2.91H249V24.85c0-.56-.23-.86-.66-.86s-.68.3-.68.86v2.91h-1.28Z"/><path class="cls-3" d="M253.58,24.66v-.08a2.91,2.91,0,0,1,2.85-3.21,2.65,2.65,0,0,1,2,.84l-.78,1a1.76,1.76,0,0,0-1.29-.63c-.85,0-1.47.78-1.47,2v0c0,1.25.65,2,1.49,2a1.77,1.77,0,0,0,1.3-.66l.78.93a2.74,2.74,0,0,1-2.13.95C254.69,27.85,253.58,26.58,253.58,24.66Z"/><path class="cls-3" d="M259.15,21.46h2.37a2.34,2.34,0,0,1,1.71.6,2,2,0,0,1,.53,1.46v0a1.9,1.9,0,0,1-1.17,1.86l1.34,2.34h-1.49l-1.16-2.07h-.82v2.07h-1.31Zm2.27,3.08a.91.91,0,0,0,1-.95h0c0-.63-.39-.95-1.05-.95h-.94v1.9Z"/><path class="cls-3" d="M264.34,24.66v-.08a2.91,2.91,0,0,1,2.85-3.21,2.65,2.65,0,0,1,2,.84l-.78,1a1.76,1.76,0,0,0-1.29-.63c-.85,0-1.47.78-1.47,2v0c0,1.25.65,2,1.49,2a1.77,1.77,0,0,0,1.3-.66l.78.93a2.74,2.74,0,0,1-2.13.95C265.46,27.85,264.34,26.58,264.34,24.66Z"/><path class="cls-3" d="M208.14,32.46h1.41l1.33,4.34,1.33-4.34h1.38l-2.12,6.34h-1.21Z"/><path class="cls-3" d="M213.83,36.4v-.08a2.24,2.24,0,0,1,2.11-2.48c1.38,0,2.05,1.13,2.05,2.57,0,.07,0,.23,0,.41H215.1a1,1,0,0,0,1,1,1.41,1.41,0,0,0,1-.48l.66.77a2.23,2.23,0,0,1-1.72.77A2.27,2.27,0,0,1,213.83,36.4Zm2.93-.42c-.05-.67-.34-1.08-.82-1.08s-.77.4-.85,1.08Z"/><path class="cls-3" d="M218.42,36.42v-.11a2.27,2.27,0,0,1,2.23-2.47,2.06,2.06,0,0,1,1.58.65l-.69.93a1.14,1.14,0,0,0-.86-.43c-.58,0-1,.56-1,1.34v0c0,.8.37,1.36,1,1.36a1.15,1.15,0,0,0,.87-.44l.68.85a2.05,2.05,0,0,1-1.64.74A2.24,2.24,0,0,1,218.42,36.42Z"/><path class="cls-3" d="M222.93,37.55V35h-.49V33.94h.49V32.7h1.28v1.23h1V35h-1v2.28c0,.28.13.41.4.41a1.24,1.24,0,0,0,.55-.14v1a1.86,1.86,0,0,1-.95.25C223.47,38.84,222.93,38.55,222.93,37.55Z"/><path class="cls-3" d="M225.8,32.26h1.33v1.16H225.8Zm0,1.67h1.28v4.83h-1.28Z"/><path class="cls-3" d="M229.23,38.14v.62H228v-6.5h1.28V34.6a1.52,1.52,0,0,1,1.31-.76c1,0,1.84.78,1.84,2.43v.14c0,1.65-.87,2.43-1.84,2.43A1.57,1.57,0,0,1,229.23,38.14Zm1.86-1.75V36.3c0-.82-.41-1.34-.94-1.34s-.95.52-.95,1.34v.09c0,.82.41,1.34.95,1.34S231.1,37.21,231.1,36.39Z"/><path class="cls-3" d="M233,32.26h1.33v1.16H233Zm0,1.67h1.28v4.83H233Z"/><path class="cls-3" d="M237,35.35l.77-1.41h1.32l-1.4,2.35,1.45,2.48h-1.36l-.8-1.5-.81,1.5h-1.33l1.44-2.46-1.39-2.37h1.35Z"/><path class="cls-3" d="M239.21,34v-.05a1.45,1.45,0,1,1,2.88,0v0a1.45,1.45,0,1,1-2.88,0Zm2.69,0v0a1.26,1.26,0,1,0-2.5,0V34a1.29,1.29,0,0,0,1.25,1.38A1.3,1.3,0,0,0,241.91,34ZM240,33.08h.67c.39,0,.66.17.66.55h0a.52.52,0,0,1-.32.5l.36.61h-.48l-.31-.52h-.16v.52H240Zm.64.8c.16,0,.25-.08.25-.22s-.09-.23-.25-.23h-.22v.44Z"/><path class="cls-3" d="M245.74,36.18h-1.45V35h1.45V33.54h1.2V35h1.45v1.17h-1.45v1.47h-1.2Z"/><path class="cls-3" d="M251.07,32.46h4.06v1.2h-2.75v1.41h2.42v1.2h-2.42v2.49h-1.31Z"/><path class="cls-3" d="M255.6,35.67v-.11a2.87,2.87,0,1,1,5.7,0v.11a2.87,2.87,0,1,1-5.7,0Zm4.35,0v-.06c0-1.24-.63-2-1.5-2s-1.5.77-1.5,2v.06c0,1.24.64,2,1.51,2S260,36.89,260,35.65Z"/><path class="cls-3" d="M262.11,32.46h1.31v5.1H266v1.2h-3.85Z"/><path class="cls-3" d="M266.61,32.46h4.06v1.2h-2.75v1.41h2.42v1.2h-2.42v2.49h-1.31Z"/><path class="cls-3" d="M271.15,35.67v-.11a2.87,2.87,0,1,1,5.7,0v.11a2.87,2.87,0,1,1-5.7,0Zm4.35,0v-.06c0-1.24-.63-2-1.5-2s-1.5.77-1.5,2v.06c0,1.24.64,2,1.51,2S275.5,36.89,275.5,35.65Z"/><path class="cls-3" d="M282.42,32.46l-1.8,3.08,1.87,3.22H281l-1.15-2.16-1.16,2.16h-1.45l1.86-3.21-1.78-3.1h1.49l1.07,2,1.09-2Z"/><path class="cls-3" d="M208.47,47.18a4,4,0,0,1,2.33-3.84l.5.84a3.65,3.65,0,0,0,0,6l-.5.84A4,4,0,0,1,208.47,47.18Z"/><path class="cls-3" d="M211.89,44.94h1.28v.65a1.48,1.48,0,0,1,1.24-.74c.9,0,1.42.63,1.42,1.63v3.29h-1.28V46.85c0-.57-.25-.86-.68-.86s-.7.29-.7.86v2.91h-1.28Z"/><path class="cls-3" d="M218.4,44.92h4v1.2h-4Zm0,2.15h4v1.2h-4Z"/><path class="cls-3" d="M224.74,49l.78-.92a1.69,1.69,0,0,0,1.27.61.8.8,0,0,0,.87-.82v0c0-.54-.45-.86-1.26-.86H226l-.15-.83,1.39-1.54h-2.19V43.46h3.79v1L227.39,46A1.74,1.74,0,0,1,229,47.8v0a2,2,0,0,1-2.13,2A2.73,2.73,0,0,1,224.74,49Z"/><path class="cls-3" d="M229.54,48.71l1.85-1.91c.67-.68.91-1,.91-1.49a.71.71,0,0,0-.76-.75c-.44,0-.75.25-1.15.75l-.85-.8a2.45,2.45,0,0,1,2.1-1.14,1.8,1.8,0,0,1,2,1.84v0c0,.88-.41,1.39-1.34,2.3l-1.05,1.07h2.4v1.17h-4.1Z"/><path class="cls-3" d="M234.11,49.07l.73-1a1.88,1.88,0,0,0,1.26.57.88.88,0,0,0,1-.93h0a.91.91,0,0,0-1-.89,2.14,2.14,0,0,0-.86.2l-.73-.48.18-3.1h3.45v1.17h-2.37l-.07,1.14a2.58,2.58,0,0,1,.7-.09,1.83,1.83,0,0,1,2,2v0a2.06,2.06,0,0,1-2.21,2.17A2.87,2.87,0,0,1,234.11,49.07Z"/><path class="cls-3" d="M238.83,50.18a3.65,3.65,0,0,0,0-6l.5-.84a4.33,4.33,0,0,1,0,7.68Z"/><rect class="cls-5" x="198.58" y="160.16" width="90.1" height="44.61"/><path class="cls-3" d="M208.18,169.46h1.38l1.06,4.15,1.15-4.17h1.13l1.16,4.17,1.05-4.15h1.35l-1.8,6.34h-1.2l-1.15-4-1.15,4H210Z"/><path class="cls-3" d="M218.42,170.67h-1.58v-1.21h4.47v1.21h-1.58v5.1h-1.3Z"/><path class="cls-3" d="M225,169.46h1.37l-.64,2.68,2.38-2.68h1.76l-2.61,2.66,1.2,3.64h-1.49l-.76-2.65-1,1-.4,1.66h-1.37Z"/><path class="cls-3" d="M231.41,173.76h-.67l-.47,2h-1.37l1.54-6.3h1.81a2.48,2.48,0,0,1,1.84.58,1.79,1.79,0,0,1,.49,1.3,2.23,2.23,0,0,1-.58,1.58,2.31,2.31,0,0,1-1.15.68l.86,2.15h-1.53Zm.39-1.2a1.48,1.48,0,0,0,1.07-.35,1.08,1.08,0,0,0,.29-.77.67.67,0,0,0-.21-.53,1.06,1.06,0,0,0-.78-.22h-.67l-.43,1.87Z"/><path class="cls-3" d="M237.72,169.41H239l.68,6.35h-1.4l-.11-1.41h-2l-.78,1.41h-1.46Zm.36,3.73-.1-2.06-1,2.06Z"/><path class="cls-3" d="M240.13,174.7l1-.88a1.92,1.92,0,0,0,1.37.83.59.59,0,0,0,.65-.57c0-.26-.17-.48-.81-.95s-1.2-1.06-1.2-1.76a1.93,1.93,0,0,1,.54-1.36,2.23,2.23,0,0,1,1.58-.64,2.72,2.72,0,0,1,2.07.94l-.94.95a1.63,1.63,0,0,0-1.18-.67.57.57,0,0,0-.63.55c0,.27.14.47.8.94a2.26,2.26,0,0,1,1.21,1.79,1.9,1.9,0,0,1-.57,1.39,2.28,2.28,0,0,1-1.59.61A2.82,2.82,0,0,1,240.13,174.7Z"/><path class="cls-3" d="M248.19,170.94h1.28v.65a1.48,1.48,0,0,1,1.25-.74,1.27,1.27,0,0,1,1.19.7,1.72,1.72,0,0,1,1.37-.7c.86,0,1.43.56,1.43,1.62v3.29h-1.27v-2.91c0-.56-.24-.86-.67-.86s-.68.3-.68.86v2.91h-1.28v-2.91c0-.56-.23-.86-.66-.86s-.68.3-.68.86v2.91h-1.28Z"/><path class="cls-3" d="M255.51,172.66v-.08a2.91,2.91,0,0,1,2.85-3.21,2.65,2.65,0,0,1,2,.84l-.78,1a1.76,1.76,0,0,0-1.29-.63c-.85,0-1.47.78-1.47,2v0c0,1.25.65,2,1.49,2a1.77,1.77,0,0,0,1.3-.66l.78.93a2.74,2.74,0,0,1-2.13.95C256.63,175.85,255.51,174.58,255.51,172.66Z"/><path class="cls-3" d="M261.22,169.46h2.37a2.35,2.35,0,0,1,1.71.6,2,2,0,0,1,.53,1.46v0a1.9,1.9,0,0,1-1.17,1.86l1.34,2.34h-1.49l-1.16-2.07h-.82v2.07h-1.31Zm2.27,3.08a.91.91,0,0,0,1-.95h0c0-.63-.39-.95-1.05-.95h-.94v1.9Z"/><path class="cls-3" d="M266.55,172.66v-.08a2.91,2.91,0,0,1,2.85-3.21,2.65,2.65,0,0,1,2,.84l-.78,1a1.76,1.76,0,0,0-1.29-.63c-.85,0-1.47.78-1.47,2v0c0,1.25.65,2,1.49,2a1.77,1.77,0,0,0,1.3-.66l.78.93a2.74,2.74,0,0,1-2.13.95C267.66,175.85,266.55,174.58,266.55,172.66Z"/><path class="cls-3" d="M208.62,180.46h4.06v1.2h-2.75v1.41h2.42v1.2h-2.42v2.49h-1.31Z"/><path class="cls-3" d="M213.29,183.67v-.11a2.87,2.87,0,1,1,5.7,0v.11a2.87,2.87,0,1,1-5.7,0Zm4.35,0v-.06c0-1.24-.63-2-1.5-2s-1.5.77-1.5,2v.06c0,1.24.64,2,1.51,2S217.63,184.89,217.63,183.65Z"/><path class="cls-3" d="M219.93,180.46h1.31v5.1h2.55v1.2h-3.85Z"/><path class="cls-3" d="M224.56,180.46h4.06v1.2h-2.75v1.41h2.42v1.2h-2.42v2.49h-1.31Z"/><path class="cls-3" d="M229.23,183.67v-.11a2.87,2.87,0,1,1,5.7,0v.11a2.87,2.87,0,1,1-5.7,0Zm4.35,0v-.06c0-1.24-.63-2-1.5-2s-1.5.77-1.5,2v.06c0,1.24.64,2,1.51,2S233.58,184.89,233.58,183.65Z"/><path class="cls-3" d="M240.64,180.46l-1.8,3.08,1.87,3.22h-1.49l-1.15-2.16-1.16,2.16h-1.45l1.86-3.21-1.78-3.1H237l1.07,2,1.09-2Z"/><path class="cls-3" d="M243,185.38v-.05c0-1.06.69-1.54,1.68-1.54a2.62,2.62,0,0,1,1,.2v-.14c0-.56-.33-.85-.91-.85a2.74,2.74,0,0,0-1.11.27l-.35-1a3.45,3.45,0,0,1,1.65-.39,1.74,1.74,0,0,1,2,2v2.93H245.7v-.52a1.48,1.48,0,0,1-1.25.61A1.37,1.37,0,0,1,243,185.38Zm2.71-.21v-.41a1.73,1.73,0,0,0-.71-.15c-.47,0-.77.23-.77.67v0a.57.57,0,0,0,.62.6A.76.76,0,0,0,245.73,185.18Z"/><path class="cls-3" d="M247.89,180.26h1.28v6.5h-1.28Z"/><path class="cls-3" d="M250,184.41v-.1a2.31,2.31,0,0,1,2.28-2.47,2.28,2.28,0,0,1,2.26,2.46v.1a2.28,2.28,0,1,1-4.54,0Zm3.28,0v-.06c0-.78-.4-1.38-1-1.38s-1,.58-1,1.37v.06c0,.77.41,1.38,1,1.38S253.25,185.18,253.25,184.39Z"/><path class="cls-3" d="M255.26,181.94h1.28v.65a1.48,1.48,0,0,1,1.24-.74c.9,0,1.42.63,1.42,1.63v3.29h-1.28v-2.91c0-.57-.25-.86-.68-.86s-.7.29-.7.86v2.91h-1.28Z"/><path class="cls-3" d="M259.91,184.4v-.08a2.24,2.24,0,0,1,2.11-2.48c1.38,0,2.05,1.13,2.05,2.57,0,.07,0,.22,0,.41h-2.88a1,1,0,0,0,1,1,1.41,1.41,0,0,0,1-.48l.66.77a2.23,2.23,0,0,1-1.72.77A2.27,2.27,0,0,1,259.91,184.4Zm2.93-.42c-.05-.67-.34-1.08-.82-1.08s-.77.4-.85,1.08Z"/><path class="cls-3" d="M208.47,195.18a4,4,0,0,1,2.33-3.84l.5.84a3.65,3.65,0,0,0,0,6l-.5.84A4,4,0,0,1,208.47,195.18Z"/><path class="cls-3" d="M212,192.94h1.28v.65a1.48,1.48,0,0,1,1.24-.74c.9,0,1.42.63,1.42,1.63v3.29h-1.28v-2.91c0-.57-.25-.86-.68-.86s-.7.29-.7.86v2.91H212Z"/><path class="cls-3" d="M218.8,192.92h4v1.2h-4Zm0,2.15h4v1.2h-4Z"/><path class="cls-3" d="M225.42,197l.78-.92a1.69,1.69,0,0,0,1.27.61.8.8,0,0,0,.87-.82v0c0-.54-.45-.86-1.26-.86h-.38l-.15-.83,1.39-1.54h-2.19v-1.16h3.79v1L228.06,194a1.74,1.74,0,0,1,1.57,1.76v0a2,2,0,0,1-2.13,2A2.73,2.73,0,0,1,225.42,197Z"/><path class="cls-3" d="M230.19,197l.78-.92a1.69,1.69,0,0,0,1.27.61.8.8,0,0,0,.87-.82v0c0-.54-.45-.86-1.26-.86h-.38l-.15-.83,1.39-1.54h-2.19v-1.16h3.79v1L232.84,194a1.74,1.74,0,0,1,1.57,1.76v0a2,2,0,0,1-2.13,2A2.73,2.73,0,0,1,230.19,197Z"/><path class="cls-3" d="M236.08,192.76l-1,.26-.21-1.13,1.56-.47h.9v6.35h-1.29Z"/><path class="cls-3" d="M238.28,198.18a3.65,3.65,0,0,0,0-6l.5-.84a4.33,4.33,0,0,1,0,7.68Z"/><path class="cls-3" d="M316.08,90h-.81l-.57,2.44H313l1.88-7.7h2.21a3,3,0,0,1,2.24.72,2.19,2.19,0,0,1,.59,1.58,2.72,2.72,0,0,1-.71,1.94,2.82,2.82,0,0,1-1.41.84l1.06,2.63H317Zm.47-1.46a1.81,1.81,0,0,0,1.31-.43,1.33,1.33,0,0,0,.35-.94.82.82,0,0,0-.25-.65,1.3,1.3,0,0,0-1-.27h-.81l-.53,2.29Z"/><path class="cls-3" d="M323.63,84.73h1.62l.83,7.76h-1.71l-.13-1.73h-2.48l-1,1.73H319Zm.44,4.55-.12-2.52-1.25,2.52Z"/><path class="cls-3" d="M326.41,91.19l1.24-1.08a2.35,2.35,0,0,0,1.67,1,.72.72,0,0,0,.79-.69c0-.32-.21-.58-1-1.16s-1.46-1.3-1.46-2.16a2.36,2.36,0,0,1,.66-1.66,2.72,2.72,0,0,1,1.94-.78,3.32,3.32,0,0,1,2.53,1.14L331.65,87a2,2,0,0,0-1.44-.83.69.69,0,0,0-.77.67c0,.33.18.57,1,1.14a2.76,2.76,0,0,1,1.47,2.19,2.32,2.32,0,0,1-.69,1.69,2.79,2.79,0,0,1-1.95.75A3.45,3.45,0,0,1,326.41,91.19Z"/><path class="cls-3" d="M313.62,99.79h1.56v.79a1.8,1.8,0,0,1,1.53-.9,1.56,1.56,0,0,1,1.45.86,2.1,2.1,0,0,1,1.67-.86c1,0,1.75.68,1.75,2v4H320v-3.55c0-.68-.3-1-.81-1s-.84.36-.84,1v3.55h-1.56v-3.55c0-.68-.29-1-.8-1s-.84.36-.84,1v3.55h-1.56Z"/><path class="cls-3" d="M322.51,103.81v-4h1.55v3.55c0,.69.31,1,.84,1s.86-.35.86-1V99.79h1.56v5.9h-1.56v-.79a1.79,1.79,0,0,1-1.51.9C323.13,105.8,322.51,105,322.51,103.81Z"/><path class="cls-3" d="M328.54,104.22v-3.1h-.59V99.79h.59V98.29h1.56v1.51h1.17v1.32H330.1v2.78c0,.34.15.51.48.51a1.51,1.51,0,0,0,.67-.17v1.24a2.28,2.28,0,0,1-1.16.31C329.2,105.79,328.54,105.44,328.54,104.22Z"/><path class="cls-3" d="M331.7,104v-.07c0-1.3.85-1.88,2.06-1.88a3.19,3.19,0,0,1,1.23.24v-.18c0-.68-.41-1-1.11-1a3.34,3.34,0,0,0-1.35.33l-.43-1.22a4.22,4.22,0,0,1,2-.47,2.13,2.13,0,0,1,2.4,2.39v3.58H335v-.64a1.81,1.81,0,0,1-1.53.75A1.68,1.68,0,0,1,331.7,104Zm3.31-.25v-.5a2.11,2.11,0,0,0-.87-.19c-.57,0-.94.29-.94.82v0a.69.69,0,0,0,.76.74A.93.93,0,0,0,335,103.75Z"/><path class="cls-3" d="M337.68,104.22v-3.1h-.59V99.79h.59V98.29h1.56v1.51h1.17v1.32h-1.17v2.78c0,.34.15.51.48.51a1.51,1.51,0,0,0,.67-.17v1.24a2.28,2.28,0,0,1-1.16.31C338.34,105.79,337.68,105.44,337.68,104.22Z"/><path class="cls-3" d="M341.18,97.75h1.63v1.42h-1.63Zm0,2h1.56v5.9h-1.56Z"/><path class="cls-3" d="M343.58,102.82v-.12a2.82,2.82,0,0,1,2.78-3,2.79,2.79,0,0,1,2.76,3v.12a2.78,2.78,0,1,1-5.54,0Zm4,0v-.08c0-1-.48-1.68-1.23-1.68s-1.23.72-1.23,1.67v.08c0,.95.5,1.68,1.24,1.68S347.59,103.75,347.59,102.8Z"/><path class="cls-3" d="M349.89,99.79h1.56v.79a1.8,1.8,0,0,1,1.52-.9c1.1,0,1.74.77,1.74,2v4h-1.56v-3.55c0-.69-.31-1-.84-1s-.86.35-.86,1v3.55h-1.56Z"/><path class="cls-3" d="M357.38,105l.68-1.1a2.75,2.75,0,0,0,1.57.66c.44,0,.63-.21.63-.45v0c0-.34-.44-.48-1.08-.76-.84-.36-1.55-.78-1.55-1.78v0a1.83,1.83,0,0,1,2-1.8,3.48,3.48,0,0,1,1.95.64l-.63,1.12a2.68,2.68,0,0,0-1.34-.51c-.37,0-.57.19-.57.42v0c0,.31.44.48,1.07.77.86.41,1.56.84,1.56,1.77v0a1.83,1.83,0,0,1-2.08,1.84A3.57,3.57,0,0,1,357.38,105Z"/><path class="cls-3" d="M362.61,104.22v-3.1H362V99.79h.59V98.29h1.56v1.51h1.17v1.32h-1.17v2.78c0,.34.15.51.48.51a1.51,1.51,0,0,0,.67-.17v1.24a2.28,2.28,0,0,1-1.16.31C363.27,105.79,362.61,105.44,362.61,104.22Z"/><path class="cls-3" d="M365.78,104v-.07c0-1.3.85-1.88,2.06-1.88a3.19,3.19,0,0,1,1.23.24v-.18c0-.68-.41-1-1.11-1a3.34,3.34,0,0,0-1.35.33l-.43-1.22a4.22,4.22,0,0,1,2-.47,2.13,2.13,0,0,1,2.4,2.39v3.58h-1.53v-.64a1.81,1.81,0,0,1-1.53.75A1.68,1.68,0,0,1,365.78,104Zm3.31-.25v-.5a2.11,2.11,0,0,0-.87-.19c-.57,0-.94.29-.94.82v0a.69.69,0,0,0,.76.74A.93.93,0,0,0,369.09,103.75Z"/><path class="cls-3" d="M371.75,104.22v-3.1h-.59V99.79h.59V98.29h1.56v1.51h1.17v1.32h-1.17v2.78c0,.34.15.51.48.51a1.51,1.51,0,0,0,.67-.17v1.24a2.28,2.28,0,0,1-1.16.31C372.41,105.79,371.75,105.44,371.75,104.22Z"/><path class="cls-3" d="M375.2,103.81v-4h1.55v3.55c0,.69.31,1,.84,1s.86-.35.86-1V99.79H380v5.9h-1.56v-.79a1.79,1.79,0,0,1-1.51.9C375.82,105.8,375.2,105,375.2,103.81Z"/><path class="cls-3" d="M380.53,105l.68-1.1a2.75,2.75,0,0,0,1.57.66c.44,0,.63-.21.63-.45v0c0-.34-.44-.48-1.08-.76-.84-.36-1.55-.78-1.55-1.78v0a1.83,1.83,0,0,1,2-1.8,3.48,3.48,0,0,1,1.95.64l-.63,1.12a2.68,2.68,0,0,0-1.34-.51c-.37,0-.57.19-.57.42v0c0,.31.44.48,1.07.77.86.41,1.56.84,1.56,1.77v0a1.83,1.83,0,0,1-2.08,1.84A3.57,3.57,0,0,1,380.53,105Z"/><path class="cls-3" d="M313.41,116v-.18c0-2,1.07-3,2.24-3a1.93,1.93,0,0,1,1.6.87v-2.81h1.56v7.94h-1.56v-.81a1.86,1.86,0,0,1-1.6.92C314.49,119,313.41,118,313.41,116Zm3.86,0v-.11c0-1-.51-1.64-1.16-1.64s-1.14.64-1.14,1.64V116c0,1,.5,1.64,1.14,1.64S317.27,117,317.27,116Z"/><path class="cls-3" d="M319.55,116v-.1a2.74,2.74,0,0,1,2.57-3c1.68,0,2.51,1.38,2.51,3.14,0,.09,0,.28,0,.51H321.1a1.26,1.26,0,0,0,1.28,1.19,1.72,1.72,0,0,0,1.23-.58l.8.95a2.73,2.73,0,0,1-2.1.95A2.77,2.77,0,0,1,319.55,116Zm3.58-.52c-.07-.81-.42-1.32-1-1.32s-.95.48-1,1.32Z"/><path class="cls-3" d="M325.62,117.41v-3.1H325V113h.59v-1.51h1.56V113h1.17v1.32h-1.17v2.78c0,.34.15.51.48.51a1.51,1.51,0,0,0,.67-.17v1.24a2.28,2.28,0,0,1-1.16.31C326.28,119,325.62,118.64,325.62,117.41Z"/><path class="cls-3" d="M328.85,116v-.1a2.74,2.74,0,0,1,2.57-3c1.68,0,2.51,1.38,2.51,3.14,0,.09,0,.28,0,.51h-3.52a1.26,1.26,0,0,0,1.28,1.19,1.72,1.72,0,0,0,1.23-.58l.8.95a2.73,2.73,0,0,1-2.1.95A2.77,2.77,0,0,1,328.85,116Zm3.58-.52c-.07-.81-.42-1.32-1-1.32s-.95.48-1,1.32Z"/><path class="cls-3" d="M334.69,113h1.56v1a1.55,1.55,0,0,1,1.59-1.14v1.69h-.07c-1,0-1.53.59-1.53,1.83v2.48h-1.56Z"/><path class="cls-3" d="M338.45,113H340v.79a1.8,1.8,0,0,1,1.53-.9,1.56,1.56,0,0,1,1.45.86,2.1,2.1,0,0,1,1.67-.86c1,0,1.75.68,1.75,2v4h-1.55v-3.55c0-.68-.3-1-.81-1s-.84.36-.84,1v3.55h-1.56v-3.55c0-.68-.29-1-.8-1s-.84.36-.84,1v3.55h-1.56Z"/><path class="cls-3" d="M347.39,110.95H349v1.42h-1.63Zm0,2H349v5.9h-1.56Z"/><path class="cls-3" d="M350,113h1.56v.79a1.8,1.8,0,0,1,1.52-.9c1.1,0,1.74.77,1.74,2v4h-1.56v-3.55c0-.69-.31-1-.84-1s-.86.35-.86,1v3.55H350Z"/><path class="cls-3" d="M355.54,116v-.1a2.74,2.74,0,0,1,2.57-3c1.68,0,2.51,1.38,2.51,3.14,0,.09,0,.28,0,.51h-3.52a1.26,1.26,0,0,0,1.28,1.19,1.72,1.72,0,0,0,1.23-.58l.8.95a2.73,2.73,0,0,1-2.1.95A2.77,2.77,0,0,1,355.54,116Zm3.58-.52c-.07-.81-.42-1.32-1-1.32s-.95.48-1,1.32Z"/><path class="cls-3" d="M361.16,116v-.18c0-2,1.07-3,2.24-3a1.93,1.93,0,0,1,1.6.87v-2.81h1.56v7.94H365v-.81a1.86,1.86,0,0,1-1.6.92C362.24,119,361.16,118,361.16,116Zm3.86,0v-.11c0-1-.51-1.64-1.16-1.64s-1.14.64-1.14,1.64V116c0,1,.5,1.64,1.14,1.64S365,117,365,116Z"/><path class="cls-3" d="M313.59,128.93a4.84,4.84,0,0,1,2.85-4.7l.62,1a4.46,4.46,0,0,0,0,7.34l-.62,1A4.83,4.83,0,0,1,313.59,128.93Z"/><path class="cls-3" d="M317.77,126.19h1.56V127a1.8,1.8,0,0,1,1.52-.9c1.1,0,1.74.77,1.74,2v4H321v-3.55c0-.69-.31-1-.84-1s-.86.35-.86,1v3.55h-1.56Z"/><path class="cls-3" d="M325.72,126.17h4.91v1.46h-4.91Zm0,2.63h4.91v1.46h-4.91Z"/><path class="cls-3" d="M334.57,131.5a4,4,0,0,1-.89-3v-.07c0-2.63,1.08-4.2,3.08-4.2a3.21,3.21,0,0,1,2,.71l-.77,1.27a2,2,0,0,0-1.31-.52c-1,0-1.36.94-1.42,1.84a2.44,2.44,0,0,1,1.44-.46,2.25,2.25,0,0,1,2.37,2.44v0a2.57,2.57,0,0,1-2.65,2.66A2.54,2.54,0,0,1,334.57,131.5Zm3-1.86v0a1.08,1.08,0,0,0-1.14-1.18,1.07,1.07,0,0,0-1.12,1.18h0a1.09,1.09,0,0,0,1.13,1.2A1.08,1.08,0,0,0,337.56,129.64Z"/><path class="cls-3" d="M339.82,130.8l2.27-2.33c.81-.84,1.11-1.25,1.11-1.82a.86.86,0,0,0-.92-.91c-.54,0-.91.31-1.41.91l-1-1a3,3,0,0,1,2.56-1.4,2.2,2.2,0,0,1,2.42,2.25v0c0,1.08-.5,1.69-1.64,2.81l-1.29,1.31h2.94v1.43h-5Z"/><path class="cls-3" d="M345.55,128.32v-.14c0-2.35,1.19-3.92,3-3.92s3,1.55,3,3.91v.14c0,2.35-1.19,3.92-3,3.92S345.55,130.67,345.55,128.32Zm4.38,0v-.1c0-1.62-.57-2.49-1.39-2.49s-1.36.85-1.36,2.48v.1c0,1.62.56,2.49,1.39,2.49S349.93,129.91,349.93,128.29Z"/><path class="cls-3" d="M352.14,132.6a4.46,4.46,0,0,0,0-7.34l.62-1a5.29,5.29,0,0,1,0,9.38Z"/><path class="cls-3" d="M357.38,127.6l-.68.06v-.53l.68.07-.07-1,.07-1-.68.06v-.53l.68.07-.09-.83h.58l-.08.83.67-.07v.53l-.68-.06.07,1-.07,1,.68-.07v.53l-.67-.06.08.83h-.58Z"/><path class="cls-3" d="M378.61,181.75h2.46a2.49,2.49,0,0,1,2.77,2.56v0A2.59,2.59,0,0,1,381,187h-1.11v2.5h-1.28Zm2.39,4a1.4,1.4,0,0,0,1.55-1.44h0a1.36,1.36,0,0,0-1.55-1.43h-1.11v2.88Z"/><path class="cls-3" d="M384.26,187.78v-.05c0-1.25.84-1.87,2.07-1.87a4,4,0,0,1,1.34.23v-.24a1.1,1.1,0,0,0-1.25-1.19A3.32,3.32,0,0,0,385,185l-.35-1a4.14,4.14,0,0,1,1.92-.46,2.06,2.06,0,0,1,2.3,2.28v3.62h-1.22v-.71a1.85,1.85,0,0,1-1.62.83A1.7,1.7,0,0,1,384.26,187.78Zm3.42-.29v-.58a2.8,2.8,0,0,0-1.08-.21c-.72,0-1.13.36-1.13,1v0a.89.89,0,0,0,.95.92A1.17,1.17,0,0,0,387.68,187.49Z"/><path class="cls-3" d="M390.18,188v-3.36h-.64v-1.07h.64V182h1.24v1.57h1.31v1.07h-1.31v3.1a.56.56,0,0,0,.63.64,1.42,1.42,0,0,0,.67-.17v1a2.11,2.11,0,0,1-1,.25A1.33,1.33,0,0,1,390.18,188Z"/><path class="cls-3" d="M393.53,181.55h1.32v1.22h-1.32Zm0,2.07h1.24v5.83h-1.24Z"/><path class="cls-3" d="M395.77,186.6v-.09c0-1.75,1.06-3,2.49-3,1.58,0,2.42,1.32,2.42,3.07,0,.08,0,.25,0,.43H397a1.5,1.5,0,0,0,1.47,1.51,1.86,1.86,0,0,0,1.34-.62l.65.77a2.7,2.7,0,0,1-4.71-2.07Zm3.7-.45c-.07-.92-.48-1.6-1.21-1.6s-1.17.61-1.25,1.6Z"/><path class="cls-3" d="M401.6,183.62h1.24v.86a1.83,1.83,0,0,1,1.6-1c1.12,0,1.79.79,1.79,2v3.91H405V185.9c0-.81-.38-1.26-1-1.26s-1.1.48-1.1,1.29v3.53H401.6Z"/><path class="cls-3" d="M407.56,188v-3.36h-.64v-1.07h.64V182h1.24v1.57h1.31v1.07H408.8v3.1a.56.56,0,0,0,.63.64,1.42,1.42,0,0,0,.67-.17v1a2.11,2.11,0,0,1-1,.25A1.33,1.33,0,0,1,407.56,188Z"/><path class="cls-3" d="M410.62,188.75l.58-.89a2.66,2.66,0,0,0,1.61.68c.52,0,.81-.27.81-.64h0c0-.42-.45-.61-1.14-.9-.87-.37-1.59-.77-1.59-1.73v0a1.75,1.75,0,0,1,1.92-1.71,3.33,3.33,0,0,1,1.89.63l-.53.91a2.59,2.59,0,0,0-1.39-.52c-.46,0-.74.25-.74.57v0c0,.39.46.58,1.14.89.9.41,1.58.83,1.58,1.74h0a1.78,1.78,0,0,1-2,1.77A3.44,3.44,0,0,1,410.62,188.75Z"/><path class="cls-3" d="M417.76,183.62H419l1,3.94,1.08-4h1.06l1.08,4,1-3.94h1.25l-1.64,5.88h-1.14l-1.09-3.89-1.1,3.89h-1.13Z"/><path class="cls-3" d="M426.2,181.55h1.32v1.22H426.2Zm0,2.07h1.24v5.83h-1.24Z"/><path class="cls-3" d="M428.93,188v-3.36h-.64v-1.07h.64V182h1.24v1.57h1.31v1.07h-1.31v3.1a.56.56,0,0,0,.63.64,1.42,1.42,0,0,0,.67-.17v1a2.11,2.11,0,0,1-1,.25A1.33,1.33,0,0,1,428.93,188Z"/><path class="cls-3" d="M432.31,181.51h1.24v3a1.83,1.83,0,0,1,1.6-1c1.12,0,1.79.79,1.79,2v3.91H435.7V185.9c0-.81-.38-1.26-1-1.26s-1.1.48-1.1,1.29v3.53h-1.24Z"/><path class="cls-3" d="M440.72,181.75h1.33l2,3.54,2-3.54h1.34v7.7h-1.26V184l-2,3.56h0L442,184v5.42h-1.24Z"/><path class="cls-3" d="M450.28,182.94h-2v-1.19h5.33v1.19h-2v6.51h-1.28Z"/><path class="cls-3" d="M459.46,186.79h-1.16l-.63,2.66h-1.34l1.88-7.7h2.2a2.86,2.86,0,0,1,2.13.69,2.05,2.05,0,0,1,.56,1.49,2.62,2.62,0,0,1-.71,1.88,3.12,3.12,0,0,1-1.54.83l1.17,2.82h-1.5Zm.29-1.17a2.15,2.15,0,0,0,1.57-.52,1.51,1.51,0,0,0,.41-1.08,1,1,0,0,0-.28-.74,1.54,1.54,0,0,0-1.12-.33h-1.08l-.64,2.66Z"/><path class="cls-3" d="M467.18,181.69h1.3l.9,7.76H468l-.19-1.86H465l-1.08,1.86h-1.42Zm.53,4.72-.26-3.09-1.72,3.09Z"/><path class="cls-3" d="M469.89,188.16l1-.86a2.41,2.41,0,0,0,1.84,1.08,1,1,0,0,0,1.1-1c0-.41-.25-.73-1.1-1.31-1-.7-1.55-1.3-1.55-2.14a2.26,2.26,0,0,1,.62-1.56,2.62,2.62,0,0,1,1.89-.76,3.21,3.21,0,0,1,2.46,1.14l-.92.91a2.14,2.14,0,0,0-1.58-.88,1,1,0,0,0-1.07.91c0,.43.25.73,1.13,1.32s1.53,1.25,1.53,2.17a2.21,2.21,0,0,1-.66,1.61,2.75,2.75,0,0,1-1.92.74A3.39,3.39,0,0,1,469.89,188.16Z"/><path class="cls-3" d="M479.15,188v-3.36h-.64v-1.07h.64V182h1.24v1.57h1.31v1.07h-1.31v3.1a.56.56,0,0,0,.63.64,1.42,1.42,0,0,0,.67-.17v1a2.11,2.11,0,0,1-1,.25A1.33,1.33,0,0,1,479.15,188Z"/><path class="cls-3" d="M482.44,187.53v-3.91h1.24v3.55c0,.81.38,1.27,1,1.27s1.1-.48,1.1-1.29v-3.53h1.25v5.83h-1.25v-.85a1.8,1.8,0,0,1-1.58,1C483.1,189.56,482.44,188.78,482.44,187.53Z"/><path class="cls-3" d="M488.27,183.62h1.24v.85a1.8,1.8,0,0,1,1.56-1,1.59,1.59,0,0,1,1.51.93,2.07,2.07,0,0,1,1.71-.93c1.08,0,1.78.71,1.78,2v3.91h-1.24v-3.54c0-.84-.35-1.28-1-1.28s-1,.46-1,1.29v3.53h-1.24V185.9c0-.82-.36-1.26-1-1.26s-1.06.5-1.06,1.3v3.52h-1.24Z"/><path class="cls-3" d="M497,186.6v-.1a2.7,2.7,0,1,1,5.37,0v.1a2.7,2.7,0,1,1-5.37,0Zm4.13,0v-.07c0-1.09-.6-1.9-1.45-1.9s-1.43.8-1.43,1.89v.07c0,1.09.6,1.91,1.45,1.91S501.11,187.67,501.11,186.58Z"/><path class="cls-3" d="M503.28,183.62h1.24v1.14a1.73,1.73,0,0,1,1.75-1.23v1.35h-.05c-1,0-1.69.66-1.69,2v2.57h-1.24Z"/><path class="cls-3" d="M506.58,188.75l.58-.89a2.66,2.66,0,0,0,1.61.68c.52,0,.81-.27.81-.64h0c0-.42-.45-.61-1.14-.9-.87-.37-1.59-.77-1.59-1.73v0a1.75,1.75,0,0,1,1.92-1.71,3.33,3.33,0,0,1,1.89.63l-.53.91a2.59,2.59,0,0,0-1.39-.52c-.46,0-.74.25-.74.57v0c0,.39.46.58,1.14.89.9.41,1.58.83,1.58,1.74h0a1.78,1.78,0,0,1-2,1.77A3.44,3.44,0,0,1,506.58,188.75Z"/><path class="cls-3" d="M513.64,188.75l.58-.89a2.66,2.66,0,0,0,1.61.68c.52,0,.81-.27.81-.64h0c0-.42-.45-.61-1.14-.9-.87-.37-1.59-.77-1.59-1.73v0a1.75,1.75,0,0,1,1.92-1.71,3.33,3.33,0,0,1,1.89.63l-.53.91a2.59,2.59,0,0,0-1.39-.52c-.46,0-.74.25-.74.57v0c0,.39.46.58,1.14.89.9.41,1.58.83,1.58,1.74h0a1.78,1.78,0,0,1-2,1.77A3.44,3.44,0,0,1,513.64,188.75Z"/><path class="cls-3" d="M518.69,181.51h1.24v3a1.83,1.83,0,0,1,1.6-1c1.12,0,1.79.79,1.79,2v3.91h-1.24V185.9c0-.81-.38-1.26-1-1.26s-1.1.48-1.1,1.29v3.53h-1.24Z"/><path class="cls-3" d="M524.2,186.6v-.1a2.7,2.7,0,1,1,5.37,0v.1a2.7,2.7,0,1,1-5.37,0Zm4.13,0v-.07c0-1.09-.6-1.9-1.45-1.9s-1.43.8-1.43,1.89v.07c0,1.09.6,1.91,1.45,1.91S528.33,187.67,528.33,186.58Z"/><path class="cls-3" d="M530.45,187.53v-3.91h1.24v3.55c0,.81.38,1.27,1,1.27s1.1-.48,1.1-1.29v-3.53h1.25v5.83h-1.25v-.85a1.8,1.8,0,0,1-1.58,1C531.11,189.56,530.45,188.78,530.45,187.53Z"/><path class="cls-3" d="M536.32,181.51h1.24v7.94h-1.24Z"/><path class="cls-3" d="M538.57,186.61v-.14c0-2,1.09-3,2.27-3a2,2,0,0,1,1.71,1v-3h1.24v7.94h-1.24v-.93a2,2,0,0,1-1.71,1C539.67,189.56,538.57,188.58,538.57,186.61Zm4,0v-.11c0-1.14-.64-1.87-1.39-1.87s-1.35.7-1.35,1.88v.09c0,1.17.61,1.88,1.35,1.88S542.56,187.73,542.56,186.59Z"/><path class="cls-3" d="M395.95,194.62h1.24v.86a1.83,1.83,0,0,1,1.6-1c1.12,0,1.79.79,1.79,2v3.91h-1.24V196.9c0-.81-.38-1.26-1-1.26s-1.1.48-1.1,1.29v3.53h-1.24Z"/><path class="cls-3" d="M401.46,197.6v-.1a2.7,2.7,0,1,1,5.37,0v.1a2.7,2.7,0,1,1-5.37,0Zm4.13,0v-.07c0-1.09-.6-1.9-1.45-1.9s-1.43.8-1.43,1.89v.07c0,1.09.6,1.91,1.45,1.91S405.59,198.67,405.59,197.58Z"/><path class="cls-3" d="M407.88,199v-3.36h-.64v-1.07h.64V193h1.24v1.57h1.31v1.07h-1.31v3.1a.56.56,0,0,0,.63.64,1.42,1.42,0,0,0,.67-.17v1a2.11,2.11,0,0,1-1,.25A1.33,1.33,0,0,1,407.88,199Z"/><path class="cls-3" d="M415.09,199.57v.88h-1.24v-7.94h1.24v3a2,2,0,0,1,1.71-1c1.17,0,2.27,1,2.27,2.95v.15c0,2-1.09,2.95-2.27,2.95A2,2,0,0,1,415.09,199.57Zm2.72-2v-.1c0-1.17-.61-1.88-1.35-1.88s-1.39.73-1.39,1.87v.11c0,1.14.64,1.87,1.39,1.87S417.8,198.76,417.8,197.59Z"/><path class="cls-3" d="M419.76,197.6v-.09c0-1.75,1.06-3,2.49-3,1.58,0,2.42,1.32,2.42,3.07,0,.08,0,.25,0,.43H421a1.5,1.5,0,0,0,1.47,1.51,1.86,1.86,0,0,0,1.34-.62l.65.77a2.7,2.7,0,0,1-4.71-2.07Zm3.7-.45c-.07-.92-.48-1.6-1.21-1.6s-1.17.61-1.25,1.6Z"/><path class="cls-3" d="M428.32,199v-3.36h-.64v-1.07h.64V193h1.24v1.57h1.31v1.07h-1.31v3.1a.56.56,0,0,0,.63.64,1.42,1.42,0,0,0,.67-.17v1a2.11,2.11,0,0,1-1,.25A1.33,1.33,0,0,1,428.32,199Z"/><path class="cls-3" d="M431.71,194.62H433v1.14a1.73,1.73,0,0,1,1.75-1.23v1.35h-.05c-1,0-1.69.66-1.69,2v2.57h-1.24Z"/><path class="cls-3" d="M435.12,197.6v-.09c0-1.75,1.06-3,2.49-3,1.58,0,2.42,1.32,2.42,3.07,0,.08,0,.25,0,.43h-3.65a1.5,1.5,0,0,0,1.47,1.51,1.86,1.86,0,0,0,1.34-.62l.65.77a2.7,2.7,0,0,1-4.71-2.07Zm3.7-.45c-.07-.92-.48-1.6-1.21-1.6s-1.17.61-1.25,1.6Z"/><path class="cls-3" d="M440.59,198.78v-.05c0-1.25.84-1.87,2.07-1.87a4,4,0,0,1,1.34.23v-.24a1.1,1.1,0,0,0-1.25-1.19,3.32,3.32,0,0,0-1.41.35l-.35-1a4.14,4.14,0,0,1,1.92-.46,2.06,2.06,0,0,1,2.3,2.28v3.62H444v-.71a1.85,1.85,0,0,1-1.62.83A1.7,1.7,0,0,1,440.59,198.78Zm3.42-.29v-.58a2.8,2.8,0,0,0-1.08-.21c-.72,0-1.13.36-1.13,1v0a.89.89,0,0,0,.95.92A1.17,1.17,0,0,0,444,198.49Z"/><path class="cls-3" d="M446.51,199v-3.36h-.64v-1.07h.64V193h1.24v1.57h1.31v1.07h-1.31v3.1a.56.56,0,0,0,.63.64,1.42,1.42,0,0,0,.67-.17v1a2.11,2.11,0,0,1-1,.25A1.33,1.33,0,0,1,446.51,199Z"/><path class="cls-3" d="M449.52,197.6v-.09c0-1.75,1.06-3,2.49-3,1.58,0,2.42,1.32,2.42,3.07,0,.08,0,.25,0,.43h-3.65a1.5,1.5,0,0,0,1.47,1.51,1.86,1.86,0,0,0,1.34-.62l.65.77a2.7,2.7,0,0,1-4.71-2.07Zm3.7-.45c-.07-.92-.48-1.6-1.21-1.6s-1.17.61-1.25,1.6Z"/><path class="cls-3" d="M455.1,197.61v-.14c0-2,1.09-3,2.27-3a2,2,0,0,1,1.71,1v-3h1.24v7.94h-1.24v-.93a2,2,0,0,1-1.71,1C456.2,200.56,455.1,199.58,455.1,197.61Zm4,0v-.11c0-1.14-.64-1.87-1.39-1.87s-1.35.7-1.35,1.88v.09c0,1.17.61,1.88,1.35,1.88S459.09,198.73,459.09,197.59Z"/><path class="cls-3" d="M463.6,194.62h1.28l1,3.94,1.08-4H468l1.08,4,1-3.94h1.25l-1.64,5.88h-1.14l-1.09-3.89-1.1,3.89h-1.13Z"/><path class="cls-3" d="M472,192.55h1.32v1.22H472Zm0,2.07h1.24v5.83h-1.24Z"/><path class="cls-3" d="M474.77,199v-3.36h-.64v-1.07h.64V193H476v1.57h1.31v1.07H476v3.1a.56.56,0,0,0,.63.64,1.42,1.42,0,0,0,.67-.17v1a2.11,2.11,0,0,1-1,.25A1.33,1.33,0,0,1,474.77,199Z"/><path class="cls-3" d="M478.15,192.51h1.24v3a1.83,1.83,0,0,1,1.6-1c1.12,0,1.79.79,1.79,2v3.91h-1.24V196.9c0-.81-.38-1.26-1-1.26s-1.1.48-1.1,1.29v3.53h-1.24Z"/><path class="cls-3" d="M486,192.75h1.39l1.89,5.82,1.89-5.82h1.34l-2.66,7.75h-1.18Z"/><path class="cls-3" d="M492.49,197.6v-.09c0-1.75,1.06-3,2.49-3,1.58,0,2.42,1.32,2.42,3.07,0,.08,0,.25,0,.43h-3.65a1.5,1.5,0,0,0,1.47,1.51,1.86,1.86,0,0,0,1.34-.62l.65.77a2.7,2.7,0,0,1-4.71-2.07Zm3.7-.45c-.07-.92-.48-1.6-1.21-1.6s-1.17.61-1.25,1.6Z"/><path class="cls-3" d="M498,197.61v-.11a2.75,2.75,0,0,1,2.66-3,2.46,2.46,0,0,1,1.87.79l-.69.91a1.57,1.57,0,0,0-1.18-.58c-.81,0-1.41.78-1.41,1.88v.06c0,1.13.59,1.89,1.44,1.89a1.62,1.62,0,0,0,1.19-.59l.67.83a2.44,2.44,0,0,1-1.94.88A2.7,2.7,0,0,1,498,197.61Z"/><path class="cls-3" d="M503.72,199v-3.36h-.64v-1.07h.64V193H505v1.57h1.31v1.07H505v3.1a.56.56,0,0,0,.63.64,1.42,1.42,0,0,0,.67-.17v1a2.11,2.11,0,0,1-1,.25A1.33,1.33,0,0,1,503.72,199Z"/><path class="cls-3" d="M507.07,192.55h1.32v1.22h-1.32Zm0,2.07h1.24v5.83h-1.24Z"/><path class="cls-3" d="M510.83,199.57v.88h-1.24v-7.94h1.24v3a2,2,0,0,1,1.71-1c1.17,0,2.27,1,2.27,2.95v.15c0,2-1.09,2.95-2.27,2.95A2,2,0,0,1,510.83,199.57Zm2.72-2v-.1c0-1.17-.61-1.88-1.35-1.88s-1.39.73-1.39,1.87v.11c0,1.14.64,1.87,1.39,1.87S513.55,198.76,513.55,197.59Z"/><path class="cls-3" d="M515.76,192.55h1.32v1.22h-1.32Zm0,2.07H517v5.83H515.8Z"/><path class="cls-3" d="M520.28,196.58l1.13-2h1.31L521,197.47l1.83,3h-1.34l-1.19-2.08-1.2,2.08h-1.31l1.8-3-1.74-2.85h1.34Z"/><path class="cls-3" d="M523.28,194.6v-.07a1.77,1.77,0,1,1,3.52,0v.06A1.83,1.83,0,0,1,525,196.5,1.81,1.81,0,0,1,523.28,194.6Zm3.29,0v-.06a1.54,1.54,0,1,0-3.06,0v.07a1.57,1.57,0,0,0,1.52,1.69A1.6,1.6,0,0,0,526.57,194.59Zm-2.24-1.08h.78c.45,0,.77.22.77.66h0a.62.62,0,0,1-.4.6l.45.76h-.51l-.4-.67h-.26v.67h-.44Zm.76,1a.3.3,0,0,0,.34-.31c0-.2-.13-.3-.34-.3h-.32v.61Z"/><path class="cls-3" d="M125.31,140.95l-.88.26-.15-.8,1.3-.43h.66v5.64h-.92Z"/><path class="cls-3" d="M127.28,146.39c.5-.1.7-.38.66-.77h-.41v-1.06h1v.9a1.17,1.17,0,0,1-1.17,1.33Z"/><path class="cls-3" d="M129.4,142.87v-.09c0-1.7.83-2.85,2.13-2.85s2.11,1.14,2.11,2.84v.09c0,1.69-.83,2.85-2.13,2.85S129.4,144.57,129.4,142.87Zm3.29,0v-.06c0-1.25-.48-2-1.17-2s-1.17.75-1.17,2v.06c0,1.26.48,2,1.18,2S132.69,144.11,132.69,142.86Z"/><path class="cls-3" d="M137.35,143.13a1.5,1.5,0,0,1-1.17.52,1.63,1.63,0,0,1-1.71-1.77v0a1.83,1.83,0,0,1,1.86-1.93,1.74,1.74,0,0,1,1.32.51,2.85,2.85,0,0,1,.65,2.16v.06c0,1.94-.82,3-2.17,3a2.33,2.33,0,0,1-1.52-.56l.46-.74a1.62,1.62,0,0,0,1.07.45C136.94,144.86,137.33,144,137.35,143.13Zm0-1.3h0a1,1,0,1,0-1.94,0v0a.94.94,0,0,0,1,1A1,1,0,0,0,137.32,141.83Z"/><path class="cls-3" d="M139.86,145.2a2.85,2.85,0,0,1-.65-2.17V143c0-1.89.78-3,2.17-3a2.21,2.21,0,0,1,1.43.51l-.46.74a1.56,1.56,0,0,0-1-.4c-.81,0-1.17.83-1.2,1.77a1.53,1.53,0,0,1,1.18-.51,1.63,1.63,0,0,1,1.7,1.74v0a1.83,1.83,0,0,1-1.86,1.9A1.78,1.78,0,0,1,139.86,145.2Zm2.25-1.35v0a1,1,0,1,0-1.93,0v0a1,1,0,0,0,1,1A.94.94,0,0,0,142.12,143.85Z"/><path class="cls-3" d="M145.84,141.38h.9v.68a1.43,1.43,0,0,1,1.24-.76c.85,0,1.65.71,1.65,2.14v.11c0,1.42-.79,2.14-1.65,2.14a1.44,1.44,0,0,1-1.24-.72v1.85h-.9Zm2.88,2.16v-.07c0-.85-.44-1.37-1-1.37s-1,.53-1,1.36v.08c0,.83.46,1.36,1,1.36S148.72,144.39,148.72,143.54Z"/><path class="cls-3" d="M150.29,144.4v0c0-.91.61-1.36,1.5-1.36a2.88,2.88,0,0,1,1,.17V143a.8.8,0,0,0-.91-.86,2.41,2.41,0,0,0-1,.26l-.26-.72a3,3,0,0,1,1.4-.34,1.5,1.5,0,0,1,1.67,1.66v2.63h-.89v-.52a1.35,1.35,0,0,1-1.17.6A1.24,1.24,0,0,1,150.29,144.4Zm2.49-.21v-.42a2,2,0,0,0-.78-.15c-.52,0-.82.26-.82.71v0a.65.65,0,0,0,.69.67A.85.85,0,0,0,152.78,144.2Z"/><path class="cls-3" d="M154.82,144.6v-2.44h-.46v-.78h.46v-1.14h.9v1.14h1v.78h-1v2.25a.41.41,0,0,0,.46.46,1,1,0,0,0,.49-.12v.74a1.53,1.53,0,0,1-.75.18A1,1,0,0,1,154.82,144.6Z"/><path class="cls-3" d="M157.49,139.88h1v.89h-1Zm0,1.5h.9v4.24h-.9Z"/><path class="cls-3" d="M159.34,143.55v-.06a2,2,0,0,1,1.81-2.18c1.15,0,1.76,1,1.76,2.23,0,.06,0,.18,0,.31h-2.65a1.09,1.09,0,0,0,1.07,1.1,1.35,1.35,0,0,0,1-.45l.47.56a2,2,0,0,1-3.42-1.5Zm2.69-.33c0-.67-.35-1.16-.88-1.16s-.85.44-.91,1.16Z"/><path class="cls-3" d="M163.8,141.38h.9V142a1.33,1.33,0,0,1,1.16-.7c.82,0,1.3.58,1.3,1.48v2.84h-.9V143c0-.59-.28-.92-.76-.92s-.8.35-.8.94v2.57h-.9Z"/><path class="cls-3" d="M168.35,144.6v-2.44h-.46v-.78h.46v-1.14h.9v1.14h1v.78h-1v2.25a.41.41,0,0,0,.46.46,1,1,0,0,0,.49-.12v.74a1.53,1.53,0,0,1-.75.18A1,1,0,0,1,168.35,144.6Z"/><path class="cls-3" d="M170.8,145.11l.42-.65a1.93,1.93,0,0,0,1.17.5c.38,0,.59-.2.59-.46h0c0-.3-.33-.44-.83-.66s-1.16-.56-1.16-1.26v0a1.27,1.27,0,0,1,1.4-1.24,2.42,2.42,0,0,1,1.38.46l-.38.66a1.89,1.89,0,0,0-1-.38c-.34,0-.54.18-.54.42v0c0,.28.34.42.83.65.66.3,1.15.6,1.15,1.26h0a1.29,1.29,0,0,1-1.45,1.29A2.5,2.5,0,0,1,170.8,145.11Z"/><path class="cls-3" d="M176.53,139.85h.9V142a1.33,1.33,0,0,1,1.16-.7c.82,0,1.3.58,1.3,1.48v2.84H179V143c0-.59-.28-.92-.76-.92s-.8.35-.8.94v2.57h-.9Z"/><path class="cls-3" d="M180.72,144.4v0c0-.91.61-1.36,1.5-1.36a2.88,2.88,0,0,1,1,.17V143a.8.8,0,0,0-.91-.86,2.41,2.41,0,0,0-1,.26l-.26-.72a3,3,0,0,1,1.4-.34,1.5,1.5,0,0,1,1.67,1.66v2.63h-.89v-.52a1.35,1.35,0,0,1-1.17.6A1.24,1.24,0,0,1,180.72,144.4Zm2.49-.21v-.42a2,2,0,0,0-.78-.15c-.52,0-.82.26-.82.71v0a.65.65,0,0,0,.69.67A.85.85,0,0,0,183.21,144.2Z"/><path class="cls-3" d="M185,143.56v-.1c0-1.43.79-2.15,1.65-2.15a1.46,1.46,0,0,1,1.24.72v-2.17h.9v5.77h-.9v-.68a1.43,1.43,0,0,1-1.24.76C185.77,145.7,185,145,185,143.56Zm2.9,0v-.08c0-.83-.46-1.36-1-1.36s-1,.51-1,1.37v.06c0,.85.44,1.37,1,1.37S187.87,144.37,187.87,143.54Z"/><path class="cls-3" d="M132.94,153.6v-2.44h-.46v-.78h.46v-1.14h.9v1.14h1v.78h-1v2.25a.41.41,0,0,0,.46.46,1,1,0,0,0,.49-.12v.74a1.53,1.53,0,0,1-.75.18A1,1,0,0,1,132.94,153.6Z"/><path class="cls-3" d="M135.56,153.22v-2.84h.9V153c0,.59.28.92.75.92s.8-.35.8-.94v-2.57h.91v4.24H138V154a1.31,1.31,0,0,1-1.15.7C136,154.7,135.56,154.13,135.56,153.22Z"/><path class="cls-3" d="M140,150.38h.9V151a1.31,1.31,0,0,1,1.14-.7,1.16,1.16,0,0,1,1.1.68,1.5,1.5,0,0,1,1.24-.68c.78,0,1.29.52,1.29,1.48v2.84h-.9V152c0-.61-.26-.93-.72-.93s-.76.34-.76.94v2.57h-.9V152c0-.6-.26-.92-.71-.92s-.77.36-.77.94v2.56H140Z"/><path class="cls-3" d="M146.57,152.55v-.07a2,2,0,1,1,3.9,0v.07a2,2,0,1,1-3.9,0Zm3,0v0c0-.79-.44-1.38-1.06-1.38s-1,.58-1,1.38v0c0,.79.44,1.39,1.05,1.39S149.57,153.32,149.57,152.53Z"/><path class="cls-3" d="M151.38,150.38h.9v.83a1.26,1.26,0,0,1,1.27-.9v1h0c-.74,0-1.23.48-1.23,1.45v1.87h-.9Z"/><path class="cls-3" d="M155.81,154.11l.42-.65a1.93,1.93,0,0,0,1.17.5c.38,0,.59-.2.59-.46h0c0-.3-.33-.44-.83-.66s-1.16-.56-1.16-1.26v0a1.27,1.27,0,0,1,1.4-1.24,2.42,2.42,0,0,1,1.38.46l-.38.66a1.89,1.89,0,0,0-1-.38c-.34,0-.54.18-.54.42v0c0,.28.34.42.83.65.66.3,1.15.6,1.15,1.26h0a1.29,1.29,0,0,1-1.45,1.29A2.5,2.5,0,0,1,155.81,154.11Z"/><path class="cls-3" d="M159.48,153.4v0c0-.91.61-1.36,1.5-1.36a2.89,2.89,0,0,1,1,.17V152a.8.8,0,0,0-.91-.86,2.41,2.41,0,0,0-1,.26l-.26-.72a3,3,0,0,1,1.4-.34,1.5,1.5,0,0,1,1.67,1.66v2.63h-.89v-.52a1.35,1.35,0,0,1-1.17.6A1.24,1.24,0,0,1,159.48,153.4Zm2.49-.21v-.42a2,2,0,0,0-.78-.15c-.52,0-.82.26-.82.71v0a.65.65,0,0,0,.69.67A.85.85,0,0,0,162,153.2Z"/><path class="cls-3" d="M163.9,150.38h.9V151a1.31,1.31,0,0,1,1.14-.7A1.16,1.16,0,0,1,167,151a1.5,1.5,0,0,1,1.24-.68c.78,0,1.29.52,1.29,1.48v2.84h-.9V152c0-.61-.26-.93-.72-.93s-.76.34-.76.94v2.57h-.9V152c0-.6-.26-.92-.71-.92s-.77.36-.77.94v2.56h-.9Z"/><path class="cls-3" d="M170.66,150.38h.9v.68a1.43,1.43,0,0,1,1.24-.76c.85,0,1.65.71,1.65,2.14v.11c0,1.42-.79,2.14-1.65,2.14a1.44,1.44,0,0,1-1.24-.72v1.85h-.9Zm2.88,2.16v-.07c0-.85-.44-1.37-1-1.37s-1,.53-1,1.36v.08c0,.83.46,1.36,1,1.36S173.54,153.39,173.54,152.54Z"/><path class="cls-3" d="M175.42,148.85h.9v5.77h-.9Z"/><path class="cls-3" d="M177.25,152.55v-.06a2,2,0,0,1,1.81-2.18c1.15,0,1.76,1,1.76,2.23,0,.06,0,.18,0,.31h-2.65a1.09,1.09,0,0,0,1.07,1.1,1.35,1.35,0,0,0,1-.45l.47.56a2,2,0,0,1-3.42-1.5Zm2.69-.33c0-.67-.35-1.16-.88-1.16s-.85.44-.91,1.16Z"/><path class="cls-3" d="M122.78,162.4v0c0-.91.61-1.36,1.5-1.36a2.88,2.88,0,0,1,1,.17V161a.8.8,0,0,0-.91-.86,2.41,2.41,0,0,0-1,.26l-.26-.72a3,3,0,0,1,1.4-.34,1.5,1.5,0,0,1,1.67,1.66v2.63h-.89v-.52a1.35,1.35,0,0,1-1.17.6A1.24,1.24,0,0,1,122.78,162.4Zm2.49-.21v-.42a2,2,0,0,0-.78-.15c-.52,0-.82.26-.82.71v0a.65.65,0,0,0,.69.67A.85.85,0,0,0,125.27,162.2Z"/><path class="cls-3" d="M126.68,159.38h1l1,3.09,1-3.09h.94L129,163.65h-.84Z"/><path class="cls-3" d="M130.9,162.4v0c0-.91.61-1.36,1.5-1.36a2.88,2.88,0,0,1,1,.17V161a.8.8,0,0,0-.91-.86,2.41,2.41,0,0,0-1,.26l-.26-.72a3,3,0,0,1,1.4-.34,1.5,1.5,0,0,1,1.67,1.66v2.63h-.89v-.52a1.35,1.35,0,0,1-1.17.6A1.24,1.24,0,0,1,130.9,162.4Zm2.49-.21v-.42a2,2,0,0,0-.78-.15c-.52,0-.82.26-.82.71v0a.65.65,0,0,0,.69.67A.85.85,0,0,0,133.39,162.2Z"/><path class="cls-3" d="M135.31,157.88h1v.89h-1Zm0,1.5h.9v4.24h-.9Z"/><path class="cls-3" d="M137.39,157.85h.9v5.77h-.9Z"/><path class="cls-3" d="M139.18,162.4v0c0-.91.61-1.36,1.5-1.36a2.88,2.88,0,0,1,1,.17V161a.8.8,0,0,0-.91-.86,2.41,2.41,0,0,0-1,.26l-.26-.72a3,3,0,0,1,1.4-.34,1.5,1.5,0,0,1,1.67,1.66v2.63h-.89v-.52a1.35,1.35,0,0,1-1.17.6A1.24,1.24,0,0,1,139.18,162.4Zm2.49-.21v-.42a2,2,0,0,0-.78-.15c-.52,0-.82.26-.82.71v0a.65.65,0,0,0,.69.67A.85.85,0,0,0,141.67,162.2Z"/><path class="cls-3" d="M144.51,163v.64h-.9v-5.77h.9v2.21a1.43,1.43,0,0,1,1.24-.76c.85,0,1.65.71,1.65,2.14v.11c0,1.42-.79,2.14-1.65,2.14A1.44,1.44,0,0,1,144.51,163Zm2-1.44v-.07c0-.85-.44-1.37-1-1.37s-1,.53-1,1.36v.08c0,.83.46,1.36,1,1.36S146.48,162.39,146.48,161.54Z"/><path class="cls-3" d="M148.36,157.85h.9v5.77h-.9Z"/><path class="cls-3" d="M150.19,161.55v-.06A2,2,0,0,1,152,159.3c1.15,0,1.76,1,1.76,2.23,0,.06,0,.18,0,.31h-2.65a1.09,1.09,0,0,0,1.07,1.1,1.35,1.35,0,0,0,1-.45l.47.56a2,2,0,0,1-3.42-1.5Zm2.69-.33c0-.67-.35-1.16-.88-1.16s-.85.44-.91,1.16Z"/><path class="cls-3" d="M156.24,162.4v0c0-.91.61-1.36,1.5-1.36a2.88,2.88,0,0,1,1,.17V161a.8.8,0,0,0-.91-.86,2.41,2.41,0,0,0-1,.26l-.26-.72a3,3,0,0,1,1.4-.34,1.5,1.5,0,0,1,1.67,1.66v2.63h-.89v-.52a1.35,1.35,0,0,1-1.17.6A1.24,1.24,0,0,1,156.24,162.4Zm2.49-.21v-.42a2,2,0,0,0-.78-.15c-.52,0-.82.26-.82.71v0a.65.65,0,0,0,.69.67A.85.85,0,0,0,158.72,162.2Z"/><path class="cls-3" d="M160.66,159.38h.9V160a1.33,1.33,0,0,1,1.16-.7c.82,0,1.3.58,1.3,1.48v2.84h-.9V161c0-.59-.28-.92-.76-.92s-.8.35-.8.94v2.57h-.9Z"/><path class="cls-3" d="M164.93,161.56v-.1c0-1.43.79-2.15,1.65-2.15a1.46,1.46,0,0,1,1.24.72v-2.17h.9v5.77h-.9v-.68a1.44,1.44,0,0,1-1.24.76C165.73,163.7,164.93,163,164.93,161.56Zm2.9,0v-.08c0-.83-.46-1.36-1-1.36s-1,.51-1,1.37v.06c0,.85.44,1.37,1,1.37S167.83,162.37,167.83,161.54Z"/><path class="cls-3" d="M172.58,158h1l-.66,2.73,2.62-2.73h1.25l-2.44,2.41,1.17,3.19h-1.05l-.86-2.5-1,1-.35,1.48h-1Z"/><path class="cls-3" d="M178.45,161.68h-.84l-.46,1.94h-1l1.37-5.6h1.6a2.08,2.08,0,0,1,1.55.5,1.49,1.49,0,0,1,.41,1.08,1.9,1.9,0,0,1-.52,1.37,2.27,2.27,0,0,1-1.12.6l.85,2h-1.09Zm.21-.85a1.57,1.57,0,0,0,1.14-.38,1.1,1.1,0,0,0,.3-.78.72.72,0,0,0-.2-.54,1.12,1.12,0,0,0-.82-.24h-.78l-.46,1.94Z"/><path class="cls-3" d="M184.28,158h.94l.66,5.64h-1l-.14-1.35h-2.08l-.78,1.35h-1Zm.38,3.43-.19-2.25-1.25,2.25Z"/><path class="cls-3" d="M186.48,162.68l.74-.62a1.76,1.76,0,0,0,1.33.78.74.74,0,0,0,.8-.7c0-.3-.18-.53-.8-1s-1.13-.94-1.13-1.56a1.64,1.64,0,0,1,.45-1.13,1.91,1.91,0,0,1,1.38-.55,2.34,2.34,0,0,1,1.79.83l-.67.66a1.55,1.55,0,0,0-1.15-.64.71.71,0,0,0-.78.66c0,.31.18.53.82,1s1.11.91,1.11,1.58a1.6,1.6,0,0,1-.48,1.17,2,2,0,0,1-1.39.54A2.47,2.47,0,0,1,186.48,162.68Z"/><path class="cls-3" d="M125.24,171.6v-2.44h-.46v-.78h.46v-1.14h.9v1.14h1v.78h-1v2.25a.41.41,0,0,0,.46.46,1,1,0,0,0,.49-.12v.74a1.53,1.53,0,0,1-.75.18A1,1,0,0,1,125.24,171.6Z"/><path class="cls-3" d="M127.66,170.55v-.06a2,2,0,0,1,1.81-2.18c1.15,0,1.76,1,1.76,2.23,0,.06,0,.18,0,.31h-2.65a1.09,1.09,0,0,0,1.07,1.1,1.35,1.35,0,0,0,1-.45l.47.56a2,2,0,0,1-3.42-1.5Zm2.69-.33c0-.67-.35-1.16-.88-1.16s-.85.44-.91,1.16Z"/><path class="cls-3" d="M131.76,172.11l.42-.65a1.93,1.93,0,0,0,1.17.5c.38,0,.59-.2.59-.46h0c0-.3-.33-.44-.83-.66s-1.16-.56-1.16-1.26v0a1.27,1.27,0,0,1,1.4-1.24,2.42,2.42,0,0,1,1.38.46l-.38.66a1.89,1.89,0,0,0-1-.38c-.34,0-.54.18-.54.42v0c0,.28.34.42.83.65.66.3,1.15.6,1.15,1.26h0a1.29,1.29,0,0,1-1.45,1.29A2.5,2.5,0,0,1,131.76,172.11Z"/><path class="cls-3" d="M135.84,171.6v-2.44h-.46v-.78h.46v-1.14h.9v1.14h1v.78h-1v2.25a.41.41,0,0,0,.46.46,1,1,0,0,0,.49-.12v.74a1.53,1.53,0,0,1-.75.18A1,1,0,0,1,135.84,171.6Z"/><path class="cls-3" d="M138.51,166.88h1v.89h-1Zm0,1.5h.9v4.24h-.9Z"/><path class="cls-3" d="M140.56,168.38h.9V169a1.33,1.33,0,0,1,1.16-.7c.82,0,1.3.58,1.3,1.48v2.84H143V170c0-.59-.28-.92-.76-.92s-.8.35-.8.94v2.57h-.9Z"/><path class="cls-3" d="M145,173.44l.3-.71a2.47,2.47,0,0,0,1.27.36A1,1,0,0,0,147.7,172v-.41a1.5,1.5,0,0,1-1.28.74c-.85,0-1.62-.68-1.62-2v0c0-1.31.78-2,1.62-2a1.51,1.51,0,0,1,1.27.71v-.63h.9v3.55a1.91,1.91,0,0,1-.48,1.41,2.06,2.06,0,0,1-1.53.5A3.33,3.33,0,0,1,145,173.44Zm2.73-3.13v0a1.09,1.09,0,0,0-1-1.21c-.55,0-1,.46-1,1.21h0c0,.75.43,1.21,1,1.21A1.09,1.09,0,0,0,147.71,170.32Z"/><path class="cls-3" d="M151.33,170.56v-.08a2,2,0,0,1,1.93-2.17,1.79,1.79,0,0,1,1.36.58l-.5.66a1.14,1.14,0,0,0-.86-.42c-.59,0-1,.57-1,1.37v0c0,.82.43,1.38,1,1.38a1.18,1.18,0,0,0,.86-.43l.49.6a1.77,1.77,0,0,1-1.41.64A2,2,0,0,1,151.33,170.56Z"/><path class="cls-3" d="M155.1,170.55v-.07a2,2,0,1,1,3.9,0v.07a2,2,0,1,1-3.9,0Zm3,0v0c0-.79-.44-1.38-1.06-1.38s-1,.58-1,1.38v0c0,.79.44,1.39,1.05,1.39S158.1,171.32,158.1,170.53Z"/><path class="cls-3" d="M159.9,168.38h.9V169a1.31,1.31,0,0,1,1.14-.7A1.16,1.16,0,0,1,163,169a1.5,1.5,0,0,1,1.24-.68c.78,0,1.29.52,1.29,1.48v2.84h-.9V170c0-.61-.26-.93-.72-.93s-.76.34-.76.94v2.57h-.9V170c0-.6-.26-.92-.71-.92s-.77.36-.77.94v2.56h-.9Z"/><path class="cls-3" d="M166.66,168.38h.9v.68a1.43,1.43,0,0,1,1.24-.76c.85,0,1.65.71,1.65,2.14v.11c0,1.42-.79,2.14-1.65,2.14a1.44,1.44,0,0,1-1.24-.72v1.85h-.9Zm2.88,2.16v-.07c0-.85-.44-1.37-1-1.37s-1,.53-1,1.36v.08c0,.83.46,1.36,1,1.36S169.54,171.39,169.54,170.54Z"/><path class="cls-3" d="M171.41,166.85h.9v5.77h-.9Z"/><path class="cls-3" d="M173.24,170.55v-.06a2,2,0,0,1,1.81-2.18c1.15,0,1.76,1,1.76,2.23,0,.06,0,.18,0,.31h-2.65a1.09,1.09,0,0,0,1.07,1.1,1.35,1.35,0,0,0,1-.45l.47.56a2,2,0,0,1-3.42-1.5Zm2.69-.33c0-.67-.35-1.16-.88-1.16s-.85.44-.91,1.16Z"/><path class="cls-3" d="M177.81,171.6v-2.44h-.46v-.78h.46v-1.14h.9v1.14h1v.78h-1v2.25a.41.41,0,0,0,.46.46,1,1,0,0,0,.49-.12v.74a1.53,1.53,0,0,1-.75.18A1,1,0,0,1,177.81,171.6Z"/><path class="cls-3" d="M180.23,170.55v-.06A2,2,0,0,1,182,168.3c1.15,0,1.76,1,1.76,2.23,0,.06,0,.18,0,.31h-2.65a1.09,1.09,0,0,0,1.07,1.1,1.35,1.35,0,0,0,1-.45l.47.56a2,2,0,0,1-3.42-1.5Zm2.69-.33c0-.67-.35-1.16-.88-1.16s-.85.44-.91,1.16Z"/><path class="cls-3" d="M184.51,170.56v-.1c0-1.43.79-2.15,1.65-2.15a1.46,1.46,0,0,1,1.24.72v-2.17h.9v5.77h-.9v-.68a1.43,1.43,0,0,1-1.24.76C185.31,172.7,184.51,172,184.51,170.56Zm2.9,0v-.08c0-.83-.46-1.36-1-1.36s-1,.51-1,1.37v.06c0,.85.44,1.37,1,1.37S187.41,171.37,187.41,170.54Z"/></g></g></svg>