<svg xmlns="http://www.w3.org/2000/svg" viewBox="0 0 459.63 243.37"><defs><style>.cls-1{fill:#808285;}.cls-2,.cls-3{fill:none;stroke:#808285;stroke-miterlimit:10;}.cls-2{stroke-width:1.03px;}.cls-3{stroke-width:0.53px;}.cls-4{fill:#0093c9;}.cls-5{fill:#fff;}</style></defs><title>first-line-chart-3</title><g id="Layer_2" data-name="Layer 2"><g id="Layer_1-2" data-name="Layer 1"><path class="cls-1" d="M28.3,221,31,218c1-1.08,1.39-1.69,1.39-2.47a1.44,1.44,0,0,0-1.51-1.5,2.27,2.27,0,0,0-1.88,1.2l-.62-.53a2.93,2.93,0,0,1,2.59-1.5,2.22,2.22,0,0,1,2.36,2.24v0c0,1.08-.52,1.79-1.69,3l-2.1,2.37h3.85v.84H28.3Z"/><path class="cls-1" d="M34.56,220.76l.54-.67A2.87,2.87,0,0,0,37,221a1.78,1.78,0,0,0,1.82-1.88v0A1.69,1.69,0,0,0,37,217.3a3,3,0,0,0-1.46.38l-.58-.4.22-4h4.2v.84H36l-.17,2.67a3.23,3.23,0,0,1,1.35-.3A2.42,2.42,0,0,1,39.76,219v0A2.64,2.64,0,0,1,37,221.8,3.58,3.58,0,0,1,34.56,220.76Z"/><path class="cls-1" d="M132.59,221.65l.58-.62a2.5,2.5,0,0,0,2,.95,1.63,1.63,0,0,0,1.7-1.68v0c0-1.08-.92-1.63-2.23-1.63h-.31l-.13-.56,2.33-3h-3.56v-.83h4.71v.67l-2.35,3c1.3.14,2.46.84,2.46,2.32v0a2.5,2.5,0,0,1-2.61,2.54A3.27,3.27,0,0,1,132.59,221.65Z"/><path class="cls-1" d="M138.89,221.76l.54-.67a2.87,2.87,0,0,0,1.93.89,1.78,1.78,0,0,0,1.82-1.88v0a1.69,1.69,0,0,0-1.82-1.75,3,3,0,0,0-1.46.38l-.58-.4.22-4h4.2v.84h-3.42l-.17,2.67a3.23,3.23,0,0,1,1.35-.3A2.42,2.42,0,0,1,144.1,220v0a2.64,2.64,0,0,1-2.75,2.75A3.58,3.58,0,0,1,138.89,221.76Z"/><path class="cls-1" d="M240.6,219.72h-3.85l-.17-.66,4.08-5.85h.79V219h1.12v.75h-1.12v1.94h-.85Zm0-.75v-4.34l-3,4.34Z"/><path class="cls-1" d="M243.59,220.76l.54-.67a2.86,2.86,0,0,0,1.93.89,1.78,1.78,0,0,0,1.82-1.88v0a1.69,1.69,0,0,0-1.82-1.75,3,3,0,0,0-1.46.38l-.58-.4.22-4h4.2v.84H245l-.17,2.67a3.23,3.23,0,0,1,1.36-.3,2.42,2.42,0,0,1,2.59,2.53v0A2.64,2.64,0,0,1,246,221.8,3.58,3.58,0,0,1,243.59,220.76Z"/><path class="cls-1" d="M343.56,220.76l.54-.67A2.86,2.86,0,0,0,346,221a1.78,1.78,0,0,0,1.82-1.88v0A1.69,1.69,0,0,0,346,217.3a3,3,0,0,0-1.46.38l-.58-.4.22-4h4.2v.84H345l-.17,2.67a3.23,3.23,0,0,1,1.36-.3,2.42,2.42,0,0,1,2.59,2.53v0A2.64,2.64,0,0,1,346,221.8,3.58,3.58,0,0,1,343.56,220.76Z"/><path class="cls-1" d="M349.87,220.76l.54-.67a2.86,2.86,0,0,0,1.93.89,1.78,1.78,0,0,0,1.82-1.88v0a1.69,1.69,0,0,0-1.82-1.75,3,3,0,0,0-1.46.38l-.58-.4.22-4h4.2v.84H351.3l-.17,2.67a3.23,3.23,0,0,1,1.36-.3,2.42,2.42,0,0,1,2.59,2.53v0a2.64,2.64,0,0,1-2.75,2.75A3.58,3.58,0,0,1,349.87,220.76Z"/><path class="cls-1" d="M448.79,221.08c-.61-.62-1-1.5-1-3.27v-.1c0-2.78,1.19-4.57,3.11-4.57a3.12,3.12,0,0,1,2,.76l-.48.72a2.38,2.38,0,0,0-1.58-.65c-1.39,0-2.16,1.54-2.17,3.59a2.32,2.32,0,0,1,2-1.14,2.44,2.44,0,0,1,2.53,2.57v0a2.66,2.66,0,0,1-2.65,2.79A2.55,2.55,0,0,1,448.79,221.08Zm3.59-2v0a1.69,1.69,0,0,0-1.74-1.82,1.76,1.76,0,0,0-1.79,1.83v0a1.8,1.8,0,0,0,1.8,1.94A1.78,1.78,0,0,0,452.37,219Z"/><path class="cls-1" d="M454.43,220.76l.54-.67a2.86,2.86,0,0,0,1.93.89,1.78,1.78,0,0,0,1.82-1.88v0a1.69,1.69,0,0,0-1.82-1.75,3,3,0,0,0-1.46.38l-.58-.4.22-4h4.2v.84h-3.42l-.17,2.67a3.23,3.23,0,0,1,1.36-.3,2.42,2.42,0,0,1,2.59,2.53v0a2.64,2.64,0,0,1-2.75,2.75A3.58,3.58,0,0,1,454.43,220.76Z"/><line class="cls-2" x1="34.08" y1="204.04" x2="451.46" y2="204.04"/><line class="cls-3" x1="34.08" y1="204.04" x2="34.08" y2="200.75"/><line class="cls-3" x1="86.25" y1="204.04" x2="86.25" y2="201.75"/><line class="cls-3" x1="138.43" y1="204.04" x2="138.43" y2="201.75"/><line class="cls-3" x1="190.6" y1="204.04" x2="190.6" y2="201.75"/><line class="cls-3" x1="242.77" y1="203.04" x2="242.77" y2="200.75"/><line class="cls-3" x1="294.94" y1="203.04" x2="294.94" y2="200.75"/><line class="cls-3" x1="347.12" y1="203.04" x2="347.12" y2="200.75"/><line class="cls-3" x1="399.29" y1="203.04" x2="399.29" y2="200.75"/><line class="cls-3" x1="451.46" y1="203.04" x2="451.46" y2="200.75"/><path class="cls-1" d="M79.87,221.65l.58-.62a2.5,2.5,0,0,0,2,.95,1.63,1.63,0,0,0,1.7-1.68v0c0-1.08-.92-1.63-2.23-1.63h-.31l-.13-.56,2.33-3H80.22v-.83h4.71v.67l-2.35,3c1.3.14,2.46.84,2.46,2.32v0a2.5,2.5,0,0,1-2.61,2.54A3.27,3.27,0,0,1,79.87,221.65Z"/><path class="cls-1" d="M86.35,218.53v-.1c0-2.52,1.19-4.29,3-4.29s3,1.75,3,4.27v.1c0,2.52-1.19,4.29-3,4.29S86.35,221,86.35,218.53Zm5.16,0v-.1c0-2-.85-3.48-2.12-3.48s-2.11,1.44-2.11,3.45v.1c0,2,.84,3.48,2.12,3.48S91.51,220.55,91.51,218.53Z"/><path class="cls-1" d="M187.44,220.73h-3.85l-.17-.66,4.08-5.85h.79V220h1.12v.75h-1.12v1.94h-.85Zm0-.75v-4.34l-3,4.34Z"/><path class="cls-1" d="M190.56,218.53v-.1c0-2.52,1.19-4.29,3-4.29s3,1.75,3,4.27v.1c0,2.52-1.19,4.29-3,4.29S190.56,221,190.56,218.53Zm5.16,0v-.1c0-2-.85-3.48-2.12-3.48s-2.11,1.44-2.11,3.45v.1c0,2,.84,3.48,2.12,3.48S195.72,220.55,195.72,218.53Z"/><path class="cls-1" d="M292,220.76l.54-.67a2.86,2.86,0,0,0,1.93.89,1.78,1.78,0,0,0,1.82-1.88v0a1.69,1.69,0,0,0-1.82-1.75,3,3,0,0,0-1.46.38l-.58-.4.22-4h4.2v.84H293.4l-.17,2.67a3.23,3.23,0,0,1,1.36-.3,2.42,2.42,0,0,1,2.59,2.53v0a2.64,2.64,0,0,1-2.75,2.75A3.58,3.58,0,0,1,292,220.76Z"/><path class="cls-1" d="M298.43,217.53v-.1c0-2.52,1.19-4.29,3-4.29s3,1.75,3,4.27v.1c0,2.52-1.19,4.29-3,4.29S298.43,220,298.43,217.53Zm5.16,0v-.1c0-2-.85-3.48-2.12-3.48s-2.11,1.44-2.11,3.45v.1c0,2,.84,3.48,2.12,3.48S303.59,219.54,303.59,217.53Z"/><path class="cls-1" d="M396.09,221.08c-.61-.62-1-1.5-1-3.27v-.1c0-2.78,1.19-4.57,3.11-4.57a3.12,3.12,0,0,1,2,.76l-.48.72a2.38,2.38,0,0,0-1.58-.65c-1.39,0-2.16,1.54-2.17,3.59a2.32,2.32,0,0,1,2-1.14,2.44,2.44,0,0,1,2.53,2.57v0a2.66,2.66,0,0,1-2.65,2.79A2.55,2.55,0,0,1,396.09,221.08Zm3.59-2v0a1.69,1.69,0,0,0-1.74-1.82,1.76,1.76,0,0,0-1.79,1.83v0a1.8,1.8,0,0,0,1.8,1.94A1.78,1.78,0,0,0,399.67,219Z"/><path class="cls-1" d="M401.86,217.53v-.1c0-2.52,1.19-4.29,3-4.29s3,1.75,3,4.27v.1c0,2.52-1.19,4.29-3,4.29S401.86,220,401.86,217.53Zm5.16,0v-.1c0-2-.85-3.48-2.12-3.48s-2.11,1.44-2.11,3.45v.1c0,2,.84,3.48,2.12,3.48S407,219.54,407,217.53Z"/><rect class="cls-1" x="34.08" y="101.56" width="208.69" height="82.2"/><rect class="cls-4" x="34.08" y="18.05" width="344.34" height="82.2"/><line class="cls-2" x1="34.08" y1="204.5" x2="34.08"/><path class="cls-1" d="M2,168v2.94H.29v-7.75H2v2.95h9.48V168Z"/><path class="cls-1" d="M3,162.51v-1.81H4.67a2.52,2.52,0,0,1-1.79-2.54h2v.08c0,1.47,1,2.46,2.9,2.46h3.75v1.81Z"/><path class="cls-1" d="M7.35,157.41H7.22c-2.54,0-4.37-1.54-4.37-3.62,0-2.3,1.92-3.52,4.47-3.52l.62,0v5.31a2.18,2.18,0,0,0,2.19-2.14,2.7,2.7,0,0,0-.9-2l1.12-.94a3.9,3.9,0,0,1,1.31,3C11.67,155.71,10,157.41,7.35,157.41ZM6.69,152c-1.34.1-2.32.7-2.32,1.76s.88,1.7,2.32,1.83Z"/><path class="cls-1" d="M9.06,149.12H9c-1.82,0-2.72-1.22-2.72-3a5.77,5.77,0,0,1,.34-2H6.24A1.6,1.6,0,0,0,4.51,146,4.83,4.83,0,0,0,5,148l-1.44.51a6,6,0,0,1-.67-2.8,3.37,3.37,0,0,1,.86-2.5,3.35,3.35,0,0,1,2.45-.85h5.27v1.78h-1a2.7,2.7,0,0,1,1.2,2.35A2.48,2.48,0,0,1,9.06,149.12Zm-.42-5H7.8a4.08,4.08,0,0,0-.3,1.57c0,1,.53,1.65,1.42,1.65h0A1.29,1.29,0,0,0,10.29,146,1.7,1.7,0,0,0,8.64,144.14Z"/><path class="cls-1" d="M9.44,140.18H4.56v.93H3v-.93H.72v-1.81H3v-1.9H4.56v1.9H9.08a.81.81,0,0,0,.93-.91,2.06,2.06,0,0,0-.24-1h1.49a3.07,3.07,0,0,1,.37,1.5A1.93,1.93,0,0,1,9.44,140.18Z"/><path class="cls-1" d="M3,134.83V133H4.24a2.63,2.63,0,0,1-1.39-2.27,2.32,2.32,0,0,1,1.36-2.19,3,3,0,0,1-1.36-2.48c0-1.57,1-2.59,3-2.59h5.68v1.81H6.34c-1.22,0-1.86.51-1.86,1.44s.67,1.52,1.87,1.52h5.14v1.81H6.32c-1.2,0-1.84.53-1.84,1.42S5.2,133,6.37,133h5.12v1.81Z"/><path class="cls-1" d="M7.35,121.87H7.22c-2.54,0-4.37-1.54-4.37-3.62,0-2.3,1.92-3.52,4.47-3.52l.62,0v5.31a2.18,2.18,0,0,0,2.19-2.14,2.7,2.7,0,0,0-.9-2l1.12-.94a3.9,3.9,0,0,1,1.31,3C11.67,120.18,10,121.87,7.35,121.87Zm-.66-5.38c-1.34.1-2.32.7-2.32,1.76s.88,1.7,2.32,1.83Z"/><path class="cls-1" d="M3,113.11V111.3H4.26A2.66,2.66,0,0,1,2.85,109c0-1.63,1.15-2.61,3-2.61h5.68v1.81H6.32c-1.18,0-1.84.56-1.84,1.52s.7,1.6,1.87,1.6h5.14v1.81Z"/><path class="cls-1" d="M9.44,104.08H4.56V105H3v-.93H.72v-1.81H3v-1.9H4.56v1.9H9.08a.81.81,0,0,0,.93-.91,2.05,2.05,0,0,0-.24-1h1.49a3.07,3.07,0,0,1,.37,1.5A1.93,1.93,0,0,1,9.44,104.08Z"/><path class="cls-1" d="M3,94.61V92.8H4.67a2.52,2.52,0,0,1-1.79-2.54h2v.08c0,1.47,1,2.47,2.9,2.47h3.75v1.81Z"/><path class="cls-1" d="M7.35,89.51H7.22c-2.54,0-4.37-1.54-4.37-3.62,0-2.3,1.92-3.52,4.47-3.52l.62,0V87.7a2.18,2.18,0,0,0,2.19-2.14,2.7,2.7,0,0,0-.9-2l1.12-.94a3.9,3.9,0,0,1,1.31,3C11.67,87.81,10,89.51,7.35,89.51Zm-.66-5.38c-1.34.1-2.32.7-2.32,1.76s.88,1.7,2.32,1.82Z"/><path class="cls-1" d="M13.14,80.74l-1.42-.59a5,5,0,0,0,.72-2.54A2,2,0,0,0,10.2,75.3H9.38a3,3,0,0,1,1.49,2.56c0,1.7-1.36,3.23-4,3.23H6.83c-2.62,0-4-1.55-4-3.23a3,3,0,0,1,1.42-2.54H3V73.51h7.11a3.81,3.81,0,0,1,2.82,1,4.12,4.12,0,0,1,1,3.06A6.66,6.66,0,0,1,13.14,80.74ZM6.88,75.28h0a2.18,2.18,0,0,0-2.42,2c0,1.1.91,2,2.42,2h0c1.5,0,2.43-.86,2.43-2A2.19,2.19,0,0,0,6.88,75.28Z"/><path class="cls-1" d="M0,71.43V69.51H1.78v1.92Zm3-.06V69.56h8.48v1.81Z"/><path class="cls-1" d="M3,67.41V65.6H4.24a2.63,2.63,0,0,1-1.39-2.27,2.32,2.32,0,0,1,1.36-2.19,3,3,0,0,1-1.36-2.48c0-1.57,1-2.59,3-2.59h5.68v1.81H6.34c-1.22,0-1.86.51-1.86,1.44s.67,1.52,1.87,1.52h5.14v1.81H6.32c-1.2,0-1.84.53-1.84,1.42S5.2,65.6,6.37,65.6h5.12v1.81Z"/><path class="cls-1" d="M7.35,54.45H7.22c-2.54,0-4.37-1.54-4.37-3.62,0-2.3,1.92-3.52,4.47-3.52l.62,0v5.31a2.18,2.18,0,0,0,2.19-2.14,2.7,2.7,0,0,0-.9-2l1.12-.94a3.9,3.9,0,0,1,1.31,3C11.67,52.76,10,54.45,7.35,54.45Zm-.66-5.38c-1.34.1-2.32.7-2.32,1.76s.88,1.7,2.32,1.82Z"/><path class="cls-1" d="M3,45.68V43.88H4.26a2.66,2.66,0,0,1-1.41-2.32c0-1.63,1.15-2.61,3-2.61h5.68v1.81H6.32c-1.18,0-1.84.56-1.84,1.52s.7,1.6,1.87,1.6h5.14v1.81Z"/><path class="cls-1" d="M213.39,235.66v-.16c0-3.33,2-5.71,5-5.71s4.95,2.37,4.95,5.68v.16c0,3.33-2,5.71-5,5.71S213.39,239,213.39,235.66Zm8,0v-.11c0-2.4-1.28-4-3.06-4s-3,1.58-3,4v.11c0,2.4,1.3,4,3.06,4S221.4,238,221.4,235.63Z"/><path class="cls-1" d="M225.33,230h4a4.15,4.15,0,0,1,3,1.06,3.4,3.4,0,0,1,.93,2.46v.06a3.28,3.28,0,0,1-2.32,3.28l2.64,4.34h-2.14l-2.39-4a.26.26,0,0,1-.11,0h-1.79v4h-1.86Zm3.86,5.59c1.44,0,2.24-.77,2.24-1.94v0c0-1.26-.82-1.92-2.21-1.92h-2v3.89Z"/><path class="cls-1" d="M235.31,230h4a4.15,4.15,0,0,1,3,1.06,3.4,3.4,0,0,1,.93,2.46v.06a3.28,3.28,0,0,1-2.32,3.28l2.64,4.34h-2.14l-2.39-4a.26.26,0,0,1-.11,0h-1.79v4h-1.86Zm3.86,5.59c1.44,0,2.24-.77,2.24-1.94v0c0-1.26-.82-1.92-2.21-1.92h-2v3.89Z"/><path class="cls-1" d="M249.1,236.56a7.21,7.21,0,0,1,4.08-6.82l.72,1.18a6.78,6.78,0,0,0,0,11.27l-.72,1.18A7.18,7.18,0,0,1,249.1,236.56Z"/><path class="cls-1" d="M255.14,232.78v-.11a2.41,2.41,0,1,1,4.75,0v.11a2.41,2.41,0,1,1-4.75,0Zm8.36-2.82h1.42L261,235.88l-3.39,5.28h-1.41l3.91-5.91Zm-7,2.71v.08c0,1,.45,1.66,1.06,1.66s1-.69,1-1.65v-.06c0-1-.43-1.66-1.06-1.66S256.46,231.71,256.46,232.67Zm4.75,5.81v-.11c0-1.62,1-2.83,2.39-2.83a2.53,2.53,0,0,1,2.37,2.82v.11a2.41,2.41,0,1,1-4.75,0Zm3.43,0v-.08c0-1-.43-1.67-1.06-1.67s-1,.69-1,1.65v.06c0,1,.45,1.67,1.06,1.67S264.64,239.42,264.64,238.46Z"/><path class="cls-1" d="M267.22,242.19a6.8,6.8,0,0,0,0-11.27l.72-1.18a7.74,7.74,0,0,1,0,13.64Z"/><path class="cls-5" d="M63,147.16H47.63l-.92-5.34,16.75-23.16h6.46V141h4.33v6.16H69.93v7.33H63ZM63,141V129.5L54.81,141Z"/><path class="cls-5" d="M77.76,150.58l4.12-5.5c2.29,2,4.43,3.21,7.13,3.21,3.31,0,5.45-2,5.45-5.24V143c0-3.16-2.44-5-5.75-5a12.12,12.12,0,0,0-4.89,1.12l-4.12-2.7,1-17.51h19.5v6.62H86.83l-.41,6.46a14.47,14.47,0,0,1,4-.51c6.06,0,11.3,3.26,11.3,11.25v.15c0,7.58-5.14,12.27-12.52,12.27A16.21,16.21,0,0,1,77.76,150.58Z"/><path class="cls-5" d="M105.35,136.9v-.27c0-3.44,2.09-6,5.2-6s5.13,2.57,5.13,6v.27c0,3.41-2.09,6-5.2,6S105.35,140.31,105.35,136.9Zm17.69-6h3.55l-8.37,12.56-7.06,11.08h-3.51L116,141.93Zm-14.39,5.77v.17c0,1.86.74,3.07,1.89,3.07s1.82-1.22,1.82-3v-.17c0-1.86-.74-3.07-1.89-3.07S108.65,134.81,108.65,136.63Zm9.86,12.16v-.27c0-3.44,2.09-6,5.2-6s5.13,2.53,5.13,5.94v.27c0,3.44-2.06,6-5.2,6S118.51,152.2,118.51,148.79Zm7-.07v-.17c0-1.86-.74-3.07-1.89-3.07s-1.82,1.21-1.82,3v.17c0,1.86.74,3.07,1.89,3.07S125.54,150.54,125.54,148.72Z"/><path class="cls-5" d="M44.83,67l4.12-5.5c2.29,2,4.43,3.21,7.13,3.21,3.31,0,5.45-2,5.45-5.24v-.05c0-3.16-2.44-5-5.75-5a12.11,12.11,0,0,0-4.89,1.12l-4.12-2.7,1-17.51h19.5V41.9H53.89l-.41,6.46a14.49,14.49,0,0,1,4-.51c6.06,0,11.3,3.26,11.3,11.25v.15c0,7.58-5.14,12.27-12.52,12.27A16.21,16.21,0,0,1,44.83,67Z"/><path class="cls-5" d="M73,61.19V61a8.79,8.79,0,0,1,5.34-8.6A8.72,8.72,0,0,1,74,44.65v-.2c0-5.5,4.58-9.67,11.4-9.67s11.4,4.12,11.4,9.67v.2a8.76,8.76,0,0,1-4.33,7.79c3.16,1.73,5.34,4.07,5.34,8.45v.2c0,6.46-5.29,10.33-12.42,10.33S73,67.45,73,61.19Zm17.77-.61v-.1c0-3-2.29-4.73-5.29-4.73s-5.29,1.78-5.29,4.73v.1c0,2.85,2.09,4.78,5.29,4.78S90.74,63.48,90.74,60.58Zm-.87-15.37v-.05a4.45,4.45,0,0,0-8.91,0v.05a4.46,4.46,0,1,0,8.91,0Z"/><path class="cls-5" d="M101.06,53.32v-.27c0-3.44,2.09-6,5.2-6s5.13,2.57,5.13,6v.27c0,3.41-2.09,6-5.2,6S101.06,56.73,101.06,53.32Zm17.69-6h3.55l-8.37,12.56-7.06,11.08h-3.51l8.37-12.56Zm-14.39,5.77v.17c0,1.86.74,3.07,1.89,3.07s1.82-1.22,1.82-3v-.17c0-1.86-.74-3.07-1.89-3.07S104.37,51.23,104.37,53.05Zm9.86,12.16v-.27c0-3.44,2.09-6,5.2-6s5.13,2.53,5.13,5.94v.27c0,3.44-2.06,6-5.2,6S114.23,68.62,114.23,65.21Zm7-.07V65c0-1.86-.74-3.07-1.89-3.07s-1.82,1.21-1.82,3v.17c0,1.86.74,3.07,1.89,3.07S121.25,67,121.25,65.14Z"/><path class="cls-5" d="M141.68,33.78H143l3.3,9.54,3.31-9.54h1.26l-4,11.28h-1.1Z"/><path class="cls-5" d="M151.28,40.89v-.08c0-2.54,1.49-4.32,3.44-4.32s3.35,1.79,3.35,4.31c0,.11,0,.34,0,.48h-5.6c.13,1.84,1.26,2.87,2.58,2.87a2.93,2.93,0,0,0,2.16-1l.66.74A3.77,3.77,0,0,1,155,45.16C152.94,45.16,151.28,43.53,151.28,40.89Zm5.63-.51c-.08-1.58-.83-2.88-2.19-2.88s-2.16,1.14-2.27,2.88Z"/><path class="cls-5" d="M159.48,40.91v-.11c0-2.53,1.63-4.31,3.71-4.31a3.53,3.53,0,0,1,2.63,1.14l-.69.86a2.7,2.7,0,0,0-2-.94c-1.39,0-2.51,1.31-2.51,3.25v.08c0,2,1.15,3.23,2.56,3.23a2.68,2.68,0,0,0,2-1l.67.77a3.43,3.43,0,0,1-2.69,1.25C161.06,45.16,159.48,43.43,159.48,40.91Z"/><path class="cls-5" d="M168.09,43V37.67h-1v-1h1V34.21h1.15v2.43h2.18v1h-2.18v5.19a1.06,1.06,0,0,0,1.2,1.2,2.47,2.47,0,0,0,1-.22v1a2.81,2.81,0,0,1-1.25.29A1.87,1.87,0,0,1,168.09,43Z"/><path class="cls-5" d="M173,33.57h1.28v1.36H173Zm.06,3.07h1.15V45H173.1Z"/><path class="cls-5" d="M177.73,43.43V45h-1.15V33.43h1.15v4.82a3.11,3.11,0,0,1,2.71-1.76c1.7,0,3.33,1.47,3.33,4.24v.16c0,2.77-1.63,4.26-3.33,4.26A3.09,3.09,0,0,1,177.73,43.43Zm4.85-2.54v-.13c0-2-1.09-3.23-2.37-3.23s-2.53,1.26-2.53,3.22v.16c0,2,1.22,3.2,2.53,3.2S182.58,42.94,182.58,40.89Z"/><path class="cls-5" d="M185.62,33.57h1.28v1.36h-1.28Zm.06,3.07h1.15V45h-1.15Z"/><path class="cls-5" d="M191.89,39.9,194,36.65h1.25l-2.66,4L195.33,45H194l-2.16-3.44L189.71,45h-1.26l2.75-4.26-2.64-4.08h1.3Z"/><path class="cls-5" d="M196.56,36.47v-.1a2.57,2.57,0,1,1,5.12,0v.1a2.57,2.57,0,1,1-5.12,0Zm4.79,0v-.1a2.31,2.31,0,0,0-2.22-2.46,2.34,2.34,0,0,0-2.24,2.48v.1a2.24,2.24,0,1,0,4.47,0Zm-3.2-1.55h1.09a.92.92,0,0,1,1,.93.86.86,0,0,1-.61.86l.7,1.12h-.59l-.62-1h-.5v1h-.51Zm1,1.46c.37,0,.58-.19.58-.5s-.22-.5-.58-.5h-.53v1Z"/><path class="cls-5" d="M210,39.9h-2.88V38.81H210v-2.9h1.12v2.9H214V39.9h-2.88v2.9H210Z"/><path class="cls-5" d="M220.41,33.78h6.77v1.1h-5.57V39h5v1.1h-5V45h-1.2Z"/><path class="cls-5" d="M228.56,39.46v-.13c0-3.3,2-5.73,4.83-5.73s4.8,2.42,4.8,5.7v.13c0,3.3-2,5.73-4.82,5.73S228.56,42.75,228.56,39.46Zm8.4,0v-.11c0-2.71-1.52-4.63-3.58-4.63s-3.57,1.9-3.57,4.61v.11c0,2.71,1.52,4.63,3.58,4.63S237,42.15,237,39.45Z"/><path class="cls-5" d="M240.49,33.78h1.2v10.1h5.2V45h-6.4Z"/><path class="cls-5" d="M248.72,33.78h6.77v1.1h-5.57V39h5v1.1h-5V45h-1.2Z"/><path class="cls-5" d="M256.87,39.46v-.13c0-3.3,2-5.73,4.83-5.73s4.8,2.42,4.8,5.7v.13c0,3.3-2,5.73-4.82,5.73S256.87,42.75,256.87,39.46Zm8.4,0v-.11c0-2.71-1.52-4.63-3.58-4.63s-3.57,1.9-3.57,4.61v.11c0,2.71,1.52,4.63,3.58,4.63S265.28,42.15,265.28,39.45Z"/><path class="cls-5" d="M275.9,33.78l-3.44,5.44L276.08,45H274.7l-3-4.83-3,4.83H267.4L271,39.26l-3.46-5.47H269l2.79,4.56,2.82-4.56Z"/><path class="cls-5" d="M142.08,59.58a7.51,7.51,0,0,1,4-6.82l.46.75a7.25,7.25,0,0,0,0,12.13l-.46.75A7.51,7.51,0,0,1,142.08,59.58Z"/><path class="cls-5" d="M147.56,55.85h1.15v1.36a2.7,2.7,0,0,1,2.46-1.52c1.7,0,2.72,1.17,2.72,3v5.46h-1.15V59c0-1.49-.7-2.32-1.92-2.32a2.17,2.17,0,0,0-2.11,2.38v5.07h-1.15Z"/><path class="cls-5" d="M160.15,56.31h6.59v1.14h-6.59Zm0,3.34h6.59v1.14h-6.59Z"/><path class="cls-5" d="M172.6,63.26l3.62-4c1.34-1.44,1.86-2.26,1.86-3.3a1.93,1.93,0,0,0-2-2,3,3,0,0,0-2.51,1.6l-.83-.71a3.9,3.9,0,0,1,3.46-2,3,3,0,0,1,3.15,3v0c0,1.44-.69,2.38-2.26,4l-2.8,3.17h5.14v1.12h-6.8Z"/><path class="cls-5" d="M181.05,63l.72-.9a3.82,3.82,0,0,0,2.58,1.18,2.37,2.37,0,0,0,2.43-2.51v0a2.25,2.25,0,0,0-2.43-2.34,4,4,0,0,0-2,.51l-.77-.53.29-5.36h5.6V54.1H183l-.22,3.57a4.32,4.32,0,0,1,1.81-.4A3.23,3.23,0,0,1,188,60.65v0a3.52,3.52,0,0,1-3.67,3.67A4.78,4.78,0,0,1,181.05,63Z"/><path class="cls-5" d="M195.4,58.55a3.09,3.09,0,0,1-2.71,1.55,3.26,3.26,0,0,1-3.39-3.47v0a3.57,3.57,0,0,1,3.54-3.79,3.3,3.3,0,0,1,2.47,1c.78.78,1.3,2,1.3,4.35v.13c0,3.81-1.66,6.1-4.15,6.1a4.36,4.36,0,0,1-2.85-1.1l.62-1a3.4,3.4,0,0,0,2.26,1C194.33,63.26,195.39,61.19,195.4,58.55Zm-.18-2v0a2.37,2.37,0,1,0-4.71,0v0a2.29,2.29,0,0,0,2.32,2.5A2.38,2.38,0,0,0,195.23,56.55Z"/><path class="cls-5" d="M197.61,65.64a7.25,7.25,0,0,0,0-12.13l.46-.75a7.83,7.83,0,0,1,0,13.64Z"/><path class="cls-5" d="M43.2,85.23a5.4,5.4,0,0,1,3.06-5.11l.54.89a5.08,5.08,0,0,0,0,8.44l-.54.89A5.38,5.38,0,0,1,43.2,85.23Z"/><path class="cls-5" d="M52.13,85a2.25,2.25,0,0,1-1.75.78,2.45,2.45,0,0,1-2.57-2.65v0a2.75,2.75,0,0,1,2.78-2.89,2.61,2.61,0,0,1,2,.77,4.28,4.28,0,0,1,1,3.24v.08c0,2.9-1.24,4.57-3.25,4.57A3.48,3.48,0,0,1,48,88l.7-1.1a2.44,2.44,0,0,0,1.61.67C51.52,87.55,52.09,86.31,52.13,85Zm0-2h0a1.46,1.46,0,1,0-2.9,0v0a1.41,1.41,0,0,0,1.45,1.55A1.43,1.43,0,0,0,52.08,83Z"/><path class="cls-5" d="M54.52,87.76l.79-1a2.64,2.64,0,0,0,1.79.8A1.41,1.41,0,0,0,58.6,86v0a1.4,1.4,0,0,0-1.55-1.42,2.88,2.88,0,0,0-1.27.31L55,84.37l.23-4.08h4.44v1.27H56.37l-.13,2a3.31,3.31,0,0,1,1.12-.19A2.43,2.43,0,0,1,60,86v0a2.7,2.7,0,0,1-2.87,2.83A3.7,3.7,0,0,1,54.52,87.76Z"/><path class="cls-5" d="M61,82.4v-.08a1.81,1.81,0,1,1,3.56,0v.08a1.81,1.81,0,1,1-3.56,0Zm6.26-2.11h1.07l-2.93,4.44-2.54,4H61.85l2.93-4.43Zm-5.27,2v.06c0,.74.34,1.25.79,1.25s.78-.52.78-1.24v0c0-.74-.32-1.25-.79-1.25S62,81.6,62,82.32Zm3.56,4.35v-.08a1.81,1.81,0,1,1,3.56,0v.08a1.81,1.81,0,1,1-3.56,0Zm2.57,0V86.6c0-.73-.32-1.25-.79-1.25s-.78.52-.78,1.24v0c0,.74.34,1.25.79,1.25S68.17,87.38,68.17,86.66Z"/><path class="cls-5" d="M73.36,84.54v-.08c0-2.54,1.58-4.28,3.75-4.28a3.66,3.66,0,0,1,2.64,1l-.84,1.07a2.58,2.58,0,0,0-1.8-.82c-1.32,0-2.31,1.2-2.31,3v0c0,1.82,1,3,2.31,3A2.56,2.56,0,0,0,79,86.64l.82,1A3.61,3.61,0,0,1,77,88.81C74.9,88.81,73.36,87.1,73.36,84.54Z"/><path class="cls-5" d="M81.15,80.29h1.39v8.4H81.15Z"/><path class="cls-5" d="M84.29,82.33h1.54v1.59H84.29Zm0,4.76h1.54v1.59H84.29Z"/><path class="cls-5" d="M90.15,87.76l.79-1a2.64,2.64,0,0,0,1.79.8,1.41,1.41,0,0,0,1.5-1.5v0a1.4,1.4,0,0,0-1.55-1.42,2.88,2.88,0,0,0-1.27.31l-.82-.54.23-4.08h4.44v1.27H92l-.13,2A3.31,3.31,0,0,1,93,83.36,2.43,2.43,0,0,1,95.6,86v0a2.7,2.7,0,0,1-2.87,2.83A3.7,3.7,0,0,1,90.15,87.76Z"/><path class="cls-5" d="M98,81.68l-1.32.4-.23-1.2,1.94-.65h1v8.46H98Z"/><path class="cls-5" d="M100.85,82.4v-.08a1.81,1.81,0,1,1,3.56,0v.08a1.81,1.81,0,1,1-3.56,0Zm6.26-2.11h1.07l-2.93,4.44-2.54,4h-1.06l2.93-4.43Zm-5.27,2v.06c0,.74.34,1.25.79,1.25s.78-.52.78-1.24v0c0-.74-.32-1.25-.79-1.25S101.85,81.6,101.85,82.32Zm3.56,4.35v-.08a1.81,1.81,0,1,1,3.56,0v.08a1.81,1.81,0,1,1-3.56,0Zm2.57,0V86.6c0-.73-.32-1.25-.79-1.25s-.78.52-.78,1.24v0c0,.74.34,1.25.79,1.25S108,87.38,108,86.66Z"/><path class="cls-5" d="M110.08,84.37h4.79v1.29h-4.79Z"/><path class="cls-5" d="M117,88.06a4.26,4.26,0,0,1-1-3.25v-.08c0-2.83,1.18-4.57,3.25-4.57a3.31,3.31,0,0,1,2.15.77l-.68,1.1a2.34,2.34,0,0,0-1.5-.6c-1.21,0-1.76,1.25-1.8,2.66a2.29,2.29,0,0,1,1.76-.77,2.44,2.44,0,0,1,2.55,2.62v0A2.74,2.74,0,0,1,119,88.82,2.66,2.66,0,0,1,117,88.06Zm3.38-2v0a1.45,1.45,0,1,0-2.9,0v0A1.44,1.44,0,0,0,119,87.59,1.42,1.42,0,0,0,120.42,86Z"/><path class="cls-5" d="M126.65,86.86h-3.72l-.19-1,4-5.61H128V85.7h1v1.16h-1v1.82h-1.32Zm0-1.16V82.33l-2.37,3.37Z"/><path class="cls-5" d="M130,82.4v-.08a1.81,1.81,0,1,1,3.56,0v.08a1.81,1.81,0,1,1-3.56,0Zm6.26-2.11h1.07l-2.93,4.44-2.54,4h-1.06l2.93-4.43Zm-5.27,2v.06c0,.74.34,1.25.79,1.25s.78-.52.78-1.24v0c0-.74-.32-1.25-.79-1.25S131,81.6,131,82.32Zm3.56,4.35v-.08a1.81,1.81,0,1,1,3.56,0v.08a1.81,1.81,0,1,1-3.56,0Zm2.57,0V86.6c0-.73-.32-1.25-.79-1.25s-.78.52-.78,1.24v0c0,.74.34,1.25.79,1.25S137.11,87.38,137.11,86.66Z"/><path class="cls-5" d="M139,89.45A5.09,5.09,0,0,0,139,81l.54-.89a5.8,5.8,0,0,1,0,10.22Z"/><path class="cls-5" d="M46.69,168.5a5.4,5.4,0,0,1,3.06-5.11l.54.89a5.08,5.08,0,0,0,0,8.44l-.54.89A5.38,5.38,0,0,1,46.69,168.5Z"/><path class="cls-5" d="M55.62,168.22a2.25,2.25,0,0,1-1.75.78,2.45,2.45,0,0,1-2.57-2.65v0a2.75,2.75,0,0,1,2.78-2.89,2.61,2.61,0,0,1,2,.77,4.28,4.28,0,0,1,1,3.24v.08c0,2.9-1.24,4.57-3.25,4.57a3.48,3.48,0,0,1-2.28-.84l.7-1.1a2.44,2.44,0,0,0,1.61.67C55,170.81,55.58,169.57,55.62,168.22Zm0-2h0a1.46,1.46,0,1,0-2.9,0v0a1.41,1.41,0,0,0,1.45,1.55A1.43,1.43,0,0,0,55.57,166.26Z"/><path class="cls-5" d="M58,171l.79-1a2.64,2.64,0,0,0,1.79.8,1.41,1.41,0,0,0,1.5-1.5v0a1.4,1.4,0,0,0-1.55-1.42,2.88,2.88,0,0,0-1.27.31l-.82-.54.23-4.08h4.44v1.27H59.85l-.13,2a3.31,3.31,0,0,1,1.12-.19,2.43,2.43,0,0,1,2.63,2.6v0a2.7,2.7,0,0,1-2.87,2.83A3.7,3.7,0,0,1,58,171Z"/><path class="cls-5" d="M64.53,165.66v-.08a1.81,1.81,0,1,1,3.56,0v.08a1.81,1.81,0,1,1-3.56,0Zm6.26-2.11h1.07L68.94,168l-2.54,4H65.34l2.93-4.43Zm-5.27,2v.06c0,.74.34,1.25.79,1.25s.78-.52.78-1.24v0c0-.74-.32-1.25-.79-1.25S65.53,164.86,65.53,165.58Zm3.56,4.35v-.08a1.81,1.81,0,1,1,3.56,0v.08a1.81,1.81,0,1,1-3.56,0Zm2.57,0v-.06c0-.73-.32-1.25-.79-1.25s-.78.52-.78,1.24v0c0,.74.34,1.25.79,1.25S71.66,170.64,71.66,169.92Z"/><path class="cls-5" d="M76.85,167.8v-.08c0-2.54,1.58-4.28,3.75-4.28a3.66,3.66,0,0,1,2.64,1l-.84,1.07a2.58,2.58,0,0,0-1.8-.82c-1.32,0-2.31,1.2-2.31,3v0c0,1.82,1,3,2.31,3a2.56,2.56,0,0,0,1.86-.87l.82,1a3.61,3.61,0,0,1-2.75,1.19C78.38,172.07,76.85,170.37,76.85,167.8Z"/><path class="cls-5" d="M84.63,163.55H86v8.4H84.63Z"/><path class="cls-5" d="M87.78,165.59h1.54v1.59H87.78Zm0,4.76h1.54v1.59H87.78Z"/><path class="cls-5" d="M93.55,170.93l.86-1a2.34,2.34,0,0,0,1.81.88,1.3,1.3,0,0,0,1.38-1.33v0c0-.86-.74-1.34-1.91-1.34h-.42l-.18-.88,2-2.43H94v-1.25h4.92v1.09l-2.12,2.43A2.33,2.33,0,0,1,99,169.41v0a2.57,2.57,0,0,1-2.75,2.64A3.51,3.51,0,0,1,93.55,170.93Z"/><path class="cls-5" d="M104.42,168.22a2.25,2.25,0,0,1-1.75.78,2.45,2.45,0,0,1-2.57-2.65v0a2.75,2.75,0,0,1,2.78-2.89,2.61,2.61,0,0,1,2,.77,4.28,4.28,0,0,1,1,3.24v.08c0,2.9-1.24,4.57-3.25,4.57a3.48,3.48,0,0,1-2.28-.84l.7-1.1a2.44,2.44,0,0,0,1.61.67C103.81,170.81,104.38,169.57,104.42,168.22Zm0-2h0a1.46,1.46,0,1,0-2.9,0v0a1.41,1.41,0,0,0,1.45,1.55A1.43,1.43,0,0,0,104.37,166.26Z"/><path class="cls-5" d="M106.9,165.66v-.08a1.81,1.81,0,1,1,3.56,0v.08a1.81,1.81,0,1,1-3.56,0Zm6.26-2.11h1.07L111.31,168l-2.54,4h-1.06l2.93-4.43Zm-5.27,2v.06c0,.74.34,1.25.79,1.25s.78-.52.78-1.24v0c0-.74-.32-1.25-.79-1.25S107.9,164.86,107.9,165.58Zm3.56,4.35v-.08a1.81,1.81,0,1,1,3.56,0v.08a1.81,1.81,0,1,1-3.56,0Zm2.57,0v-.06c0-.73-.32-1.25-.79-1.25s-.78.52-.78,1.24v0c0,.74.34,1.25.79,1.25S114,170.64,114,169.92Z"/><path class="cls-5" d="M116.13,167.63h4.79v1.29h-4.79Z"/><path class="cls-5" d="M122,171l.79-1a2.64,2.64,0,0,0,1.79.8,1.41,1.41,0,0,0,1.5-1.5v0a1.4,1.4,0,0,0-1.55-1.42,2.88,2.88,0,0,0-1.27.31l-.82-.54.23-4.08h4.44v1.27h-3.26l-.13,2a3.31,3.31,0,0,1,1.12-.19,2.43,2.43,0,0,1,2.63,2.6v0a2.7,2.7,0,0,1-2.87,2.83A3.7,3.7,0,0,1,122,171Z"/><path class="cls-5" d="M129.82,164.95l-1.32.4-.23-1.2,1.94-.65h1v8.46h-1.38Z"/><path class="cls-5" d="M132.68,165.66v-.08a1.81,1.81,0,1,1,3.56,0v.08a1.81,1.81,0,1,1-3.56,0Zm6.26-2.11H140L137.08,168l-2.54,4h-1.06l2.93-4.43Zm-5.27,2v.06c0,.74.34,1.25.79,1.25s.78-.52.78-1.24v0c0-.74-.32-1.25-.79-1.25S133.68,164.86,133.68,165.58Zm3.56,4.35v-.08a1.81,1.81,0,1,1,3.56,0v.08a1.81,1.81,0,1,1-3.56,0Zm2.57,0v-.06c0-.73-.32-1.25-.79-1.25s-.78.52-.78,1.24v0c0,.74.34,1.25.79,1.25S139.8,170.64,139.8,169.92Z"/><path class="cls-5" d="M141.74,172.72a5.09,5.09,0,0,0,0-8.44l.54-.89a5.8,5.8,0,0,1,0,10.22Z"/><path class="cls-5" d="M142.49,118h6.77v1.1h-5.57v4.07h5v1.1h-5v4.93h-1.2Z"/><path class="cls-5" d="M150.24,123.68v-.13c0-3.3,2-5.73,4.83-5.73s4.8,2.42,4.8,5.7v.13c0,3.3-2,5.73-4.82,5.73S150.24,127,150.24,123.68Zm8.4,0v-.11c0-2.71-1.52-4.63-3.59-4.63s-3.57,1.91-3.57,4.61v.11c0,2.71,1.52,4.63,3.59,4.63S158.65,126.37,158.65,123.66Z"/><path class="cls-5" d="M161.77,118H163v10.1h5.2v1.1h-6.4Z"/><path class="cls-5" d="M169.6,118h6.77v1.1h-5.57v4.07h5v1.1h-5v4.93h-1.2Z"/><path class="cls-5" d="M177.36,123.68v-.13c0-3.3,2-5.73,4.83-5.73s4.8,2.42,4.8,5.7v.13c0,3.3-2,5.73-4.82,5.73S177.36,127,177.36,123.68Zm8.4,0v-.11c0-2.71-1.52-4.63-3.59-4.63s-3.57,1.91-3.57,4.61v.11c0,2.71,1.52,4.63,3.59,4.63S185.76,126.37,185.76,123.66Z"/><path class="cls-5" d="M196,118l-3.44,5.44,3.62,5.76h-1.38l-3-4.83-3,4.83h-1.34l3.62-5.73L187.64,118H189l2.79,4.56,2.82-4.56Z"/><path class="cls-5" d="M200.73,126.78v-.06c0-1.71,1.23-2.69,3.07-2.69a6.84,6.84,0,0,1,2.14.34v-.5a1.9,1.9,0,0,0-2.13-2.06,4.55,4.55,0,0,0-2.13.56l-.37-.94a5.75,5.75,0,0,1,2.63-.67,3.18,3.18,0,0,1,2.34.83,3.1,3.1,0,0,1,.8,2.26v5.36h-1.14V128a2.88,2.88,0,0,1-2.54,1.39A2.55,2.55,0,0,1,200.73,126.78Zm5.23-.48v-1a5.87,5.87,0,0,0-2-.34c-1.33,0-2.06.69-2.06,1.74v0a1.67,1.67,0,0,0,1.78,1.7A2.17,2.17,0,0,0,206,126.3Z"/><path class="cls-5" d="M208.94,117.64h1.15V129.2h-1.15Z"/><path class="cls-5" d="M211.6,125.1V125c0-2.43,1.57-4.29,3.71-4.29s3.7,1.84,3.7,4.27v.1c0,2.43-1.57,4.31-3.71,4.31S211.6,127.54,211.6,125.1Zm6.24,0V125c0-1.87-1.12-3.27-2.54-3.27s-2.51,1.39-2.51,3.25v.08c0,1.87,1.1,3.27,2.53,3.27S217.84,126.93,217.84,125.09Z"/><path class="cls-5" d="M220.46,120.86h1.15v1.36a2.7,2.7,0,0,1,2.46-1.52c1.7,0,2.72,1.17,2.72,3v5.46h-1.15v-5.14c0-1.49-.7-2.32-1.92-2.32a2.17,2.17,0,0,0-2.11,2.38v5.07h-1.15Z"/><path class="cls-5" d="M228.2,125.1V125c0-2.54,1.49-4.32,3.44-4.32S235,122.49,235,125c0,.11,0,.34,0,.48h-5.6c.13,1.84,1.26,2.87,2.58,2.87a2.93,2.93,0,0,0,2.16-1l.66.74a3.77,3.77,0,0,1-2.87,1.25C229.87,129.38,228.2,127.74,228.2,125.1Zm5.63-.51c-.08-1.58-.83-2.88-2.19-2.88s-2.16,1.14-2.27,2.88Z"/><path class="cls-5" d="M142.08,143.79a7.51,7.51,0,0,1,4-6.82l.46.75a7.25,7.25,0,0,0,0,12.13l-.46.75A7.51,7.51,0,0,1,142.08,143.79Z"/><path class="cls-5" d="M147.16,140.06h1.15v1.36a2.7,2.7,0,0,1,2.46-1.52c1.7,0,2.72,1.17,2.72,3v5.46h-1.15v-5.14c0-1.49-.7-2.32-1.92-2.32a2.17,2.17,0,0,0-2.11,2.38v5.07h-1.15Z"/><path class="cls-5" d="M158.95,140.53h6.59v1.14h-6.59Zm0,3.34h6.59V145h-6.59Z"/><path class="cls-5" d="M170.6,147.47l3.62-4c1.34-1.44,1.86-2.26,1.86-3.3a1.93,1.93,0,0,0-2-2,3,3,0,0,0-2.51,1.6l-.83-.71a3.9,3.9,0,0,1,3.46-2,3,3,0,0,1,3.15,3v0c0,1.44-.69,2.38-2.26,4l-2.8,3.17h5.14v1.12h-6.8Z"/><path class="cls-5" d="M178.65,147.18l.72-.9a3.82,3.82,0,0,0,2.58,1.18,2.37,2.37,0,0,0,2.43-2.51v0a2.25,2.25,0,0,0-2.43-2.34,4,4,0,0,0-2,.51l-.77-.53.29-5.36h5.6v1.12h-4.56l-.22,3.57a4.32,4.32,0,0,1,1.81-.4,3.23,3.23,0,0,1,3.46,3.38v0a3.52,3.52,0,0,1-3.67,3.67A4.78,4.78,0,0,1,178.65,147.18Z"/><path class="cls-5" d="M186.55,147l.77-.83a3.34,3.34,0,0,0,2.64,1.26,2.18,2.18,0,0,0,2.27-2.24v0c0-1.44-1.23-2.18-3-2.18h-.42l-.18-.75,3.11-4H187v-1.1h6.29v.9l-3.14,4c1.73.19,3.28,1.12,3.28,3.09v0a3.34,3.34,0,0,1-3.49,3.39A4.36,4.36,0,0,1,186.55,147Z"/><path class="cls-5" d="M194.63,149.86a7.25,7.25,0,0,0,0-12.13l.46-.75a7.83,7.83,0,0,1,0,13.64Z"/></g></g></svg>