<svg xmlns="http://www.w3.org/2000/svg" viewBox="0 0 406.21 226.83"><defs><style>.cls-1,.cls-6,.cls-7{fill:none;stroke-miterlimit:10;}.cls-1{stroke:#f7a800;stroke-width:1.4px;}.cls-2{fill:#58595b;}.cls-3{fill:#0093c9;}.cls-4{fill:#f7a800;}.cls-5{fill:#fff;}.cls-6{stroke:#0093c9;}.cls-7{stroke:#fff;}</style></defs><title>kras-exor-2-analysis</title><g id="Layer_2" data-name="Layer 2"><g id="Layer_1-2" data-name="Layer 1"><line class="cls-1" x1="203.65" y1="40.92" x2="203.65" y2="5.59"/><polygon class="cls-2" points="78.7 108.76 78.7 37.47 145.16 37.47 155.46 73.73 145.16 108.76 78.7 108.76"/><polygon class="cls-2" points="78.7 184.76 78.7 113.47 145.16 113.47 155.46 149.73 145.16 184.76 78.7 184.76"/><rect class="cls-3" x="167.7" y="113.47" width="71.9" height="71.29"/><rect class="cls-2" y="37.47" width="75.27" height="147.29"/><rect class="cls-4" x="167.7" y="37.47" width="71.9" height="71.29"/><rect class="cls-3" x="244.31" y="113.47" width="71.9" height="71.29"/><rect class="cls-3" x="244.31" y="37.47" width="71.9" height="71.29"/><rect class="cls-3" x="320.92" y="113.47" width="71.9" height="71.29"/><rect class="cls-3" x="320.92" y="37.47" width="71.9" height="71.29"/><path class="cls-5" d="M183.76,58.53h5.36v2.32h-2.92v3.48h2.58v2.32h-2.58v3.56h3v2.32h-5.42Z"/><path class="cls-5" d="M197.25,58.53,195,65.4l2.28,7.14h-2.6l-1.18-4.26-1.2,4.26H189.8l2.28-7.14-2.2-6.86h2.6l1.1,4.06,1.12-4.06Z"/><path class="cls-5" d="M198,65.9v-.72c0-4.62,1.5-6.84,3.72-6.84s3.72,2.22,3.72,6.84v.72c0,4.62-1.5,6.84-3.72,6.84S198,70.52,198,65.9Zm5,0v-.72c0-3.6-.5-4.6-1.24-4.6s-1.24,1-1.24,4.6v.72c0,3.6.5,4.6,1.24,4.6S202.92,69.5,202.92,65.9Z"/><path class="cls-5" d="M206.6,58.53h2.26l2.52,7.24V58.53h2.34v14h-2.14L208.94,65v7.58H206.6Z"/><path class="cls-5" d="M218,70.48l2.54-5.36a7.56,7.56,0,0,0,1-3.08,1.26,1.26,0,0,0-1.34-1.34,3.6,3.6,0,0,0-1.94.68V59a5.22,5.22,0,0,1,2.5-.68A3,3,0,0,1,224,61.62v.1a8.2,8.2,0,0,1-1.08,3.82l-2.26,4.6h3.28v2.4H218Z"/><path class="cls-5" d="M175.57,85.09v-.28c0-3.29,1.25-4.82,2.69-4.82a2,2,0,0,1,1,.22v1a1.81,1.81,0,0,0-1-.31c-1,0-1.82,1.25-1.82,3.94v.28c0,2.73.81,3.94,1.82,3.94a1.82,1.82,0,0,0,1-.31v.91a2,2,0,0,1-1.08.28C176.73,89.91,175.57,88.37,175.57,85.09Z"/><path class="cls-5" d="M180.16,86.27v-.21c0-2.34,1-3.71,2.16-3.71s2.14,1.37,2.14,3.71v.21c0,2.34-1,3.71-2.16,3.71S180.16,88.61,180.16,86.27Zm3.42,0V86c0-1.81-.56-2.9-1.27-2.9S181,84.24,181,86v.22c0,1.81.56,2.91,1.27,2.91S183.58,88.08,183.58,86.27Z"/><path class="cls-5" d="M185.31,86.34V86c0-2.44.85-3.64,1.82-3.64.74,0,1.2.67,1.48,1.4V80h.88v9.89h-.88V88.57c-.28.74-.74,1.41-1.48,1.41C186.17,90,185.31,88.81,185.31,86.34Zm3.33,0V86c0-1.81-.62-2.82-1.27-2.82s-1.19,1-1.19,2.86v.31c0,1.83.52,2.86,1.19,2.86S188.65,88.16,188.65,86.36Z"/><path class="cls-5" d="M190.58,86.27v-.21c0-2.34,1-3.71,2.16-3.71s2.14,1.37,2.14,3.71v.21c0,2.34-1,3.71-2.16,3.71S190.58,88.61,190.58,86.27Zm3.42,0V86c0-1.81-.56-2.9-1.27-2.9s-1.27,1.09-1.27,2.9v.22c0,1.81.56,2.91,1.27,2.91S194,88.08,194,86.27Z"/><path class="cls-5" d="M196,82.46h.87v1a1.62,1.62,0,0,1,1.47-1.16c1,0,1.61.83,1.61,2.23v5.29H199V84.72c0-1-.38-1.61-1-1.61s-1.18.67-1.18,1.69v5.06H196Z"/><path class="cls-5" d="M200.84,89.61v-.88a3.36,3.36,0,0,0,1.47.43.93.93,0,0,0,1-1v0c0-.46-.25-.91-1.08-1.7-1-1-1.39-1.55-1.39-2.35v0a1.69,1.69,0,0,1,1.79-1.74,2.87,2.87,0,0,1,1.22.24v.88a2.58,2.58,0,0,0-1.22-.31.86.86,0,0,0-.92.88v0c0,.46.24.81,1.09,1.65,1,1,1.37,1.6,1.37,2.4v0A1.76,1.76,0,0,1,202.33,90,3.36,3.36,0,0,1,200.84,89.61Z"/><path class="cls-5" d="M208,81.09l-1,.53v-1l1.19-.6h.73v9.82H208Z"/><path class="cls-5" d="M210.11,89.17l2.17-4.55a5.23,5.23,0,0,0,.69-2.34,1.24,1.24,0,0,0-1.23-1.39,2.51,2.51,0,0,0-1.39.43V80.4a2.86,2.86,0,0,1,1.5-.41,2,2,0,0,1,2,2.14v.06a6,6,0,0,1-.81,2.73l-1.92,4h2.77v.9h-3.81Z"/><path class="cls-5" d="M217,87.52v-.08a4.07,4.07,0,0,1,1.55-3.08,4.93,4.93,0,0,1-.92-2.42v-.08a1.83,1.83,0,0,1,1.75-1.92A1.73,1.73,0,0,1,221,81.79v.08a3.58,3.58,0,0,1-1.5,2.68l1.39,2.59a14.76,14.76,0,0,0,.39-2l.74.13a11.26,11.26,0,0,1-.63,2.66l.92,1.63-.7.42-.69-1.29a2.09,2.09,0,0,1-4-1.18Zm3.57.5-1.62-3a3.19,3.19,0,0,0-1,2.37v.1c0,1,.49,1.7,1.23,1.7S220.15,88.71,220.53,88Zm-.32-6.14v-.07c0-.6-.34-1.12-.88-1.12a1,1,0,0,0-.92,1.13v.06a4.13,4.13,0,0,0,.74,2A2.67,2.67,0,0,0,220.2,81.89Z"/><path class="cls-5" d="M226,81.09l-1,.53v-1l1.19-.6H227v9.82H226Z"/><path class="cls-5" d="M228.08,89.68v-.87a2.84,2.84,0,0,0,1.26.27c.83,0,1.57-.78,1.57-2.1v-.08c0-1.25-.73-1.81-2-1.92v-.62L230.77,81h-2.65v-.91h3.66v.71l-1.92,3.53a2.37,2.37,0,0,1,2,2.54v.11c0,1.83-1.11,3-2.45,3A3,3,0,0,1,228.08,89.68Z"/><path class="cls-5" d="M260.85,58.53h5.36v2.32h-2.92v3.48h2.58v2.32h-2.58v3.56h3v2.32h-5.42Z"/><path class="cls-5" d="M274.33,58.53l-2.2,6.86,2.28,7.14h-2.6l-1.18-4.26-1.2,4.26h-2.54l2.28-7.14L267,58.53h2.6l1.1,4.06,1.12-4.06Z"/><path class="cls-5" d="M275.05,65.9v-.72c0-4.62,1.5-6.84,3.72-6.84s3.72,2.22,3.72,6.84v.72c0,4.62-1.5,6.84-3.72,6.84S275.05,70.52,275.05,65.9Zm5,0v-.72c0-3.6-.5-4.6-1.24-4.6s-1.24,1-1.24,4.6v.72c0,3.6.5,4.6,1.24,4.6S280,69.5,280,65.9Z"/><path class="cls-5" d="M283.69,58.53H286l2.52,7.24V58.53h2.34v14h-2.14L286,65v7.58h-2.34Z"/><path class="cls-5" d="M295,72.36V70a4.06,4.06,0,0,0,1.76.38,1.77,1.77,0,0,0,1.74-2v-.16c0-1.46-1-2.06-2.44-2.16V64.5l2.28-3.58h-3.16V58.53h5.64v2.18l-2.36,3.66c1.42.48,2.44,1.48,2.44,3.7v.22c0,2.76-1.62,4.44-3.82,4.44A5.22,5.22,0,0,1,295,72.36Z"/><path class="cls-5" d="M251.32,85.09v-.28c0-3.29,1.25-4.82,2.69-4.82a2,2,0,0,1,1,.22v1a1.81,1.81,0,0,0-1-.31c-1,0-1.82,1.25-1.82,3.94v.28c0,2.73.81,3.94,1.82,3.94a1.82,1.82,0,0,0,1-.31v.91a2,2,0,0,1-1.08.28C252.49,89.91,251.32,88.37,251.32,85.09Z"/><path class="cls-5" d="M255.92,86.27v-.21c0-2.34,1-3.71,2.16-3.71s2.14,1.37,2.14,3.71v.21c0,2.34-1,3.71-2.16,3.71S255.92,88.61,255.92,86.27Zm3.42,0V86c0-1.81-.56-2.9-1.27-2.9s-1.28,1.09-1.28,2.9v.22c0,1.81.56,2.91,1.28,2.91S259.33,88.08,259.33,86.27Z"/><path class="cls-5" d="M261.07,86.34V86c0-2.44.85-3.64,1.82-3.64.74,0,1.21.67,1.49,1.4V80h.88v9.89h-.88V88.57c-.28.74-.74,1.41-1.49,1.41C261.92,90,261.07,88.81,261.07,86.34Zm3.33,0V86c0-1.81-.62-2.82-1.28-2.82s-1.19,1-1.19,2.86v.31c0,1.83.52,2.86,1.19,2.86S264.4,88.16,264.4,86.36Z"/><path class="cls-5" d="M266.33,86.27v-.21c0-2.34,1-3.71,2.16-3.71s2.14,1.37,2.14,3.71v.21c0,2.34-1,3.71-2.16,3.71S266.33,88.61,266.33,86.27Zm3.42,0V86c0-1.81-.56-2.9-1.27-2.9s-1.28,1.09-1.28,2.9v.22c0,1.81.56,2.91,1.28,2.91S269.75,88.08,269.75,86.27Z"/><path class="cls-5" d="M271.71,82.46h.87v1A1.62,1.62,0,0,1,274,82.34c1,0,1.61.83,1.61,2.23v5.29h-.87V84.72c0-1-.38-1.61-1-1.61s-1.18.67-1.18,1.69v5.06h-.87Z"/><path class="cls-5" d="M276.59,89.61v-.88a3.36,3.36,0,0,0,1.47.43.93.93,0,0,0,1-1v0c0-.46-.25-.91-1.08-1.7-1-1-1.39-1.55-1.39-2.35v0a1.69,1.69,0,0,1,1.79-1.74,2.87,2.87,0,0,1,1.22.24v.88a2.58,2.58,0,0,0-1.22-.31.86.86,0,0,0-.92.88v0c0,.46.24.81,1.09,1.65,1,1,1.37,1.6,1.37,2.4v0A1.76,1.76,0,0,1,278.08,90,3.36,3.36,0,0,1,276.59,89.61Z"/><path class="cls-5" d="M283,89.68v-.88a2.58,2.58,0,0,0,1.16.28c.94,0,1.63-.94,1.63-2.34v-.07c0-1.44-.64-2-1.39-2a2,2,0,0,0-.87.18l-.53-.35.21-4.48h3.11v.88h-2.38L283.78,84a2.06,2.06,0,0,1,.8-.15c1.09,0,2.09.81,2.09,2.8v.08c0,1.92-1.05,3.21-2.48,3.21A2.6,2.6,0,0,1,283,89.68Z"/><path class="cls-5" d="M287.93,89.68v-.9a2.55,2.55,0,0,0,1.12.29c1,0,1.57-1.15,1.64-3.4a1.89,1.89,0,0,1-1.36.63c-1,0-1.88-.83-1.88-3v-.1c0-2,.91-3.29,2.07-3.29s2,1,2,4.3v.39c0,3.91-1.05,5.31-2.49,5.31A2.68,2.68,0,0,1,287.93,89.68Zm2.76-4.79v-1c0-2.45-.57-3.15-1.18-3.15s-1.19,1-1.19,2.45v.1c0,1.58.55,2.21,1.19,2.21A1.74,1.74,0,0,0,290.69,84.88Z"/><path class="cls-5" d="M294.7,87.52v-.08a4.07,4.07,0,0,1,1.55-3.08,4.93,4.93,0,0,1-.92-2.42v-.08a1.83,1.83,0,0,1,1.75-1.92,1.73,1.73,0,0,1,1.68,1.86v.08a3.58,3.58,0,0,1-1.5,2.68l1.39,2.59a14.76,14.76,0,0,0,.39-2l.74.13a11.26,11.26,0,0,1-.63,2.66l.92,1.63-.7.42-.69-1.29a2.09,2.09,0,0,1-4-1.18Zm3.57.5-1.62-3a3.19,3.19,0,0,0-1,2.37v.1c0,1,.49,1.7,1.23,1.7S297.89,88.71,298.27,88Zm-.32-6.14v-.07c0-.6-.34-1.12-.88-1.12a1,1,0,0,0-.92,1.13v.06a4.13,4.13,0,0,0,.74,2A2.67,2.67,0,0,0,297.94,81.89Z"/><path class="cls-5" d="M303,85.68v-.39C303,81.38,304,80,305.49,80a2.2,2.2,0,0,1,1,.21v.9a2.08,2.08,0,0,0-1-.25c-1,0-1.58,1.19-1.64,3.52a1.91,1.91,0,0,1,1.36-.63c1,0,1.88.83,1.88,2.93v.11c0,1.93-.9,3.22-2.06,3.22S303,89,303,85.68Zm3.26,1.11v-.13c0-1.5-.56-2.14-1.19-2.14a1.74,1.74,0,0,0-1.19.62V86c0,2.45.59,3.15,1.19,3.15S306.25,88.16,306.25,86.79Z"/><path class="cls-5" d="M308.79,81.09l-1,.53v-1L309,80h.73v9.82h-.91Z"/><path class="cls-5" d="M336.77,58.53h5.36v2.32h-2.92v3.48h2.58v2.32h-2.58v3.56h3v2.32h-5.42Z"/><path class="cls-5" d="M350.25,58.53l-2.2,6.86,2.28,7.14h-2.6l-1.18-4.26-1.2,4.26h-2.54l2.28-7.14-2.2-6.86h2.6l1.1,4.06,1.12-4.06Z"/><path class="cls-5" d="M351,65.9v-.72c0-4.62,1.5-6.84,3.72-6.84s3.72,2.22,3.72,6.84v.72c0,4.62-1.5,6.84-3.72,6.84S351,70.52,351,65.9Zm5,0v-.72c0-3.6-.5-4.6-1.24-4.6s-1.24,1-1.24,4.6v.72c0,3.6.5,4.6,1.24,4.6S355.93,69.5,355.93,65.9Z"/><path class="cls-5" d="M359.61,58.53h2.26l2.52,7.24V58.53h2.34v14h-2.14L362,65v7.58h-2.34Z"/><path class="cls-5" d="M374.71,70h-3.8V68.1l3.68-9.6H377v9.36h1.14V70H377v2.58h-2.28Zm0-2.1V62.74l-1.82,5.12Z"/><path class="cls-5" d="M324.93,85.09v-.28c0-3.29,1.25-4.82,2.69-4.82a2,2,0,0,1,1,.22v1a1.81,1.81,0,0,0-1-.31c-1,0-1.82,1.25-1.82,3.94v.28c0,2.73.81,3.94,1.82,3.94a1.82,1.82,0,0,0,1-.31v.91a2,2,0,0,1-1.08.28C326.1,89.91,324.93,88.37,324.93,85.09Z"/><path class="cls-5" d="M329.53,86.27v-.21c0-2.34,1-3.71,2.16-3.71s2.14,1.37,2.14,3.71v.21c0,2.34-1,3.71-2.16,3.71S329.53,88.61,329.53,86.27Zm3.42,0V86c0-1.81-.56-2.9-1.27-2.9s-1.27,1.09-1.27,2.9v.22c0,1.81.56,2.91,1.27,2.91S332.94,88.08,332.94,86.27Z"/><path class="cls-5" d="M334.68,86.34V86c0-2.44.85-3.64,1.82-3.64.74,0,1.21.67,1.48,1.4V80h.88v9.89H338V88.57c-.28.74-.74,1.41-1.48,1.41C335.53,90,334.68,88.81,334.68,86.34Zm3.33,0V86c0-1.81-.62-2.82-1.27-2.82s-1.19,1-1.19,2.86v.31c0,1.83.52,2.86,1.19,2.86S338,88.16,338,86.36Z"/><path class="cls-5" d="M339.94,86.27v-.21c0-2.34,1-3.71,2.16-3.71s2.14,1.37,2.14,3.71v.21c0,2.34-1,3.71-2.16,3.71S339.94,88.61,339.94,86.27Zm3.42,0V86c0-1.81-.56-2.9-1.27-2.9s-1.27,1.09-1.27,2.9v.22c0,1.81.56,2.91,1.27,2.91S343.36,88.08,343.36,86.27Z"/><path class="cls-5" d="M345.32,82.46h.87v1a1.62,1.62,0,0,1,1.47-1.16c1,0,1.61.83,1.61,2.23v5.29h-.87V84.72c0-1-.38-1.61-1-1.61s-1.18.67-1.18,1.69v5.06h-.87Z"/><path class="cls-5" d="M350.2,89.61v-.88a3.36,3.36,0,0,0,1.47.43.93.93,0,0,0,1-1v0c0-.46-.25-.91-1.08-1.7-1-1-1.39-1.55-1.39-2.35v0A1.69,1.69,0,0,1,352,82.36a2.87,2.87,0,0,1,1.22.24v.88a2.58,2.58,0,0,0-1.22-.31.86.86,0,0,0-.92.88v0c0,.46.24.81,1.09,1.65,1,1,1.37,1.6,1.37,2.4v0A1.76,1.76,0,0,1,351.69,90,3.36,3.36,0,0,1,350.2,89.61Z"/><path class="cls-5" d="M357.38,81.09l-1,.53v-1l1.19-.6h.73v9.82h-.91Z"/><path class="cls-5" d="M360.44,81.09l-1,.53v-1l1.19-.6h.73v9.82h-.91Z"/><path class="cls-5" d="M365.18,81h-2.62v-.91h3.5v.71L364,89.86h-.9Z"/><path class="cls-5" d="M369.12,87.52v-.08a4.07,4.07,0,0,1,1.55-3.08,4.94,4.94,0,0,1-.92-2.42v-.08a1.83,1.83,0,0,1,1.75-1.92,1.73,1.73,0,0,1,1.68,1.86v.08a3.58,3.58,0,0,1-1.5,2.68l1.39,2.59a14.75,14.75,0,0,0,.39-2l.74.13a11.26,11.26,0,0,1-.63,2.66l.92,1.63-.7.42-.69-1.29a2.09,2.09,0,0,1-4-1.18Zm3.57.5-1.62-3A3.19,3.19,0,0,0,370,87.36v.1c0,1,.49,1.7,1.23,1.7S372.31,88.71,372.69,88Zm-.32-6.14v-.07c0-.6-.34-1.12-.88-1.12a1,1,0,0,0-.92,1.13v.06a4.12,4.12,0,0,0,.74,2A2.67,2.67,0,0,0,372.37,81.89Z"/><path class="cls-5" d="M378.2,81.09l-1,.53v-1l1.19-.6h.73v9.82h-.91Z"/><path class="cls-5" d="M383.06,87.73H380.2V87l2.87-7h.83v6.95h.78v.78h-.78v2.13h-.84Zm0-.78V81.83L381,86.94Z"/><path class="cls-5" d="M385.42,85.68v-.39c0-3.91,1-5.31,2.51-5.31a2.2,2.2,0,0,1,1,.21v.9a2.08,2.08,0,0,0-1-.25c-1,0-1.58,1.19-1.64,3.52a1.92,1.92,0,0,1,1.36-.63c1,0,1.88.83,1.88,2.93v.11c0,1.93-.9,3.22-2.06,3.22S385.42,89,385.42,85.68Zm3.26,1.11v-.13c0-1.5-.56-2.14-1.19-2.14a1.75,1.75,0,0,0-1.19.62V86c0,2.45.59,3.15,1.19,3.15S388.69,88.16,388.69,86.79Z"/><path class="cls-5" d="M183.76,134.28h5.36v2.32h-2.92v3.48h2.58v2.32h-2.58V146h3v2.32h-5.42Z"/><path class="cls-5" d="M197.25,134.28l-2.2,6.86,2.28,7.14h-2.6L193.54,144l-1.2,4.26H189.8l2.28-7.14-2.2-6.86h2.6l1.1,4.06,1.12-4.06Z"/><path class="cls-5" d="M198,141.65v-.72c0-4.62,1.5-6.84,3.72-6.84s3.72,2.22,3.72,6.84v.72c0,4.62-1.5,6.84-3.72,6.84S198,146.27,198,141.65Zm5,0v-.72c0-3.6-.5-4.6-1.24-4.6s-1.24,1-1.24,4.6v.72c0,3.6.5,4.6,1.24,4.6S202.92,145.25,202.92,141.65Z"/><path class="cls-5" d="M206.6,134.28h2.26l2.52,7.24v-7.24h2.34v14h-2.14l-2.64-7.58v7.58H206.6Z"/><path class="cls-5" d="M218,146.23l2.54-5.36a7.56,7.56,0,0,0,1-3.08,1.26,1.26,0,0,0-1.34-1.34,3.6,3.6,0,0,0-1.94.68v-2.36a5.22,5.22,0,0,1,2.5-.68,3,3,0,0,1,3.16,3.28v.1a8.2,8.2,0,0,1-1.08,3.82l-2.26,4.6h3.28v2.4H218Z"/><path class="cls-5" d="M175.57,160.84v-.28c0-3.29,1.25-4.82,2.69-4.82a2,2,0,0,1,1,.22v1a1.81,1.81,0,0,0-1-.31c-1,0-1.82,1.25-1.82,3.94v.28c0,2.73.81,3.94,1.82,3.94a1.82,1.82,0,0,0,1-.31v.91a2,2,0,0,1-1.08.28C176.73,165.66,175.57,164.12,175.57,160.84Z"/><path class="cls-5" d="M180.16,162v-.21c0-2.34,1-3.71,2.16-3.71s2.14,1.37,2.14,3.71V162c0,2.34-1,3.71-2.16,3.71S180.16,164.36,180.16,162Zm3.42,0v-.22c0-1.81-.56-2.9-1.27-2.9S181,160,181,161.8V162c0,1.81.56,2.91,1.27,2.91S183.58,163.83,183.58,162Z"/><path class="cls-5" d="M185.31,162.09v-.36c0-2.44.85-3.64,1.82-3.64.74,0,1.2.67,1.48,1.4v-3.77h.88v9.89h-.88v-1.29c-.28.74-.74,1.41-1.48,1.41C186.17,165.73,185.31,164.56,185.31,162.09Zm3.33,0v-.39c0-1.81-.62-2.82-1.27-2.82s-1.19,1-1.19,2.86v.31c0,1.83.52,2.86,1.19,2.86S188.65,163.91,188.65,162.11Z"/><path class="cls-5" d="M190.58,162v-.21c0-2.34,1-3.71,2.16-3.71s2.14,1.37,2.14,3.71V162c0,2.34-1,3.71-2.16,3.71S190.58,164.36,190.58,162Zm3.42,0v-.22c0-1.81-.56-2.9-1.27-2.9s-1.27,1.09-1.27,2.9V162c0,1.81.56,2.91,1.27,2.91S194,163.83,194,162Z"/><path class="cls-5" d="M196,158.21h.87v1a1.62,1.62,0,0,1,1.47-1.16c1,0,1.61.83,1.61,2.23v5.29H199v-5.14c0-1-.38-1.61-1-1.61s-1.18.67-1.18,1.69v5.06H196Z"/><path class="cls-5" d="M200.84,165.36v-.88a3.36,3.36,0,0,0,1.47.43.93.93,0,0,0,1-1v0c0-.46-.25-.91-1.08-1.7-1-1-1.39-1.55-1.39-2.35v0a1.69,1.69,0,0,1,1.79-1.74,2.87,2.87,0,0,1,1.22.24v.88a2.58,2.58,0,0,0-1.22-.31.86.86,0,0,0-.92.88v0c0,.46.24.81,1.09,1.65,1,1,1.37,1.6,1.37,2.4v0a1.76,1.76,0,0,1-1.83,1.79A3.36,3.36,0,0,1,200.84,165.36Z"/><path class="cls-5" d="M208,156.84l-1,.53v-1l1.19-.6h.73v9.82H208Z"/><path class="cls-5" d="M210.11,164.92l2.17-4.55A5.23,5.23,0,0,0,213,158a1.24,1.24,0,0,0-1.23-1.39,2.51,2.51,0,0,0-1.39.43v-.92a2.86,2.86,0,0,1,1.5-.41,2,2,0,0,1,2,2.14v.06a6,6,0,0,1-.81,2.73l-1.92,4h2.77v.9h-3.81Z"/><path class="cls-5" d="M217,163.27v-.08a4.07,4.07,0,0,1,1.55-3.08,4.93,4.93,0,0,1-.92-2.42v-.08a1.83,1.83,0,0,1,1.75-1.92,1.73,1.73,0,0,1,1.68,1.86v.08a3.58,3.58,0,0,1-1.5,2.68l1.39,2.59a14.76,14.76,0,0,0,.39-2l.74.13a11.26,11.26,0,0,1-.63,2.66l.92,1.63-.7.42-.69-1.29a2.09,2.09,0,0,1-4-1.18Zm3.57.5-1.62-3a3.19,3.19,0,0,0-1,2.37v.1c0,1,.49,1.7,1.23,1.7S220.15,164.46,220.53,163.77Zm-.32-6.14v-.07c0-.6-.34-1.12-.88-1.12a1,1,0,0,0-.92,1.13v.06a4.13,4.13,0,0,0,.74,2A2.67,2.67,0,0,0,220.2,157.64Z"/><path class="cls-5" d="M226,156.84l-1,.53v-1l1.19-.6H227v9.82H226Z"/><path class="cls-5" d="M228.08,165.43v-.87a2.84,2.84,0,0,0,1.26.27c.83,0,1.57-.78,1.57-2.1v-.08c0-1.25-.73-1.81-2-1.92v-.62l1.83-3.39h-2.65v-.91h3.66v.71L229.86,160a2.37,2.37,0,0,1,2,2.54v.11c0,1.83-1.11,3-2.45,3A3,3,0,0,1,228.08,165.43Z"/><path class="cls-5" d="M260.85,134.28h5.36v2.32h-2.92v3.48h2.58v2.32h-2.58V146h3v2.32h-5.42Z"/><path class="cls-5" d="M274.33,134.28l-2.2,6.86,2.28,7.14h-2.6L270.63,144l-1.2,4.26h-2.54l2.28-7.14-2.2-6.86h2.6l1.1,4.06,1.12-4.06Z"/><path class="cls-5" d="M275.05,141.65v-.72c0-4.62,1.5-6.84,3.72-6.84s3.72,2.22,3.72,6.84v.72c0,4.62-1.5,6.84-3.72,6.84S275.05,146.27,275.05,141.65Zm5,0v-.72c0-3.6-.5-4.6-1.24-4.6s-1.24,1-1.24,4.6v.72c0,3.6.5,4.6,1.24,4.6S280,145.25,280,141.65Z"/><path class="cls-5" d="M283.69,134.28H286l2.52,7.24v-7.24h2.34v14h-2.14L286,140.71v7.58h-2.34Z"/><path class="cls-5" d="M295,148.11v-2.32a4.06,4.06,0,0,0,1.76.38,1.77,1.77,0,0,0,1.74-2V144c0-1.46-1-2.06-2.44-2.16v-1.6l2.28-3.58h-3.16v-2.38h5.64v2.18l-2.36,3.66c1.42.48,2.44,1.48,2.44,3.7V144c0,2.76-1.62,4.44-3.82,4.44A5.22,5.22,0,0,1,295,148.11Z"/><path class="cls-5" d="M251.32,160.84v-.28c0-3.29,1.25-4.82,2.69-4.82a2,2,0,0,1,1,.22v1a1.81,1.81,0,0,0-1-.31c-1,0-1.82,1.25-1.82,3.94v.28c0,2.73.81,3.94,1.82,3.94a1.82,1.82,0,0,0,1-.31v.91a2,2,0,0,1-1.08.28C252.49,165.66,251.32,164.12,251.32,160.84Z"/><path class="cls-5" d="M255.92,162v-.21c0-2.34,1-3.71,2.16-3.71s2.14,1.37,2.14,3.71V162c0,2.34-1,3.71-2.16,3.71S255.92,164.36,255.92,162Zm3.42,0v-.22c0-1.81-.56-2.9-1.27-2.9s-1.28,1.09-1.28,2.9V162c0,1.81.56,2.91,1.28,2.91S259.33,163.83,259.33,162Z"/><path class="cls-5" d="M261.07,162.09v-.36c0-2.44.85-3.64,1.82-3.64.74,0,1.21.67,1.49,1.4v-3.77h.88v9.89h-.88v-1.29c-.28.74-.74,1.41-1.49,1.41C261.92,165.73,261.07,164.56,261.07,162.09Zm3.33,0v-.39c0-1.81-.62-2.82-1.28-2.82s-1.19,1-1.19,2.86v.31c0,1.83.52,2.86,1.19,2.86S264.4,163.91,264.4,162.11Z"/><path class="cls-5" d="M266.33,162v-.21c0-2.34,1-3.71,2.16-3.71s2.14,1.37,2.14,3.71V162c0,2.34-1,3.71-2.16,3.71S266.33,164.36,266.33,162Zm3.42,0v-.22c0-1.81-.56-2.9-1.27-2.9s-1.28,1.09-1.28,2.9V162c0,1.81.56,2.91,1.28,2.91S269.75,163.83,269.75,162Z"/><path class="cls-5" d="M271.71,158.21h.87v1a1.62,1.62,0,0,1,1.47-1.16c1,0,1.61.83,1.61,2.23v5.29h-.87v-5.14c0-1-.38-1.61-1-1.61s-1.18.67-1.18,1.69v5.06h-.87Z"/><path class="cls-5" d="M276.59,165.36v-.88a3.36,3.36,0,0,0,1.47.43.93.93,0,0,0,1-1v0c0-.46-.25-.91-1.08-1.7-1-1-1.39-1.55-1.39-2.35v0a1.69,1.69,0,0,1,1.79-1.74,2.87,2.87,0,0,1,1.22.24v.88a2.58,2.58,0,0,0-1.22-.31.86.86,0,0,0-.92.88v0c0,.46.24.81,1.09,1.65,1,1,1.37,1.6,1.37,2.4v0a1.76,1.76,0,0,1-1.83,1.79A3.36,3.36,0,0,1,276.59,165.36Z"/><path class="cls-5" d="M283,165.43v-.88a2.58,2.58,0,0,0,1.16.28c.94,0,1.63-.94,1.63-2.34v-.07c0-1.44-.64-2-1.39-2a2,2,0,0,0-.87.18l-.53-.35.21-4.48h3.11v.88h-2.38l-.14,3.07a2.06,2.06,0,0,1,.8-.15c1.09,0,2.09.81,2.09,2.8v.08c0,1.92-1.05,3.21-2.48,3.21A2.6,2.6,0,0,1,283,165.43Z"/><path class="cls-5" d="M287.93,165.43v-.9a2.55,2.55,0,0,0,1.12.29c1,0,1.57-1.15,1.64-3.4a1.89,1.89,0,0,1-1.36.63c-1,0-1.88-.83-1.88-3V159c0-2,.91-3.29,2.07-3.29s2,1,2,4.3v.39c0,3.91-1.05,5.31-2.49,5.31A2.68,2.68,0,0,1,287.93,165.43Zm2.76-4.79v-1c0-2.45-.57-3.15-1.18-3.15s-1.19,1-1.19,2.45v.1c0,1.58.55,2.21,1.19,2.21A1.74,1.74,0,0,0,290.69,160.63Z"/><path class="cls-5" d="M294.7,163.27v-.08a4.07,4.07,0,0,1,1.55-3.08,4.93,4.93,0,0,1-.92-2.42v-.08a1.83,1.83,0,0,1,1.75-1.92,1.73,1.73,0,0,1,1.68,1.86v.08a3.58,3.58,0,0,1-1.5,2.68l1.39,2.59a14.76,14.76,0,0,0,.39-2l.74.13a11.26,11.26,0,0,1-.63,2.66l.92,1.63-.7.42-.69-1.29a2.09,2.09,0,0,1-4-1.18Zm3.57.5-1.62-3a3.19,3.19,0,0,0-1,2.37v.1c0,1,.49,1.7,1.23,1.7S297.89,164.46,298.27,163.77Zm-.32-6.14v-.07c0-.6-.34-1.12-.88-1.12a1,1,0,0,0-.92,1.13v.06a4.13,4.13,0,0,0,.74,2A2.67,2.67,0,0,0,297.94,157.64Z"/><path class="cls-5" d="M303,161.43V161c0-3.91,1.05-5.31,2.51-5.31a2.2,2.2,0,0,1,1,.21v.9a2.08,2.08,0,0,0-1-.25c-1,0-1.58,1.19-1.64,3.52a1.91,1.91,0,0,1,1.36-.63c1,0,1.88.83,1.88,2.93v.11c0,1.93-.9,3.22-2.06,3.22S303,164.74,303,161.43Zm3.26,1.11v-.13c0-1.5-.56-2.14-1.19-2.14a1.74,1.74,0,0,0-1.19.62v.88c0,2.45.59,3.15,1.19,3.15S306.25,163.91,306.25,162.54Z"/><path class="cls-5" d="M308.79,156.84l-1,.53v-1l1.19-.6h.73v9.82h-.91Z"/><path class="cls-5" d="M336.77,134.28h5.36v2.32h-2.92v3.48h2.58v2.32h-2.58V146h3v2.32h-5.42Z"/><path class="cls-5" d="M350.25,134.28l-2.2,6.86,2.28,7.14h-2.6L346.55,144l-1.2,4.26h-2.54l2.28-7.14-2.2-6.86h2.6l1.1,4.06,1.12-4.06Z"/><path class="cls-5" d="M351,141.65v-.72c0-4.62,1.5-6.84,3.72-6.84s3.72,2.22,3.72,6.84v.72c0,4.62-1.5,6.84-3.72,6.84S351,146.27,351,141.65Zm5,0v-.72c0-3.6-.5-4.6-1.24-4.6s-1.24,1-1.24,4.6v.72c0,3.6.5,4.6,1.24,4.6S355.93,145.25,355.93,141.65Z"/><path class="cls-5" d="M359.61,134.28h2.26l2.52,7.24v-7.24h2.34v14h-2.14L362,140.71v7.58h-2.34Z"/><path class="cls-5" d="M374.71,145.71h-3.8v-1.86l3.68-9.6H377v9.36h1.14v2.1H377v2.58h-2.28Zm0-2.1v-5.12l-1.82,5.12Z"/><path class="cls-5" d="M324.93,160.84v-.28c0-3.29,1.25-4.82,2.69-4.82a2,2,0,0,1,1,.22v1a1.81,1.81,0,0,0-1-.31c-1,0-1.82,1.25-1.82,3.94v.28c0,2.73.81,3.94,1.82,3.94a1.82,1.82,0,0,0,1-.31v.91a2,2,0,0,1-1.08.28C326.1,165.66,324.93,164.12,324.93,160.84Z"/><path class="cls-5" d="M329.53,162v-.21c0-2.34,1-3.71,2.16-3.71s2.14,1.37,2.14,3.71V162c0,2.34-1,3.71-2.16,3.71S329.53,164.36,329.53,162Zm3.42,0v-.22c0-1.81-.56-2.9-1.27-2.9s-1.27,1.09-1.27,2.9V162c0,1.81.56,2.91,1.27,2.91S332.94,163.83,332.94,162Z"/><path class="cls-5" d="M334.68,162.09v-.36c0-2.44.85-3.64,1.82-3.64.74,0,1.21.67,1.48,1.4v-3.77h.88v9.89H338v-1.29c-.28.74-.74,1.41-1.48,1.41C335.53,165.73,334.68,164.56,334.68,162.09Zm3.33,0v-.39c0-1.81-.62-2.82-1.27-2.82s-1.19,1-1.19,2.86v.31c0,1.83.52,2.86,1.19,2.86S338,163.91,338,162.11Z"/><path class="cls-5" d="M339.94,162v-.21c0-2.34,1-3.71,2.16-3.71s2.14,1.37,2.14,3.71V162c0,2.34-1,3.71-2.16,3.71S339.94,164.36,339.94,162Zm3.42,0v-.22c0-1.81-.56-2.9-1.27-2.9s-1.27,1.09-1.27,2.9V162c0,1.81.56,2.91,1.27,2.91S343.36,163.83,343.36,162Z"/><path class="cls-5" d="M345.32,158.21h.87v1a1.62,1.62,0,0,1,1.47-1.16c1,0,1.61.83,1.61,2.23v5.29h-.87v-5.14c0-1-.38-1.61-1-1.61s-1.18.67-1.18,1.69v5.06h-.87Z"/><path class="cls-5" d="M350.2,165.36v-.88a3.36,3.36,0,0,0,1.47.43.93.93,0,0,0,1-1v0c0-.46-.25-.91-1.08-1.7-1-1-1.39-1.55-1.39-2.35v0a1.69,1.69,0,0,1,1.79-1.74,2.87,2.87,0,0,1,1.22.24v.88a2.58,2.58,0,0,0-1.22-.31.86.86,0,0,0-.92.88v0c0,.46.24.81,1.09,1.65,1,1,1.37,1.6,1.37,2.4v0a1.76,1.76,0,0,1-1.83,1.79A3.36,3.36,0,0,1,350.2,165.36Z"/><path class="cls-5" d="M357.38,156.84l-1,.53v-1l1.19-.6h.73v9.82h-.91Z"/><path class="cls-5" d="M360.44,156.84l-1,.53v-1l1.19-.6h.73v9.82h-.91Z"/><path class="cls-5" d="M365.18,156.71h-2.62v-.91h3.5v.71L364,165.61h-.9Z"/><path class="cls-5" d="M369.12,163.27v-.08a4.07,4.07,0,0,1,1.55-3.08,4.94,4.94,0,0,1-.92-2.42v-.08a1.83,1.83,0,0,1,1.75-1.92,1.73,1.73,0,0,1,1.68,1.86v.08a3.58,3.58,0,0,1-1.5,2.68l1.39,2.59a14.75,14.75,0,0,0,.39-2l.74.13a11.26,11.26,0,0,1-.63,2.66l.92,1.63-.7.42-.69-1.29a2.09,2.09,0,0,1-4-1.18Zm3.57.5-1.62-3a3.19,3.19,0,0,0-1.05,2.37v.1c0,1,.49,1.7,1.23,1.7S372.31,164.46,372.69,163.77Zm-.32-6.14v-.07c0-.6-.34-1.12-.88-1.12a1,1,0,0,0-.92,1.13v.06a4.12,4.12,0,0,0,.74,2A2.67,2.67,0,0,0,372.37,157.64Z"/><path class="cls-5" d="M378.2,156.84l-1,.53v-1l1.19-.6h.73v9.82h-.91Z"/><path class="cls-5" d="M383.06,163.48H380.2v-.7l2.87-7h.83v6.95h.78v.78h-.78v2.13h-.84Zm0-.78v-5.11L381,162.69Z"/><path class="cls-5" d="M385.42,161.43V161c0-3.91,1-5.31,2.51-5.31a2.2,2.2,0,0,1,1,.21v.9a2.08,2.08,0,0,0-1-.25c-1,0-1.58,1.19-1.64,3.52a1.92,1.92,0,0,1,1.36-.63c1,0,1.88.83,1.88,2.93v.11c0,1.93-.9,3.22-2.06,3.22S385.42,164.74,385.42,161.43Zm3.26,1.11v-.13c0-1.5-.56-2.14-1.19-2.14a1.75,1.75,0,0,0-1.19.62v.88c0,2.45.59,3.15,1.19,3.15S388.69,163.91,388.69,162.54Z"/><rect class="cls-4" x="143.57" width="120.16" height="25.52"/><rect class="cls-6" x="220.19" y="205.55" width="120.16" height="20.78"/><path class="cls-5" d="M21.67,114.74H20l-1.19,5.1H15.28l3.93-16.08h4.62c2.18,0,3.7.5,4.69,1.49a4.56,4.56,0,0,1,1.24,3.31,5.67,5.67,0,0,1-1.49,4,5.89,5.89,0,0,1-2.94,1.75l2.2,5.49h-3.9Zm1-3.05a3.79,3.79,0,0,0,2.73-.9,2.77,2.77,0,0,0,.73-2,1.7,1.7,0,0,0-.53-1.35,2.7,2.7,0,0,0-2-.57H21.9l-1.1,4.78Z"/><path class="cls-5" d="M37.64,103.65H41l1.72,16.19H39.18l-.28-3.61H33.74l-2,3.61H28Zm.92,9.51-.25-5.26-2.62,5.26Z"/><path class="cls-5" d="M43.33,117.13l2.59-2.25c1.22,1.38,2.3,2.11,3.49,2.11a1.5,1.5,0,0,0,1.65-1.45c0-.67-.44-1.22-2.07-2.41-1.88-1.4-3.05-2.71-3.05-4.5a4.92,4.92,0,0,1,1.38-3.47,5.68,5.68,0,0,1,4-1.63,6.93,6.93,0,0,1,5.28,2.39l-2.39,2.41c-1-1.1-1.88-1.72-3-1.72a1.45,1.45,0,0,0-1.61,1.4c0,.69.37,1.19,2,2.39S54.77,113,54.77,115a4.84,4.84,0,0,1-1.45,3.54,5.83,5.83,0,0,1-4.06,1.56A7.2,7.2,0,0,1,43.33,117.13Z"/><path class="cls-5" d="M90.26,67.1h3.49l-1.63,6.84,6.06-6.84h4.48L96,73.89l3.05,9.28H95.26l-1.93-6.75-2.5,2.53-1,4.23H86.33Z"/><path class="cls-5" d="M106.26,78.07h-1.7l-1.19,5.1H99.87L103.8,67.1h4.62c2.18,0,3.7.5,4.69,1.49a4.56,4.56,0,0,1,1.24,3.31,5.67,5.67,0,0,1-1.49,4,5.89,5.89,0,0,1-2.94,1.75l2.2,5.49h-3.9Zm1-3.05a3.79,3.79,0,0,0,2.73-.9,2.76,2.76,0,0,0,.74-2,1.7,1.7,0,0,0-.53-1.35,2.7,2.7,0,0,0-2-.57h-1.7L105.38,75Z"/><path class="cls-5" d="M122.23,67h3.38l1.72,16.19h-3.56l-.28-3.61h-5.17l-2,3.61h-3.72Zm.92,9.51-.25-5.26-2.62,5.26Z"/><path class="cls-5" d="M127.92,80.46l2.59-2.25c1.22,1.38,2.3,2.11,3.49,2.11a1.5,1.5,0,0,0,1.65-1.45c0-.67-.44-1.22-2.07-2.41-1.88-1.4-3.05-2.71-3.05-4.5a4.92,4.92,0,0,1,1.38-3.47,5.68,5.68,0,0,1,4-1.63,6.93,6.93,0,0,1,5.28,2.39l-2.39,2.41c-1-1.1-1.88-1.72-3-1.72a1.45,1.45,0,0,0-1.61,1.4c0,.69.37,1.19,2,2.39s3.08,2.62,3.08,4.57a4.84,4.84,0,0,1-1.45,3.54,5.83,5.83,0,0,1-4.06,1.56A7.2,7.2,0,0,1,127.92,80.46Z"/><path class="cls-5" d="M89.54,142.6h3.24L96,152.68l2.39-10.08h3.42l-3.93,16.08h-3L91.5,148.25l-2.43,10.43H85.62Z"/><path class="cls-5" d="M107,153.57h-1.7l-1.19,5.1h-3.49l3.93-16.08h4.62c2.18,0,3.7.5,4.68,1.49a4.56,4.56,0,0,1,1.24,3.31,5.67,5.67,0,0,1-1.49,4,5.88,5.88,0,0,1-2.94,1.75l2.21,5.49h-3.9Zm1-3.05a3.79,3.79,0,0,0,2.73-.9,2.77,2.77,0,0,0,.73-2,1.7,1.7,0,0,0-.53-1.35,2.7,2.7,0,0,0-2-.57h-1.7l-1.1,4.78Z"/><path class="cls-5" d="M122.94,142.48h3.38L128,158.67h-3.56l-.28-3.61H119l-2,3.61h-3.72Zm.92,9.51-.25-5.26L121,152Z"/><path class="cls-5" d="M128.63,156l2.59-2.25c1.22,1.38,2.3,2.11,3.49,2.11a1.5,1.5,0,0,0,1.65-1.45c0-.67-.44-1.22-2.07-2.41-1.88-1.4-3.05-2.71-3.05-4.5a4.92,4.92,0,0,1,1.38-3.47,5.68,5.68,0,0,1,4-1.63,6.93,6.93,0,0,1,5.28,2.39l-2.39,2.41c-1-1.1-1.88-1.72-3-1.72a1.45,1.45,0,0,0-1.61,1.4c0,.69.37,1.19,2,2.39s3.08,2.62,3.08,4.57a4.84,4.84,0,0,1-1.45,3.54,5.83,5.83,0,0,1-4.06,1.56A7.2,7.2,0,0,1,128.63,156Z"/><polyline class="cls-7" points="35.82 95.69 35.82 74.94 54.7 74.94"/><polygon class="cls-5" points="53.75 68.5 57.82 74.94 53.75 81.38 53.71 81.38 53.71 68.5 53.75 68.5"/><polyline class="cls-7" points="35.82 130.21 35.82 150.96 54.7 150.96"/><polygon class="cls-5" points="53.75 144.53 57.82 150.96 53.75 157.4 53.71 157.4 53.71 144.53 53.75 144.53"/><polyline class="cls-6" points="168.71 188.44 168.71 196.43 405.71 196.43 405.71 37.47 396.08 37.47"/><line class="cls-6" x1="280.27" y1="205.55" x2="280.27" y2="196.43"/><path class="cls-5" d="M157.55,7h1l-1.15,5.91L161.33,7h1.17l-3.41,5.09,1.42,6.11h-1.1l-1.15-5.07-1.2,1.75-.64,3.33h-1Z"/><path class="cls-5" d="M164.43,13.85c-.21,0-.42,0-.62,0h-.48l-.85,4.35h-1L163.62,7h1.26a3.08,3.08,0,0,1,2.19.75,2.68,2.68,0,0,1,.75,2,4.15,4.15,0,0,1-1.17,3,3.58,3.58,0,0,1-1.22.8l1,4.64h-1.09Zm-.59-.9a2.57,2.57,0,0,0,2-.74,3.32,3.32,0,0,0,.88-2.4,1.9,1.9,0,0,0-.45-1.33,2,2,0,0,0-1.46-.5h-.38l-1,5Z"/><path class="cls-5" d="M171.71,7h1.12L173,18.23H172l0-2.9h-2.59l-1.15,2.9h-1Zm.22,7.41,0-5.65-2.23,5.65Z"/><path class="cls-5" d="M174,17.5l.22-1.14a2.66,2.66,0,0,0,1.89,1,1.58,1.58,0,0,0,1.52-1.78,6,6,0,0,0-.93-2.66,6.93,6.93,0,0,1-1.14-3.33,2.79,2.79,0,0,1,.77-2,2.42,2.42,0,0,1,1.78-.72,2.89,2.89,0,0,1,1.84.69l-.21,1.14A2.44,2.44,0,0,0,178,7.89a1.5,1.5,0,0,0-1.46,1.65,5.72,5.72,0,0,0,.86,2.56,7.29,7.29,0,0,1,1.18,3.39,3,3,0,0,1-.8,2.13,2.39,2.39,0,0,1-1.79.72A3.1,3.1,0,0,1,174,17.5Z"/><path class="cls-5" d="M182.8,7h3.94V8h-2.9v4.1h2.63v1h-2.62v4.18h2.95v1h-4Z"/><path class="cls-5" d="M189.34,13.88l-1.68-4.1h1L189.94,13l1.25-3.22h1l-1.67,4.07,1.78,4.39h-1l-1.34-3.47-1.34,3.47h-1Z"/><path class="cls-5" d="M193.15,14.13v-.24c0-2.67,1.12-4.24,2.46-4.24s2.45,1.57,2.45,4.24v.24c0,2.67-1.12,4.24-2.46,4.24S193.15,16.81,193.15,14.13Zm3.91,0v-.26c0-2.07-.64-3.31-1.46-3.31s-1.46,1.25-1.46,3.31v.26c0,2.06.64,3.33,1.46,3.33S197.06,16.2,197.06,14.13Z"/><path class="cls-5" d="M199.29,9.78h1V11A1.85,1.85,0,0,1,202,9.64c1.12,0,1.84.94,1.84,2.54v6.05h-1V12.36c0-1.18-.43-1.84-1.18-1.84s-1.34.77-1.34,1.94v5.78h-1Z"/><path class="cls-5" d="M207.5,17.45l2.48-5.2a6,6,0,0,0,.78-2.67A1.41,1.41,0,0,0,209.36,8a2.86,2.86,0,0,0-1.58.5V7.43A3.28,3.28,0,0,1,209.49,7a2.24,2.24,0,0,1,2.32,2.45v.06a6.87,6.87,0,0,1-.93,3.12l-2.19,4.61h3.17v1H207.5Z"/><path class="cls-5" d="M215.34,15.8v-.16c0-1.67.8-2.71,2.13-2.71a3.13,3.13,0,0,1,1.34.32v-.91c0-1.09-.51-1.71-1.5-1.71a3.16,3.16,0,0,0-1.52.38v-1a3.64,3.64,0,0,1,1.65-.37,2.25,2.25,0,0,1,2.37,2.56v6h-1V17.1a1.75,1.75,0,0,1-1.62,1.28C216.11,18.38,215.34,17.3,215.34,15.8Zm3.47-.1V14.09a2.76,2.76,0,0,0-1.17-.3c-.86,0-1.33.72-1.33,1.79v.16c0,1.06.42,1.78,1.15,1.78S218.82,16.66,218.82,15.7Z"/><path class="cls-5" d="M221.26,9.78h1V11a1.85,1.85,0,0,1,1.68-1.33c1.12,0,1.84.94,1.84,2.54v6.05h-1V12.36c0-1.18-.43-1.84-1.18-1.84s-1.34.77-1.34,1.94v5.78h-1Z"/><path class="cls-5" d="M226.86,15.8v-.16c0-1.67.8-2.71,2.13-2.71a3.13,3.13,0,0,1,1.34.32v-.91c0-1.09-.51-1.71-1.5-1.71a3.16,3.16,0,0,0-1.52.38v-1A3.64,3.64,0,0,1,229,9.68a2.25,2.25,0,0,1,2.37,2.56v6h-1V17.1a1.75,1.75,0,0,1-1.62,1.28C227.63,18.38,226.86,17.3,226.86,15.8Zm3.47-.1V14.09a2.76,2.76,0,0,0-1.17-.3c-.86,0-1.33.72-1.33,1.79v.16c0,1.06.42,1.78,1.15,1.78S230.33,16.66,230.33,15.7Z"/><path class="cls-5" d="M232.85,6.93h1v11.3h-1Z"/><path class="cls-5" d="M237,18.09l-2-8.31h1l1.44,6.59,1.46-6.59h1l-2.5,10.53h-1Z"/><path class="cls-5" d="M240.65,17.94v-1a3.83,3.83,0,0,0,1.68.5,1.06,1.06,0,0,0,1.12-1.09v0c0-.53-.29-1-1.23-1.94-1.14-1.09-1.58-1.78-1.58-2.69v0a1.93,1.93,0,0,1,2-2,3.28,3.28,0,0,1,1.39.27v1a3,3,0,0,0-1.39-.35,1,1,0,0,0-1.06,1v0c0,.53.27.93,1.25,1.89,1.14,1.14,1.57,1.83,1.57,2.74v0a2,2,0,0,1-2.1,2A3.84,3.84,0,0,1,240.65,17.94Z"/><path class="cls-5" d="M245.58,6.93h1V8.24h-1Zm0,2.85h1v8.45h-1Z"/><path class="cls-5" d="M247.8,17.94v-1a3.83,3.83,0,0,0,1.68.5,1.06,1.06,0,0,0,1.12-1.09v0c0-.53-.29-1-1.23-1.94-1.14-1.09-1.58-1.78-1.58-2.69v0a1.93,1.93,0,0,1,2-2,3.27,3.27,0,0,1,1.39.27v1a2.94,2.94,0,0,0-1.39-.35,1,1,0,0,0-1.06,1v0c0,.53.27.93,1.25,1.89,1.14,1.14,1.57,1.83,1.57,2.74v0a2,2,0,0,1-2.1,2A3.84,3.84,0,0,1,247.8,17.94Z"/><path class="cls-3" d="M228.46,210h3.94v1h-2.9v4.1h2.63v1H229.5v4.18h2.94v1h-4Z"/><path class="cls-3" d="M235,216.88l-1.68-4.1h1l1.25,3.22,1.25-3.22h1l-1.67,4.07,1.78,4.39h-1l-1.34-3.47-1.34,3.47h-1Z"/><path class="cls-3" d="M239.09,212.78h1v1.47c.32-.85.85-1.62,1.7-1.62,1.12,0,2.1,1.34,2.1,4.16v.42c0,2.79-1,4.16-2.1,4.16-.85,0-1.38-.77-1.7-1.6v3.54h-1Zm3.78,4.4v-.35c0-2.1-.59-3.27-1.36-3.27s-1.46,1.15-1.46,3.22v.45c0,2.07.71,3.22,1.46,3.22S242.87,219.28,242.87,217.18Z"/><path class="cls-3" d="M244.76,218.8v-.16c0-1.67.8-2.71,2.13-2.71a3.13,3.13,0,0,1,1.34.32v-.91c0-1.09-.51-1.71-1.5-1.71a3.16,3.16,0,0,0-1.52.38v-1a3.63,3.63,0,0,1,1.65-.37,2.25,2.25,0,0,1,2.37,2.56v6h-1V220.1a1.75,1.75,0,0,1-1.62,1.28C245.53,221.38,244.76,220.3,244.76,218.8Zm3.47-.1v-1.62a2.76,2.76,0,0,0-1.17-.3c-.86,0-1.33.72-1.33,1.79v.16c0,1.06.42,1.78,1.15,1.78S248.23,219.66,248.23,218.7Z"/><path class="cls-3" d="M250.68,212.78h1V214a1.85,1.85,0,0,1,1.68-1.33c1.12,0,1.84.94,1.84,2.54v6.05h-1v-5.87c0-1.18-.43-1.84-1.18-1.84s-1.34.77-1.34,1.94v5.78h-1Z"/><path class="cls-3" d="M256.41,217.21v-.42c0-2.79,1-4.16,2.08-4.16.85,0,1.38.77,1.7,1.6v-4.31h1v11.3h-1v-1.47c-.32.85-.85,1.62-1.7,1.62C257.38,221.38,256.41,220,256.41,217.21Zm3.81,0v-.45c0-2.06-.7-3.22-1.46-3.22s-1.36,1.17-1.36,3.27v.35c0,2.1.59,3.27,1.36,3.27S260.22,219.3,260.22,217.23Z"/><path class="cls-3" d="M262.41,217.18V217c0-2.87,1.1-4.31,2.38-4.31s2.26,1.49,2.26,4.16v.64H263.4c.06,2,.88,3,1.89,3a2.48,2.48,0,0,0,1.47-.53l.1,1a2.94,2.94,0,0,1-1.71.51C263.69,221.36,262.41,220,262.41,217.18Zm3.68-.56c0-1.81-.53-3.06-1.3-3.06s-1.34,1-1.39,3.06Z"/><path class="cls-3" d="M268,217.21v-.42c0-2.79,1-4.16,2.08-4.16.85,0,1.38.77,1.7,1.6v-4.31h1v11.3h-1v-1.47c-.32.85-.85,1.62-1.7,1.62C269,221.38,268,220,268,217.21Zm3.81,0v-.45c0-2.06-.7-3.22-1.46-3.22s-1.36,1.17-1.36,3.27v.35c0,2.1.59,3.27,1.36,3.27S271.85,219.3,271.85,217.23Z"/><path class="cls-3" d="M279.16,216.85c-.21,0-.42,0-.62,0h-.48l-.85,4.35h-1l2.18-11.2h1.26a3.08,3.08,0,0,1,2.19.75,2.68,2.68,0,0,1,.75,2,4.15,4.15,0,0,1-1.17,3,3.58,3.58,0,0,1-1.22.8l1,4.64h-1.09Zm-.59-.9a2.57,2.57,0,0,0,2-.74,3.32,3.32,0,0,0,.88-2.4,1.9,1.9,0,0,0-.45-1.33,2,2,0,0,0-1.46-.5h-.38l-1,5Z"/><path class="cls-3" d="M286.44,210h1.12l.18,11.25h-1.06l0-2.9h-2.59l-1.15,2.9h-1Zm.22,7.41,0-5.65-2.23,5.65Z"/><path class="cls-3" d="M288.68,220.5l.22-1.14a2.66,2.66,0,0,0,1.89,1,1.58,1.58,0,0,0,1.52-1.78,6,6,0,0,0-.93-2.66,6.93,6.93,0,0,1-1.14-3.33,2.79,2.79,0,0,1,.77-2,2.42,2.42,0,0,1,1.78-.72,2.89,2.89,0,0,1,1.84.69l-.21,1.14a2.44,2.44,0,0,0-1.66-.85,1.5,1.5,0,0,0-1.46,1.65,5.72,5.72,0,0,0,.86,2.56,7.29,7.29,0,0,1,1.18,3.39,3,3,0,0,1-.8,2.13,2.39,2.39,0,0,1-1.79.72A3.1,3.1,0,0,1,288.68,220.5Z"/><path class="cls-3" d="M297.09,218.8v-.16c0-1.67.8-2.71,2.13-2.71a3.13,3.13,0,0,1,1.34.32v-.91c0-1.09-.51-1.71-1.5-1.71a3.16,3.16,0,0,0-1.52.38v-1a3.64,3.64,0,0,1,1.65-.37,2.25,2.25,0,0,1,2.37,2.56v6h-1V220.1a1.75,1.75,0,0,1-1.62,1.28C297.86,221.38,297.09,220.3,297.09,218.8Zm3.47-.1v-1.62a2.76,2.76,0,0,0-1.17-.3c-.86,0-1.33.72-1.33,1.79v.16c0,1.06.42,1.78,1.15,1.78S300.57,219.66,300.57,218.7Z"/><path class="cls-3" d="M303,212.78h1V214a1.85,1.85,0,0,1,1.68-1.33c1.12,0,1.84.94,1.84,2.54v6.05h-1v-5.87c0-1.18-.43-1.84-1.18-1.84s-1.34.77-1.34,1.94v5.78h-1Z"/><path class="cls-3" d="M308.61,218.8v-.16c0-1.67.8-2.71,2.13-2.71a3.13,3.13,0,0,1,1.34.32v-.91c0-1.09-.51-1.71-1.5-1.71a3.16,3.16,0,0,0-1.52.38v-1a3.64,3.64,0,0,1,1.65-.37,2.25,2.25,0,0,1,2.37,2.56v6h-1V220.1a1.75,1.75,0,0,1-1.62,1.28C309.38,221.38,308.61,220.3,308.61,218.8Zm3.47-.1v-1.62a2.76,2.76,0,0,0-1.17-.3c-.86,0-1.33.72-1.33,1.79v.16c0,1.06.42,1.78,1.15,1.78S312.09,219.66,312.09,218.7Z"/><path class="cls-3" d="M314.6,209.93h1v11.3h-1Z"/><path class="cls-3" d="M318.76,221.09l-2-8.31h1l1.44,6.59,1.46-6.59h1l-2.5,10.53h-1Z"/><path class="cls-3" d="M322.4,220.94v-1a3.83,3.83,0,0,0,1.68.5,1.06,1.06,0,0,0,1.12-1.09v0c0-.53-.29-1-1.23-1.94-1.14-1.09-1.58-1.78-1.58-2.69v0a1.93,1.93,0,0,1,2-2,3.28,3.28,0,0,1,1.39.27v1a3,3,0,0,0-1.39-.35,1,1,0,0,0-1.06,1v0c0,.53.27.93,1.25,1.89,1.14,1.14,1.57,1.83,1.57,2.74v0a2,2,0,0,1-2.1,2A3.84,3.84,0,0,1,322.4,220.94Z"/><path class="cls-3" d="M327.33,209.93h1v1.31h-1Zm0,2.85h1v8.45h-1Z"/><path class="cls-3" d="M329.56,220.94v-1a3.83,3.83,0,0,0,1.68.5,1.06,1.06,0,0,0,1.12-1.09v0c0-.53-.29-1-1.23-1.94-1.14-1.09-1.58-1.78-1.58-2.69v0a1.93,1.93,0,0,1,2-2,3.27,3.27,0,0,1,1.39.27v1a2.94,2.94,0,0,0-1.39-.35,1,1,0,0,0-1.06,1v0c0,.53.27.93,1.25,1.89,1.14,1.14,1.57,1.83,1.57,2.74v0a2,2,0,0,1-2.1,2A3.84,3.84,0,0,1,329.56,220.94Z"/></g></g></svg>