<svg xmlns="http://www.w3.org/2000/svg" viewBox="0 0 338.16 221.93"><defs><style>.cls-1,.cls-6,.cls-7{fill:none;stroke-miterlimit:10;}.cls-1{stroke:#f7a800;stroke-width:1.4px;}.cls-2{fill:#595a5c;}.cls-3{fill:#0093c9;}.cls-4{fill:#f7a800;}.cls-5{fill:#fff;}.cls-6{stroke:#0093c9;}.cls-7{stroke:#fff;}</style></defs><title>kras-exor-2-analysis</title><g id="Layer_2" data-name="Layer 2"><g id="Layer_4" data-name="Layer 4"><line class="cls-1" x1="163.62" y1="40.92" x2="163.62" y2="5.59"/><polygon class="cls-2" points="60.69 106.86 60.69 35.57 118.14 35.57 128.44 71.84 118.14 106.86 60.69 106.86"/><polygon class="cls-2" points="60.69 182.87 60.69 111.57 118.14 111.57 128.44 147.84 118.14 182.87 60.69 182.87"/><rect class="cls-3" x="132.67" y="111.57" width="61.9" height="71.29"/><rect class="cls-2" y="35.57" width="57.26" height="147.29"/><rect class="cls-4" x="132.67" y="35.57" width="61.9" height="71.29"/><rect class="cls-3" x="199.28" y="111.57" width="61.9" height="71.29"/><rect class="cls-3" x="199.28" y="35.57" width="61.9" height="71.29"/><rect class="cls-3" x="265.88" y="111.57" width="61.9" height="71.29"/><rect class="cls-3" x="265.88" y="35.57" width="61.9" height="71.29"/><path class="cls-5" d="M143.73,50.64h5.36V53h-2.92v3.48h2.58v2.32h-2.58v3.56h3v2.32h-5.42Z"/><path class="cls-5" d="M157.21,50.64,155,57.5l2.28,7.14h-2.6l-1.18-4.26-1.2,4.26h-2.54l2.28-7.14-2.2-6.86h2.6l1.1,4.06,1.12-4.06Z"/><path class="cls-5" d="M157.93,58v-.72c0-4.62,1.5-6.84,3.72-6.84s3.72,2.22,3.72,6.84V58c0,4.62-1.5,6.84-3.72,6.84S157.93,62.62,157.93,58Zm5,0v-.72c0-3.6-.5-4.6-1.24-4.6s-1.24,1-1.24,4.6V58c0,3.6.5,4.6,1.24,4.6S162.89,61.6,162.89,58Z"/><path class="cls-5" d="M166.57,50.64h2.26l2.52,7.24V50.64h2.34v14h-2.14l-2.64-7.58v7.58h-2.34Z"/><path class="cls-5" d="M178,62.58l2.54-5.36a7.56,7.56,0,0,0,1-3.08,1.26,1.26,0,0,0-1.34-1.34,3.61,3.61,0,0,0-1.94.68V51.12a5.22,5.22,0,0,1,2.5-.68A3,3,0,0,1,184,53.72v.1a8.2,8.2,0,0,1-1.08,3.82l-2.26,4.6h3.28v2.4H178Z"/><path class="cls-5" d="M149.42,74.54v-.28c0-3.29,1.25-4.82,2.69-4.82a2,2,0,0,1,1,.22v1a1.81,1.81,0,0,0-1-.31c-1,0-1.82,1.25-1.82,3.94v.28c0,2.73.81,3.94,1.82,3.94a1.82,1.82,0,0,0,1-.31v.91a2,2,0,0,1-1.08.28C150.58,79.36,149.42,77.82,149.42,74.54Z"/><path class="cls-5" d="M154,75.71V75.5c0-2.34,1-3.71,2.16-3.71s2.14,1.37,2.14,3.71v.21c0,2.34-1,3.71-2.16,3.71S154,78.05,154,75.71Zm3.42,0v-.22c0-1.81-.56-2.9-1.27-2.9s-1.27,1.09-1.27,2.9v.22c0,1.81.56,2.91,1.27,2.91S157.43,77.52,157.43,75.71Z"/><path class="cls-5" d="M159.16,75.78v-.36c0-2.44.85-3.64,1.82-3.64.74,0,1.2.67,1.48,1.4V69.41h.88V79.3h-.88V78c-.28.74-.74,1.41-1.48,1.41C160,79.43,159.16,78.25,159.16,75.78Zm3.33,0v-.39c0-1.81-.62-2.82-1.27-2.82s-1.19,1-1.19,2.86v.31c0,1.83.52,2.86,1.19,2.86S162.5,77.61,162.5,75.8Z"/><path class="cls-5" d="M164.43,75.71V75.5c0-2.34,1-3.71,2.16-3.71s2.14,1.37,2.14,3.71v.21c0,2.34-1,3.71-2.16,3.71S164.43,78.05,164.43,75.71Zm3.42,0v-.22c0-1.81-.56-2.9-1.27-2.9s-1.27,1.09-1.27,2.9v.22c0,1.81.56,2.91,1.27,2.91S167.84,77.52,167.84,75.71Z"/><path class="cls-5" d="M169.8,71.9h.87v1a1.62,1.62,0,0,1,1.47-1.16c1,0,1.61.83,1.61,2.23V79.3h-.87V74.16c0-1-.38-1.61-1-1.61s-1.18.67-1.18,1.69V79.3h-.87Z"/><path class="cls-5" d="M174.69,79v-.88a3.36,3.36,0,0,0,1.47.43.93.93,0,0,0,1-1v0c0-.46-.25-.91-1.08-1.7-1-1-1.39-1.55-1.39-2.35v0a1.69,1.69,0,0,1,1.79-1.74,2.87,2.87,0,0,1,1.22.24v.88a2.58,2.58,0,0,0-1.22-.31.86.86,0,0,0-.92.88v0c0,.46.24.81,1.09,1.65,1,1,1.37,1.6,1.37,2.4v0a1.76,1.76,0,0,1-1.83,1.79A3.35,3.35,0,0,1,174.69,79Z"/><path class="cls-5" d="M152.18,85.19l-1,.53v-1l1.19-.6h.73V94h-.91Z"/><path class="cls-5" d="M154.27,93.27l2.17-4.55a5.22,5.22,0,0,0,.69-2.34A1.24,1.24,0,0,0,155.89,85a2.5,2.5,0,0,0-1.39.43v-.92a2.86,2.86,0,0,1,1.5-.41,2,2,0,0,1,2,2.14v.06a6,6,0,0,1-.81,2.73l-1.92,4h2.77V94h-3.81Z"/><path class="cls-5" d="M161.12,91.62v-.08a4.07,4.07,0,0,1,1.55-3.08,4.93,4.93,0,0,1-.92-2.42v-.08A1.83,1.83,0,0,1,163.5,84a1.73,1.73,0,0,1,1.68,1.86V86a3.58,3.58,0,0,1-1.5,2.68l1.39,2.59a14.74,14.74,0,0,0,.39-2l.74.13a11.26,11.26,0,0,1-.63,2.66l.92,1.63-.7.42-.69-1.29a2.09,2.09,0,0,1-4-1.18Zm3.57.5-1.62-3a3.19,3.19,0,0,0-1,2.37v.1c0,1,.49,1.7,1.23,1.7S164.31,92.81,164.69,92.13ZM164.37,86v-.07c0-.6-.34-1.12-.88-1.12a1,1,0,0,0-.92,1.13V86a4.13,4.13,0,0,0,.74,2A2.67,2.67,0,0,0,164.37,86Z"/><path class="cls-5" d="M170.2,85.19l-1,.53v-1l1.19-.6h.73V94h-.91Z"/><path class="cls-5" d="M172.25,93.78v-.87a2.84,2.84,0,0,0,1.26.27c.83,0,1.57-.79,1.57-2.1V91c0-1.25-.73-1.81-2-1.92v-.62l1.83-3.39h-2.65v-.91h3.66v.71L174,88.4a2.37,2.37,0,0,1,2,2.54V91c0,1.83-1.11,3-2.45,3A3,3,0,0,1,172.25,93.78Z"/><path class="cls-5" d="M210.81,50.64h5.36V53h-2.92v3.48h2.58v2.32h-2.58v3.56h3v2.32h-5.42Z"/><path class="cls-5" d="M224.29,50.64l-2.2,6.86,2.28,7.14h-2.6l-1.18-4.26-1.2,4.26h-2.54l2.28-7.14-2.2-6.86h2.6l1.1,4.06,1.12-4.06Z"/><path class="cls-5" d="M225,58v-.72c0-4.62,1.5-6.84,3.72-6.84s3.72,2.22,3.72,6.84V58c0,4.62-1.5,6.84-3.72,6.84S225,62.62,225,58Zm5,0v-.72c0-3.6-.5-4.6-1.24-4.6s-1.24,1-1.24,4.6V58c0,3.6.5,4.6,1.24,4.6S230,61.6,230,58Z"/><path class="cls-5" d="M233.65,50.64h2.26l2.52,7.24V50.64h2.34v14h-2.14L236,57.06v7.58h-2.34Z"/><path class="cls-5" d="M245,64.46V62.14a4.06,4.06,0,0,0,1.76.38,1.77,1.77,0,0,0,1.74-2v-.16c0-1.46-1-2.06-2.44-2.16V56.6L248.29,53h-3.16V50.64h5.64v2.18l-2.36,3.66c1.42.48,2.44,1.48,2.44,3.7v.22c0,2.76-1.62,4.44-3.82,4.44A5.22,5.22,0,0,1,245,64.46Z"/><path class="cls-5" d="M216.46,74.54v-.28c0-3.29,1.25-4.82,2.69-4.82a2,2,0,0,1,1,.22v1a1.81,1.81,0,0,0-1-.31c-1,0-1.82,1.25-1.82,3.94v.28c0,2.73.81,3.94,1.82,3.94a1.82,1.82,0,0,0,1-.31v.91a2,2,0,0,1-1.08.28C217.62,79.36,216.46,77.82,216.46,74.54Z"/><path class="cls-5" d="M221.05,75.71V75.5c0-2.34,1-3.71,2.16-3.71s2.14,1.37,2.14,3.71v.21c0,2.34-1,3.71-2.16,3.71S221.05,78.05,221.05,75.71Zm3.42,0v-.22c0-1.81-.56-2.9-1.27-2.9s-1.28,1.09-1.28,2.9v.22c0,1.81.56,2.91,1.28,2.91S224.47,77.52,224.47,75.71Z"/><path class="cls-5" d="M226.2,75.78v-.36c0-2.44.85-3.64,1.82-3.64.74,0,1.21.67,1.49,1.4V69.41h.88V79.3h-.88V78c-.28.74-.74,1.41-1.49,1.41C227.06,79.43,226.2,78.25,226.2,75.78Zm3.33,0v-.39c0-1.81-.62-2.82-1.28-2.82s-1.19,1-1.19,2.86v.31c0,1.83.52,2.86,1.19,2.86S229.54,77.61,229.54,75.8Z"/><path class="cls-5" d="M231.47,75.71V75.5c0-2.34,1-3.71,2.16-3.71s2.14,1.37,2.14,3.71v.21c0,2.34-1,3.71-2.16,3.71S231.47,78.05,231.47,75.71Zm3.42,0v-.22c0-1.81-.56-2.9-1.27-2.9s-1.28,1.09-1.28,2.9v.22c0,1.81.56,2.91,1.28,2.91S234.88,77.52,234.88,75.71Z"/><path class="cls-5" d="M236.84,71.9h.87v1a1.62,1.62,0,0,1,1.47-1.16c1,0,1.61.83,1.61,2.23V79.3h-.87V74.16c0-1-.38-1.61-1-1.61s-1.18.67-1.18,1.69V79.3h-.87Z"/><path class="cls-5" d="M241.73,79v-.88a3.36,3.36,0,0,0,1.47.43.93.93,0,0,0,1-1v0c0-.46-.25-.91-1.08-1.7-1-1-1.39-1.55-1.39-2.35v0a1.69,1.69,0,0,1,1.79-1.74,2.87,2.87,0,0,1,1.22.24v.88a2.58,2.58,0,0,0-1.22-.31.86.86,0,0,0-.92.88v0c0,.46.24.81,1.09,1.65,1,1,1.37,1.6,1.37,2.4v0a1.76,1.76,0,0,1-1.83,1.79A3.36,3.36,0,0,1,241.73,79Z"/><path class="cls-5" d="M217.13,93.78V92.9a2.58,2.58,0,0,0,1.16.28c.94,0,1.63-.94,1.63-2.34v-.07c0-1.44-.64-2-1.39-2a2,2,0,0,0-.87.18l-.53-.35.21-4.48h3.11V85h-2.38l-.14,3.07a2.08,2.08,0,0,1,.8-.15c1.09,0,2.09.81,2.09,2.8v.08c0,1.92-1.05,3.21-2.48,3.21A2.6,2.6,0,0,1,217.13,93.78Z"/><path class="cls-5" d="M222.09,93.78v-.9a2.56,2.56,0,0,0,1.12.29c1,0,1.57-1.15,1.64-3.4a1.89,1.89,0,0,1-1.36.63c-1,0-1.88-.83-1.88-3v-.1c0-2,.91-3.29,2.07-3.29s2,1,2,4.3v.39c0,3.91-1.05,5.31-2.49,5.31A2.68,2.68,0,0,1,222.09,93.78ZM224.85,89V88c0-2.45-.57-3.15-1.18-3.15s-1.19,1-1.19,2.45v.1c0,1.58.55,2.21,1.19,2.21A1.74,1.74,0,0,0,224.85,89Z"/><path class="cls-5" d="M228.85,91.62v-.08a4.07,4.07,0,0,1,1.55-3.08,4.94,4.94,0,0,1-.92-2.42v-.08A1.83,1.83,0,0,1,231.23,84a1.73,1.73,0,0,1,1.68,1.86V86a3.58,3.58,0,0,1-1.5,2.68l1.39,2.59a14.73,14.73,0,0,0,.39-2l.74.13A11.26,11.26,0,0,1,233.3,92l.92,1.63-.7.42-.69-1.29a2.09,2.09,0,0,1-4-1.18Zm3.57.5-1.62-3a3.19,3.19,0,0,0-1.05,2.37v.1c0,1,.49,1.7,1.23,1.7S232,92.81,232.42,92.13ZM232.1,86v-.07c0-.6-.34-1.12-.88-1.12a1,1,0,0,0-.92,1.13V86a4.12,4.12,0,0,0,.74,2A2.67,2.67,0,0,0,232.1,86Z"/><path class="cls-5" d="M237.14,89.79v-.39c0-3.91,1-5.31,2.51-5.31a2.21,2.21,0,0,1,1,.21v.9a2.08,2.08,0,0,0-1-.25c-1,0-1.58,1.19-1.64,3.52a1.92,1.92,0,0,1,1.36-.63c1,0,1.88.83,1.88,2.93v.11c0,1.93-.9,3.22-2.06,3.22S237.14,93.09,237.14,89.79Zm3.26,1.11v-.13c0-1.5-.56-2.14-1.19-2.14a1.75,1.75,0,0,0-1.19.62v.88c0,2.45.59,3.15,1.19,3.15S240.4,92.27,240.4,90.89Z"/><path class="cls-5" d="M242.95,85.19l-1,.53v-1l1.19-.6h.73V94h-.91Z"/><path class="cls-5" d="M276.72,50.64h5.36V53h-2.92v3.48h2.58v2.32h-2.58v3.56h3v2.32h-5.42Z"/><path class="cls-5" d="M290.21,50.64,288,57.5l2.28,7.14h-2.6l-1.18-4.26-1.2,4.26h-2.54L285,57.5l-2.2-6.86h2.6l1.1,4.06,1.12-4.06Z"/><path class="cls-5" d="M290.92,58v-.72c0-4.62,1.5-6.84,3.72-6.84s3.72,2.22,3.72,6.84V58c0,4.62-1.5,6.84-3.72,6.84S290.92,62.62,290.92,58Zm5,0v-.72c0-3.6-.5-4.6-1.24-4.6s-1.24,1-1.24,4.6V58c0,3.6.5,4.6,1.24,4.6S295.88,61.6,295.88,58Z"/><path class="cls-5" d="M299.56,50.64h2.26l2.52,7.24V50.64h2.34v14h-2.14l-2.64-7.58v7.58h-2.34Z"/><path class="cls-5" d="M314.66,62.06h-3.8V60.2l3.68-9.6h2.4V60h1.14v2.1h-1.14v2.58h-2.28Zm0-2.1V54.84L312.84,60Z"/><path class="cls-5" d="M283,74.54v-.28c0-3.29,1.25-4.82,2.69-4.82a2,2,0,0,1,1,.22v1a1.81,1.81,0,0,0-1-.31c-1,0-1.82,1.25-1.82,3.94v.28c0,2.73.81,3.94,1.82,3.94a1.82,1.82,0,0,0,1-.31v.91a2,2,0,0,1-1.08.28C284.11,79.36,283,77.82,283,74.54Z"/><path class="cls-5" d="M287.54,75.71V75.5c0-2.34,1-3.71,2.16-3.71s2.14,1.37,2.14,3.71v.21c0,2.34-1,3.71-2.16,3.71S287.54,78.05,287.54,75.71Zm3.42,0v-.22c0-1.81-.56-2.9-1.27-2.9s-1.27,1.09-1.27,2.9v.22c0,1.81.56,2.91,1.27,2.91S291,77.52,291,75.71Z"/><path class="cls-5" d="M292.69,75.78v-.36c0-2.44.85-3.64,1.82-3.64.74,0,1.2.67,1.48,1.4V69.41h.88V79.3H296V78c-.28.74-.74,1.41-1.48,1.41C293.55,79.43,292.69,78.25,292.69,75.78Zm3.33,0v-.39c0-1.81-.62-2.82-1.27-2.82s-1.19,1-1.19,2.86v.31c0,1.83.52,2.86,1.19,2.86S296,77.61,296,75.8Z"/><path class="cls-5" d="M298,75.71V75.5c0-2.34,1-3.71,2.16-3.71s2.14,1.37,2.14,3.71v.21c0,2.34-1,3.71-2.16,3.71S298,78.05,298,75.71Zm3.42,0v-.22c0-1.81-.56-2.9-1.27-2.9s-1.27,1.09-1.27,2.9v.22c0,1.81.56,2.91,1.27,2.91S301.38,77.52,301.38,75.71Z"/><path class="cls-5" d="M303.34,71.9h.87v1a1.62,1.62,0,0,1,1.47-1.16c1,0,1.61.83,1.61,2.23V79.3h-.87V74.16c0-1-.38-1.61-1-1.61s-1.18.67-1.18,1.69V79.3h-.87Z"/><path class="cls-5" d="M308.22,79v-.88a3.36,3.36,0,0,0,1.47.43.93.93,0,0,0,1-1v0c0-.46-.25-.91-1.08-1.7-1-1-1.39-1.55-1.39-2.35v0A1.69,1.69,0,0,1,310,71.81a2.87,2.87,0,0,1,1.22.24v.88a2.58,2.58,0,0,0-1.22-.31.86.86,0,0,0-.92.88v0c0,.46.24.81,1.09,1.65,1,1,1.37,1.6,1.37,2.4v0a1.76,1.76,0,0,1-1.83,1.79A3.35,3.35,0,0,1,308.22,79Z"/><path class="cls-5" d="M281.53,85.19l-1,.53v-1l1.19-.6h.73V94h-.91Z"/><path class="cls-5" d="M284.58,85.19l-1,.53v-1l1.19-.6h.73V94h-.91Z"/><path class="cls-5" d="M289.33,85.07h-2.62v-.91h3.5v.71L288.1,94h-.9Z"/><path class="cls-5" d="M293.26,91.62v-.08a4.07,4.07,0,0,1,1.55-3.08,4.93,4.93,0,0,1-.92-2.42v-.08A1.83,1.83,0,0,1,295.64,84a1.73,1.73,0,0,1,1.68,1.86V86a3.58,3.58,0,0,1-1.5,2.68l1.39,2.59a14.74,14.74,0,0,0,.39-2l.74.13a11.26,11.26,0,0,1-.63,2.66l.92,1.63-.7.42-.69-1.29a2.09,2.09,0,0,1-4-1.18Zm3.57.5-1.62-3a3.19,3.19,0,0,0-1,2.37v.1c0,1,.49,1.7,1.23,1.7S296.46,92.81,296.83,92.13ZM296.51,86v-.07c0-.6-.34-1.12-.88-1.12a1,1,0,0,0-.92,1.13V86a4.13,4.13,0,0,0,.74,2A2.67,2.67,0,0,0,296.51,86Z"/><path class="cls-5" d="M302.35,85.19l-1,.53v-1l1.19-.6h.73V94h-.91Z"/><path class="cls-5" d="M307.21,91.83h-2.86v-.7l2.87-7H308V91h.78v.78H308V94h-.84Zm0-.78V85.93L305.13,91Z"/><path class="cls-5" d="M309.57,89.79v-.39c0-3.91,1.05-5.31,2.51-5.31a2.2,2.2,0,0,1,1,.21v.9a2.07,2.07,0,0,0-1-.25c-1,0-1.58,1.19-1.64,3.52a1.91,1.91,0,0,1,1.36-.63c1,0,1.88.83,1.88,2.93v.11c0,1.93-.9,3.22-2.06,3.22S309.57,93.09,309.57,89.79Zm3.26,1.11v-.13c0-1.5-.56-2.14-1.19-2.14a1.74,1.74,0,0,0-1.19.62v.88c0,2.45.59,3.15,1.19,3.15S312.83,92.27,312.83,90.89Z"/><path class="cls-5" d="M143.73,126.39h5.36v2.32h-2.92v3.48h2.58v2.32h-2.58v3.56h3v2.32h-5.42Z"/><path class="cls-5" d="M157.21,126.39l-2.2,6.86,2.28,7.14h-2.6l-1.18-4.26-1.2,4.26h-2.54l2.28-7.14-2.2-6.86h2.6l1.1,4.06,1.12-4.06Z"/><path class="cls-5" d="M157.93,133.75V133c0-4.62,1.5-6.84,3.72-6.84s3.72,2.22,3.72,6.84v.72c0,4.62-1.5,6.84-3.72,6.84S157.93,138.37,157.93,133.75Zm5,0V133c0-3.6-.5-4.6-1.24-4.6s-1.24,1-1.24,4.6v.72c0,3.6.5,4.6,1.24,4.6S162.89,137.35,162.89,133.75Z"/><path class="cls-5" d="M166.57,126.39h2.26l2.52,7.24v-7.24h2.34v14h-2.14l-2.64-7.58v7.58h-2.34Z"/><path class="cls-5" d="M178,138.33l2.54-5.36a7.56,7.56,0,0,0,1-3.08,1.26,1.26,0,0,0-1.34-1.34,3.61,3.61,0,0,0-1.94.68v-2.36a5.22,5.22,0,0,1,2.5-.68,3,3,0,0,1,3.16,3.28v.1a8.2,8.2,0,0,1-1.08,3.82l-2.26,4.6h3.28v2.4H178Z"/><path class="cls-5" d="M149.42,150.29V150c0-3.29,1.25-4.82,2.69-4.82a2,2,0,0,1,1,.22v1a1.81,1.81,0,0,0-1-.31c-1,0-1.82,1.25-1.82,3.94v.28c0,2.73.81,3.94,1.82,3.94a1.82,1.82,0,0,0,1-.31v.91a2,2,0,0,1-1.08.28C150.58,155.11,149.42,153.57,149.42,150.29Z"/><path class="cls-5" d="M154,151.46v-.21c0-2.34,1-3.71,2.16-3.71s2.14,1.37,2.14,3.71v.21c0,2.34-1,3.71-2.16,3.71S154,153.8,154,151.46Zm3.42,0v-.22c0-1.81-.56-2.9-1.27-2.9s-1.27,1.09-1.27,2.9v.22c0,1.81.56,2.91,1.27,2.91S157.43,153.27,157.43,151.46Z"/><path class="cls-5" d="M159.16,151.53v-.36c0-2.44.85-3.64,1.82-3.64.74,0,1.2.67,1.48,1.4v-3.77h.88v9.89h-.88v-1.29c-.28.74-.74,1.41-1.48,1.41C160,155.18,159.16,154,159.16,151.53Zm3.33,0v-.39c0-1.81-.62-2.82-1.27-2.82s-1.19,1-1.19,2.86v.31c0,1.83.52,2.86,1.19,2.86S162.5,153.36,162.5,151.55Z"/><path class="cls-5" d="M164.43,151.46v-.21c0-2.34,1-3.71,2.16-3.71s2.14,1.37,2.14,3.71v.21c0,2.34-1,3.71-2.16,3.71S164.43,153.8,164.43,151.46Zm3.42,0v-.22c0-1.81-.56-2.9-1.27-2.9s-1.27,1.09-1.27,2.9v.22c0,1.81.56,2.91,1.27,2.91S167.84,153.27,167.84,151.46Z"/><path class="cls-5" d="M169.8,147.65h.87v1a1.62,1.62,0,0,1,1.47-1.16c1,0,1.61.83,1.61,2.23v5.29h-.87v-5.14c0-1-.38-1.61-1-1.61s-1.18.67-1.18,1.69v5.06h-.87Z"/><path class="cls-5" d="M174.69,154.8v-.88a3.36,3.36,0,0,0,1.47.43.93.93,0,0,0,1-1v0c0-.46-.25-.91-1.08-1.7-1-1-1.39-1.55-1.39-2.35v0a1.69,1.69,0,0,1,1.79-1.74,2.87,2.87,0,0,1,1.22.24v.88a2.58,2.58,0,0,0-1.22-.31.86.86,0,0,0-.92.88v0c0,.46.24.81,1.09,1.65,1,1,1.37,1.6,1.37,2.4v0a1.76,1.76,0,0,1-1.83,1.79A3.35,3.35,0,0,1,174.69,154.8Z"/><path class="cls-5" d="M152.18,160.94l-1,.53v-1l1.19-.6h.73v9.82h-.91Z"/><path class="cls-5" d="M154.27,169l2.17-4.55a5.22,5.22,0,0,0,.69-2.34,1.24,1.24,0,0,0-1.23-1.39,2.5,2.5,0,0,0-1.39.43v-.92a2.86,2.86,0,0,1,1.5-.41,2,2,0,0,1,2,2.14V162a6,6,0,0,1-.81,2.73l-1.92,4h2.77v.9h-3.81Z"/><path class="cls-5" d="M161.12,167.37v-.08a4.07,4.07,0,0,1,1.55-3.08,4.93,4.93,0,0,1-.92-2.42v-.08a1.83,1.83,0,0,1,1.75-1.92,1.73,1.73,0,0,1,1.68,1.86v.08a3.58,3.58,0,0,1-1.5,2.68l1.39,2.59a14.74,14.74,0,0,0,.39-2l.74.13a11.26,11.26,0,0,1-.63,2.66l.92,1.63-.7.42-.69-1.29a2.09,2.09,0,0,1-4-1.18Zm3.57.5-1.62-3a3.19,3.19,0,0,0-1,2.37v.1c0,1,.49,1.7,1.23,1.7S164.31,168.56,164.69,167.88Zm-.32-6.14v-.07c0-.6-.34-1.12-.88-1.12a1,1,0,0,0-.92,1.13v.06a4.13,4.13,0,0,0,.74,2A2.67,2.67,0,0,0,164.37,161.74Z"/><path class="cls-5" d="M170.2,160.94l-1,.53v-1l1.19-.6h.73v9.82h-.91Z"/><path class="cls-5" d="M172.25,169.53v-.87a2.84,2.84,0,0,0,1.26.27c.83,0,1.57-.79,1.57-2.1v-.08c0-1.25-.73-1.81-2-1.92v-.62l1.83-3.39h-2.65v-.91h3.66v.71L174,164.15a2.37,2.37,0,0,1,2,2.54v.11c0,1.83-1.11,3-2.45,3A3,3,0,0,1,172.25,169.53Z"/><path class="cls-5" d="M210.81,126.39h5.36v2.32h-2.92v3.48h2.58v2.32h-2.58v3.56h3v2.32h-5.42Z"/><path class="cls-5" d="M224.29,126.39l-2.2,6.86,2.28,7.14h-2.6l-1.18-4.26-1.2,4.26h-2.54l2.28-7.14-2.2-6.86h2.6l1.1,4.06,1.12-4.06Z"/><path class="cls-5" d="M225,133.75V133c0-4.62,1.5-6.84,3.72-6.84s3.72,2.22,3.72,6.84v.72c0,4.62-1.5,6.84-3.72,6.84S225,138.37,225,133.75Zm5,0V133c0-3.6-.5-4.6-1.24-4.6s-1.24,1-1.24,4.6v.72c0,3.6.5,4.6,1.24,4.6S230,137.35,230,133.75Z"/><path class="cls-5" d="M233.65,126.39h2.26l2.52,7.24v-7.24h2.34v14h-2.14L236,132.81v7.58h-2.34Z"/><path class="cls-5" d="M245,140.21v-2.32a4.06,4.06,0,0,0,1.76.38,1.77,1.77,0,0,0,1.74-2v-.16c0-1.46-1-2.06-2.44-2.16v-1.6l2.28-3.58h-3.16v-2.38h5.64v2.18l-2.36,3.66c1.42.48,2.44,1.48,2.44,3.7v.22c0,2.76-1.62,4.44-3.82,4.44A5.22,5.22,0,0,1,245,140.21Z"/><path class="cls-5" d="M216.46,150.29V150c0-3.29,1.25-4.82,2.69-4.82a2,2,0,0,1,1,.22v1a1.81,1.81,0,0,0-1-.31c-1,0-1.82,1.25-1.82,3.94v.28c0,2.73.81,3.94,1.82,3.94a1.82,1.82,0,0,0,1-.31v.91a2,2,0,0,1-1.08.28C217.62,155.11,216.46,153.57,216.46,150.29Z"/><path class="cls-5" d="M221.05,151.46v-.21c0-2.34,1-3.71,2.16-3.71s2.14,1.37,2.14,3.71v.21c0,2.34-1,3.71-2.16,3.71S221.05,153.8,221.05,151.46Zm3.42,0v-.22c0-1.81-.56-2.9-1.27-2.9s-1.28,1.09-1.28,2.9v.22c0,1.81.56,2.91,1.28,2.91S224.47,153.27,224.47,151.46Z"/><path class="cls-5" d="M226.2,151.53v-.36c0-2.44.85-3.64,1.82-3.64.74,0,1.21.67,1.49,1.4v-3.77h.88v9.89h-.88v-1.29c-.28.74-.74,1.41-1.49,1.41C227.06,155.18,226.2,154,226.2,151.53Zm3.33,0v-.39c0-1.81-.62-2.82-1.28-2.82s-1.19,1-1.19,2.86v.31c0,1.83.52,2.86,1.19,2.86S229.54,153.36,229.54,151.55Z"/><path class="cls-5" d="M231.47,151.46v-.21c0-2.34,1-3.71,2.16-3.71s2.14,1.37,2.14,3.71v.21c0,2.34-1,3.71-2.16,3.71S231.47,153.8,231.47,151.46Zm3.42,0v-.22c0-1.81-.56-2.9-1.27-2.9s-1.28,1.09-1.28,2.9v.22c0,1.81.56,2.91,1.28,2.91S234.88,153.27,234.88,151.46Z"/><path class="cls-5" d="M236.84,147.65h.87v1a1.62,1.62,0,0,1,1.47-1.16c1,0,1.61.83,1.61,2.23v5.29h-.87v-5.14c0-1-.38-1.61-1-1.61s-1.18.67-1.18,1.69v5.06h-.87Z"/><path class="cls-5" d="M241.73,154.8v-.88a3.36,3.36,0,0,0,1.47.43.93.93,0,0,0,1-1v0c0-.46-.25-.91-1.08-1.7-1-1-1.39-1.55-1.39-2.35v0a1.69,1.69,0,0,1,1.79-1.74,2.87,2.87,0,0,1,1.22.24v.88a2.58,2.58,0,0,0-1.22-.31.86.86,0,0,0-.92.88v0c0,.46.24.81,1.09,1.65,1,1,1.37,1.6,1.37,2.4v0a1.76,1.76,0,0,1-1.83,1.79A3.36,3.36,0,0,1,241.73,154.8Z"/><path class="cls-5" d="M217.13,169.53v-.88a2.58,2.58,0,0,0,1.16.28c.94,0,1.63-.94,1.63-2.34v-.07c0-1.44-.64-2-1.39-2a2,2,0,0,0-.87.18l-.53-.35.21-4.48h3.11v.88h-2.38l-.14,3.07a2.08,2.08,0,0,1,.8-.15c1.09,0,2.09.81,2.09,2.8v.08c0,1.92-1.05,3.21-2.48,3.21A2.6,2.6,0,0,1,217.13,169.53Z"/><path class="cls-5" d="M222.09,169.53v-.9a2.56,2.56,0,0,0,1.12.29c1,0,1.57-1.15,1.64-3.4a1.89,1.89,0,0,1-1.36.63c-1,0-1.88-.83-1.88-3v-.1c0-2,.91-3.29,2.07-3.29s2,1,2,4.3v.39c0,3.91-1.05,5.31-2.49,5.31A2.68,2.68,0,0,1,222.09,169.53Zm2.76-4.79v-1c0-2.45-.57-3.15-1.18-3.15s-1.19,1-1.19,2.45v.1c0,1.58.55,2.21,1.19,2.21A1.74,1.74,0,0,0,224.85,164.74Z"/><path class="cls-5" d="M228.85,167.37v-.08a4.07,4.07,0,0,1,1.55-3.08,4.94,4.94,0,0,1-.92-2.42v-.08a1.83,1.83,0,0,1,1.75-1.92,1.73,1.73,0,0,1,1.68,1.86v.08a3.58,3.58,0,0,1-1.5,2.68L232.8,167a14.73,14.73,0,0,0,.39-2l.74.13a11.26,11.26,0,0,1-.63,2.66l.92,1.63-.7.42-.69-1.29a2.09,2.09,0,0,1-4-1.18Zm3.57.5-1.62-3a3.19,3.19,0,0,0-1.05,2.37v.1c0,1,.49,1.7,1.23,1.7S232,168.56,232.42,167.88Zm-.32-6.14v-.07c0-.6-.34-1.12-.88-1.12a1,1,0,0,0-.92,1.13v.06a4.12,4.12,0,0,0,.74,2A2.67,2.67,0,0,0,232.1,161.74Z"/><path class="cls-5" d="M237.14,165.54v-.39c0-3.91,1-5.31,2.51-5.31a2.21,2.21,0,0,1,1,.21v.9a2.08,2.08,0,0,0-1-.25c-1,0-1.58,1.19-1.64,3.52a1.92,1.92,0,0,1,1.36-.63c1,0,1.88.83,1.88,2.93v.11c0,1.93-.9,3.22-2.06,3.22S237.14,168.84,237.14,165.54Zm3.26,1.11v-.13c0-1.5-.56-2.14-1.19-2.14A1.75,1.75,0,0,0,238,165v.88c0,2.45.59,3.15,1.19,3.15S240.4,168,240.4,166.64Z"/><path class="cls-5" d="M242.95,160.94l-1,.53v-1l1.19-.6h.73v9.82h-.91Z"/><path class="cls-5" d="M276.72,126.39h5.36v2.32h-2.92v3.48h2.58v2.32h-2.58v3.56h3v2.32h-5.42Z"/><path class="cls-5" d="M290.21,126.39l-2.2,6.86,2.28,7.14h-2.6l-1.18-4.26-1.2,4.26h-2.54l2.28-7.14-2.2-6.86h2.6l1.1,4.06,1.12-4.06Z"/><path class="cls-5" d="M290.92,133.75V133c0-4.62,1.5-6.84,3.72-6.84s3.72,2.22,3.72,6.84v.72c0,4.62-1.5,6.84-3.72,6.84S290.92,138.37,290.92,133.75Zm5,0V133c0-3.6-.5-4.6-1.24-4.6s-1.24,1-1.24,4.6v.72c0,3.6.5,4.6,1.24,4.6S295.88,137.35,295.88,133.75Z"/><path class="cls-5" d="M299.56,126.39h2.26l2.52,7.24v-7.24h2.34v14h-2.14l-2.64-7.58v7.58h-2.34Z"/><path class="cls-5" d="M314.66,137.81h-3.8v-1.86l3.68-9.6h2.4v9.36h1.14v2.1h-1.14v2.58h-2.28Zm0-2.1v-5.12l-1.82,5.12Z"/><path class="cls-5" d="M283,150.29V150c0-3.29,1.25-4.82,2.69-4.82a2,2,0,0,1,1,.22v1a1.81,1.81,0,0,0-1-.31c-1,0-1.82,1.25-1.82,3.94v.28c0,2.73.81,3.94,1.82,3.94a1.82,1.82,0,0,0,1-.31v.91a2,2,0,0,1-1.08.28C284.11,155.11,283,153.57,283,150.29Z"/><path class="cls-5" d="M287.54,151.46v-.21c0-2.34,1-3.71,2.16-3.71s2.14,1.37,2.14,3.71v.21c0,2.34-1,3.71-2.16,3.71S287.54,153.8,287.54,151.46Zm3.42,0v-.22c0-1.81-.56-2.9-1.27-2.9s-1.27,1.09-1.27,2.9v.22c0,1.81.56,2.91,1.27,2.91S291,153.27,291,151.46Z"/><path class="cls-5" d="M292.69,151.53v-.36c0-2.44.85-3.64,1.82-3.64.74,0,1.2.67,1.48,1.4v-3.77h.88v9.89H296v-1.29c-.28.74-.74,1.41-1.48,1.41C293.55,155.18,292.69,154,292.69,151.53Zm3.33,0v-.39c0-1.81-.62-2.82-1.27-2.82s-1.19,1-1.19,2.86v.31c0,1.83.52,2.86,1.19,2.86S296,153.36,296,151.55Z"/><path class="cls-5" d="M298,151.46v-.21c0-2.34,1-3.71,2.16-3.71s2.14,1.37,2.14,3.71v.21c0,2.34-1,3.71-2.16,3.71S298,153.8,298,151.46Zm3.42,0v-.22c0-1.81-.56-2.9-1.27-2.9s-1.27,1.09-1.27,2.9v.22c0,1.81.56,2.91,1.27,2.91S301.38,153.27,301.38,151.46Z"/><path class="cls-5" d="M303.34,147.65h.87v1a1.62,1.62,0,0,1,1.47-1.16c1,0,1.61.83,1.61,2.23v5.29h-.87v-5.14c0-1-.38-1.61-1-1.61s-1.18.67-1.18,1.69v5.06h-.87Z"/><path class="cls-5" d="M308.22,154.8v-.88a3.36,3.36,0,0,0,1.47.43.93.93,0,0,0,1-1v0c0-.46-.25-.91-1.08-1.7-1-1-1.39-1.55-1.39-2.35v0a1.69,1.69,0,0,1,1.79-1.74,2.87,2.87,0,0,1,1.22.24v.88a2.58,2.58,0,0,0-1.22-.31.86.86,0,0,0-.92.88v0c0,.46.24.81,1.09,1.65,1,1,1.37,1.6,1.37,2.4v0a1.76,1.76,0,0,1-1.83,1.79A3.35,3.35,0,0,1,308.22,154.8Z"/><path class="cls-5" d="M281.53,160.94l-1,.53v-1l1.19-.6h.73v9.82h-.91Z"/><path class="cls-5" d="M284.58,160.94l-1,.53v-1l1.19-.6h.73v9.82h-.91Z"/><path class="cls-5" d="M289.33,160.82h-2.62v-.91h3.5v.71l-2.12,9.09h-.9Z"/><path class="cls-5" d="M293.26,167.37v-.08a4.07,4.07,0,0,1,1.55-3.08,4.93,4.93,0,0,1-.92-2.42v-.08a1.83,1.83,0,0,1,1.75-1.92,1.73,1.73,0,0,1,1.68,1.86v.08a3.58,3.58,0,0,1-1.5,2.68l1.39,2.59a14.74,14.74,0,0,0,.39-2l.74.13a11.26,11.26,0,0,1-.63,2.66l.92,1.63-.7.42-.69-1.29a2.09,2.09,0,0,1-4-1.18Zm3.57.5-1.62-3a3.19,3.19,0,0,0-1,2.37v.1c0,1,.49,1.7,1.23,1.7S296.46,168.56,296.83,167.88Zm-.32-6.14v-.07c0-.6-.34-1.12-.88-1.12a1,1,0,0,0-.92,1.13v.06a4.13,4.13,0,0,0,.74,2A2.67,2.67,0,0,0,296.51,161.74Z"/><path class="cls-5" d="M302.35,160.94l-1,.53v-1l1.19-.6h.73v9.82h-.91Z"/><path class="cls-5" d="M307.21,167.58h-2.86v-.7l2.87-7H308v6.95h.78v.78H308v2.13h-.84Zm0-.78v-5.11l-2.07,5.11Z"/><path class="cls-5" d="M309.57,165.54v-.39c0-3.91,1.05-5.31,2.51-5.31a2.2,2.2,0,0,1,1,.21v.9a2.07,2.07,0,0,0-1-.25c-1,0-1.58,1.19-1.64,3.52a1.91,1.91,0,0,1,1.36-.63c1,0,1.88.83,1.88,2.93v.11c0,1.93-.9,3.22-2.06,3.22S309.57,168.84,309.57,165.54Zm3.26,1.11v-.13c0-1.5-.56-2.14-1.19-2.14a1.74,1.74,0,0,0-1.19.62v.88c0,2.45.59,3.15,1.19,3.15S312.83,168,312.83,166.64Z"/><rect class="cls-4" x="103.54" width="120.16" height="25.52"/><rect class="cls-6" x="170.15" y="200.65" width="120.16" height="20.78"/><path class="cls-5" d="M11.66,112.85H10l-1.19,5.1H5.28L9.2,101.87h4.62c2.18,0,3.7.5,4.69,1.49a4.56,4.56,0,0,1,1.24,3.31,5.67,5.67,0,0,1-1.49,4,5.89,5.89,0,0,1-2.94,1.75l2.2,5.49h-3.9Zm1-3.05a3.79,3.79,0,0,0,2.73-.9,2.77,2.77,0,0,0,.73-2,1.7,1.7,0,0,0-.53-1.35,2.7,2.7,0,0,0-2-.57h-1.7l-1.1,4.78Z"/><path class="cls-5" d="M27.63,101.76H31l1.72,16.19H29.17l-.28-3.61H23.73l-2,3.61H18Zm.92,9.51L28.3,106l-2.62,5.26Z"/><path class="cls-5" d="M33.32,115.24,35.92,113c1.22,1.38,2.3,2.11,3.49,2.11a1.5,1.5,0,0,0,1.65-1.45c0-.67-.44-1.22-2.07-2.41-1.88-1.4-3.05-2.71-3.05-4.5a4.92,4.92,0,0,1,1.38-3.47,5.68,5.68,0,0,1,4-1.63A6.93,6.93,0,0,1,46.64,104l-2.39,2.41c-1-1.1-1.88-1.72-3-1.72a1.45,1.45,0,0,0-1.61,1.4c0,.69.37,1.19,2,2.39s3.08,2.62,3.08,4.57a4.84,4.84,0,0,1-1.45,3.54,5.83,5.83,0,0,1-4.06,1.56A7.2,7.2,0,0,1,33.32,115.24Z"/><path class="cls-5" d="M69.24,65.2h3.49L71.1,72l6.06-6.84h4.48L75,72,78,81.28H74.25l-1.93-6.75-2.5,2.53-1,4.23H65.31Z"/><path class="cls-5" d="M85.24,76.18h-1.7l-1.19,5.1H78.86L82.78,65.2H87.4c2.18,0,3.7.5,4.69,1.49A4.56,4.56,0,0,1,93.32,70a5.67,5.67,0,0,1-1.49,4,5.89,5.89,0,0,1-2.94,1.75l2.2,5.49h-3.9Zm1-3.05a3.79,3.79,0,0,0,2.73-.9,2.76,2.76,0,0,0,.74-2,1.7,1.7,0,0,0-.53-1.35,2.7,2.7,0,0,0-2-.57h-1.7l-1.1,4.78Z"/><path class="cls-5" d="M101.21,65.09h3.38l1.72,16.19h-3.56l-.28-3.61H97.31l-2,3.61H91.59Zm.92,9.51-.25-5.26L99.26,74.6Z"/><path class="cls-5" d="M106.9,78.57l2.59-2.25c1.22,1.38,2.3,2.11,3.49,2.11A1.5,1.5,0,0,0,114.64,77c0-.67-.44-1.22-2.07-2.41-1.88-1.4-3.05-2.71-3.05-4.5a4.92,4.92,0,0,1,1.38-3.47,5.68,5.68,0,0,1,4-1.63,6.93,6.93,0,0,1,5.28,2.39l-2.39,2.41c-1-1.1-1.88-1.72-3-1.72a1.45,1.45,0,0,0-1.61,1.4c0,.69.37,1.19,2,2.39s3.08,2.62,3.08,4.57a4.84,4.84,0,0,1-1.45,3.54,5.83,5.83,0,0,1-4.06,1.56A7.2,7.2,0,0,1,106.9,78.57Z"/><path class="cls-5" d="M68.53,140.7h3.24L75,150.79l2.39-10.08h3.42l-3.93,16.08h-3l-3.42-10.43L68,156.78H64.6Z"/><path class="cls-5" d="M86,151.68h-1.7l-1.19,5.1H79.57L83.5,140.7h4.62c2.18,0,3.7.5,4.68,1.49A4.56,4.56,0,0,1,94,145.5a5.67,5.67,0,0,1-1.49,4,5.88,5.88,0,0,1-2.94,1.75l2.21,5.49h-3.9Zm1-3.05a3.79,3.79,0,0,0,2.73-.9,2.77,2.77,0,0,0,.73-2,1.7,1.7,0,0,0-.53-1.35,2.7,2.7,0,0,0-2-.57h-1.7l-1.1,4.78Z"/><path class="cls-5" d="M101.93,140.59h3.38L107,156.78h-3.56l-.28-3.61H98l-2,3.61H92.31Zm.92,9.51-.25-5.26L100,150.1Z"/><path class="cls-5" d="M107.62,154.07l2.59-2.25c1.22,1.38,2.3,2.11,3.49,2.11a1.5,1.5,0,0,0,1.65-1.45c0-.67-.44-1.22-2.07-2.41-1.88-1.4-3.05-2.71-3.05-4.5a4.92,4.92,0,0,1,1.38-3.47,5.68,5.68,0,0,1,4-1.63,6.93,6.93,0,0,1,5.28,2.39l-2.39,2.41c-1-1.1-1.88-1.72-3-1.72a1.45,1.45,0,0,0-1.61,1.4c0,.69.37,1.19,2,2.39s3.08,2.62,3.08,4.57a4.84,4.84,0,0,1-1.45,3.54,5.83,5.83,0,0,1-4.06,1.56A7.2,7.2,0,0,1,107.62,154.07Z"/><polyline class="cls-7" points="25.81 93.8 25.81 73.05 44.69 73.05"/><polygon class="cls-5" points="43.74 66.61 47.81 73.05 43.74 79.48 43.7 79.48 43.7 66.61 43.74 66.61"/><polyline class="cls-7" points="25.81 128.32 25.81 149.07 44.69 149.07"/><polygon class="cls-5" points="43.74 142.63 47.81 149.07 43.74 155.51 43.7 155.51 43.7 142.63 43.74 142.63"/><polyline class="cls-6" points="133.69 186.55 133.69 191.54 337.66 191.54 337.66 35.57 331.02 35.57"/><line class="cls-6" x1="230.23" y1="200.65" x2="230.23" y2="191.54"/><path class="cls-5" d="M117.52,7h1l-1.15,5.91L121.3,7h1.17l-3.41,5.09,1.42,6.11h-1.1l-1.15-5.07L117,14.9l-.64,3.33h-1Z"/><path class="cls-5" d="M124.4,13.85c-.21,0-.42,0-.62,0h-.48l-.85,4.35h-1L123.58,7h1.26a3.08,3.08,0,0,1,2.19.75,2.68,2.68,0,0,1,.75,2,4.15,4.15,0,0,1-1.17,3,3.58,3.58,0,0,1-1.22.8l1,4.64h-1.09Zm-.59-.9a2.57,2.57,0,0,0,2-.74,3.32,3.32,0,0,0,.88-2.4,1.9,1.9,0,0,0-.45-1.33,2,2,0,0,0-1.46-.5h-.38l-1,5Z"/><path class="cls-5" d="M131.68,7h1.12L133,18.23h-1.06l0-2.9h-2.59l-1.15,2.9h-1Zm.22,7.41,0-5.65-2.23,5.65Z"/><path class="cls-5" d="M133.92,17.5l.22-1.14a2.66,2.66,0,0,0,1.89,1,1.58,1.58,0,0,0,1.52-1.78,6,6,0,0,0-.93-2.66,6.93,6.93,0,0,1-1.14-3.33,2.79,2.79,0,0,1,.77-2A2.42,2.42,0,0,1,138,6.92a2.89,2.89,0,0,1,1.84.69l-.21,1.14A2.44,2.44,0,0,0,138,7.89a1.5,1.5,0,0,0-1.46,1.65,5.72,5.72,0,0,0,.86,2.56,7.3,7.3,0,0,1,1.18,3.39,3,3,0,0,1-.8,2.13,2.39,2.39,0,0,1-1.79.72A3.1,3.1,0,0,1,133.92,17.5Z"/><path class="cls-5" d="M142.77,7h3.94V8h-2.9v4.1h2.63v1h-2.62v4.18h2.94v1h-4Z"/><path class="cls-5" d="M149.31,13.88l-1.68-4.1h1L149.9,13l1.25-3.22h1l-1.66,4.07,1.78,4.39h-1l-1.34-3.47-1.34,3.47h-1Z"/><path class="cls-5" d="M153.12,14.13v-.24c0-2.67,1.12-4.24,2.47-4.24S158,11.22,158,13.89v.24c0,2.67-1.12,4.24-2.46,4.24S153.12,16.81,153.12,14.13Zm3.91,0v-.26c0-2.07-.64-3.31-1.46-3.31s-1.46,1.25-1.46,3.31v.26c0,2.06.64,3.33,1.46,3.33S157,16.2,157,14.13Z"/><path class="cls-5" d="M159.26,9.78h1V11a1.85,1.85,0,0,1,1.68-1.33c1.12,0,1.84.94,1.84,2.54v6.05h-1V12.36c0-1.18-.43-1.84-1.18-1.84s-1.34.77-1.34,1.94v5.78h-1Z"/><path class="cls-5" d="M167.47,17.45l2.48-5.2a6,6,0,0,0,.78-2.67A1.41,1.41,0,0,0,169.33,8a2.86,2.86,0,0,0-1.58.5V7.43A3.28,3.28,0,0,1,169.46,7a2.24,2.24,0,0,1,2.32,2.45v.06a6.87,6.87,0,0,1-.93,3.12l-2.19,4.61h3.17v1h-4.35Z"/><path class="cls-5" d="M175.31,15.8v-.16c0-1.67.8-2.71,2.13-2.71a3.13,3.13,0,0,1,1.34.32v-.91c0-1.09-.51-1.71-1.5-1.71a3.16,3.16,0,0,0-1.52.38v-1a3.64,3.64,0,0,1,1.65-.37,2.25,2.25,0,0,1,2.37,2.56v6h-1V17.1a1.75,1.75,0,0,1-1.62,1.28C176.08,18.38,175.31,17.3,175.31,15.8Zm3.47-.1V14.09a2.76,2.76,0,0,0-1.17-.3c-.86,0-1.33.72-1.33,1.79v.16c0,1.06.42,1.78,1.15,1.78S178.78,16.66,178.78,15.7Z"/><path class="cls-5" d="M181.23,9.78h1V11a1.85,1.85,0,0,1,1.68-1.33c1.12,0,1.84.94,1.84,2.54v6.05h-1V12.36c0-1.18-.43-1.84-1.18-1.84s-1.34.77-1.34,1.94v5.78h-1Z"/><path class="cls-5" d="M186.83,15.8v-.16c0-1.67.8-2.71,2.13-2.71a3.13,3.13,0,0,1,1.34.32v-.91c0-1.09-.51-1.71-1.5-1.71a3.16,3.16,0,0,0-1.52.38v-1a3.64,3.64,0,0,1,1.65-.37,2.25,2.25,0,0,1,2.37,2.56v6h-1V17.1a1.75,1.75,0,0,1-1.62,1.28C187.6,18.38,186.83,17.3,186.83,15.8Zm3.47-.1V14.09a2.76,2.76,0,0,0-1.17-.3c-.86,0-1.33.72-1.33,1.79v.16c0,1.06.42,1.78,1.15,1.78S190.3,16.66,190.3,15.7Z"/><path class="cls-5" d="M192.81,6.93h1v11.3h-1Z"/><path class="cls-5" d="M197,18.09l-2-8.31h1l1.44,6.59,1.46-6.59h1l-2.5,10.53h-1Z"/><path class="cls-5" d="M200.62,17.94v-1a3.83,3.83,0,0,0,1.68.5,1.06,1.06,0,0,0,1.12-1.09v0c0-.53-.29-1-1.23-1.94-1.14-1.09-1.58-1.78-1.58-2.69v0a1.93,1.93,0,0,1,2-2,3.28,3.28,0,0,1,1.39.27v1a3,3,0,0,0-1.39-.35,1,1,0,0,0-1.06,1v0c0,.53.27.93,1.25,1.89,1.14,1.14,1.57,1.83,1.57,2.74v0a2,2,0,0,1-2.1,2A3.84,3.84,0,0,1,200.62,17.94Z"/><path class="cls-5" d="M205.55,6.93h1V8.24h-1Zm0,2.85h1v8.45h-1Z"/><path class="cls-5" d="M207.77,17.94v-1a3.83,3.83,0,0,0,1.68.5,1.06,1.06,0,0,0,1.12-1.09v0c0-.53-.29-1-1.23-1.94-1.14-1.09-1.58-1.78-1.58-2.69v0a1.93,1.93,0,0,1,2-2,3.27,3.27,0,0,1,1.39.27v1a2.94,2.94,0,0,0-1.39-.35,1,1,0,0,0-1.06,1v0c0,.53.27.93,1.25,1.89,1.14,1.14,1.57,1.83,1.57,2.74v0a2,2,0,0,1-2.1,2A3.84,3.84,0,0,1,207.77,17.94Z"/><path class="cls-3" d="M178.42,205.13h3.94v1h-2.9v4.1h2.63v1h-2.62v4.18h2.94v1h-4Z"/><path class="cls-3" d="M185,212l-1.68-4.1h1l1.25,3.22,1.25-3.22h1L186.14,212l1.78,4.39h-1l-1.34-3.47-1.34,3.47h-1Z"/><path class="cls-3" d="M189.05,207.89h1v1.47c.32-.85.85-1.62,1.7-1.62,1.12,0,2.1,1.34,2.1,4.16v.42c0,2.79-1,4.16-2.1,4.16-.85,0-1.38-.77-1.7-1.6v3.54h-1Zm3.78,4.4v-.35c0-2.1-.59-3.27-1.36-3.27s-1.46,1.15-1.46,3.22v.45c0,2.07.71,3.22,1.46,3.22S192.83,214.38,192.83,212.29Z"/><path class="cls-3" d="M194.72,213.9v-.16c0-1.67.8-2.71,2.13-2.71a3.13,3.13,0,0,1,1.34.32v-.91c0-1.09-.51-1.71-1.5-1.71a3.16,3.16,0,0,0-1.52.38v-1a3.63,3.63,0,0,1,1.65-.37,2.25,2.25,0,0,1,2.37,2.56v6h-1V215.2a1.75,1.75,0,0,1-1.62,1.28C195.49,216.48,194.72,215.41,194.72,213.9Zm3.47-.1v-1.62a2.76,2.76,0,0,0-1.17-.3c-.86,0-1.33.72-1.33,1.79v.16c0,1.06.42,1.78,1.15,1.78S198.19,214.77,198.19,213.81Z"/><path class="cls-3" d="M200.64,207.89h1v1.18a1.85,1.85,0,0,1,1.68-1.33c1.12,0,1.84.94,1.84,2.54v6.05h-1v-5.87c0-1.18-.43-1.84-1.18-1.84s-1.34.77-1.34,1.94v5.78h-1Z"/><path class="cls-3" d="M206.37,212.32v-.42c0-2.79,1-4.16,2.08-4.16.85,0,1.38.77,1.7,1.6V205h1v11.3h-1v-1.47c-.32.85-.85,1.62-1.7,1.62C207.34,216.48,206.37,215.14,206.37,212.32Zm3.81,0v-.45c0-2.06-.7-3.22-1.46-3.22s-1.36,1.17-1.36,3.27v.35c0,2.1.59,3.27,1.36,3.27S210.18,214.4,210.18,212.34Z"/><path class="cls-3" d="M212.37,212.29v-.22c0-2.87,1.1-4.31,2.38-4.31s2.26,1.49,2.26,4.16v.64h-3.65c.06,2,.88,3,1.89,3a2.48,2.48,0,0,0,1.47-.53l.1,1a2.94,2.94,0,0,1-1.71.51C213.65,216.47,212.37,215.06,212.37,212.29Zm3.68-.56c0-1.81-.53-3.06-1.3-3.06s-1.34,1-1.39,3.06Z"/><path class="cls-3" d="M218,212.32v-.42c0-2.79,1-4.16,2.08-4.16.85,0,1.38.77,1.7,1.6V205h1v11.3h-1v-1.47c-.32.85-.85,1.62-1.7,1.62C219,216.48,218,215.14,218,212.32Zm3.81,0v-.45c0-2.06-.7-3.22-1.46-3.22s-1.36,1.17-1.36,3.27v.35c0,2.1.59,3.27,1.36,3.27S221.81,214.4,221.81,212.34Z"/><path class="cls-3" d="M229.12,212c-.21,0-.42,0-.62,0H228l-.85,4.35h-1l2.18-11.2h1.26a3.08,3.08,0,0,1,2.19.75,2.68,2.68,0,0,1,.75,2,4.15,4.15,0,0,1-1.17,3,3.58,3.58,0,0,1-1.22.8l1,4.64h-1.09Zm-.59-.9a2.57,2.57,0,0,0,2-.74,3.32,3.32,0,0,0,.88-2.4,1.9,1.9,0,0,0-.45-1.33,2,2,0,0,0-1.46-.5h-.38l-1,5Z"/><path class="cls-3" d="M236.4,205.08h1.12l.18,11.25h-1.06l0-2.9H234l-1.15,2.9h-1Zm.22,7.41,0-5.65-2.23,5.65Z"/><path class="cls-3" d="M238.64,215.6l.22-1.14a2.66,2.66,0,0,0,1.89,1,1.58,1.58,0,0,0,1.52-1.78,6,6,0,0,0-.93-2.66,6.93,6.93,0,0,1-1.14-3.33,2.79,2.79,0,0,1,.77-2,2.42,2.42,0,0,1,1.78-.72,2.89,2.89,0,0,1,1.84.69l-.21,1.14a2.44,2.44,0,0,0-1.66-.85,1.5,1.5,0,0,0-1.46,1.65,5.72,5.72,0,0,0,.86,2.56,7.29,7.29,0,0,1,1.18,3.39,3,3,0,0,1-.8,2.13,2.39,2.39,0,0,1-1.79.72A3.1,3.1,0,0,1,238.64,215.6Z"/><path class="cls-3" d="M247.05,213.9v-.16c0-1.67.8-2.71,2.13-2.71a3.13,3.13,0,0,1,1.34.32v-.91c0-1.09-.51-1.71-1.5-1.71a3.16,3.16,0,0,0-1.52.38v-1a3.64,3.64,0,0,1,1.65-.37,2.25,2.25,0,0,1,2.37,2.56v6h-1V215.2a1.75,1.75,0,0,1-1.62,1.28C247.82,216.48,247.05,215.41,247.05,213.9Zm3.47-.1v-1.62a2.76,2.76,0,0,0-1.17-.3c-.86,0-1.33.72-1.33,1.79v.16c0,1.06.42,1.78,1.15,1.78S250.53,214.77,250.53,213.81Z"/><path class="cls-3" d="M253,207.89h1v1.18a1.85,1.85,0,0,1,1.68-1.33c1.12,0,1.84.94,1.84,2.54v6.05h-1v-5.87c0-1.18-.43-1.84-1.18-1.84s-1.34.77-1.34,1.94v5.78h-1Z"/><path class="cls-3" d="M258.57,213.9v-.16c0-1.67.8-2.71,2.13-2.71a3.13,3.13,0,0,1,1.34.32v-.91c0-1.09-.51-1.71-1.5-1.71a3.16,3.16,0,0,0-1.52.38v-1a3.64,3.64,0,0,1,1.65-.37,2.25,2.25,0,0,1,2.37,2.56v6h-1V215.2a1.75,1.75,0,0,1-1.62,1.28C259.34,216.48,258.57,215.41,258.57,213.9Zm3.47-.1v-1.62a2.76,2.76,0,0,0-1.17-.3c-.86,0-1.33.72-1.33,1.79v.16c0,1.06.42,1.78,1.15,1.78S262,214.77,262,213.81Z"/><path class="cls-3" d="M264.56,205h1v11.3h-1Z"/><path class="cls-3" d="M268.72,216.19l-2-8.31h1l1.44,6.59,1.46-6.59h1l-2.5,10.53h-1Z"/><path class="cls-3" d="M272.36,216v-1a3.83,3.83,0,0,0,1.68.5,1.06,1.06,0,0,0,1.12-1.09v0c0-.53-.29-1-1.23-1.94-1.14-1.09-1.58-1.78-1.58-2.69v0a1.93,1.93,0,0,1,2-2,3.28,3.28,0,0,1,1.39.27v1a3,3,0,0,0-1.39-.35,1,1,0,0,0-1.06,1v0c0,.53.27.93,1.25,1.89,1.14,1.14,1.57,1.83,1.57,2.74v0a2,2,0,0,1-2.1,2A3.84,3.84,0,0,1,272.36,216Z"/><path class="cls-3" d="M277.29,205h1v1.31h-1Zm0,2.85h1v8.45h-1Z"/><path class="cls-3" d="M279.52,216v-1a3.83,3.83,0,0,0,1.68.5,1.06,1.06,0,0,0,1.12-1.09v0c0-.53-.29-1-1.23-1.94-1.14-1.09-1.58-1.78-1.58-2.69v0a1.93,1.93,0,0,1,2-2,3.27,3.27,0,0,1,1.39.27v1a2.94,2.94,0,0,0-1.39-.35,1,1,0,0,0-1.06,1v0c0,.53.27.93,1.25,1.89,1.14,1.14,1.57,1.83,1.57,2.74v0a2,2,0,0,1-2.1,2A3.84,3.84,0,0,1,279.52,216Z"/></g></g></svg>