<?xml version="1.0" encoding="utf-8"?>
<!-- Generator: Adobe Illustrator 19.0.1, SVG Export Plug-In . SVG Version: 6.00 Build 0)  -->
<svg version="1.1" id="LOGO" xmlns="http://www.w3.org/2000/svg" xmlns:xlink="http://www.w3.org/1999/xlink" x="0px" y="0px"
	 viewBox="0 0 783.6 426.3" style="enable-background:new 0 0 783.6 426.3;" xml:space="preserve">
<style type="text/css">
	.st0{fill:#FFFFFF;}
	.st1{fill:url(#SVGID_1_);}
	.st2{fill:url(#SVGID_2_);}
	.st3{fill:url(#SVGID_3_);}
	.st4{fill:url(#SVGID_4_);}
	.st5{fill:url(#SVGID_5_);}
</style>
<g>
	<g>
		<g>
			<path class="st0" d="M738.8,355.7c10-18.5,13.9-37,13.9-57c0-20.8-3.9-39-13.9-57.9h6.8c10.1,18.5,16.5,36.2,16.5,57.9
				c0,19.3-5.8,40.2-16.5,57H738.8z"/>
		</g>
		<g>
			<path class="st0" d="M143.3,355.7c-10.7-16.8-16.5-37.7-16.5-57c0-21.6,6.4-39.3,16.5-57.9h6.8c-10,18.9-13.9,37.1-13.9,57.9
				c0,20,3.9,38.5,13.9,57H143.3z"/>
		</g>
		<path class="st0" d="M165.6,264.7h0.3c3.2-4.3,6.8-6.6,12.7-6.6c18.8,0,20.1,23.8,20.1,39.8c0,17.8-0.5,41.4-19.3,41.4
			c-5.9,0-10.4-2.9-13.5-7.4h-0.3v36.2h-10.3V259.4h10.3V264.7z M188,297.9c0-12.1-0.2-31.6-12-31.6c-10.9,0-11.4,16.3-11.4,30.2
			c0,15.2,0.6,34.7,11.9,34.7C186,331.2,188,322.1,188,297.9z"/>
		<path class="st0" d="M248.3,338.1h-10.3V332h-0.3c-3,4.5-7.6,7.4-13.5,7.4c-13,0-19.3-7.1-19.3-41.4c0-17.7,0.6-39.8,20.3-39.8
			c5.7,0,9.3,2.3,12.5,6.6h0.3v-5.4h10.3V338.1z M227.6,266.3c-11.4,0-12,17.5-12,30.9c0,32.5,5.5,34.1,11.6,34.1
			c10,0,11.9-9.1,11.9-33.8C239,280.4,237.7,266.3,227.6,266.3z"/>
		<path class="st0" d="M269.7,265.7c4.1-4.6,9.7-7.5,16-7.5c14.4,0,15.7,12.9,15.7,23.6v56.3h-10.3v-55.3c0-9.4-0.6-16.6-9.2-16.6
			c-11.7,0-12.2,12.4-12.2,20.7v51.1h-10.3v-78.7h10.3V265.7z"/>
		<g>
			<path class="st0" d="M317.8,251.5c-3.6,0-6.6-2.9-6.6-6.4c0-3.4,3-6.3,6.6-6.3c3.5,0,6.5,2.9,6.5,6.3
				C324.2,248.6,321.3,251.5,317.8,251.5z"/>
			<rect x="312.5" y="259.4" class="st0" width="10.3" height="78.7"/>
		</g>
		<path class="st0" d="M380.6,259.4v49.4c0,10.7,0.6,21.2,10.8,21.2c10.4,0,10.9-10.4,11.1-21.2v-49.4h10.3v57.9
			c0,13.2-6.7,22.1-21.2,22.1c-14.4,0-21.2-8.7-21.2-22.1v-57.9H380.6z"/>
		<path class="st0" d="M433.4,266h0.3c3.6-4.6,9.2-7.8,15.4-7.8c6.6,0,12.3,3.4,15,9.4c4.3-5.8,9.3-9.4,16.8-9.4
			c15.2,0,16.5,11.7,16.5,23.3v56.6h-10.3v-56.3c0-7.5-0.8-15.5-9.2-15.5c-12.2,0-12.5,13.4-12.5,23.3v48.5h-10.3v-56.2
			c0-7.4-0.5-15.7-8.9-15.7c-12.5,0-12.8,15-12.8,25v46.8h-10.3v-78.7h10.3V266z"/>
		<path class="st0" d="M518.1,259.4v49.4c0,10.7,0.6,21.2,10.8,21.2c10.4,0,10.9-10.4,11.1-21.2v-49.4h10.3v57.9
			c0,13.2-6.7,22.1-21.2,22.1c-14.4,0-21.2-8.7-21.2-22.1v-57.9H518.1z"/>
		<path class="st0" d="M571,266h0.3c3.6-4.6,9.2-7.8,15.4-7.8c6.6,0,12.3,3.4,15,9.4c4.3-5.8,9.3-9.4,16.8-9.4
			c15.2,0,16.5,11.7,16.5,23.3v56.6h-10.3v-56.3c0-7.5-0.8-15.5-9.2-15.5c-12.2,0-12.5,13.4-12.5,23.3v48.5h-10.3v-56.2
			c0-7.4-0.5-15.7-8.9-15.7c-12.5,0-12.8,15-12.8,25v46.8h-10.3v-78.7H571V266z"/>
		<path class="st0" d="M687,338.1h-10.3V332h-0.3c-3,4.5-7.6,7.4-13.5,7.4c-13,0-19.3-7.1-19.3-41.4c0-17.7,0.6-39.8,20.3-39.8
			c5.7,0,9.3,2.3,12.5,6.6h0.3v-5.4H687V338.1z M666.3,266.3c-11.4,0-12,17.5-12,30.9c0,32.5,5.5,34.1,11.6,34.1
			c10,0,11.9-9.1,11.9-33.8C677.7,280.4,676.4,266.3,666.3,266.3z"/>
		<path class="st0" d="M698.1,231.5h10.3v33.3h0.3c3-4.5,6.8-6.6,12.7-6.6c18.8,0,20.1,21.9,20.1,39.8c0,19.9-1.6,41.4-19.3,41.4
			c-5.9,0-10.4-2.9-13.5-7.4h-0.3v6.1h-10.3V231.5z M730.9,297.1c0-18-1.7-30.9-12-30.9c-12.5,0-11.4,23.2-11.4,30.2
			c0,9.7-1.3,34.7,11.9,34.7C727.7,331.2,730.9,324.1,730.9,297.1z"/>
	</g>
	<g>
		<path class="st0" d="M359.2,330.8c-6.7,0-9.8-2.4-9.8-9.7v-53.4h11.9v-8.3h-11.9v-18.8h-10.3v18.8h-7.6v8.3h7.6v55.6
			c0,12.2,5.3,16,19.2,16c1.1,0,2.1,0,3-0.1v-8.7C360.6,330.7,359.9,330.8,359.2,330.8z"/>
	</g>
</g>
<path class="st0" d="M185.2,174.8l44.6-112.3H250l-64.8,158.6l-65.1-159h20.2L185.2,174.8z"/>
<path class="st0" d="M239.9,173.1c0.2,18.6,13.4,33.5,32.9,33.5c14.5,0,23.9-8.7,30.5-20.7l14.5,8.3c-9.6,17.9-25.8,28.2-46.3,28.2
	c-29.9,0-49.1-22.8-49.1-51.6c0-29.7,17.3-54.2,48.7-54.2c32.2,0,49.3,26.7,47.6,56.6H239.9z M300.7,158.6
	c-2.4-14.5-14.5-26.3-29.5-26.3c-14.7,0-28.4,11.7-30.5,26.3H300.7z"/>
<path class="st0" d="M410.6,149.2h-0.4c-7.9-10-17.7-16.9-31.2-16.9c-20.7,0-35.4,17.1-35.4,37.1c0,19.8,13.7,37.1,34.6,37.1
	c14.3,0,24.3-6.4,32.6-17.3h0.4v22.8c-9.8,6.6-19.9,10.2-31.8,10.2c-30.3,0-53.4-22.6-53.4-52.9c0-29.9,24.1-52.9,53.6-52.9
	c10.9,0,22,3.6,30.9,10V149.2z"/>
<path class="st0" d="M519.2,64.6h17.1v69h0.4c8.1-10.7,20.7-17.1,34.4-17.1c29.9,0,48.2,24.5,48.2,52.9c0,28-18.6,52.9-48,52.9
	c-13.9,0-26.5-5.8-34.6-16.6h-0.4v13.9h-17.1V64.6z M535.4,168.4c0,19.6,11.5,38.2,32.9,38.2c22,0,33.5-17.7,33.5-38
	c0-20.1-12.6-36.3-33.7-36.3C548.2,132.4,535.4,149.7,535.4,168.4z"/>
<path class="st0" d="M658.3,119.3h20.9l26.2,34.1l26.3-34.1h21.3l-36.7,46.9l41.6,53.4h-20.7l-31.8-40.8l-32,40.8h-21.3l42.7-53.4
	L658.3,119.3z"/>
<g>
	<path class="st0" d="M433.6,196.6v-61.4h-12.4v-15.8h12.4V93.9h17.1v25.4h20.8v15.8h-20.8v60.1h0c0,2,0.2,3.6,0.5,4.8
		c0.3,1.2,1,2.1,1.9,2.8c0.9,0.7,2.3,1.1,3.9,1.3c1.7,0.2,3.9,0.3,6.6,0.3h7.9v15.1h-13.1c-4.4,0-8.2-0.3-11.4-0.9
		c-3.2-0.6-5.7-1.7-7.7-3.3c-1.9-1.6-3.4-3.9-4.3-6.8c-0.9-3-1.4-6.8-1.4-11.7"/>
</g>
<g>
	<rect x="486.7" y="119.3" class="st0" width="17.1" height="100.3"/>
</g>
<g>
	<rect x="627.9" y="119.3" class="st0" width="17.1" height="100.3"/>
</g>
<path class="st0" d="M504.4,102.9c0,5-4.1,9.1-9.1,9.1c-5,0-9.1-4.1-9.1-9.1c0-5,4.1-9.1,9.1-9.1C500.3,93.8,504.4,97.8,504.4,102.9
	z"/>
<path class="st0" d="M645.5,102.9c0,5-4.1,9.1-9.1,9.1c-5,0-9.1-4.1-9.1-9.1c0-5,4.1-9.1,9.1-9.1C641.5,93.8,645.5,97.8,645.5,102.9
	z"/>
<g>
	<linearGradient id="SVGID_1_" gradientUnits="userSpaceOnUse" x1="116.125" y1="91.4044" x2="21.0035" y2="227.3691">
		<stop  offset="0" style="stop-color:#036CAB"/>
		<stop  offset="0.1966" style="stop-color:#00A5D9"/>
		<stop  offset="0.4101" style="stop-color:#6DC9E8"/>
		<stop  offset="0.6517" style="stop-color:#BCE3F3"/>
		<stop  offset="0.7528" style="stop-color:#6DC9E8"/>
		<stop  offset="0.8876" style="stop-color:#00A5D9"/>
		<stop  offset="1" style="stop-color:#036CAB"/>
	</linearGradient>
	<path class="st1" d="M70.8,134.3c0-0.6-0.1-0.9-0.5-1.3l-3.2-2.9c-0.3-0.3-0.3-0.8,0-1.1L104,90.8c0.3-0.3,0.3-0.8,0-1.1L88,74.2
		c-0.3-0.3-0.8-0.3-1.1,0l-10.4,11c-0.3,0.3-0.3,0.8,0,1.1l3.6,3.6c0.3,0.3,0.3,0.8,0,1.1l-31.3,32.3c-0.3,0.3-0.5,0.9-0.5,1.3
		l9.2,95.6c0,0.4,0.4,0.8,0.9,0.8h11.6c0.4,0,0.8-0.3,0.8-0.8V134.3z"/>
	<linearGradient id="SVGID_2_" gradientUnits="userSpaceOnUse" x1="150.8935" y1="-6.2777" x2="48.767" y2="97.461">
		<stop  offset="0" style="stop-color:#FAA83A"/>
		<stop  offset="0.2978" style="stop-color:#FCC882"/>
		<stop  offset="0.5843" style="stop-color:#FFE6C1"/>
		<stop  offset="0.8315" style="stop-color:#FCB316"/>
		<stop  offset="1" style="stop-color:#F78F20"/>
	</linearGradient>
	<path class="st2" d="M148.4,0h-12c-0.4,0-1,0.2-1.3,0.5L44,85.8c-0.3,0.3-0.3,0.8,0,1.1l14.9,15.8c0.3,0.3,0.8,0.3,1.1,0l10.4-10.8
		c0.3-0.3,0.3-0.8,0-1.1l-3.6-3.5c-0.3-0.3-0.3-0.8,0-1.1c0,0,81.8-85.4,81.9-85.6C148.9,0.3,148.8,0,148.4,0z"/>
	<linearGradient id="SVGID_3_" gradientUnits="userSpaceOnUse" x1="107.3651" y1="116.5418" x2="63.7251" y2="224.8335">
		<stop  offset="9.550560e-002" style="stop-color:#F78E23"/>
		<stop  offset="0.2978" style="stop-color:#FCC882"/>
		<stop  offset="0.4551" style="stop-color:#FFE6C1"/>
		<stop  offset="0.8315" style="stop-color:#FCB316"/>
		<stop  offset="1" style="stop-color:#F78F20"/>
	</linearGradient>
	<path class="st3" d="M75.5,129.5c-0.4,0.4-0.3,0.7,0,1.1l2.3,3c0.3,0.3,0.4,0.6,0.4,1.1l0,85.6c0,0.4,0.3,0.8,0.8,0.8h12.4
		c0.4,0,0.8-0.3,0.8-0.8l6.1-94.6c0-0.4-0.2-1-0.5-1.3l-7.7-8.9c-0.3-0.3-0.8-0.3-1.1,0L75.5,129.5z"/>
	<linearGradient id="SVGID_4_" gradientUnits="userSpaceOnUse" x1="66.452" y1="29.8631" x2="88.2193" y2="-4.8032">
		<stop  offset="0" style="stop-color:#F9A61C"/>
		<stop  offset="0.4831" style="stop-color:#FFE2B0"/>
		<stop  offset="1" style="stop-color:#FEC763"/>
	</linearGradient>
	<path class="st4" d="M90.5,19c0,9.5-7.7,17.3-17.3,17.3C63.7,36.3,56,28.6,56,19c0-9.5,7.8-17.3,17.3-17.3
		C82.8,1.7,90.5,9.5,90.5,19z"/>
	<linearGradient id="SVGID_5_" gradientUnits="userSpaceOnUse" x1="-0.8128" y1="-4.9023" x2="63.1219" y2="60.6583">
		<stop  offset="0.1798" style="stop-color:#14BBE3"/>
		<stop  offset="0.5618" style="stop-color:#A6DBF0"/>
		<stop  offset="0.6745" style="stop-color:#8BC5E4"/>
		<stop  offset="0.9163" style="stop-color:#419CCF"/>
		<stop  offset="1" style="stop-color:#068FC7"/>
	</linearGradient>
	<path class="st5" d="M0.2,0.6C-0.1,0.3,0,0,0.4,0h11.2c0.4,0,1,0.2,1.3,0.5l55,53.1c0.3,0.3,0.3,0.8,0,1.1L56.8,65.1
		c-0.3,0.3-0.8,0.3-1.1-0.1L0.2,0.6z"/>
</g>
<g>
	<path class="st0" d="M760.9,130.3c0-6.9,5.4-11,11.3-11c5.9,0,11.3,4.1,11.3,11c0,6.9-5.4,11-11.3,11
		C766.3,141.3,760.9,137.2,760.9,130.3z M772.2,121.4c-4.7,0-8.4,3.6-8.4,8.9c0,5.3,3.7,8.9,8.4,8.9c4.6,0,8.4-3.6,8.4-8.9
		C780.6,125,776.8,121.4,772.2,121.4z M770.3,136.3h-2.6v-12.1h4.5c3.1,0,4.9,0.9,4.9,3.7c0,2.2-1.3,3.1-3.3,3.2l3.1,5.2h-2.6
		l-2.8-5.1h-1.2V136.3z M770.3,129.2h2.3c1.4,0,2-0.7,2-1.6c0-1.1-0.8-1.4-2.1-1.4h-2.2V129.2z"/>
</g>
<g>
	<path class="st0" d="M313.4,377.4h5.9v38.9h-5.9V377.4z"/>
	<path class="st0" d="M324.7,387h5.2v3.4h0.2c1.4-2.6,4-4.2,7.1-4.2c4.2,0,6.9,2,6.9,8v22.1h-5.5v-20.1c0-3.8-1.1-5.3-3.9-5.3
		c-2.3,0-4.4,1.9-4.4,5.7v19.7h-5.5V387z"/>
	<path class="st0" d="M355.2,387v31.2c0,6.1-2.4,8.1-7.3,8.1c-0.8,0-1.6-0.1-2.4-0.2v-4.5h1.3c2.1,0,2.9-0.9,2.9-4V387H355.2z"/>
	<path class="st0" d="M365.6,402.4v1.7c0,3.9,0.5,8.9,4.6,8.9c4,0,4.4-4.8,4.4-6.5h5.2c0,6.5-3.7,10.6-9.7,10.6
		c-4.5,0-10.1-1.4-10.1-15c0-7.7,1.5-15.8,10.2-15.8c7.7,0,9.8,4.9,9.8,13.1v3.1H365.6z M374.4,398.3v-1.6c0-3.7-1.1-6.5-4.3-6.5
		c-3.5,0-4.6,3.7-4.6,7.5v0.6H374.4z"/>
	<path class="st0" d="M403.2,405.6c-0.4,7-2.6,11.4-9.4,11.4c-8,0-10.3-6.3-10.3-15.4c0-9.1,2.3-15.4,10.3-15.4
		c8.3-0.1,9.5,6.9,9.5,10.5h-5.5c0-2.7-0.7-6.3-4-6.2c-4,0-4.7,4.6-4.7,11.1c0,6.5,0.7,11.1,4.7,11.1c3.1,0.1,4.2-2.7,4.2-7.1H403.2
		z"/>
	<path class="st0" d="M404.9,387h3.8v-8.3h5.5v8.3h4.5v4.4h-4.5v17.5c0,2.3,0.6,3.1,2.5,3.1c0.8,0,1.5-0.1,2-0.2v4.4
		c-1.2,0.3-2.7,0.5-4.5,0.5c-3.7,0-5.6-1.1-5.6-7.1v-18.2h-3.8V387z"/>
	<path class="st0" d="M421.9,387h5.5v29.3h-5.5V387z"/>
	<path class="st0" d="M442.2,386.2c8.1,0,10.3,6.3,10.3,15.4c0,9.1-2.6,15.4-10.3,15.4c-7.7,0-10.3-6.3-10.3-15.4
		C432,392.5,434.2,386.2,442.2,386.2z M442.2,412.7c4.1,0,4.8-3.6,4.8-11.1c0-6.5-0.7-11.1-4.8-11.1c-4,0-4.7,4.6-4.7,11.1
		C437.5,409.1,438.2,412.7,442.2,412.7z"/>
	<path class="st0" d="M456.8,387h5.2v3.4h0.2c1.4-2.6,4-4.2,7.1-4.2c4.2,0,6.9,2,6.9,8v22.1h-5.5v-20.1c0-3.8-1.1-5.3-3.8-5.3
		c-2.3,0-4.4,1.9-4.4,5.7v19.7h-5.5V387z"/>
	<path class="st0" d="M495.5,391.3h-3.8V387h3.8v-2.7c0-5.6,2.5-7.3,7-7.3c1.2,0,2.2,0.1,3,0.2v4.5H504c-2.1,0-3,0.8-3,2.8v2.6h4.5
		v4.4h-4.5v24.9h-5.5V391.3z"/>
	<path class="st0" d="M517.3,386.2c8.1,0,10.3,6.3,10.3,15.4c0,9.1-2.6,15.4-10.3,15.4c-7.7,0-10.3-6.3-10.3-15.4
		C507,392.5,509.3,386.2,517.3,386.2z M517.3,412.7c4.1,0,4.8-3.6,4.8-11.1c0-6.5-0.7-11.1-4.8-11.1c-4,0-4.7,4.6-4.7,11.1
		C512.6,409.1,513.3,412.7,517.3,412.7z"/>
	<path class="st0" d="M531.9,387h5.5v4.6h0.1c1.2-3.3,3.3-5.3,6.4-5.3c0.6,0,1,0.1,1.3,0.2v6c-0.4-0.1-1.4-0.3-2.3-0.3
		c-2.5,0-5.5,1.2-5.5,6.6v17.5h-5.5V387z"/>
	<path class="st0" d="M560.5,377.4h5.9v38.9h-5.9V377.4z"/>
	<path class="st0" d="M568.8,377.4h6.2l6.2,31h0.1l6.6-31h6.2l-9.2,38.9h-7.4L568.8,377.4z"/>
	<path class="st0" d="M608.9,377.4h5.9v38.9h-5.9V377.4z"/>
	<path class="st0" d="M620.2,387h5.2v3.4h0.2c1.4-2.6,4-4.2,7.1-4.2c4.2,0,6.9,2,6.9,8v22.1H634v-20.1c0-3.8-1.1-5.3-3.9-5.3
		c-2.3,0-4.4,1.9-4.4,5.7v19.7h-5.5V387z"/>
	<path class="st0" d="M646.6,391.3h-3.8V387h3.8v-2.7c0-5.6,2.5-7.3,7-7.3c1.2,0,2.2,0.1,3,0.2v4.5h-1.5c-2.1,0-3,0.8-3,2.8v2.6h4.5
		v4.4h-4.5v24.9h-5.5V391.3z"/>
	<path class="st0" d="M673.3,412.8h-0.2c-1.4,2.6-4,4.2-7.1,4.2c-4.1,0-6.9-2-6.9-9.6V387h5.5v21c0,3.3,1.4,4.4,3.8,4.4
		c2.4,0,4.5-1.6,4.5-4.9V387h5.5v29.3h-5.2V412.8z"/>
	<path class="st0" d="M695.8,395.5v-0.8c0-2.3-0.8-4.5-3.7-4.5c-2.2,0-4,1.1-4,3.8c0,2.3,1,3.2,3.9,4.3l3.5,1.3c4.1,1.5,6,3.8,6,8.4
		c0,6.3-4.3,8.9-9.9,8.9c-7,0-9.1-3.4-9.1-9.1v-1.1h4.9v0.9c0,3.4,1.1,5.2,4.3,5.2c3,0,4.5-1.6,4.5-4.3c0-2.2-1.1-3.6-3-4.3
		l-4.5-1.7c-4.2-1.5-5.9-3.8-5.9-8.4c0-5.5,3.7-8.1,9.4-8.1c7,0,8.6,4.4,8.6,8v1.3H695.8z"/>
	<path class="st0" d="M706,387h5.5v29.3H706V387z"/>
	<path class="st0" d="M726.3,386.2c8.1,0,10.3,6.3,10.3,15.4c0,9.1-2.6,15.4-10.3,15.4c-7.6,0-10.3-6.3-10.3-15.4
		C716,392.5,718.3,386.2,726.3,386.2z M726.3,412.7c4.1,0,4.8-3.6,4.8-11.1c0-6.5-0.7-11.1-4.8-11.1c-4,0-4.7,4.6-4.7,11.1
		C721.6,409.1,722.3,412.7,726.3,412.7z"/>
	<path class="st0" d="M740.9,387h5.2v3.4h0.2c1.4-2.6,4-4.2,7.1-4.2c4.2,0,6.9,2,6.9,8v22.1h-5.5v-20.1c0-3.8-1.1-5.3-3.9-5.3
		c-2.3,0-4.4,1.9-4.4,5.7v19.7h-5.5V387z"/>
</g>
<g>
	<path class="st0" d="M355.7,380.4c0,1.8-1.5,3.3-3.3,3.3c-1.8,0-3.2-1.5-3.2-3.3c0-1.8,1.5-3.2,3.2-3.2
		C354.3,377.2,355.7,378.6,355.7,380.4z"/>
</g>
<path class="st0" d="M428.1,380.4c0,1.8-1.5,3.3-3.3,3.3c-1.8,0-3.2-1.5-3.2-3.3c0-1.8,1.4-3.2,3.2-3.2
	C426.6,377.2,428.1,378.6,428.1,380.4z"/>
<path class="st0" d="M712,380.4c0,1.8-1.5,3.3-3.3,3.3c-1.8,0-3.2-1.5-3.2-3.3c0-1.8,1.4-3.2,3.2-3.2
	C710.6,377.2,712,378.6,712,380.4z"/>
</svg>
